<svg xmlns="http://www.w3.org/2000/svg" xmlns:xlink="http://www.w3.org/1999/xlink" viewBox="0 0 2500 2000"><defs><path id="a" d="M267.2 1442.8c-105.8-158.7-68.9-324.5 220.7-471S895.1 552 981.4 436.6c86.2-115.4 295.7-161.6 579.1 43.3s816.2 643.6 683.8 972.6-568.4 321.3-884.5 268.4c-310.6-51.9-466.3-133.6-635.7-124.9s-386.1-47-456.9-153.2z" class="js-blob-mask" data-blob-array="M284.6,1405.9c-105.8-158.7-86.3-287.6,203.3-434.1S895.1,552,981.4,436.6 c86.2-115.4,356.5-151.6,639.9,53.3s755.4,633.6,623,962.6s-649.1,311.6-965.2,258.7c-310.6-51.9-385.6-123.9-555-115.2 S355.4,1512.1,284.6,1405.9z;M284.6,1405.9c-105.8-158.7-86.3-287.6,203.3-434.1c447.9-159,407.2-419.8,493.5-535.2 c86.2-115.4,325.9-100.7,639.9,53.3c347.1,170.2,800.1,609.2,623,962.6c-158.9,317.1-303,350.4-822.4,241.4 c-310.6-51.9-528.4-106.6-697.8-97.9S355.4,1512.1,284.6,1405.9z;M284.6,1405.9c-105.8-158.7-141.4-340.6,148.2-487.1c447.9-159,462.3-366.8,548.6-482.2 c86.2-115.4,470-252.4,639.9,53.3c134.2,241.4,800.1,609.2,623,962.6c-158.9,317.1-225.2,316.6-744.7,207.6 c-310.6-51.9-606.1-72.8-775.5-64.1S355.4,1512.1,284.6,1405.9z"/></defs><clipPath id="b"><use overflow="visible" xlink:href="#a"/></clipPath><path fill="#ffe2e1" d="M134 250h2246v1508.8H134V250z" clip-path="url(#b)"/><defs><path id="c" d="M267.2 1442.8c-105.8-158.7-68.9-324.5 220.7-471S895.1 552 981.4 436.6c86.2-115.4 295.7-161.6 579.1 43.3s816.2 643.6 683.8 972.6-568.4 321.3-884.5 268.4c-310.6-51.9-466.3-133.6-635.7-124.9s-386.1-47-456.9-153.2z"/></defs><clipPath id="d"><use overflow="visible" xlink:href="#c"/></clipPath><g clip-path="url(#d)"><path fill="#ff3f3d" d="M1551.6 579.5h381.3v457h-381.3v-457z" opacity=".08"/><path fill="#ffe2e1" d="M1570.5 602.3v58.9c37.1-13 76.6-21.2 116.2-14.3 76.4 12.7 153.4 34.7 227.3 23.8v-68.4h-343.5zm311.8 135c-34.8 19.9-73.8 29-114.4 21.6-69.5-12.9-135.6-27.6-197.4-56.9v71.5c45 3.2 93.2 24.1 136.1 35.1 69.7 18.2 146 34 207.3-14.9l.1-.1v-73.3c-10.5 5.4-21 11-31.7 17zm-76.2 175c-37.3 3.3-74.6-1.7-108.6-16.6-44.8-19.1-80.4-52.2-123.6-77.1-1.1-.7-2.3-1.3-3.4-1.9V958c18.1-9.1 37.9-14.6 58.9-10.9 72.1 11.6 147.6 25.7 213.1-18.2 25.2-16.8 48.2-32.6 71.4-48.3v-36.1c-19.3 14.5-39 29.2-59.8 43.7-14.9 10.8-29.8 21.6-48 24.1z"/></g><defs><path id="e" d="M267.2 1442.8c-105.8-158.7-68.9-324.5 220.7-471S895.1 552 981.4 436.6c86.2-115.4 295.7-161.6 579.1 43.3s816.2 643.6 683.8 972.6-568.4 321.3-884.5 268.4c-310.6-51.9-466.3-133.6-635.7-124.9s-386.1-47-456.9-153.2z"/></defs><clipPath id="f"><use overflow="visible" xlink:href="#e"/></clipPath><g clip-path="url(#f)"><path fill="#ff3f3d" d="M1440.9 632.1c-26.9-30.1-66.1-49-109.6-49H93c-40.6 0-77.4 16.5-104 43.1s-43.1 63.4-43.1 104v994.2h1532.7V730.2c-.2-37.7-14.4-72-37.7-98.1z" opacity=".08"/><path fill="#ffe2e1" d="M1445.2 631.2c-26.6-29.7-65.3-48.5-108.4-48.5h-63.2l-64.5 65.7h219.4l16.7-17.2zm-368.8 152.5l-362.1 369.2v236.6l362.1-375.7V783.7zm-909.8 927.5h237.7L689.8 1415v-237.1l-523.2 533.3zM1192.2 665.7l-94.1 96v229.6l313.8-325.6h-219.7zM643.8 1711.2h256.1l176.5-213.1v-263.5l-432.6 476.6zm838.5-923.7l-384.2 423.3V1472l384.2-463.8V787.5zm-16 705.2l-187.2 218.5h187.2v-218.5z"/><path fill="#ffe2e1" d="M-40.1 642.4h1495.4V653H-40.1v-10.6z"/><path fill="#ffe2e1" d="M1092.7 576.4h10.6v1148.1h-10.6V576.4zm-380.5 6.7h10.6v1141.4h-10.6V583.1zm-380.4 0h10.6v1141.4h-10.6V583.1z"/></g><path fill="#2d2c2f" d="M1624.1 1438.2s-28.6-19.6-123.3-19.6c-80 0-145.1 19.6-145.1 19.6-10 32.5-20.7 129.2-29.7 255.7h127.7c9.6-49.4 19.7-80.7 34.5-85.1 19.9-5.8 33.3 35.3 43.6 85.1h120c-9.7-122.4-27.7-255.7-27.7-255.7zm-839 131.7c0-177-132.6-305.9-149.9-379s55.8-108.3 40.4-166.7c-15.4-58.4-113.5-93-100-200.7s1.4-112.6-28.1-107.7c-41.1 6.7-112.3 157-46.9 300.7s55.8 179.1-3.8 236.4c-59.6 57.3-61.6 317-61.6 317h349.9"/><path fill="#242326" d="M555.4 906.2c-8.9-60.1 2.7-118.6 23.4-174.9 3.8 15.1 2.9 42.9-3.2 92.1-8.9 71.6 31.4 110.9 63.9 146.3-7.7-3.9-15.8-6.9-23.5-10.7-25-12.4-56.8-23.9-60.6-52.8zm-58.7 346.7c54.1-62.6 69.3-92.7 3.8-236.4-7.9-17.3-13.8-34.8-18-52 17.2 12.1 35.7 23 53.6 34.1 41.4 24 52.9 68.3 43.3 112.5-22.1 101-45.2 196.2-39.4 297.2 1.9 31.7-1 67.3 22.1 93.3 19.8 23.8 41.6 43.7 57.8 68.3H435.2s-51.3-186.4 61.5-317z"/><path fill="#4b4a4c" d="M621.9 1571.4c-.6 0-1.2-.4-1.4-1-2.5-7.3-7.3-16.9-13.4-28.9-22.4-44.3-59.9-118.4-49.3-218.9 4.9-46.1 18.2-87.2 30-123.4 21-64.8 39.2-120.7 3.9-182-54-93.7-74.9-223.9-47.5-296.3.3-.7 1.1-1.1 1.9-.8.7.3 1.1 1.1.8 1.9-12.8 33.9-15.3 82.3-7 136.5 8.6 55.6 27.8 111.5 54.3 157.3 36 62.4 17.6 118.9-3.6 184.3-12.3 37.8-25 77-29.8 122.8-10.5 99.6 26.7 173.3 49 217.3 6.2 12.2 11 21.8 13.6 29.3.3.8-.1 1.6-.9 1.8-.3.1-.5.1-.6.1z"/><path fill="#4b4a4c" d="M605.3 1091.6c-15.1 0-37.8-6.1-67-31.7-19.4-17-32.7-34.8-32.8-35-.5-.6-.3-1.5.3-2s1.5-.3 2 .3c.5.7 52.5 69.9 102.2 65.3.8-.1 1.5.5 1.6 1.3s-.5 1.5-1.3 1.6c-1.6.1-3.2.2-5 .2zm-37.7-126.5c-.3 0-.6-.1-.9-.3-.6-.5-.8-1.4-.3-2 13.7-18 10.6-71.3 10.6-71.8 0-.8.6-1.5 1.4-1.5.8-.1 1.5.6 1.5 1.4.1 2.2 3.2 54.9-11.2 73.7-.2.3-.6.5-1.1.5zm-32.4-124.8c-.3 0-.5-.1-.8-.2-1.3-.9-32.9-22.1-38.4-53-.1-.8.4-1.5 1.2-1.7.8-.1 1.5.4 1.7 1.2 5.3 29.7 36.9 50.9 37.2 51.1.7.4.8 1.3.4 2-.4.4-.9.6-1.3.6zm34.6 426.2c-.6 0-1.2-.4-1.4-1-.2-.8.2-1.6.9-1.8 40.6-13.2 74.2-41.8 74.5-42 .6-.5 1.5-.4 2 .2s.4 1.5-.2 2c-.3.3-34.4 29.2-75.5 42.6 0-.1-.1 0-.3 0zm2 196.4c-19.7 0-49.4-7.4-83.1-40.7-20.9-20.7-33.6-41.9-33.8-42.1-.4-.7-.2-1.6.5-2s1.6-.2 2 .5c.1.2 12.7 21.1 33.4 41.5 19 18.7 48.8 40.8 83.3 39.8.8 0 1.5.6 1.5 1.4s-.6 1.5-1.4 1.5c-.8.1-1.6.1-2.4.1z"/><path fill="#242326" d="M803.6 1496.9c29.6-19.4 45.5-62.2 55.7-93.9 16.4-52.3-36.6-116.2-12.9-167.2-13.4 15.3-24.5 33.2-32.2 49.9-19.9 43.4-47.2 140.8-94.9 166.6-97 52.5-104.5 117.9-104.5 117.9h112.8c10.9-35.5 44.2-51.4 76-73.3z"/><path fill="#2d2c2f" d="M976.9 1472.2c-5.4-2.9-11.2-5.8-17-8.8-33.8-17.5-68.9-40-41.4-101.3 32.2-71.9 50.6-159.8 4.6-165.3-28.3-3.4-55.4 14.6-76.7 38.9-23.7 51-27.5 116.8-43.8 169.1-10.2 31.7-22.5 63.4-52.1 82.8-31.9 21.8-62.9 46.9-73.6 82.5h350.5c0 .1-13.7-78.2-50.5-97.9z"/><path fill="#4b4a4c" d="M797.5 1571.4c-.6 0-1.2-.4-1.4-1.1-.2-.6-16.2-60.1 4.1-151.4 10.9-49.3 37.8-86.6 63.7-122.8 22.5-31.4 43.8-61 52.3-95.6.2-.8 1-1.2 1.7-1.1.8.2 1.2 1 1.1 1.7-8.7 35.2-30.1 65-52.8 96.6-25.8 35.9-52.4 73-63.2 121.7-20.1 90.5-4.3 149.4-4.1 150 .2.8-.2 1.6-1 1.8-.2.2-.3.2-.4.2z"/><path fill="#4b4a4c" d="M861 1304c-.7 0-1.2-.4-1.4-1.1-.2-.8.3-1.6 1.1-1.7.5-.1 47.5-11.2 73.1-21.6.7-.3 1.6.1 1.9.8.3.7-.1 1.6-.8 1.9-25.8 10.5-73 21.7-73.5 21.8-.2-.1-.3-.1-.4-.1zm-116.2 267.4c-.2 0-.4 0-.6-.1-13.1-5.8-33.9-18.5-58.8-46.5-14.8-16.7-24.2-31.2-24.3-31.3-.4-.7-.2-1.6.4-2 .7-.4 1.6-.2 2 .4s37.3 57.1 81.9 76.7c.7.3 1.1 1.2.7 1.9-.2.6-.7.9-1.3.9zm46.5-56.2c-.8 0-1.4-.6-1.4-1.4s.6-1.4 1.4-1.4c43.5 0 97.3-44.3 118.5-63.3.6-.5 1.5-.5 2 .1s.5 1.5-.1 2c-12.1 10.9-31.1 26.7-52.5 40-25.9 15.9-48.8 24-67.9 24z"/><path fill="#fff" d="M2158.9 1758.8H341.1c-109 0-197.4-88.4-197.4-197.4h2212.6c0 109.1-88.4 197.4-197.4 197.4z"/><path fill="#ffe2e1" d="M1571.8 1655.4c36.6 0 196.2 37 260.4 20.3 39.1-10.2 175.7-4.9 165.4-15.3-10.3-10.4-75.1-29.4-88.5-32.2-13.4-2.8-314.9-14.8-327.8-14-13 .8-83.9-38.5-92.5-42.7-8.7-4.1-32.5-10-32.5-10h-136.7c-10.3 0 39 20.2 72 21.9 62.8 3.3 152 72 180.2 72z"/><path fill="#4b4a4c" d="M1628.7 1319.6c-32.9-66.3-73-338.6-25.7-321.9 23.2 8.2 82.6 43.2 87.3 84.2 8.8 76.6-1.2 160.3 11.7 164.9 22.2-7.1 46.3 67.8 45.5 69.8s6.7 7.1-2.9 30.2c-35.3 71.9-105.3 61.2-104 13.9.1-4.9-9.8-36.9-11.9-41.1z"/><path fill="#424144" d="M1706.1 1249.9c-72.2 34.1-65.6 110.7-65.6 110.7s-8.2-30.3-10.1-35.7c-1.8-5.3-8.2-161.8-13.3-195.4 0 0 16.9-8.4 26 35.1 4.9 23.2-3.6 56.5 1.6 82.8 1.7 8.4 6.5 20.8 13.9 16.6 39.7-22.1 47.5-14.1 47.5-14.1z"/><path fill="#4b4a4c" d="M1346.9 1469.7c-2.4-34 4.3-76.6 9.6-121.3s8.5-107.5-4.8-135.2-78.2-146.9-42-178.8 121.3-67.1 195.8-67.1 146.9 64.9 158.6 73.4-21.3 186.3-26.6 207.5c-5.3 21.3 9.6 196.9-4.3 226.7-2.1 4.6-50.2 40.3-118.9 44.2l-.4 12c-.1 2.3-2.1 4.1-4.4 4-68.5-2.9-162.1-58.3-162.6-65.4z"/><path fill="#424144" d="M1431.9 1393c8.7-7.6 11-16.6 2.9-32.8 2.4-26.2-23-51.5-30.2-92.7-11.2-61.6 11.4-100-13-139.3 13.2 34.5-46.1 72.1-39.9 84.9 13.3 27.7 10.1 90.5 4.8 135.2-5.3 44.7-12 87.4-9.6 121.3.3 3.6 23.9 19.2 56 34.4 12.6-1.6 74.1 33.2 85.9 28.1 0 .1-14.7-68-56.9-139.1zm66.7-348.9c3.3 37.8 4.7 130.4 5.9 157.4 1.2 27 .5 132.7-2.4 163.2s-3.7 169.6-3.7 169.6l12.8.9c1.4.1 2.6-1 2.6-2.4.6-14.8 3.4-90.7 4.5-115.6 2.6-59.7 7.4-157.7 4.6-216.8s-8.6-194.7-8.6-194.7h-18.9c0-.1 2 25 3.2 38.4z"/><path fill="#ff6f68" d="M1560.4 1625.2l-99-53c-.8-.5-1.9-.2-2.4.6-1.3 1.9-1.4 4.3-.4 6.3.6 1.1 1.5 2 2.5 2.6l98.8 52.9c.5.2 1 .4 1.5.4l354.1 1.7c1.5 0 3-.8 3.7-2.1l.4-.7c.8-1.3.8-3 0-4.3-.8-1.4-2.2-2.2-3.7-2.2l-354-1.7c-.6-.1-1.1-.3-1.5-.5z"/><path fill="#ff3f3d" d="M1460.7 1572.2l99.7 53c.5.2 1 .4 1.5.4l355.3 2.6c.3 0 .4-.5.1-.6l-122.9-55.6c-.8-.4-1.6-.5-2.5-.5l-331.1.5c-.2-.1-.3.1-.1.2z"/><path fill="#ff6f68" d="M1317.9 1417.9c16.3 21.1 116.1 125.7 148.1 152 32.1 26.3 51.8-3.8 32.3-35.6-19.5-31.7-80.1-134.7-86.4-146.1-6.2-11.4-118.6-2.2-94 29.7z"/><path fill="#ff3f3d" d="M1356.5 1418.6c1.3-11.2 26.5-24.2 64.1-15.4-1.3-2.3-8.1-14-8.6-14.9-6.3-11.4-118.7-2.2-94.1 29.7 9 11.7 43.4 48.7 77.8 84 7.2 2.1-41.4-63.9-39.2-83.4z"/><path fill="#ff6f68" d="M1466 1569.9c14.1 18.4 47.1 23.5 62.6 22.6 0 0 15.3 14.6 17.2 16.2 1.9 1.6 3.9 12.1 7.6 13.9s-.6-15.7-1.1-17.7-7.6-11.9-7-12.8c1.9-2.5 8.5 7.3 11.8 9.4 0 0 6.2 11.4 11.2 13.4s-3.5-15.2-4.3-17.2-6.7-12.3-8-14.6c-.7-1.3 1.9-2.1 4.6.4s18.3 22.3 23.6 22.2c5.3-.1-7.2-16.9-9.3-20.5-2.1-3.6-12.3-13.2-13.9-14.5s-.1-3.3 5.3.6c4.1 3 11.4 6.8 12.6 6.9 0 0 9.2 11.1 14.2 11.6 3 .3-5.4-13.6-7.7-17.3s-30-23.5-35.1-26.1-42.7-4.2-49.4-7.2c-8.5-3.9-47.4 14.4-34.9 30.7z"/><path fill="#4b4a4c" d="M1295.7 1368.3c1.4-4.5 1.1-9.4-.6-13.8-26.5-69.1-23.4-287.3 14.5-320.1 39.6-34.2 91.3 71.9 86.4 110.4-4.8 38.5-16 82.5-14.1 106.5s14.4 83.6 26.9 89.4 5.8 20.2 4.8 22.1 13.5 20.8-.1 28.3c-12.9-4.9-32.4-5.9-56 1-41.9 12.2-31.7 35.5-31.7 35.5-30.2 5.8-26.7-27.3-22.8-31.1 3.5-3.5-11.2-15.8-7.3-28.2z"/><defs><path id="g" d="M1637.5 1248.3c5.3-21.3 38.3-199 26.6-207.5-11.7-8.5-84.1-73.4-158.6-73.4s-159.7 35.1-195.8 67.1c-38 32.8-41 251-14.5 320.1 1.7 4.4 2 9.3.6 13.8-3.9 12.4 10.8 24.8 7.4 28.2-3.8 3.8-7.4 36.9 22.8 31.1 0 0-10.2-23.3 31.7-35.5 23.6-6.9 43.1-5.8 56-1 .5 7.1 86.1 124.8 95.9 144.1 2.3.1 4.3-1.7 4.4-4l.4-12c68.8-3.9 116.8-39.6 118.9-44.2 13.7-29.9-1.2-205.5 4.2-226.8z"/></defs><clipPath id="h"><use overflow="visible" xlink:href="#g"/></clipPath><path fill="#666" d="M1705.7 1195.5c-9.6 1.6-19.6 3-29.9 4.1-.1-3.7-.2-7.3-.3-10.9 9.3-1.1 18.3-2.4 27.1-3.8l-.8-4.7c-8.5 1.4-17.3 2.7-26.3 3.7-.1-9.6.1-18.6.3-26.4 0-2.1.1-4 .1-5.9 10.3-1.1 20.6-2.5 30.7-4.2l-.8-4.7c-9.8 1.6-19.8 3-29.8 4.1v-7.4c0-1.2 0-2.4-.1-3.6 8.9-1.1 17.9-2.3 26.7-3.8l-.8-4.7c-8.6 1.4-17.3 2.7-26.1 3.7-.3-9.9-1-21-1.8-32.6 9-1.1 18-2.3 26.9-3.8l-.8-4.7c-8.7 1.5-17.5 2.7-26.4 3.8l-.9-10.8c8.1-1 16.3-2.2 24.3-3.6l-.8-4.7c-7.9 1.4-15.9 2.5-23.9 3.5-4-43.4-10-87.8-12.9-99.9l-4.7 1.1c2.8 11.9 8.9 56.2 12.8 99.3-8.7 1-17.4 1.9-26.2 2.6.3-6.9.6-13.9.9-20.8.3-8.2.7-16.1 1-23.6 5.3-.7 10.6-1.6 16-2.5l-.8-4.7c-5.1.9-10.1 1.6-15 2.4.1-2.7.2-5.4.3-8 5.1-.7 10.3-1.5 15.5-2.4l-.8-4.7c-4.9.8-9.8 1.6-14.6 2.3.6-19.5.5-34.5-1-40.8l-4.7 1.1c1.4 5.9 1.4 21.1.8 40.4-5 .7-9.9 1.3-14.8 1.8.6-20.7.7-36.7-.9-43.3l-4.7 1.1c1.5 6.1 1.4 22.3.8 42.6-12.6 1.2-24.7 1.9-36.3 2.3.7-22 .8-39.1-.8-46l-4.7 1.1c1.5 6.4 1.4 23.6.7 45-5 .1-9.9.1-14.7.1.7-22.2.8-39.3-.8-46.2l-4.7 1.1c1.5 6.4 1.4 23.6.7 45.1-22.8-.3-43.8-2-63.2-4 .5-18.8.4-33.1-1-39.3l-4.7 1.1c1.3 5.6 1.4 19.7.9 37.7-9.3-1-18.2-2.1-26.8-3.1-8.7-1-17.1-2.1-25.2-2.9-.5-18.6-1.5-32.9-2.8-38.5l-4.7 1.1c1.3 5.4 2.2 19.1 2.7 36.9-2.8-.3-5.6-.5-8.3-.8-2.8-.2-5.8-.4-8.7-.4-.5-14.8-1.5-26.1-2.6-31.1l-4.7 1.1c1.1 4.8 2 15.8 2.5 30.1-20.9.7-44.6 6.2-65.7 12.1 2.7-11.5 6-21.7 10.1-30.2l-4.3-2.1c-4.5 9.4-8.1 20.8-11 33.7-5.6 1.6-11.1 3.2-16.2 4.7-.1 0-.2 0-.2.1 2.8-14.1 6.7-26.4 11.4-36.5l-4.3-2.1c-5.2 10.9-9.3 24.5-12.3 40.1-10.5 3.1-19.5 5.6-25.3 6.5l.7 4.8c5.7-.8 14-3.1 23.7-6-.5 2.7-.9 5.4-1.3 8.2-9.6 2.8-17.7 5-23.1 5.8l.7 4.8c5.3-.8 12.9-2.8 21.8-5.4-1.7 13.8-2.6 28.7-2.7 44.4-.2.1-.4.1-.5.2-14.3 4.1-26.6 7.6-33.4 8.6l.7 4.8c6.9-1 18.5-4.3 33.2-8.5 0 2.9 0 5.9.1 8.9-.6.2-1.2.3-1.7.5-15 4.5-27.9 8.3-34.8 9.4l.7 4.8c7.2-1.1 19.7-4.8 35.4-9.5.2 0 .3-.1.5-.1.3 10.4 1 21.1 1.9 32l-7.5 2.1c-14.7 4.1-27.4 7.6-34.3 8.6l.7 4.8c7.2-1 19.5-4.4 34.9-8.8l6.6-1.8c.2 2.1.4 4.2.7 6.3.1.8.2 1.5.2 2.3-3.4 1-6.7 1.9-9.9 2.9-15.4 4.5-28.7 8.3-35.7 9.4l.7 4.8c7.4-1.1 20.2-4.8 36.4-9.5 2.9-.9 6-1.7 9-2.6 1.2 13.9 1.5 28.6 1.6 43.4-9.2 2.4-18.1 4.9-26.3 7.2-14.7 4.1-27.4 7.6-34.3 8.6l.7 4.8c7.2-1 19.5-4.4 34.9-8.8 7.8-2.2 16.3-4.5 25-6.8v8.7c-9.6 2.6-18.9 5.3-27.4 7.8-15.4 4.5-28.7 8.3-35.7 9.4l.7 4.8c7.4-1.1 20.2-4.8 36.4-9.5 8.1-2.4 16.9-4.9 26-7.4 0 3.4-.1 6.7-.1 10-.1 12-.3 24.2-.2 36.2-10 2.6-19.6 5.3-28.4 7.7-14.7 4.1-27.4 7.6-34.3 8.6l.7 4.8c7.2-1 19.5-4.4 34.9-8.8 8.4-2.4 17.7-4.9 27.2-7.4.1 2.9.1 5.7.2 8.6-10.5 2.8-20.6 5.8-29.8 8.5-15.4 4.5-28.7 8.3-35.7 9.4l.7 4.8c7.4-1.1 20.2-4.8 36.4-9.5 8.9-2.6 18.6-5.4 28.7-8.2.9 20.7 3 40.3 8 57.2l4.6-1.4c-5-16.7-7.1-36.4-7.9-57.1 5.4-1.4 10.8-2.8 16.3-4.1.8 20.5 2.7 40 7.3 57.7l4.7-1.2c-4.5-17.6-6.4-37.1-7.2-57.7 20.3-4.7 40.3-8 56.2-7.4l.3 3.1c2.5-.2 4.9-.4 7.3-.5l.6 8.1c-2 .1-4.1.2-6.3.4l.4 4.8c2.1-.2 4.2-.3 6.2-.4.2 3.5.5 7 .7 10.5.8 10.9 1.5 21.8 2.2 32.6-3.6.1-7.5.3-11.6.6l.4 4.8c4-.4 7.9-.6 11.5-.6.2 2.7.4 5.4.5 8.1-3.3 0-6.8.2-10.4.5l.4 4.8c3.6-.3 7.1-.5 10.3-.5 1.1 17.3 2.1 34.4 2.8 50.9-4.7-.1-9.9.1-15.5.6l.4 4.8c5.5-.5 10.6-.7 15.3-.6.1 2.7.2 5.4.3 8-4.3-.1-9 .1-14 .5l.4 4.8c5-.4 9.6-.6 13.7-.5.4 13.2.6 25.8.5 37.7-4.2-.6-10.3-1.5-17.2-2.5-32.9-4.8-62.9-9-68.1-8.6l.4 4.8c5.1-.5 43.8 5.2 67 8.5 7.5 1.1 13.7 2 17.8 2.6 0 2.7-.1 5.3-.2 7.9-4.3-.6-10.3-1.5-16.9-2.5-33.4-4.9-61.5-9-66.2-8.6l.4 4.8c4.6-.4 42.5 5.2 65.1 8.5 7.2 1.1 13.2 2 17.4 2.5-.5 11.7-1.3 22.5-2.6 32l4.8.7c1.3-9.5 2.2-20.3 2.7-32 .4 0 .7.1.9.1 5 .4 10.4.9 16.1 1.4-.4 13.6-1.3 25.9-2.8 36.6l4.8.7c1.5-10.7 2.4-23.1 2.8-36.8.9.1 1.8.2 2.7.2 13.5 1.2 28.9 2.7 45.7 4 1.5 21.4 3.5 40.3 5.9 55.3l4.7-.8c-2.4-14.7-4.3-33.2-5.8-54.1 19.8 1.5 41.4 2.8 63.9 3.5 1.5 18.6 3.2 35.1 5.4 48.5l4.7-.8c-2.2-13.1-3.9-29.3-5.3-47.6l14.7.3c1.4 18.5 3.2 34.8 5.4 48.1l4.7-.8c-2.1-13.1-3.9-29.1-5.3-47.3h8.1c5.3 0 10.6-.1 15.9-.2-.5 17.7-1.1 33.8-1.6 47.7l4.8.2c.5-13.9 1.1-30.2 1.6-48 4.8-.1 9.7-.3 14.6-.4-.5 18.1-1 34.4-1.5 48.2l4.8.2c.5-13.9 1-30.4 1.5-48.6 2.6-.1 5.2-.2 7.7-.4l-.3-4.8c-2.4.1-4.9.3-7.3.4.1-3.4.2-6.9.3-10.5 2.9-.2 5.9-.4 8.8-.6l-.3-4.8c-2.8.2-5.6.4-8.3.6.3-11.5.6-23.5.9-35.8l6.3-.3-.3-4.8c-2 .1-3.9.2-5.9.3l.3-10.5c2.5-.2 4.9-.3 7.4-.5l-.3-4.8c-2.3.2-4.6.3-6.9.5.4-15.9.7-32.1 1.1-48.5 1.6-.1 3.1-.1 4.7-.2l-.3-4.8c-1.4.1-2.9.2-4.3.2.1-3.5.1-7 .2-10.5 2-.1 3.9-.3 5.9-.4l-.3-4.8c-1.8.1-3.6.3-5.4.4.3-13.7.5-27.4.8-40.9 1.2-.1 2.3-.1 3.5-.2l-.3-4.8c-1 .1-2.1.1-3.1.2.1-3.5.1-7 .2-10.5 1.6-.1 3.2-.2 4.7-.3l-.3-4.8c-1.4.1-2.9.2-4.3.3.3-15 .5-29.5.7-43.3.8 0 1.6-.1 2.5-.1l-.3-4.8c-.7 0-1.4.1-2.1.1 0-3.6.1-7.1.1-10.5 1.3-.1 2.5-.2 3.8-.3l-.3-4.8c-1.1.1-2.2.2-3.4.2.3-25.3.5-47.3.4-64.2 10.4-.6 20.7-1.3 31-2.4 0 1.7-.1 3.5-.1 5.3-.2 8-.3 17.2-.3 27-9.5 1.1-19.2 2-29.2 2.7l.3 4.8c9.9-.7 19.5-1.6 28.9-2.6l.3 10.8c-9.1.9-18.5 1.7-28 2.3l.3 4.8c9.6-.6 18.9-1.3 28-2.3 1 18.3 3.3 37.3 8.5 53.7l4.6-1.5c-5.1-16-7.4-34.7-8.3-52.8 10.6-1.2 20.7-2.5 30.5-4.2l-1.2-4.9zm-34.8-64c-10.3 1.2-20.7 2.1-31.1 2.8 0-9.9.2-21.2.6-33 9.6-.6 19.1-1.4 28.6-2.4 1 11.6 1.6 22.7 1.9 32.6zm-55.6 88.4c-12.1.5-24.1.7-35.9.7v-65.1c11.9.2 24.1.1 36.3-.2 0 17.1-.1 39.3-.4 64.6zM1338.9 1093c24.3-6.6 51-12.9 72.8-13.8l-.3 8.1c-21.6 1.1-48.1 7.5-72.4 14.4-.1-2.9-.1-5.8-.1-8.7zm277.9-10.5c-12.2.6-24.4.8-36.3.9.3-7.7.6-15.4 1-23.1.3-6.3.5-12.5.8-18.5 11.7-.3 23.8-1 36.4-2.2-.3 6.7-.6 13.6-.9 20.5-.3 7.4-.7 15-1 22.4zm-.5 15.1c-12.2.4-24.3.4-36.3.3.1-3.2.2-6.4.4-9.7 11.9 0 24.1-.3 36.3-.8-.2 3.4-.3 6.8-.4 10.2zm5.2-10.5c4.9-.2 9.8-.5 14.8-.9-.1 3.5-.3 7-.4 10.5-4.9.3-9.8.5-14.7.7 0-3.4.1-6.8.3-10.3zm-210.6 57.9c4.4-.2 8.5-.1 12.4.2 1.4.1 2.9.2 4.4.4-2 16-2 39.2-.9 66.5-1-.1-2.1-.2-3.1-.3-4.2-.4-8.8-.4-13.8-.2-1.1-27.6-1.1-50.9 1-66.6zm5.6-65.9c3 0 5.8.1 8.5.3 2.6.2 5.4.5 8.2.7-.1 2.7-.2 5.3-.3 8-2.6-.2-5.1-.5-7.5-.7-2.9-.3-6-.4-9.3-.3.2-2.6.3-5.3.4-8zm158.7 18.7l-14.7-.3c.1-3.1.2-6.2.3-9.4 4.9.1 9.8.1 14.7.1-.1 3.2-.2 6.5-.3 9.6zm-.7 38.5c-4.9 0-9.9-.1-14.7-.2-.1-10.1.2-21.6.6-33.8 4.9.1 9.8.3 14.7.3-.5 12.2-.7 23.6-.6 33.7zm-19.4 62.7v21.3c-22.4-.5-43.8-1.6-63.4-3v-15.4c0-19.7 0-37.3-.1-50.7 19.5 1.5 41 2.9 63.5 3.7v44.1zm-63.5-52.6v-8.5c19.7 1.3 41.1 2.5 63.5 3 0 2.8.1 5.9.1 9.3-22.7-.9-44.1-2.3-63.6-3.8zm-4.9-13.7c-18.2-1.3-34.9-2.7-49.2-4-.9-.1-1.8-.2-2.7-.2 1.2-10.7 2.1-22.6 2.7-35.1 3.4.3 6.9.7 10.6 1 11.7 1.1 25 2.4 39.4 3.6-.4 12.3-.7 24.1-.8 34.7zm5.6-34.3c19.4 1.6 40.8 3 63.2 3.8-.4 12.2-.6 23.8-.6 33.9-22.4-.5-43.8-1.6-63.4-3 .1-10.6.4-22.4.8-34.7zm-55.3 35.1c14.5 1.3 31.3 2.7 49.7 4v8.5c-14.4-1.2-27.6-2.4-39.4-3.5-4.9-.5-9.7-.9-14.2-1.3.4-2.5.7-5.2 1.1-7.9 1 0 1.9.1 2.8.2zm118.7-36.2c-22.4-.8-43.8-2.2-63.2-3.8.1-2.8.2-5.6.3-8.5 19.6 1.3 40.9 2.5 63.2 2.9-.1 3.2-.2 6.3-.3 9.4zm-68-4.1c-14.3-1.2-27.5-2.4-39.2-3.5-3.7-.4-7.3-.7-10.8-1 .1-2.7.2-5.3.3-8h.3c14.5 1.3 31.2 2.8 49.6 4.1 0 2.8-.1 5.6-.2 8.4zm-62.6-.9c2.5.2 5 .4 7.7.7-.7 12.4-1.6 24.4-2.7 35.1-2.1-.2-4.2-.4-6.3-.5-3.3-.3-6.8-.4-10.5-.3 1.2-10.9 2.1-22.9 2.7-35.2 3.1-.1 6.2-.1 9.1.2zm-1.8 40c2 .2 4 .3 6.1.5-.3 2.7-.7 5.4-1.1 7.9-1.6-.1-3.1-.3-4.6-.4-3.8-.3-7.9-.4-12.1-.3.4-2.6.7-5.3 1.1-8.1 3.7.1 7.3.1 10.6.4zm9.2 13.7c4.6.4 9.5.9 14.5 1.3 11.9 1.1 25.3 2.3 39.9 3.5.1 13.5.1 31.2.1 51.1v15.1c-18.2-1.3-34.9-2.7-49.4-4-2-.2-3.9-.3-5.8-.5-1.3-27.5-1.3-50.8.7-66.5zm4.5 71.8c14.6 1.3 31.5 2.7 49.8 4v8.4c-14.4-1.2-27.7-2.4-39.5-3.5-5.3-.5-10.4-1-15.2-1.4-.1-2.7-.3-5.4-.4-8.1 1.8.3 3.6.4 5.3.6zm54.7 4.3c19.7 1.3 41 2.5 63.4 3v9.3c-22.4-.8-43.9-2.2-63.4-3.8v-8.5zm63.4 17.1c0 14.2.1 29.1.1 44.5-22.4-.5-43.8-1.6-63.5-3-.1-15.7-.1-30.9-.1-45.3 19.6 1.6 41.1 3 63.5 3.8zm.2 49.3c0 3.1 0 6.2.1 9.3-22.5-.8-43.9-2.2-63.5-3.8 0-2.8 0-5.7-.1-8.5 19.7 1.4 41.1 2.5 63.5 3zm.1 14.2c.1 13.8.3 27.9.5 42-22.4-.5-43.8-1.6-63.5-2.9-.2-14.4-.3-28.7-.4-42.8 19.5 1.4 40.9 2.8 63.4 3.7zm.5 46.8c.1 3.1.1 6.2.2 9.3-22.5-.8-43.9-2.2-63.5-3.7 0-2.8-.1-5.7-.1-8.5 19.6 1.3 41 2.4 63.4 2.9zm.3 14.1c.3 16.8.8 33.4 1.3 49.6-22.4-.5-43.8-1.5-63.6-2.9-.5-16.5-.9-33.4-1.2-50.5 19.5 1.6 41 3 63.5 3.8zm1.5 54.4c.1 3.1.2 6.3.4 9.4-22.5-.8-44-2.1-63.7-3.7-.1-2.8-.2-5.7-.3-8.5 19.7 1.3 41.1 2.4 63.6 2.8zm4.8.1c4.9.1 9.8.1 14.7.1.1 3.2.2 6.4.4 9.6-4.9-.1-9.9-.2-14.7-.3-.2-3.1-.3-6.2-.4-9.4zm14.5-4.7c-4.9 0-9.9-.1-14.7-.1-.6-16.1-1-32.8-1.3-49.5 4.9.2 9.8.3 14.7.4.4 16.6.8 33.2 1.3 49.2zm-16.1-54.5c-.1-3.1-.1-6.3-.2-9.4 4.9.1 9.8.1 14.7.2.1 3.2.1 6.4.2 9.6-4.9-.1-9.8-.2-14.7-.4zm14.5-14c-4.9 0-9.9-.1-14.7-.2-.2-14.1-.4-28.1-.5-41.9 4.9.2 9.8.3 14.7.4.1 13.7.3 27.7.5 41.7zm-15.3-46.9c0-3.1 0-6.3-.1-9.4 4.9.1 9.8.1 14.7.2 0 3.2 0 6.4.1 9.6-4.9-.1-9.8-.2-14.7-.4zm14.7-14c-4.9 0-9.9-.1-14.7-.2-.1-15.3-.1-30.2-.1-44.4 4.9.2 9.8.3 14.7.4-.1 14.1 0 28.9.1 44.2zm-14.9-49.4v-9.4c4.9.1 9.8.1 14.7.2v9.6c-4.9-.1-9.8-.3-14.7-.4zm14.7-35.6v21.5c-4.9 0-9.9-.1-14.7-.2v-65.2c4.9.2 9.8.3 14.7.4.1 12.2 0 27.1 0 43.5zm-14.7-48.7c0-3.4 0-6.5-.1-9.4 4.9.1 9.8.1 14.7.2 0 2.9.1 6.1.1 9.6-5-.1-9.9-.3-14.7-.4zm19.4-14c-.1-10 .2-21.5.6-33.6 11.9.1 24.1.1 36.3-.3-.4 12-.6 23.3-.6 33.2-12.3.5-24.4.7-36.3.7zm-2.6-76.3c-.3 7.8-.7 15.6-1 23.4-4.9 0-9.9-.1-14.7-.1.3-7.6.6-15.4 1-23 .3-6.3.5-12.4.8-18.3 4.8 0 9.7 0 14.7-.1-.3 5.9-.5 12-.8 18.1zm-19.5 0c-.3 7.7-.7 15.5-1 23.1-22.3-.5-43.6-1.6-63.2-2.9.2-5.7.5-11.4.7-17.1.4-8.8.7-17.3 1.1-25.3 19.4 2 40.4 3.7 63.1 4-.2 6-.5 12.1-.7 18.2zm-68.3 2.9c-.2 5.7-.5 11.3-.7 17-18.3-1.3-35-2.8-49.4-4.1-.2 0-.4 0-.6-.1.5-15.2.7-30.4.6-44.4 7.9.8 16 1.8 24.4 2.8 8.6 1 17.5 2.1 26.8 3.1-.3 8.3-.7 17-1.1 25.7zm-55.4 12.5c-2.8-.2-5.4-.5-8-.7-2.8-.2-5.7-.3-8.8-.3.5-15.5.6-30.9.4-44.6 2.7 0 5.4.1 7.9.3 3 .3 6 .5 9 .9.2 13.8 0 29.1-.5 44.4zm-21.1-25.7c-.1 8.4-.2 16.7-.5 24.7-21.9.9-48.5 7-72.8 13.6.4-16.1 1.6-31.2 3.7-45 22.1-6.3 47.6-12.6 69.6-13.3v20zm-1.3 42.5c-.7 12.9-1.6 24.8-2.7 35.2-20.5 1-44.9 6.2-67.8 12.1-.9-11.2-1.4-22.1-1.6-32.8 24.2-6.9 50.7-13.4 72.1-14.5zm-3.3 40c-.4 2.9-.7 5.6-1.1 8.2-19.7 1.3-42.9 6.5-65 12.3-.3-2.8-.6-5.6-.8-8.4 22.6-5.8 46.8-11 66.9-12.1zm-1.8 13c-1.6 12.5-1.9 29.3-1.5 48.9-17.2-.8-38.5 2.6-59.9 7.4-.3-14.9-.9-29.8-2.4-44 21.7-5.7 44.6-10.9 63.8-12.3zm-1.3 53.8c.1 2.6.2 5.3.3 8-17-.8-38.5 2.8-60.1 7.9 0-2.8 0-5.6-.1-8.4 21.4-4.9 42.9-8.3 59.9-7.5zm18.6 17.6c1.2.1 2.4.2 3.7.3.1 2.6.2 5.3.4 8-1.2-.1-2.5-.2-3.6-.3-4-.3-8.4-.4-13.2-.2-.1-2.7-.3-5.4-.4-8.1 4.7-.1 9.2 0 13.1.3zm0 12.8c1.4.1 2.8.2 4.3.4.7 14.6 1.7 30.1 2.7 46-2.3-.2-4.5-.4-6.6-.6-3.1-.3-6.5-.4-10.2-.3-1.1-15.8-2-31.2-2.8-45.7 4.6-.1 8.9-.1 12.6.2zm9.1.8c4.6.4 9.5.9 14.5 1.3 11.9 1.1 25.4 2.3 39.9 3.5 0 14.4 0 29.6.1 45.3-18.3-1.3-35-2.7-49.5-4-.8-.1-1.5-.1-2.2-.2-1.1-15.8-2-31.3-2.8-45.9zm4.6 51c14.7 1.3 31.5 2.7 50 4v8.5c-14.4-1.2-27.8-2.4-39.6-3.5-3.9-.4-7.7-.7-11.3-1-.2-2.7-.4-5.4-.5-8.1.4 0 .9.1 1.4.1zm10 13.8c12 1.1 25.5 2.3 40.1 3.5.1 14.1.2 28.4.4 42.9-17.7-1.2-33.9-2.6-48.2-3.9-.7-10.5-1.4-21.1-2.1-31.5-.3-4-.5-8-.8-11.9 3.4.2 6.9.6 10.6.9zm-11.7 55c-4.1-.4-7.9-.7-11.6-1-1.6-.1-3.3-.2-5.1-.3-.2-2.7-.3-5.4-.5-8.1 1.8 0 3.6.1 5.2.3 3.6.3 7.5.6 11.5 1 .2 2.7.3 5.4.5 8.1zm4.3-7.7c14.2 1.2 30.4 2.6 48 3.9 0 2.8.1 5.6.1 8.5-14.7-1.2-28.3-2.4-40.3-3.6-2.5-.2-4.9-.4-7.2-.7-.2-2.6-.4-5.3-.6-8.1zm7.4 13.6c12.2 1.1 25.9 2.4 40.9 3.6.3 17 .7 34 1.2 50.5-16.7-1.2-32.1-2.5-45.8-3.6-.7-16.5-1.7-33.7-2.8-51.1 2.1.2 4.3.4 6.5.6zm42.2 58.9c.1 2.8.2 5.7.3 8.5-15.4-1.2-29.6-2.5-42.1-3.7l-3.6-.3-.3-8.1c13.7 1.2 29.1 2.5 45.7 3.6zm-42.2 9.6c12.7 1.2 27.1 2.5 42.7 3.7.5 13.1 1.1 25.7 1.8 37.8-17.1-1.2-32.9-2.5-47-3.7 0-12-.2-24.8-.6-38.1 1 .1 2 .2 3.1.3zm47.5 4.2c19.7 1.5 41.2 2.9 63.7 3.6.5 12.8 1.2 25.1 1.9 36.9-22.4-.4-43.9-1.5-63.8-2.8-.7-12-1.3-24.7-1.8-37.7zm68.5 3.7c4.9.1 9.8.3 14.7.3.5 12.7 1.2 24.9 1.9 36.6-4.9 0-9.9 0-14.7-.1-.7-11.7-1.3-24-1.9-36.8zm19.6.4c3.8 0 7.6.1 11.4.1 5.8 0 11.6-.1 17.5-.2-.3 12.4-.6 24.5-1 36.1-8.7.3-17.4.4-26 .5-.8-11.6-1.4-23.8-1.9-36.5zm-.2-4.8c-.1-3.2-.3-6.4-.4-9.7 9.8 0 19.7-.2 29.8-.5-.1 3.4-.2 6.8-.2 10.1-9.9.2-19.6.2-29.2.1zm-.6-14.5c-.6-16-1-32.6-1.3-49.2 4.4.1 8.9.1 13.4.1 6.3 0 12.7-.1 19-.2-.3 16.4-.7 32.8-1.1 48.8-10 .3-20.1.5-30 .5zm-1.4-54c-.1-3.2-.1-6.4-.2-9.7 10.9 0 21.9-.2 33-.6-.1 3.4-.1 6.8-.2 10.2-10.9.2-21.8.2-32.6.1zm-.2-14.5c-.2-14-.4-27.9-.5-41.6 4.7.1 9.5.1 14.2.1 6.7 0 13.4-.1 20.2-.2-.2 13.6-.5 27.3-.8 41.2-11.1.3-22.2.5-33.1.5zm-.5-46.4c0-3.2 0-6.5-.1-9.7 11.4 0 23.1-.2 34.8-.6-.1 3.4-.1 6.8-.2 10.2-11.6.2-23.1.2-34.5.1zm-.1-14.5c-.1-15.2-.1-30-.1-44.1 4.8.1 9.6.1 14.5.1 7 0 14.1-.1 21.2-.3-.2 13.9-.4 28.6-.6 43.7-11.9.4-23.6.6-35 .6zm-.2-49v-9.7c11.8 0 23.8-.2 35.8-.7 0 3.3-.1 6.7-.1 10.2-12 .4-23.9.4-35.7.2zm0-84.3c0-3.5 0-6.7-.1-9.6 11.9 0 24-.2 36.3-.7 0 3.1.1 6.5.1 10.1-12.2.4-24.4.4-36.3.2zm41-10.5c4.9-.2 9.8-.5 14.7-.8 0 3.1.1 6.6.1 10.4l-14.7.6c0-3.7-.1-7.1-.1-10.2zm0-4.8c0-9.9.2-21.2.6-33.2 4.9-.2 9.8-.4 14.7-.7-.4 11.9-.6 23.1-.6 33.1-4.9.3-9.8.6-14.7.8zm47.4-52.1l.9 10.8c-9.3 1-18.7 1.8-28.1 2.4.1-3.5.3-7 .4-10.6 9-.7 17.9-1.6 26.8-2.6zm-30.5-23.3c-.3 7.1-.6 14.3-.9 21.4-4.9.4-9.8.7-14.8.9.3-7.3.6-14.7.9-22.1.3-7.3.6-14.4.9-21.2 4.9-.5 9.8-1.1 14.8-1.7-.2 7.4-.6 15-.9 22.7zm1.4-35.6c-.1 2.6-.2 5.3-.3 8-5 .7-9.9 1.3-14.8 1.8.1-2.7.2-5.4.3-8 4.9-.5 9.8-1.1 14.8-1.8zm-19.6 2.2c-.1 2.6-.2 5.3-.3 8-12.6 1.2-24.7 1.9-36.4 2.2.1-2.7.2-5.4.3-8 11.7-.2 23.9-1 36.4-2.2zm-41.2 2.4c-.1 2.6-.2 5.3-.3 8-5 .1-9.9.1-14.7.1.1-2.7.2-5.4.3-8 4.9 0 9.8 0 14.7-.1zm-19.5 0c-.1 2.6-.2 5.3-.3 8-22.8-.4-43.8-2-63.2-4 .1-2.7.2-5.4.3-8 19.4 2 40.4 3.7 63.2 4zm-95.2-7.6c8.7 1 17.8 2.1 27.2 3.1-.1 2.6-.2 5.3-.3 8-9.1-1-17.9-2-26.4-3.1-8.6-1-16.9-2-25-2.9 0-2.7-.1-5.4-.1-8 8 .9 16.2 1.9 24.6 2.9zm-38.1-4.2c2.9.3 5.9.5 8.9.8.1 2.6.1 5.3.1 8-2.9-.3-5.7-.6-8.6-.8-2.7-.2-5.5-.4-8.4-.4-.1-2.8-.1-5.4-.2-8 2.8.1 5.5.2 8.2.4zm-13-.3c.1 2.6.1 5.3.2 8-21.9.7-46.8 6.7-68.7 12.9.5-2.8 1-5.6 1.6-8.3 21.4-6 45.7-11.9 66.9-12.6zm-88.5 18.9c.9-.3 1.7-.5 2.6-.8 4.3-1.3 8.9-2.6 13.7-4-.5 2.7-1 5.4-1.5 8.3-4.7 1.4-9.3 2.7-13.6 4-.9.3-1.7.5-2.6.8.5-2.9.9-5.6 1.4-8.3zm-2 13.4c1.5-.4 3.1-.9 4.7-1.4 3.7-1.1 7.5-2.2 11.4-3.4-2 13.8-3.1 28.9-3.5 44.9-5.4 1.5-10.6 2.9-15.5 4.4.1-15.8 1.1-30.8 2.9-44.5zm-3 49.5c5-1.4 10.2-2.9 15.5-4.4v8.7c-5.3 1.5-10.5 3-15.4 4.5-.1-2.9-.1-5.9-.1-8.8zm.2 13.9c4.9-1.5 10.1-3 15.4-4.5.2 10.6.7 21.5 1.6 32.6-5.2 1.4-10.2 2.7-15.1 4.1-1-11-1.6-21.8-1.9-32.2zm3.1 44.1c-.3-2.4-.5-4.8-.7-7.1 4.9-1.3 9.9-2.7 15.1-4.1.2 2.8.5 5.6.8 8.4-5.1 1.4-10.1 2.8-15 4.2-.1-.4-.2-.9-.2-1.4zm.6 6.3c4.9-1.4 9.9-2.8 15-4.2 1.5 14.2 2.1 29 2.3 43.9-5.3 1.2-10.5 2.5-15.7 3.9 0-14.9-.4-29.6-1.6-43.6zm1.7 48.5c5.2-1.3 10.5-2.7 15.8-3.9 0 2.8.1 5.6.1 8.5-5.3 1.3-10.6 2.7-15.9 4.1-.1-2.9 0-5.8 0-8.7zm-.2 25.1c0-3.8.1-7.6.1-11.4 5.3-1.4 10.6-2.8 15.9-4.1v15.5c0 10.5-.1 20.9.1 31-5.5 1.2-10.9 2.6-16.3 3.9-.1-11.6 0-23.3.2-34.9zm.1 48.3c-.1-2.8-.2-5.7-.2-8.6 5.4-1.4 10.8-2.7 16.3-4 .1 2.8.1 5.6.2 8.4-5.5 1.4-11 2.8-16.3 4.2zm81.5-9.7l.2-2.6c-16.8-1.4-38.6 2-60.7 7-.1-2.8-.1-5.6-.2-8.4 21.9-4.8 43.7-8.1 60.5-6.7l.4-4.8c-17.1-1.4-38.9 1.8-60.9 6.6-.1-9.8-.1-19.8-.1-29.9v-16.6c21.7-5.1 43.2-8.8 60-8-1.1.1-2.3.2-3.5.3l.4 4.8c1.2-.1 2.4-.2 3.5-.3.1 2.7.2 5.3.4 8.1-.8.1-1.6.1-2.3.2l.4 4.8c.7-.1 1.5-.1 2.2-.2.8 14.5 1.7 29.8 2.8 45.5-1 .1-2.1.2-3.1.2zm8.3 4.5c3.4 0 6.5.1 9.4.3 2.4.2 4.8.4 7.3.6.2 2.7.4 5.4.5 8.1-2.6-.2-5.1-.4-7.5-.7-2.9-.2-6-.3-9.3-.3 0-2.6-.2-5.3-.4-8zm9.4 13.2c2.6.2 5.4.5 8.2.7.3 4.2.6 8.4.9 12.7.7 10.2 1.4 20.5 2.1 30.8-3.7-.3-7.3-.6-10.7-.9-1.9-.2-3.9-.3-6-.3-.7-11-1.5-22-2.3-33-.2-3.4-.5-6.9-.7-10.3 3-.1 5.9 0 8.5.3zm-4.4 60.6c1.5 0 3 .1 4.4.3 3.9.3 8 .7 12.3 1.1 1.1 17.4 2.1 34.5 2.8 51.1-.3 0-.7-.1-1-.1-4.8-.4-9.4-.8-13.7-1.2-.7-.1-1.3-.1-2-.1-.7-16.6-1.7-33.7-2.8-51.1zm3 55.9c.5 0 1 .1 1.4.1 4.3.4 8.9.8 13.7 1.2.5 0 1.1.1 1.6.1l.3 8.1c-5.4-.5-10.5-1-15.2-1.3-.5 0-1-.1-1.5-.1-.1-2.8-.2-5.4-.3-8.1zm.4 12.8c.3 0 .7 0 1 .1 4.9.4 10.2.9 15.8 1.4.4 13.3.7 26.1.6 38.2-.8-.1-1.6-.1-2.3-.2-4.8-.4-9.4-.8-13.7-1.2-.2 0-.5-.1-.9-.1.1-12-.1-24.8-.5-38.2zm1.4 51.1c-.3 0-.7-.1-1.2-.1.1-2.6.1-5.3.2-8 .2 0 .4 0 .6.1 4.3.4 8.9.8 13.7 1.2.9.1 1.8.2 2.7.2 0 2.7-.1 5.4-.1 8-5.6-.5-11-1-15.9-1.4zm23.7 2.2l-3-.3c.1-2.6.1-5.3.1-8.1 14.2 1.2 30.1 2.6 47.3 3.7.2 2.9.4 5.7.6 8.5-16.5-1.2-31.7-2.6-45-3.8zm49.8 4.3c-.2-2.8-.4-5.7-.6-8.6 19.9 1.3 41.3 2.3 63.8 2.7.2 3.2.4 6.3.7 9.4-22.5-.7-44.1-2-63.9-3.5zm68.7 3.6c-.2-3.1-.5-6.3-.7-9.5 4.7.1 9.4.1 14.2.1h.6c.2 3.3.4 6.5.7 9.7-5 0-9.9-.1-14.8-.3zm19.6.4c-.2-3.2-.5-6.4-.7-9.7 8.4 0 16.9-.2 25.5-.5-.1 3.4-.2 6.8-.3 10.1-8.2.1-16.4.2-24.5.1zm43.9-.7c-4.9.2-9.7.4-14.6.5.1-3.3.2-6.7.3-10.2 4.8-.2 9.7-.4 14.5-.7 0 3.5-.1 7-.2 10.4zm.4-15.2c-4.9.3-9.7.5-14.5.7.3-11.6.6-23.6 1-36 4.8-.1 9.7-.3 14.5-.5-.4 12.3-.7 24.3-1 35.8zm1-40.7c-4.8.2-9.7.4-14.5.5.1-3.4.2-6.8.2-10.2 4.8-.2 9.6-.4 14.5-.7 0 3.5-.1 7-.2 10.4zm.4-15.2c-4.8.3-9.7.5-14.5.7.4-16 .7-32.3 1.1-48.7 4.8-.1 9.7-.3 14.5-.5-.4 16.3-.7 32.6-1.1 48.5zm1.2-53.4c-4.8.2-9.7.4-14.5.5.1-3.4.1-6.8.2-10.2 4.8-.2 9.7-.4 14.5-.7-.1 3.5-.1 7-.2 10.4zm.3-15.2c-4.8.3-9.7.5-14.5.7.3-13.8.5-27.6.8-41.1 4.8-.1 9.7-.3 14.5-.6-.3 13.5-.5 27.2-.8 41zm.9-45.7c-4.9.2-9.7.4-14.5.5.1-3.4.1-6.8.2-10.2 4.8-.2 9.7-.5 14.6-.8-.2 3.5-.3 7-.3 10.5zm.2-15.3c-4.9.3-9.7.5-14.6.8.2-15.1.5-29.7.6-43.6 4.9-.1 9.7-.3 14.6-.6-.1 13.9-.3 28.4-.6 43.4zm.8-48.2c-4.9.2-9.8.4-14.6.6 0-3.5.1-6.9.1-10.3 4.9-.2 9.7-.5 14.6-.8 0 3.5-.1 7-.1 10.5zm.2-15.3c-4.9.3-9.8.6-14.6.8.3-25.3.4-47.4.4-64.4 4.9-.1 9.8-.3 14.7-.6-.1 16.9-.2 38.9-.5 64.2zm5.2-69.3c0-3.7 0-7.2-.1-10.3v-.2c10.4-.7 20.8-1.6 31.2-2.8 0 1 0 2.1.1 3.1v7.8c-10.4 1.1-20.8 1.8-31.2 2.4z" clip-path="url(#h)" opacity=".4"/><defs><path id="i" d="M1747.5 1316.5c.8-2-23.3-76.9-45.5-69.8-13-4.6-2.9-88.3-11.7-164.9-4.7-41-64.2-76-87.3-84.2-47.3-16.7-7.2 255.7 25.7 321.9.4.7.9 2.2 1.6 4.2-2.1-14.9-8.1-161.8-13.1-194.4 0 0 16.9-8.4 26 35.1 4.9 23.2-3.6 56.5 1.6 82.8 1.7 8.4 6.5 20.8 13.9 16.6 39.6-22 47.5-14.1 47.5-14.1-67.6 31.9-66.1 101-65.6 109.8 0 .4.1.7.1.9-1.3 47.4 68.8 58 104-13.9 9.5-22.9 2-28 2.8-30z"/></defs><clipPath id="j"><use overflow="visible" xlink:href="#i"/></clipPath><g fill="#666" clip-path="url(#j)" opacity=".4"><path d="M1327.5 1348.3c-9.3-31.5-8.8-72.3-8.4-111.8.3-26.8.6-54.5-2-79.3-7.5-68.5-2-130.3 14.6-165.3l4.3 2.1c-16.2 34.2-21.5 95-14.2 162.7 2.7 25 2.4 52.9 2.1 79.8-.5 39.2-.9 79.7 8.2 110.4l-4.6 1.4z"/><path d="M1347.8 1343.4c-8-31.4-7.9-68.1-7.8-107 .1-26.5.2-53.9-2.6-79.2-7.5-68.5-2-130.3 14.6-165.3l4.3 2.1c-16.2 34.2-21.5 95-14.2 162.7 2.8 25.6 2.7 53.1 2.6 79.8-.1 38.5-.2 74.9 7.6 105.8l-4.5 1.1zm71.9 166.6l-4.8-.7c6.7-48.2 1.1-128.5-4.3-206.2-4.7-66.9-9.1-130.1-4.2-161.3 3.4-22 5.6-55.6 5.9-92.2.3-31.4-.9-59.2-3-67.7l4.7-1.1c4.1 17.4 5.1 110.5-2.8 161.7-4.8 30.7-.4 93.6 4.3 160.2 5.4 78.1 11 158.7 4.2 207.3zm21.7 6.8l-4.8-.7c6.7-48.2 1.1-130.4-4.3-209.8-4.7-68.5-9.1-133.2-4.2-164.4 7.8-50.1 6.9-148.8 2.9-165.6l4.7-1.1c4.1 17.1 5 116.9-2.8 167.5-4.8 30.7-.4 95.1 4.3 163.3 5.4 79.7 11 162.1 4.2 210.8zm57.2 22.7c-12-73.1-11.8-238.7-11.8-337.6 0-24.4 0-45.5-.1-59.6-.3-21.8 1-51 2.2-79.4 1.6-36.6 3.1-71.2.8-80.9l4.7-1.1c2.5 10.3 1 43.6-.6 82.2-1.2 28.3-2.5 57.5-2.2 79.1.2 14.1.2 35.2.1 59.7-.1 98.8-.2 264.2 11.7 336.9l-4.8.7zm68.3-2.9c-12-73.1-11.8-238.7-11.8-337.6 0-24.4 0-45.5-.1-59.6-.3-21.8 1-51 2.2-79.4 1.6-36.6 3.1-71.2.8-80.9l4.7-1.1c2.5 10.3 1 43.6-.6 82.2-1.2 28.3-2.5 57.5-2.2 79.1.2 14.1.2 35.2.1 59.7-.1 98.8-.2 264.2 11.7 336.8l-4.8.8zm19.5 0c-12-73.1-11.8-238.7-11.8-337.6 0-24.4 0-45.5-.1-59.6-.3-21.8 1-51 2.2-79.4 1.6-36.6 3.1-71.2.8-80.9l4.7-1.1c2.5 10.3 1 43.6-.6 82.2-1.2 28.3-2.5 57.5-2.2 79.1.2 14.1.2 35.2.1 59.7-.1 98.8-.2 264.2 11.7 336.9l-4.8.7zm26.6-.3l-4.8-.2c4-102.2 8.2-328.4 7.4-396.8-.3-21.8 1-51 2.2-79.4 1.6-36.6 3.1-71.2.8-80.9l4.7-1.1c2.5 10.3 1 43.6-.6 82.2-1.2 28.3-2.5 57.5-2.2 79.1.8 68.5-3.4 294.9-7.5 397.1zm19.6 0l-4.8-.2c3.4-99.4 8.2-328.5 7.4-396.8-.3-21.8 1-51 2.2-79.4 1.6-36.6 3.1-71.2.8-80.9l4.7-1.1c2.5 10.3 1 43.6-.6 82.2-1.2 28.3-2.5 57.5-2.2 79.1.7 68.5-4.1 297.6-7.5 397.1zm47.2-277.7c-10.2-32-9.4-73.7-8.8-101.3.1-7 .3-13 .2-18-.6-50.3-12.2-142.2-16.5-160.3l4.7-1.1c4.3 18.2 16 110.8 16.6 161.3.1 5-.1 11.1-.2 18.1-.5 27.3-1.3 68.5 8.6 99.7l-4.6 1.6z"/><path d="M1294.8 1056.1l-.7-4.8c6.8-1 17.9-4.3 30.8-8.1 29.5-8.7 69.9-20.6 100.6-18 12.1 1.1 24.9 2.6 38.3 4.2 50.9 6.1 114.3 13.7 194.5 0l.8 4.7c-80.9 13.9-144.6 6.2-195.9 0-13.4-1.6-26.1-3.1-38.2-4.2-29.8-2.6-69.7 9.2-98.8 17.8-13 4-24.2 7.3-31.4 8.4z"/><path d="M1294.8 1043.2l-.7-4.8c6.8-1 17.9-4.3 30.8-8.1 29.5-8.7 69.8-20.6 100.6-18 12.1 1.1 24.9 2.6 38.3 4.2 50.9 6.1 114.3 13.7 194.5 0l.8 4.7c-80.9 13.9-144.6 6.2-195.9 0-13.4-1.6-26.1-3.1-38.2-4.2-29.9-2.6-69.7 9.2-98.8 17.8-13 4-24.2 7.4-31.4 8.4zm-16.7 80.4l-.7-4.8c6.9-1 19.8-4.9 34.8-9.4 34.9-10.4 82.6-24.7 113.3-22 6.9.6 14.8 1.3 23 2.1 60.7 5.8 162.3 15.4 251.5.1l.8 4.7c-89.7 15.4-191.8 5.7-252.7-.1-8.3-.8-16.1-1.5-23-2.1-29.8-2.6-77 11.5-111.5 21.8-15.8 4.9-28.3 8.7-35.5 9.7z"/><path d="M1280.6 1108.6l-.7-4.8c6.7-1 19.1-4.5 33.4-8.6 34.3-9.8 81.2-23.3 112.2-20.6 4.2.4 8.7.8 13.4 1.2 61.1 5.5 163.5 14.6 257.3-1.5l.8 4.7c-94.4 16.2-197.2 7-258.5 1.5-4.7-.4-9.2-.8-13.4-1.2-30-2.6-76.5 10.7-110.4 20.4-15.1 4.5-27 7.9-34.1 8.9zm-8.2 67.9l-.7-4.8c7.1-1 20.3-4.9 35.7-9.4 35.8-10.4 84.8-24.7 116.3-22 7.1.6 15.2 1.3 23.7 2.1 62.4 5.8 166.8 15.4 258.4.1l.8 4.7c-92.2 15.4-197 5.7-259.6-.1-8.5-.8-16.5-1.5-23.6-2.1-30.6-2.6-79.1 11.5-114.6 21.8-16.3 4.9-29.1 8.6-36.4 9.7z"/><path d="M1274.9 1161.5l-.7-4.8c6.9-1 19.6-4.5 34.3-8.6 35.2-9.8 83.4-23.2 115.2-20.6 4.3.4 8.9.8 13.7 1.2 62.8 5.5 167.9 14.6 264.3-1.5l.8 4.7c-97 16.2-202.5 7-265.6 1.5-4.8-.4-9.4-.8-13.7-1.2-30.9-2.6-78.6 10.7-113.5 20.4-15.3 4.4-27.5 7.9-34.8 8.9zm368.4 45.7l-.3-4.8c22.3-1.3 43.4-3.6 62.8-6.9l.8 4.7c-19.6 3.3-40.9 5.6-63.3 7zm-1.5-15.3l-.3-4.8c21.2-1.5 41.5-3.8 60.3-7l.8 4.7c-19 3.2-39.4 5.6-60.8 7.1zm-47.9 48c-56 0-109.1-4.9-147-8.4-8.5-.8-16.5-1.5-23.6-2.1-5.6-.5-12.2-.4-19.5.2l-.4-4.8c7.6-.7 14.5-.7 20.4-.2 7.1.6 15.2 1.3 23.7 2.1 48.5 4.5 121.7 11.2 194.1 7.1l.3 4.8c-16.1 1-32.2 1.3-48 1.3zm-14.5-14.5c-54.9 0-105.5-4.4-142.4-7.6-4.8-.4-9.4-.8-13.7-1.2-6.2-.5-13.4-.4-21.5.3l-.4-4.8c8.4-.7 15.9-.9 22.4-.3 4.3.4 8.9.8 13.7 1.2 50.7 4.4 127.4 11.1 205.5 5.4l.3 4.8c-21.6 1.5-43.1 2.2-63.9 2.2zm14.5 78c-56 0-109-4.9-147-8.4-8.5-.8-16.5-1.5-23.6-2.1-5.6-.5-12.2-.4-19.5.2l-.4-4.8c7.6-.7 14.5-.7 20.4-.2 7.1.6 15.2 1.3 23.7 2.1 48.5 4.5 121.7 11.2 194.1 7.1l.3 4.8c-16.1.9-32.2 1.3-48 1.3zm-14.5-14.6c-54.9 0-105.5-4.4-142.4-7.6-4.8-.4-9.4-.8-13.7-1.2-6.2-.5-13.4-.4-21.5.3l-.4-4.8c8.4-.7 15.9-.9 22.4-.3 4.3.4 8.9.8 13.7 1.2 50.7 4.4 127.4 11.1 205.5 5.4l.3 4.8c-21.6 1.6-43.1 2.2-63.9 2.2zm14.5 75.5c-56 0-109.1-4.9-147-8.4-8.5-.8-16.5-1.5-23.6-2.1-5.6-.5-12.2-.4-19.5.2l-.4-4.8c7.6-.7 14.5-.7 20.4-.2 7.1.6 15.2 1.3 23.7 2.1 48.5 4.5 121.7 11.2 194.1 7.1l.3 4.8c-16.1.9-32.2 1.3-48 1.3zm-14.5-14.6c-54.9 0-105.5-4.4-142.4-7.6-4.8-.4-9.4-.8-13.7-1.2-6.2-.5-13.4-.4-21.5.3l-.4-4.8c8.4-.7 15.9-.9 22.4-.3 4.3.4 8.9.8 13.7 1.2 50.7 4.4 127.4 11.1 205.5 5.4l.3 4.8c-21.6 1.6-43.1 2.2-63.9 2.2zm14.5 83.1c-56 0-109-4.9-147-8.4-8.5-.8-16.5-1.5-23.6-2.1-5.6-.5-12.2-.4-19.5.2l-.4-4.8c7.6-.7 14.5-.7 20.4-.2 7.1.6 15.2 1.3 23.7 2.1 48.5 4.5 121.7 11.2 194.1 7.1l.3 4.8c-16.1.9-32.2 1.3-48 1.3zm-14.5-14.6c-54.9 0-105.5-4.4-142.4-7.6-4.8-.4-9.4-.8-13.7-1.2-6.2-.5-13.4-.4-21.5.3l-.4-4.8c8.4-.7 15.9-.9 22.4-.3 4.3.4 8.9.8 13.7 1.2 50.7 4.4 127.4 11.1 205.5 5.4l.3 4.8c-21.6 1.6-43.1 2.2-63.9 2.2zm14.5 70.4c-56 0-109-4.9-147-8.4-8.5-.8-16.5-1.5-23.6-2.1-2-.2-10.9-1.5-23.1-3.3-22.6-3.3-60.5-9-65.1-8.5l-.4-4.8c4.7-.4 32.8 3.6 66.2 8.6 11.2 1.7 21 3.1 22.8 3.3 7.1.6 15.2 1.3 23.7 2.1 48.5 4.5 121.7 11.2 194.1 7.1l.3 4.8c-16 .8-32.1 1.2-47.9 1.2zm-14.5-14.5c-54.9 0-105.5-4.4-142.4-7.6-4.8-.4-9.4-.8-13.7-1.2-2.2-.2-11-1.5-23.2-3.2-23.2-3.4-61.9-9-67-8.5l-.4-4.8c5.2-.5 35.2 3.8 68.1 8.6 11.7 1.7 20.9 3 22.9 3.2 4.3.4 8.9.8 13.7 1.2 50.7 4.4 127.4 11.1 205.5 5.4l.3 4.8c-21.5 1.4-43 2.1-63.8 2.1z"/><path d="M1256.9 1243.4l-.7-4.8c7.1-1 20.3-4.9 35.7-9.4 35.8-10.4 84.8-24.7 116.3-22l-.4 4.8c-30.6-2.6-79.1 11.5-114.6 21.8-16.2 4.8-29 8.5-36.3 9.6zm2.5-15l-.7-4.8c6.9-1 19.6-4.5 34.3-8.6 35.2-9.8 83.4-23.2 115.2-20.6l-.4 4.8c-30.9-2.6-78.6 10.7-113.5 20.4-15.4 4.3-27.6 7.7-34.9 8.8zm-5 80.4l-.7-4.8c7.1-1 20.3-4.9 35.7-9.4 35.8-10.4 84.8-24.7 116.3-22l-.4 4.8c-30.6-2.6-79.1 11.5-114.6 21.8-16.1 4.8-28.9 8.5-36.3 9.6zm2.6-15l-.7-4.8c6.9-1 19.6-4.5 34.3-8.6 35.2-9.8 83.4-23.2 115.2-20.6l-.4 4.8c-30.9-2.6-78.6 10.7-113.5 20.4-15.5 4.3-27.7 7.7-34.9 8.8z"/></g><g fill="#424144"><path d="M1408.9 1340.6c12.5 5.8 5.8 20.2 4.8 22.1s13.5 20.8-.1 28.3c9 15.8 44.6 76.3 68.4 116.2-8-26.2-23.6-69.6-50.1-114.3 8.7-7.6 11-16.6 2.9-32.8 2.4-26.2-23-51.5-30.2-92.7-10.4-56.9 8.2-94.1-8.2-130.4.1 2.7 0 5.3-.3 7.6-4.8 38.5-16 82.5-14.1 106.5 1.9 24.2 14.4 83.7 26.9 89.5zm-17.3-5.4c-87.5 6.7-95.9 33.1-95.9 33.1s2.1-2.8.8-8.3c-1.3-5.5-14.2-53.2-16.2-87.2 0 0 6 47.8 37.9 52.5 42.6 6.3 73.4 9.9 73.4 9.9z"/><path d="M1413.7 1362.7l2.3-6.7s-35-5-55.5 8.9c34.3-7.3 53.2-2.2 53.2-2.2zm-110.6 33.7c11.2-22.1 43.9-27.1 45.5-28.2s-35.9-3.2-45.5 28.2z"/></g><path fill="#ff6f68" d="M1599.4 1401.7l-43.7 224.1c-.9 4.8 2.8 9.2 7.7 9.2l123.7.6-85.1-238.4c-1.3 1.1-2.3 2.7-2.6 4.5z"/><path fill="#fe9287" d="M1961.6 1397.8l-354.1-2.6c-2.1-.1-4.1.6-5.6 1.9l85.1 238.4 202.8.9 74.1-238.2c-.6-.1-1.4-.3-2.3-.4z"/><path fill="#ff6f68" d="M1964 1398.3l-74.1 238.2 26.1.1c3.8 0 7-2.6 7.7-6.3l45.1-223.2c.9-3.8-1.3-7.4-4.8-8.8z"/><path fill="#fff" d="M1562.4 1626.5l41.6-214.2c.7-3.9 4.2-6.6 8.1-6.4l347.4 2.2c4.8.3 8.2 4.7 7.3 9.4l-43 213.3c-.7 3.7-4 6.3-7.7 6.3l-345.9-1.3c-5-.1-8.6-4.6-7.8-9.3z"/><path fill="#ffe2e1" d="M1633.7 1631.1l276.6 1c3.8 0 7-2.6 7.7-6.3l4.5-22s-14.9-24.1-56.7-1.7c-60.5 32.4-174.9 23.5-232.1 29z"/><path d="M1780.8 1539.5c3.1-.7 6.7 8.1 13.9 5.9 11.1-3.4 12.4-19.2 6.4-30.9-6-11.6-4.8-25.2-11.6-26.6-4.5-.9-6.8 16.7-13 23.5-3.4 3.8-12.1 14.6-10 22.1 2.2 7.5 9.8 7.1 14.3 6zm10.8-59.8c.8-6.7 15-14 18.5-9.9s-18.9 13.5-18.5 9.9z" fill="#fe9287"/><path fill="#ff6f68" d="M1667.2 1294.8c15-24.5 43.9-55.8 61.4-75s50.6-68.4 54.1-74.3c3.5-5.8 14-7.6 21.6-5.2s9.7 14.8 9.2 27.4c-.8 17.1-71.5 182.7-93.9 198.2-25.6 17.7-48.2 11.6-58.9-4.6-7.2-11-8.4-42.2 6.5-66.5z"/><path fill="#ff3f3d" d="M1676.6 1348.3c-30-26.2 5.3-74.7 1.3-69.3-4 5.4-7.7 10.7-10.7 15.7-15 24.4-13.8 55.5-6.6 66.5 10.6 16.2 33.1 21.5 58.9 4.6 8-5.3 22.5-31 34.7-55.1 10.5-20.7-44.7 66.3-77.6 37.6z"/><path fill="#ff6f68" d="M1782.3 1163c1.2-10.1.4-17.5.4-17.5s-.9-32.7-.1-39.7 11.7-35 12.1-38.5 8.6 4.3 5.4 15.9-3.1 15.2-1.9 15.6 20.2-31.1 22.9-35.4c2.7-4.3 20.2-24.5 22.2-26.8 1.9-2.3 2.3 8.9 0 14.2-2.3 5.2-18.7 35-19.1 37.7s14 7.6 15 12.8c1 5.2 7.3 17.1 5.7 24.3-1.6 7.2-20.7 26.8-26.9 29.9 0 0-5.1 21-7.8 23.7s-27.9-16.2-27.9-16.2z"/><path fill="#fe9287" d="M1841.9 1118.8c-2.8 4-9.1 17.3-9.8 20-.7 2.7.9 6.7 2.2 6.9s19.2-26.4 19.8-28.5c.6-2.1-2.3-6.8-5.5-6.4s-8.8 4-8.8 4l2.1 4z"/><path fill="#fe9287" d="M1836.8 1110.3c-3.5 5-11.4 20-12.2 23.3-.9 3.4 1.2 8.3 2.8 8.6 1.6.3 24-31.3 24.8-34 .7-2.6-2.9-8.5-6.9-8-3.9.4-11 5-11 5l2.5 5.1z"/><path fill="#fe9287" d="M1832.3 1101.6c-3.5 5-14.9 26.8-15.8 30.2-.9 3.4 1.2 8.3 2.8 8.6 1.6.3 27.6-38.2 28.3-40.8.7-2.6-2.9-8.5-6.9-8-3.9.4-11 5-11 5l2.6 5z"/><path fill="#fe9287" d="M1826.9 1093.6c-3.5 5-13.4 23.5-14.3 26.8s1.2 8.3 2.8 8.6c1.6.3 26.1-34.8 26.8-37.5.7-2.6-2.9-8.5-6.9-8-3.9.4-11 5-11 5l2.6 5.1z"/><path fill="#fff" d="M2111.9 977.7c-108.5 0-223.1-54.6-337.4-61.7 0 0-4.3 287.2-6.5 299.1 140.7 0 218.4 65.4 346.7 65.4l-2.8-302.8zm-159.5 218.8c-48.2-14.9-97.2-30.3-157.8-33.9l3.8-151.7c52.8 5.7 101.7 20.2 153.9 33.6l.1 152z" opacity=".9"/><path fill="#ff6f68" d="M2066.5 1004.4c-.3 0-.5 0-.8-.1-44.6-5.6-83.4-16.2-124.5-27.4-21.4-5.8-43.5-11.8-66.7-17.2-3-.7-5.1-3.3-5.1-6.4v-1c0-2 .9-3.9 2.5-5.1 1.6-1.3 3.6-1.7 5.6-1.2 22.3 5.2 44.8 11.5 66.6 17.5 40.7 11.3 82.8 23 123.3 27.8 3.3.4 5.8 3.2 5.8 6.5 0 1.9-.8 3.7-2.2 4.9-1.4 1.1-2.9 1.7-4.5 1.7zm-190.6-56.6c-1 0-2 .3-2.9 1-1.1.9-1.8 2.2-1.8 3.6v1c0 2.2 1.5 4 3.6 4.5 23.2 5.3 45.3 11.4 66.8 17.2 41 11.2 79.8 21.7 124.3 27.3 1.3.2 2.6-.2 3.6-1.1 1-.9 1.6-2.1 1.6-3.5 0-2.3-1.7-4.3-4.1-4.6-40.6-4.9-82.8-16.6-123.6-27.9-21.8-6-44.3-12.3-66.5-17.5h-1zm236 78.3c-57.2 0-114.8-15.3-175.7-31.6-52.9-14.1-107.7-28.7-161.7-32l.1-1.9c54.2 3.3 109 18 162.1 32.1 60.8 16.2 118.3 31.5 175.2 31.5v1.9zm-311.7-87.5c0 3.1-2.5 5.5-5.5 5.5-3.1 0-5.5-2.5-5.5-5.5 0-3.1 2.5-5.5 5.5-5.5s5.5 2.5 5.5 5.5zm11.2 9.6c-3.6 0-6.5-2.9-6.5-6.5s2.9-6.5 6.5-6.5 6.5 2.9 6.5 6.5-2.9 6.5-6.5 6.5zm0-11.1c-2.5 0-4.6 2.1-4.6 4.6s2.1 4.6 4.6 4.6 4.6-2.1 4.6-4.6c0-2.5-2.1-4.6-4.6-4.6zm16.7 13.9c-3.6 0-6.5-2.9-6.5-6.5s2.9-6.5 6.5-6.5 6.5 2.9 6.5 6.5-2.9 6.5-6.5 6.5zm0-11c-2.5 0-4.6 2.1-4.6 4.6s2.1 4.6 4.6 4.6 4.6-2.1 4.6-4.6c0-2.6-2.1-4.6-4.6-4.6z"/><path d="M2075.4 1081.4c-33.5 0-67.6-7.1-91.5-13.5-2.1-.6-3.3-2.7-2.7-4.7.6-2.1 2.7-3.3 4.7-2.7 26.2 7 65.1 15 101.3 13 2.1-.1 3.9 1.5 4.1 3.6.1 2.1-1.5 3.9-3.6 4.1-4.2.1-8.3.2-12.3.2zm0 22.2c-33.5 0-67.6-7.1-91.5-13.5-2.1-.6-3.3-2.7-2.7-4.7.6-2.1 2.7-3.3 4.7-2.7 26.2 7 65.1 15 101.3 13 2.1-.1 3.9 1.5 4.1 3.6.1 2.1-1.5 3.9-3.6 4.1-4.2.1-8.3.2-12.3.2zm-31.6 19.5h-.4c-18.8-2.2-38.8-6.1-59.4-11.6-2.1-.5-3.3-2.7-2.7-4.7.6-2.1 2.7-3.3 4.7-2.7 20.3 5.4 39.9 9.3 58.3 11.4 2.1.2 3.6 2.2 3.4 4.3-.3 1.8-2 3.3-3.9 3.3zm-3.1 21.9h-.5c-17.9-2.2-36.8-6-56.3-11.2-2.1-.6-3.3-2.7-2.7-4.7.6-2.1 2.7-3.3 4.7-2.7 19.2 5.1 37.8 8.8 55.3 11 2.1.3 3.6 2.2 3.3 4.3-.2 1.8-1.9 3.3-3.8 3.3z" fill="#ffe2e1"/><g fill="#ff3f3d"><path d="M1854.4 1040.9c-14 0-25.3-11.4-25.3-25.3 0-14 11.4-25.3 25.3-25.3 8.4 0 16.3 4.2 21 11.2l-5.6 3.8c-3.5-5.1-9.2-8.2-15.4-8.2-10.2 0-18.6 8.3-18.6 18.6 0 10.2 8.3 18.6 18.6 18.6 10.2 0 18.6-8.3 18.6-18.6h6.7c0 13.9-11.3 25.2-25.3 25.2z"/><path d="M1855.9 1026.1c-.9 0-1.7-.3-2.4-1l-11.1-11.1c-1.3-1.3-1.3-3.4 0-4.8 1.3-1.3 3.4-1.3 4.8 0l8.7 8.7 30.3-30.3c1.3-1.3 3.4-1.3 4.8 0 1.3 1.3 1.3 3.4 0 4.8l-32.6 32.6c-.7.8-1.6 1.1-2.5 1.1z"/></g><path fill="#2d2c2f" d="M1552.7 960.8s-19.2-14.1-52.2-14.1c-29.5 0-46.2 9.9-46.2 9.9l-8.5 17.7 49.5 31.2s-.1 0 0 .1l10.6 10.6 8.2-10.6c48.2-1.2 38.6-44.8 38.6-44.8z"/><path fill="#ff6f68" d="M1455.1 972.8c8.8-14 19.7-31.5 26.2-63.4 6.5-31.8 45.3-8.4 60.6 13.4 15.3 21.8-2.4 36.6 10.8 62 0 0-10.4 21.1-38.5 20.7 0 0-3.4 10.7-9.1 10.7-7.1 0-9.8-10.6-9.8-10.6-30.6-5.8-54.6-9.6-40.2-32.8z"/><path fill="#ff3f3d" d="M1541.9 922.9c-13.1-18.6-47-29.5-59.7-15.3 1.4 32.2 26.4 48.2 27.3 80 .5 18.6-37 10-47.3 10 8.2 3.4 20.1 5.5 33.2 8 0 0 2.7 10.6 9.8 10.6 5.7 0 9.1-10.7 9.1-10.7 28 .5 38.5-20.7 38.5-20.7-13.3-25.3 4.4-40-10.9-61.9z"/><path fill="#424144" d="M1472 1042.3c8.2 11.1-2.1-35.1 23.4-36.7 0 0-41-25-41-49 0 0-16.1 8.4-18.4 19.4-2.4 11 28.5 56.2 36 66.3zm65.7 0c-8.2 11.1 2.1-35.1-23.4-36.7 0 0 38.5-20.9 38.5-44.8 0 0 16.1 8.4 18.4 19.4 2.3 10.9-26.1 52-33.5 62.1z"/><path fill="#666" d="M1468.6 873.1c2.9-7.7 13.5-6.7 20.2-2.9.4.3.8.6 1.3.9 4.3-19 3.2-20.9-3.8-39.3-10.6-28-14.2-44.9-14.2-44.9-8.3 1.6-9.6-3.9-12.7 5.3s-6.1 50.2-3.9 80c2.4 31.1 8.8 40.1 23.7 46.7 0-3.7-.2-7.2-.9-10.1-4.9-11.6-15.5-23.2-9.7-35.7z"/><path fill="#424144" d="M1488.8 870.2c-6.7-3.8-17.3-4.8-20.2 2.9-5.8 12.5 4.8 24 9.6 35.6.7 3 .9 6.5.9 10.1 5-23.6 8.7-37.9 10.9-47.7l-1.2-.9z"/><path fill="#ff6f68" d="M1482.4 854.7c-10.3-5-17.6.4-18.4 14.2s3.8 19.2 11.9 21.1c8 1.9 2 24.7 16.2 42.7s46.6 35.5 65 35.5c21.7 0 48.2-60.8 51.7-95.6 3.4-34.9-11.3-79.1-39.3-85.6s-52.3-10.4-74.7 14.3c-22.2 24.4-12.4 53.4-12.4 53.4z"/><path fill="#424144" d="M1601.3 810.6c-4.8-2.7-10.8-5-17-5.6 1.4.3 2.7.6 4 1 17.5 4.9 21 49.9 21 49.9.2-.6.4-1.1.6-1.7.4-16.5 6.3-35.7-8.6-43.6zm-86.7-11.2c-9 4.1-12.8 9.7-12.1 10.9 5.4-4.9 28.6-8.3 51.5-8.2-14.9-8.9-22.8-10.2-39.4-2.7z"/><path fill="#666" d="M1586.5 774.1c-15.7-12.9-44.9-26.3-58.5-28.5-2-.3-4 .7-5.1 2.5-3.2 5.7-9.4 9.6-39.3 17.2-13.2 3.4-21.1 15.5-23.2 23.2-5.4 20.2 3.9 47.3 22 66.2 4 4.2 3.5 18.9 8 18.9 3.8 0 2.3-10.3 13.3-25.9 5.2-7.4-7.4-28.6-2-36.6.2-.3.4-.5.7-.8-.7-1.2 9.2-7.8 11-8.7 15.4-7.4 25.7-8.4 40.5.5 10.8.1 21.6.9 30.3 2.8 6.2.6 12.2 3 17 5.6 14.9 7.9 9 27.1 8.6 43.5 19.7-57.2.7-60.3-23.3-79.9z"/><path fill="#666" d="M1511.2 820.7c2.3 3.4 23-16.6 63.7-17.2 26.9-.4-23.3-25.9-36.4-15-14.9 12.3-29.1 29.5-27.3 32.2z"/><path fill="#ffe2e1" d="M366.9 1573.1c-46.9-1.3-108.4 1-88.5 9.8s49.5 0 100.7 4.3c46.7 3.9 97-4.5 78.9-9.2-15.3-4-25.6-3.1-91.1-4.9z"/><path fill="#fff" d="M320.8 1484.8c-3.2 22.1-1.6 93.2 75.1 93.1 75.5 0 82.7-65.7 72.1-93.1s-46.7-39-83.2-38.5-61.1 18.8-64 38.5z"/><path fill="#ffe2e1" d="M468 1484.8c-10.6-27.4-46.7-39-83.2-38.5-28.5.4-49.7 11.6-59 25.9 44-24.6 34.8 47.6 75.1 49.6 48.6 2.5 53.8 33.9 65.5 15 7.6-18.6 6.5-39.4 1.6-52zm-147.9 8.1c-.9 18.9 2.7 51.8 27.1 70.7 11.3 8.7 48.1-2.6 10.3-20.7-32.3-15.5-37.4-51.5-37.4-50z"/><path fill="#ff6f68" d="M327.9 1482.8c0 19.9 32.1 33.5 65 33.9 35.2.4 76.2-12.3 68.8-33.9-6.8-19.7-44.6-33-75.1-32.6-30.4.4-58.7 16-58.7 32.6z"/><path fill="#ff3f3d" d="M457.6 1481.9c-2-4.6-6.4-7.6-11.4-7.9-10.1-.7-18.8-2.2-28.7 1.6-8.3 2.8-33 13.1-44 11.5-7.3-1.1-9.1 2.1-1.6 7.3 11.7 8.1 41.2 2.8 51.3 9.2 1.7 1.7-11 8.5-5.6 7.8 25.2-4.1 45.9-12.6 40.5-28.2-.1-.4-.3-.8-.5-1.3z"/><path fill="#2d2c2f" d="M248.3 1253.6c-3.9 25.8 11.8 46.8-19.1 64.6 20.9 9.3 38.6 8 51.6 1.4-9.6-12.9-6-32-9.2-48-2.4-12-12.4-17.6-23.3-18z"/><path fill="#242326" d="M303.6 1272.2c-23.5-64-47.6-42.4-52.7-28.6-1.3 3.4-2.1 6.8-2.6 10 10.8.3 20.9 6 23.3 18 3.3 15.9-.4 35.1 9.2 48 19.4-9.9 28.6-31.6 22.8-47.4z"/><path fill="#424144" d="M286.6 1238.6c-.1-.4-.4-.6-.8-.6-.4.1-.6.4-.6.8 3.4 22.6-.3 41-11.2 54.8-13.5 17.2-34.5 22.2-42.2 23.5l.6 1.2c8.1-1.4 29-6.7 42.6-23.9 11.2-14 15.1-32.8 11.6-55.8zm49.3 112c-.3-1-1.5-1.6-2.5-1.3-1 .3-1.6 1.5-1.3 2.5l61 136.6c.3.7 1 1.2 1.8 1.2 1.4 0 2.4-1.5 1.8-2.8l-60.8-136.2z"/><path fill="#424144" d="M328.7 1294.2c-3.8-23.7-3.2-46.9-14.5-68.9-1.6-3.2-4.8-5.4-8.1-5.9-14.5-2.2-32.3-2.7-43.6 8.1-.9 1.4-2.2 2.7-3.9 2.8-2.7 4-5.2 8.4-7.6 13.4 20.5-6.9 36.2.8 35.7 39.3-.6 53.2 49.5 73.9 49.5 73.9s-.7-18.1 3.4-42.8c-6.2-5.1-10.2-12.3-10.9-19.9z"/><path fill="#4b4a4c" d="M258.5 1230.2c1.7 0 3-1.4 3.9-2.8 11.3-10.8 29.1-10.2 43.6-8.1 3.2.5 6.5 2.7 8.1 5.9 11.3 22.1 10.8 45.2 14.5 68.9.8 7.5 4.8 14.7 10.9 19.7 2-12 5.1-25.5 10-39.3 21.5-60.2-49.3-107-91-44.3z"/><path fill="#2d2c2f" d="M335.5 1357.1c-13-23.2-12.6-51.4-12.3-76.3.3-24.6.6-45.9-11.9-56.3-8.6-7.2-23-8.7-44-4.5l-.3-1.3c21.4-4.2 36.2-2.6 45.1 4.8 13 10.8 12.7 32.4 12.3 57.3-.3 24.7-.7 52.7 12.1 75.7l-1 .6z"/><path fill="#2d2c2f" d="M305.8 1334l-1.1-.7 18.9-31.1 16.9 7.3-.5 1.2-15.8-6.8-18.4 30.1zm-15.8-28.8l-1.1-.7 34.5-49.7 27.4 16.8-.7 1.1-26.3-16.1-33.8 48.6zm-4.2-40.6l-1.2-.7 26.6-40.8 37 4.5-.2 1.4-36.2-4.5-26 40.1zm-16-22.3l-1.3-.4 5.9-24.3 38.4-17.1.5 1.2-37.8 16.8-5.7 23.8z"/><path fill="#424144" d="M472.1 1438.5c-26.6 44.5-60.6 34.7-68.2 31.8l87.6-111-.1 3.3c-.6 11.4-3.8 50-19.3 75.9z"/><path fill="#4b4a4c" d="M406 1427.4c11.3-9.7 25.3-14 36.6-23.7 9.2-7.5 17.2-16.2 22.6-26.9 1.1-1.6 3.2-3.2 4.8-4.8 1.7-2.7 3.4-5.5 5-8.2-16.1 5.1-40.7 14.8-57.5 30-20.9 18.9-25.6 36.8-24.9 50.3 3.3-6.2 7.7-11.9 13.4-16.7z"/><path fill="#424144" d="M475.2 1363.7c-1.7 2.7-3.3 5.4-5 8.2-1.6 1.6-3.8 3.2-4.8 4.8-5.4 10.8-13.5 19.4-22.6 26.9-11.3 9.7-25.3 14-36.6 23.7-5.7 4.8-10.1 10.5-13.3 16.7.7 12.6 6.1 21.4 7.6 23.6l19.5 1.4 71.8-109.8-3.9.9c-3.2.8-7.5 2-12.7 3.6z"/><g fill="#2d2c2f"><path d="M491.5 1359.2l-87.6 111-19 23.4c-.8.9-2.2 1.1-3.1.3-.4-.3-.6-.7-.7-1.2-.2-.7 0-1.4.4-2l18.8-23.1c0 .1 90.9-108.3 91.2-108.4z"/><path d="M409.1 1458.8c0-.4.4-.8.8-.8l46.3-1.6c.5 0 .9.4.9.8 0 .5-.4.9-.8.9l-46.3 1.6c-.5 0-.9-.3-.9-.9zm44.8-54.3c0-.4.4-.8.8-.8l30.3-1.8c.5 0 .9.3.9.8s-.3.9-.8.9l-30.3 1.8c-.5 0-.9-.3-.9-.9zm21-26.3c0-.4.4-.8.8-.8l13.8-.8c.5 0 .9.3.9.8s-.3.9-.8.9l-13.8.8c-.5 0-.9-.3-.9-.9 0 .1 0 0 0 0zm-44.5 54.3c0-.4.4-.8.8-.8l44.9-2.6c.5 0 .9.3.9.8s-.3.9-.8.9l-44.9 2.6c-.5 0-.9-.3-.9-.9z"/><path d="M402.8 1409.8c0-.4.3-.7.7-.8.5-.1.9.3 1 .7l6.3 49c.1.5-.3.9-.7 1-.5.1-.9-.3-1-.7l-6.3-49v-.2zm47.5-36.9c0-.4.3-.7.8-.8.5-.1.9.3 1 .8l3.7 31.5c.1.5-.3.9-.8 1s-.9-.3-1-.8l-3.7-31.5c-.1-.1-.1-.1 0-.2zm23.9-8.6c0-.4.4-.8.8-.8.5 0 .9.3.9.8l.7 13.9c0 .5-.3.9-.8.9s-.9-.3-.9-.8l-.7-14c0 .1 0 .1 0 0zm-48.7 23.2c0-.4.3-.7.8-.8.5-.1.9.3.9.8l4.9 45c0 .5-.3.9-.8.9-.5.1-.9-.3-.9-.8l-4.9-45.1z"/></g><path fill="#4b4a4c" d="M379.8 1205.4c-.7-1.6-1.2-3.2-1.7-4.9-9.2-10-12.9-17.9-10.1-31.4 3.2-15.2-29-45.5-26.1-28.6L378 1308c13.7-32.4 14.5-69.7 1.8-102.6z"/><path fill="#424144" d="M408.9 1231.4c-13.2-14-23.7-23.1-30.8-30.9.5 1.7 1.1 3.4 1.7 4.9 12.7 32.9 11.8 70.3-1.8 102.5l3.8 17.4c34.7-2 66.9-51.8 27.1-93.9z"/><path fill="#2d2c2f" d="M380.2 1318.3c.1 0 .2 0 .3-.1l45.9-40.3c.2-.2.2-.4 0-.6s-.4-.2-.6 0l-45.9 40.3c-.2.2-.2.4 0 .6 0 .1.2.1.3.1zm-6.9-39.1c.1 0 .2 0 .3-.1l43.3-38c.2-.2.2-.4 0-.6s-.4-.2-.6 0l-43.3 38c-.2.2-.2.4 0 .6.1.1.2.1.3.1zm-9.7-37.5c.1 0 .2 0 .3-.1l28.4-25c.2-.2.2-.4 0-.6s-.4-.2-.6 0l-28.4 25c-.2.2-.2.4 0 .6 0 0 .2.1.3.1zm-7.6-38.8c.1 0 .2 0 .3-.1l14-12.1c.2-.2.2-.4 0-.6s-.4-.2-.6 0l-14 12.1c-.2.2-.2.4 0 .6 0 .1.2.2.3.1zm-8-36.2c.1 0 .2 0 .3-.1l14-12.1c.2-.2.2-.4 0-.6s-.4-.2-.6 0l-14 12.1c-.2.2-.2.4 0 .6.1.1.2.2.3.1zm32.5 188.5c0-1-.8-1.7-1.7-1.8-.9 0-1.7.8-1.8 1.7l-17.1 56.7h3.5l17.1-56.6z"/><path fill="#2d2c2f" d="M441.9 1099.6l-65.4 256.9c44.8 19.2 74.8 1.3 85.4-32.2 6-19 5.7-43-1.6-68.2-17.1-59-20.8-78.4-3.6-104.3 12.2-18.2-7.8-75.3-14.8-52.2z"/><path fill="#2d2c2f" d="M460.4 1256.1c-17.1-59-20.8-78.4-3.6-104.3 12.1-18.2-7.9-75.2-14.8-52.2l-13.7 53.8v.3c2.7 40.9 7.5 82.4-8.1 121.7-11.2 27.3-14.5 59.8-6.7 88.8 24.4-1.1 41-16.8 48.4-40 6-19 5.8-43-1.5-68.1z"/><path fill="#242326" d="M420.2 1275.4c15.6-39.3 10.8-80.8 8.1-121.7v-.3l-51.7 203.1c13.8 5.9 26.2 8.3 37 7.8-7.8-29.1-4.6-61.7 6.6-88.9z"/><path fill="#424144" d="M379.2 1346.7h.1l82.8-21.9c.3-.1.5-.4.4-.7-.1-.3-.4-.5-.7-.4l-82.8 21.9c-.3.1-.5.4-.4.7.1.3.3.4.6.4zm15.8-53.4h.1l67.8-17.9c.3-.1.5-.4.4-.7-.1-.3-.4-.5-.7-.4l-67.8 17.9c-.3.1-.5.4-.4.7s.3.4.6.4zm11.2-53.1h.1l44.8-11.9c.3-.1.5-.4.4-.7-.1-.3-.4-.5-.7-.4L406 1239c-.3.1-.5.4-.4.7.1.3.3.5.6.5zm14.6-53.4h.1l25.1-6.4c.3-.1.5-.4.4-.7-.1-.3-.4-.5-.7-.4l-25.1 6.4c-.3.1-.5.4-.4.7.1.2.3.4.6.4zm12.6-50.4h.1l25.1-6.4c.3-.1.5-.4.4-.7-.1-.3-.4-.5-.7-.4l-25.1 6.4c-.3.1-.5.4-.4.7.1.3.3.4.6.4z"/><path fill="#ffe2e1" d="M2015.9 1561.4c-10.4.8-7.2 6.4-2.7 15.5s65.2 96.4 72.1 98.5c27.3 8.7 159.5-2.3 182.3-5.1 28.2-3.5 30.2-6.1 14.1-24.2-24-27.2-95.1-85.6-101.3-85.6s-164.5.9-164.5.9z"/><path fill="#ff6f68" d="M2218.9 1653.6l-134.9 6.8-74.4-99c-.1-.2-.1-.5 0-.7.3-1.3 4.3-3.1 6.3 1.9l-2.1-14-1.4-2.8c-.3-.7.1-1.5.8-1.7l118.7-1.4c5.6-1.7 11.7.3 15.2 5 11.6 15.4 70.8 67.4 80.1 80.4 1.4 1.9 2.2 4.2 2.2 6.6l.2 4.3c.3 6.8-4.2 12.9-10.7 14.6z"/><path fill="#ffe2e1" d="M2208.8 1643.7c-37.5 3.8-90.4-7.7-127-4.8-12.3-30.3-52.2-57.7-68.5-86l.4-4.2 72.3 86 131.7-.7c3.8-.7 7.4 2.3 7.2 6.2-.1 2.2-.9 4.3-2.4 6-1.3 1.4-2.9 2.4-4.7 2.9l-1.3.3c-1.6-3.2-4.9-5.7-7.7-5.7z"/><path fill="#fff" d="M2081.9 1638.9c36.6-2.9 89.5 8.7 127 4.8 2.8 0 6 2.5 7.7 5.7l-131.6 6-72.3-93.7.8-8.8c16.2 28.2 56.1 55.7 68.4 86z"/><path fill="#ff3f3d" d="M2067 1598.5c37.2 12.9 94.6 9.5 84.8-.3-9-9.1-34.7-.3-49.3-4.9-28.4-9.1-46.8 1.2-35.5 5.2z"/><path fill="#2d2c2f" d="M2132.8 1505.2l-69.5-11.6c-2.7-.5-5-2-6.5-4.1s-4-9.1-3.5-11.8l25.3-136.4c.9-5.4 6.1-9.1 11.5-8.2l67.8 5.9c8.2 1.1 10.8 11.8 9.9 17.3l-23.5 140.8c-.9 5.3-6.1 9-11.5 8.1z"/><path fill="#4b4a4c" d="M2131.1 1499.4l-69.5-11.6c-5.4-.9-9.1-6.1-8.2-11.5l23.5-140.8c.9-5.4 6.1-9.1 11.5-8.2l69.5 11.6c5.4.9 9.1 6.1 8.2 11.5l-23.5 140.8c-.9 5.5-6 9.1-11.5 8.2z"/><path fill="#fff" d="M2154.2 1342.5l-3.1-.5c-1.5 3.2-5 5.2-8.6 4.6l-42-7c-3.6-.6-6.3-3.6-6.7-7.1l-3.1-.5c-4.8-.8-9.4 2.5-10.2 7.3l-22.5 134.8c-.8 4.8 2.5 9.4 7.3 10.2l63.5 10.6c4.8.8 9.4-2.5 10.2-7.3l22.5-134.8c.8-4.9-2.4-9.5-7.3-10.3z"/><path fill="#ffe2e1" d="M2151.2 1375l-68.7-11.5-8.6 51.8 68.8 11.1 8.5-51.4zm-14 66.1h-.3l-63.3-10.2c-1-.2-1.8-1.2-1.6-2.2s1.1-1.8 2.2-1.6l63.3 10.2c1 .2 1.8 1.2 1.6 2.2s-1 1.6-1.9 1.6zm-27.7 5.5h-.3l-37.2-6c-1-.2-1.8-1.2-1.6-2.2s1.2-1.8 2.2-1.6l37.2 6c1 .2 1.8 1.2 1.6 2.2-.2.9-1 1.6-1.9 1.6zm-2.9 9h-.3l-35.6-5.8c-1-.2-1.8-1.2-1.6-2.2s1.2-1.8 2.2-1.6l35.6 5.8c1 .2 1.8 1.2 1.6 2.2-.2.9-1 1.6-1.9 1.6z"/><path fill="#ff6f68" d="M2158 1364.3c-3.1-.5-75.5-12.5-77.8-13l.2-.9c2.2.5 77 12.9 77.7 13l-.1.9zm-68.5-16.1c-2.4 0-4.4-2-4.4-4.4s2-4.4 4.4-4.4 4.4 2 4.4 4.4c-.1 2.4-2 4.4-4.4 4.4zm0-7.8c-1.9 0-3.4 1.5-3.4 3.4s1.5 3.4 3.4 3.4 3.4-1.5 3.4-3.4-1.6-3.4-3.4-3.4zm11.3 9.7c-2.4 0-4.4-2-4.4-4.4s2-4.4 4.4-4.4 4.4 2 4.4 4.4c0 2.5-1.9 4.4-4.4 4.4zm0-7.8c-1.9 0-3.4 1.5-3.4 3.4s1.5 3.4 3.4 3.4 3.4-1.5 3.4-3.4c0-1.8-1.5-3.4-3.4-3.4zm10.7 9.8c-2.4 0-4.4-2-4.4-4.4s2-4.4 4.4-4.4 4.4 2 4.4 4.4c-.1 2.4-2 4.4-4.4 4.4zm0-7.8c-1.9 0-3.4 1.5-3.4 3.4s1.5 3.4 3.4 3.4 3.4-1.5 3.4-3.4-1.6-3.4-3.4-3.4z"/><path fill="#4b4a4c" d="M2116.7 1489.2h-.2l-37.7-6.1c-.5-.1-.9-.6-.8-1.1.1-.5.6-.9 1.1-.8l37.7 6.1c.5.1.9.6.8 1.1 0 .4-.5.8-.9.8z"/><g fill="#ff3f3d"><path d="M2087.9 1439.9c-14 0-25.3-11.4-25.3-25.3 0-14 11.4-25.3 25.3-25.3 8.4 0 16.3 4.2 21 11.2l-5.6 3.8c-3.5-5.1-9.2-8.2-15.4-8.2-10.2 0-18.6 8.3-18.6 18.6 0 10.2 8.3 18.6 18.6 18.6 10.2 0 18.6-8.3 18.6-18.6h6.7c.1 13.9-11.3 25.2-25.3 25.2z"/><path d="M2089.5 1425.1c-.9 0-1.7-.4-2.4-1L2076 1413c-1.3-1.3-1.3-3.4 0-4.8 1.3-1.3 3.4-1.3 4.8 0l8.7 8.7 30.3-30.3c1.3-1.3 3.4-1.3 4.8 0 1.3 1.3 1.3 3.4 0 4.8L2092 1424c-.8.7-1.6 1.1-2.5 1.1z"/></g><path fill="#fff" d="M1101.6 1535.6c73.4 0 142.4 17.5 222.9 17.5-1.2-6.8-3.7-82.2-3.7-82.2-65.4 4-155.5-19.7-217.6-19.7l-1.6 84.4z" opacity=".9"/><path fill="#ff6f68" d="M1132.4 1469.6c-.3 0-.6 0-.9-.1-1.1-.2-2-.9-2.6-1.8s-.8-2-.5-3.1c.2-1.1.9-2 1.8-2.6s2-.8 3.1-.5c1.1.2 2 .9 2.6 1.8s.8 2 .5 3.1c-.4 1.9-2.1 3.2-4 3.2zm0-6.3c-.4 0-.8.1-1.2.3-.5.3-.8.8-1 1.4-.1.6 0 1.2.3 1.7s.8.8 1.4 1c.6.1 1.2 0 1.7-.3s.8-.8 1-1.4c.1-.6 0-1.2-.3-1.7s-.8-.8-1.4-1h-.5zm-9.7 5.1c-.3 0-.6 0-.9-.1-2.2-.5-3.6-2.7-3.1-5 .2-1.1.9-2 1.8-2.6s2-.8 3.1-.5c1.1.2 2 .9 2.6 1.8s.8 2 .5 3.1c-.4 2-2.2 3.3-4 3.3zm0-6.3c-.4 0-.8.1-1.2.3-.5.3-.8.8-1 1.4-.3 1.2.5 2.4 1.7 2.6.6.1 1.2 0 1.7-.3s.8-.8 1-1.4c.1-.6 0-1.2-.3-1.7s-.8-.8-1.4-1c-.2.1-.4.1-.5.1zm-12.8.5c-.4 1.7.7 3.4 2.4 3.8 1.7.4 3.4-.7 3.8-2.4s-.7-3.4-2.4-3.8-3.4.7-3.8 2.4z"/><g fill="#ff3f3d"><path d="M1183.2 1492c-14 0-25.3-11.4-25.3-25.3s11.4-25.3 25.3-25.3c8.4 0 16.3 4.2 21 11.2l-5.6 3.8c-3.5-5.1-9.2-8.2-15.4-8.2-10.2 0-18.6 8.3-18.6 18.6s8.3 18.6 18.6 18.6c10.2 0 18.6-8.3 18.6-18.6h6.7c0 13.9-11.4 25.2-25.3 25.2z"/><path d="M1184.7 1477.2c-.9 0-1.7-.3-2.4-1l-11.1-11.1c-1.3-1.3-1.3-3.4 0-4.8 1.3-1.3 3.4-1.3 4.8 0l8.7 8.7 30.3-30.3c1.3-1.3 3.4-1.3 4.8 0 1.3 1.3 1.3 3.4 0 4.8l-32.6 32.6c-.8.8-1.7 1.1-2.5 1.1z"/></g><path fill="#ffe2e1" d="M1409.7 1612.1c25.1 3.3 7.3 12.9-16.2 12.9-28.7 0-35.5 26.6-94.1 25.3-65.5-1.4-189.8 13-220.5-4.8-30.8-17.8-55.3-11.3-41.2-26.8 15.4-16.9 49.1.3 143.1-5.8 53.2-3.4 186.6-6.4 228.9-.8z"/><path fill="#2d2c2f" d="M1064.3 1482.3h217.2c4 0 7.8 2.1 9.8 5.6l66.6 116.6c2.4 4.2 1.6 9.7-2.3 12.7-1.2.9-2.5 1.5-4.1 1.5l-215.2-3.6c-2 0-3.9-1.1-5-2.9l-72.2-117.5c-2.2-3.8.8-12.4 5.2-12.4z"/><path fill="#4b4a4c" d="M1064.1 1486.1h216.2c2 0 3.9 1.1 5 2.9l72 121.4c2.2 3.8-.6 8.6-5 8.6h-216.2c-2 0-3.9-1.1-5-2.9l-72-121.4c-2.2-3.8.6-8.6 5-8.6z"/><path fill="#2d2c2f" d="M1307.7 1566.6c-38.5-12.5-71.9 2.9-112.3.1-31.7-1.9-61.6-10.6-91.4-23.1-3.4-1.4-12.3-2.5-16.6-3.3l43.8 75.8c1 1.8 2.9 2.9 5 2.9h147.4c.4 0 37.5-38 42-41.4 4.7-3.7-12-9-17.9-11z"/><path fill="#424144" d="M1193.6 1547.9c1.4-1.2 5.8 2.4 9-.8 4.9-4.9 1.1-13.7-5.3-18.1-6.4-4.5-9.6-11.9-13.6-10.8-2.6.8 1.1 10.7-.2 16-.7 3-2.3 11.1 1 14.5 3.2 3.4 7 1.1 9.1-.8zm-11.2-34.6c-1.5-3.8 4-11.6 7-10.4 3 1.1-6.2 12.4-7 10.4z"/><path fill="#ff6f68" d="M1349.5 1621.4c-2 .9-4.4.4-5.8-1.3-1-1.2-2.9-.6-3.1.9 0 .2-.1.4-.1.6-.8 2.9-1.4 5.6-5.5 6.6l-25.9 4.8c-3.3.2-4.7-2.6-3.7-6.2l16.5-47.6c0-.2.1-.3.2-.5 1.2-3.2 5.8-3.5 7.6-.5l22.1 36.1c1.5 2.4.5 5.8-2.3 7.1z"/><path fill="#ff3f3d" d="M1336.1 1620.2l-15.2 3.2-2.3.5-10.2 2.2 12.8-42.3s13.6 22.1 17.3 28.3c1.2 2.1 1 6.3-2.4 8.1z"/><path fill="#ff6f68" d="M1329.7 1580.6l-17 49.7c-.4 1.6-1.9 2.8-3.5 2.8H1094c-2.4 0-4.1-2.3-3.5-4.6l17-49.7c.4-1.6 1.9-2.8 3.5-2.8h215.2c2.3 0 4.1 2.2 3.5 4.6z"/><path fill="#ff3f3d" d="M1326.2 1576H1111c-1.7 0-3.1 1.1-3.5 2.8l-12.1 35.3c1.9-1.5 16-23.4 79.2-15 41 5.4 68.9-22.2 102-19.4 47.6 4 51.9-3.7 49.6-3.7z"/><path fill="#fff" d="M713.9 1339.3c161.3 0 312.8-65.4 489.6-65.4-2.7-11.9-8.2-299.1-8.2-299.1-143.5 7-341.6 61.7-477.9 61.7l-3.5 302.8zm57.5-207.2c63.5 1.4 163-12.2 234.2-33.6l4.8 151.7c-76 20.5-175.6 29.9-239 33.9v-152z" opacity=".9"/><path fill="#ff6f68" d="M828.4 1063.1c-2.2 0-4.4-.8-5.9-2.2-1.3-1.2-2.1-2.8-2.1-4.4 0-3.3 3-6.1 7-6.5 50.9-4.9 103.8-16.5 155-27.8 27.4-6 55.7-12.3 83.7-17.5 2.7-.5 5.5.2 7.5 1.8 1.5 1.2 2.3 2.9 2.3 4.6v1c0 3.1-2.6 5.7-6.3 6.4-29.1 5.3-56.9 11.3-83.8 17.2-51.6 11.2-100.4 21.8-156.4 27.3-.4.1-.7.1-1 .1zm239.4-56.7c-.5 0-1 0-1.4.1-28 5.2-56.2 11.5-83.6 17.5-51.2 11.3-104.2 23-155.2 27.9-3 .3-5.3 2.3-5.3 4.6 0 1.4.8 2.4 1.4 3 1.3 1.2 3.4 1.8 5.4 1.6 55.9-5.6 104.6-16.1 156.2-27.3 26.9-5.8 54.7-11.8 83.9-17.2 2.8-.5 4.7-2.4 4.7-4.5v-1c0-1.2-.6-2.3-1.6-3.1-1.1-1-2.8-1.6-4.5-1.6zm-329.4 80.4c-7.3 0-14.5-.1-21.6-.5l.1-1.9c84.6 3.6 180.7-15.4 273.7-33.9 73.1-14.5 142.2-28.2 204.7-31.3l.1 1.9c-62.4 3.1-131.3 16.7-204.4 31.2-85.3 17-173.3 34.5-252.6 34.5zm21.7-19.6c-.5 0-1-.1-1.5-.2-1.7-.4-3.1-1.4-4.1-2.9-.9-1.5-1.2-3.2-.8-4.9.8-3.5 4.3-5.7 7.8-4.9 1.7.4 3.1 1.4 4.1 2.9.9 1.5 1.2 3.2.8 4.9-.6 3.1-3.3 5.1-6.3 5.1zm0-11.1c-2.1 0-4 1.4-4.5 3.6-.3 1.2-.1 2.4.6 3.4s1.7 1.8 2.9 2c2.5.6 4.9-1 5.5-3.4.3-1.2.1-2.4-.6-3.4s-1.7-1.8-2.9-2c-.3-.1-.7-.2-1-.2zm20.3 9.9c-.5 0-1-.1-1.5-.2-1.7-.4-3.1-1.4-4.1-2.9-.9-1.5-1.2-3.2-.8-4.9.8-3.5 4.3-5.7 7.8-4.9 1.7.4 3.1 1.4 4.1 2.9.9 1.5 1.2 3.2.8 4.9-.7 3.1-3.4 5.1-6.3 5.1zm-4.5-7.5c-.3 1.2-.1 2.4.6 3.4s1.7 1.8 2.9 2c2.5.6 4.9-1 5.5-3.4.3-1.2.1-2.4-.6-3.5-.7-1-1.7-1.8-2.9-2-2.5-.5-5 1-5.5 3.5zm-42.4.9c-.7 3 1.2 6 4.1 6.6 2.9.7 5.9-1.2 6.5-4.2s-1.2-6-4.1-6.6c-2.9-.6-5.8 1.3-6.5 4.2z"/><g fill="#ff3f3d"><path d="M950.9 1120.8c-14 0-25.3-11.4-25.3-25.3 0-14 11.4-25.3 25.3-25.3 8.4 0 16.3 4.2 21 11.2l-5.6 3.8c-3.5-5.1-9.2-8.2-15.4-8.2-10.2 0-18.6 8.3-18.6 18.6 0 10.2 8.3 18.6 18.6 18.6 10.2 0 18.6-8.3 18.6-18.6h6.7c0 13.8-11.3 25.2-25.3 25.2z"/><path d="M952.4 1105.9c-.9 0-1.7-.3-2.4-1l-11.1-11.1c-1.3-1.3-1.3-3.4 0-4.8 1.3-1.3 3.4-1.3 4.8 0l8.7 8.7 30.3-30.3c1.3-1.3 3.4-1.3 4.8 0 1.3 1.3 1.3 3.4 0 4.8l-32.6 32.6c-.7.8-1.6 1.1-2.5 1.1z"/></g><path d="M1045.1 1163.9c-1.9 0-3.7-1.1-4.1-2.6-.5-1.8.9-3.6 3.2-4 16.4-2.9 48.7-8.3 80.1-10.9 2.3-.2 4.4 1.1 4.7 3 .2 1.8-1.4 3.5-3.8 3.7-22.9 2-51 5.8-79.1 10.8h-1zm-2.2-21.7c-1.9 0-3.7-1.1-4.1-2.6-.5-1.8.9-3.6 3.2-4 16.9-3.1 50-8.6 82.4-11.3 2.3-.2 4.4 1.1 4.7 3 .2 1.8-1.4 3.5-3.8 3.7-31.9 2.7-64.7 8.2-81.4 11.2h-1zm-.4-20.1c-1.9 0-3.7-1.1-4.1-2.6-.5-1.8.9-3.6 3.2-4 43.6-7.9 100.6-15.3 129.8-12.2 2.3.2 3.9 1.9 3.6 3.8-.3 1.8-2.4 3.1-4.7 2.9-28.1-2.9-83.9 4.3-126.8 12.1h-1zm.4-20.2c-1.9 0-3.7-1.1-4.1-2.6-.5-1.8.9-3.6 3.2-4 43.4-7.8 100.2-15.2 129.3-12.1 2.3.2 3.9 1.9 3.6 3.8s-2.4 3.1-4.7 2.9c-28-2.9-83.6 4.3-126.3 12-.3-.1-.6 0-1 0z" fill="#f7d2d2"/><path fill="#ffe2e1" d="M470 1661.3c47.9 3 144.5 19.9 213.1 19.9s323.9-7 364.3-5.5c40.4 1.5 17.6-20.5-50.2-20-181.4 1.4-93.1-55.9-115.3-55.9H681.1c-10.5 0 2.1 33.3-17.5 39.6-19.6 6.4-146.8 1.9-187.2 1.1s-58.6 17.5-6.4 20.8z"/><path fill="#ff6f68" d="M1025.1 1380.1c.9-44.8 14.5-88.6 44.3-122.8-3.7-3.3-8.7-5.2-14.2-4.7H511.9c-11.5-1.1-29.6 13.2-29.6 24.7l8.7 294.3c0 11.5 9.4 20.9 20.9 20.9l507.8 7c-2.6-73.4 2.7-146 5.4-219.4z"/><path fill="#ff3f3d" d="M1069.4 1257.2c-29.8 34.2-43.4 78.1-44.3 122.8-2.7 73.4-8 146-5.4 219.3l29.2.4c11.5 0 27.1-16.7 27.1-28.3v-299.2c.1-5.9-2.5-11.3-6.6-15z"/><path fill="#fff" d="M1048.2 1599.8H501.5c-10.6 0-19.2-8.6-19.2-19.2V1278c0-10.6 8.6-19.2 19.2-19.2h546.8c10.6 0 19.2 8.6 19.2 19.2v302.6c-.1 10.6-8.7 19.2-19.3 19.2z"/><path fill="#ffe2e1" d="M710.9 1452.9c-96.8 104.5-214.5 71.1-211.2 124.6.5 8.9 8.1 15.8 17 15.8h529.9c-.4-.4-101.4-13-132.4-60.8-34.2-52.8-102.6-83.9-146.1-86.4-19.4-1.2-49.5-1.6-57.2 6.8z"/><path fill="#fe9287" d="M733.8 1382.9c3-.9 7.3 7.6 14.3 4.8 10.8-4.3 10.9-20.1 4.1-31.3-6.8-11.1-6.7-24.7-13.6-25.6-4.6-.6-5.5 17.2-11.1 24.4-3.1 4.1-10.9 15.5-8.3 22.8 2.7 7.4 10.1 6.3 14.6 4.9zm6.2-60.4c.3-6.8 13.9-15.1 17.7-11.3 3.8 3.8-17.9 14.9-17.7 11.3z"/><path fill="#ff3f3d" d="M852.1 1599.8H702.4l-19.3 48.8c-4.4 4.9-.9 12.7 5.7 12.7h115.3c4.3 0 8.4-1.5 11.7-4.2l36.3-57.3z"/><path fill="#ff3f3d" d="M809.6 1641.7L768 1459.5c-1.1-4.7-5.2-8-10-8h-38.1c-4.8 0-8.9 3.3-10 8l-41.6 182.2c-2.3 10.1 5.3 19.7 15.7 19.7h110.1c10.1-.1 17.8-9.7 15.5-19.7zm-70.8-29.9c-18.5 0-33.6-15-33.6-33.6 0-18.5 15-33.6 33.6-33.6 18.5 0 33.6 15 33.6 33.6s-15 33.6-33.6 33.6z"/><path fill="#ff6f68" d="M801.9 1641.7l-41.6-182.2c-1.1-4.7-5.2-8-10-8h-38.1c-4.8 0-8.9 3.3-10 8l-41.6 182.2c-2.3 10.1 5.3 19.7 15.7 19.7h110.1c10.2-.1 17.8-9.7 15.5-19.7zm-70.7-29.9c-18.5 0-33.6-15-33.6-33.6 0-18.5 15-33.6 33.6-33.6 18.5 0 33.6 15 33.6 33.6s-15.1 33.6-33.6 33.6zm31.3-167.8h-56.1c-.5 0-1-.4-1-1 0-.5.4-1 1-1h56.1c.5 0 1 .4 1 1s-.4 1-1 1zm1.1-10.2h-53.9c-.5 0-1-.4-1-1 0-.5.4-1 1-1h53.9c.5 0 1 .4 1 1 0 .5-.4 1-1 1zm2.2-10.2H714c-.5 0-1-.4-1-1s.4-1 1-1h51.8c.5 0 1 .4 1 1s-.5 1-1 1z"/><path d="M536.6 1586.3H515c-2.9 0-5.3-2.4-5.3-5.3v-2.2c0-2.9 2.4-5.3 5.3-5.3h21.7c2.9 0 5.3 2.4 5.3 5.3v2.2c0 2.9-2.4 5.3-5.4 5.3zm44.4 0h-21.7c-2.9 0-5.3-2.4-5.3-5.3v-2.2c0-2.9 2.4-5.3 5.3-5.3H581c2.9 0 5.3 2.4 5.3 5.3v2.2c.1 2.9-2.3 5.3-5.3 5.3z" fill="#fff"/><path fill="#fe9287" d="M1188.5 418.1h-9.8c-2.4 0-4.4-2-4.4-4.4v-24.9c0-4.8 3.9-8.7 8.7-8.7h1.2c4.8 0 8.7 3.9 8.7 8.7v24.9c0 2.4-2 4.4-4.4 4.4z"/><path fill="#fff" d="M1190 420.7v-4.8c0-3.5-2.9-6.4-6.4-6.4s-6.4 2.9-6.4 6.4v5c-19.3 3.4-33.9 20.2-33.9 40.4 0 22.6 18.4 41 41 41s41-18.4 41-41c-.1-20.7-15.4-37.8-35.3-40.6z" opacity=".9"/><path fill="#fe9287" d="M1182.3 241.2h2.5v157.9h-2.5V241.2z"/><path fill="#ffe2e1" d="M1183.6 489.8c-.7-.1-1.2-.6-1.2-1.2V450l-9.1 38.9c-.1.6-.7 1-1.3.9-.6-.1-1.1-.6-1.1-1.2l-1.9-49.1c0-.7.5-1.2 1.2-1.3.6 0 1.2.5 1.2 1.2l1.6 40.2 9.5-40.4c.1-.6.7-1 1.3-.9.6.1 1.1.6 1.1 1.2v39.3l9.9-39.5c.2-.6.7-1 1.3-.9.6.1 1.1.6 1 1.2l-1.9 49.1c0 .7-.6 1.2-1.3 1.2-.7 0-1.2-.6-1.2-1.3l1.5-37.4-9.4 37.7c-.2.5-.7.9-1.2.9z"/><path fill="#ff6f68" d="M1066.1 544.6h-9.8c-2.4 0-4.4-2-4.4-4.4v-24.9c0-4.8 3.9-8.7 8.7-8.7h1.2c4.8 0 8.7 3.9 8.7 8.7v24.9c0 2.5-2 4.4-4.4 4.4z"/><path fill="#fff" d="M1067.6 547.3v-4.8c0-3.5-2.9-6.4-6.4-6.4s-6.4 2.9-6.4 6.4v5c-19.3 3.4-33.9 20.2-33.9 40.4 0 22.6 18.4 41 41 41s41-18.4 41-41c-.1-20.7-15.4-37.8-35.3-40.6z" opacity=".9"/><path fill="#ff6f68" d="M1059.9 300.6h2.5v225h-2.5v-225z"/><path fill="#ffe2e1" d="M1061.2 616.4c-.7-.1-1.2-.6-1.2-1.2v-38.6l-9.1 38.9c-.1.6-.7 1-1.3.9-.6-.1-1.1-.6-1.1-1.2l-1.9-49.1c0-.7.5-1.2 1.2-1.3.6 0 1.2.5 1.2 1.2l1.6 40.2 9.5-40.4c.1-.6.7-1 1.3-.9.6.1 1.1.6 1.1 1.2v37.5l8-37.7c.1-.6.7-1 1.3-1 .6.1 1.1.5 1.1 1.2l1.9 49.1c0 .7-.5 1.2-1.2 1.3-.7 0-1.2-.5-1.3-1.2l-1.5-39.3-8.4 39.5c-.2.5-.7.9-1.2.9z"/><path fill="#ff6f68" d="M1315.1 639.1h-9.8c-2.4 0-4.4-2-4.4-4.4v-24.9c0-4.8 3.9-8.7 8.7-8.7h1.2c4.8 0 8.7 3.9 8.7 8.7v24.9c0 2.4-2 4.4-4.4 4.4z"/><path fill="#fff" d="M1316.6 641.7v-4.8c0-3.5-2.9-6.4-6.4-6.4s-6.4 2.9-6.4 6.4v5c-19.3 3.4-33.9 20.2-33.9 40.4 0 22.6 18.4 41 41 41s41-18.4 41-41c0-20.7-15.4-37.8-35.3-40.6z" opacity=".9"/><path fill="#ff6f68" d="M1308.9 285.9h2.5V620h-2.5V285.9z"/><path fill="#ffe2e1" d="M1310.2 710.8c-.7-.1-1.2-.6-1.2-1.2V671l-9.1 38.9c-.1.6-.7 1-1.3.9-.6-.1-1.1-.6-1.1-1.2l-1.9-49.1c0-.7.5-1.2 1.2-1.3.7 0 1.2.5 1.3 1.2l1.6 40.2 9.5-40.4c.1-.6.7-1 1.3-.9.6.1 1.1.6 1.1 1.2v39.3l9.9-39.5c.1-.6.7-1 1.3-.9.6.1 1.1.6 1 1.2l-1.9 49.1c0 .7-.6 1.2-1.2 1.2-.7 0-1.2-.6-1.2-1.3l1.5-37.4-9.4 37.7c-.4.5-.9.9-1.4.9z"/></svg>