<svg xmlns="http://www.w3.org/2000/svg" xmlns:xlink="http://www.w3.org/1999/xlink" viewBox="0 0 2500 2000"><defs><path id="a" d="M1842.5 301.6c-256.1-124.7-718.8 99.2-951.3 55.4-328-61.8-698.4-81.2-673.5 232.2 21.6 272.6-81.8 288.5-91.3 548.4-9.2 252.7 80.7 377.4 251.8 380 662.5 10 886.6 203.6 1184.7 216.6 315.1 13.7 811.1-14.9 811.4-479.3.2-350.4-203.7-793.6-531.8-953.3z"/></defs><clipPath id="b"><use overflow="visible" xlink:href="#a"/></clipPath><g clip-path="url(#b)"><path fill="#ffe2e1" d="M2834.3 1433.4L889.8 1087V-119.3h1944.5v1552.7z"/><path fill="#ff6f68" d="M-345 1439.9L889.8 1087V-119.3H-345v1559.2z"/><path fill="#fe9287" d="M-345 1850.4v-410.5L889.8 1087l1944.5 272.3v497.6l-3179.3-6.5z"/></g><defs><path id="c" d="M1842.5 301.6c-256.1-124.7-718.8 99.2-951.3 55.4-328-61.8-698.4-81.2-673.5 232.2 21.6 272.6-81.8 288.5-91.3 548.4-9.2 252.7 80.7 377.4 251.8 380 662.5 10 886.6 203.6 1184.7 216.6 315.1 13.7 811.1-14.9 811.4-479.3.2-350.4-203.7-793.6-531.8-953.3z"/></defs><clipPath id="d"><use overflow="visible" xlink:href="#c"/></clipPath><g clip-path="url(#d)"><path fill="#ffe2e1" d="M-345 1420.3v19.6l1234.3-352.7V1071L-345 1420.3z"/><path fill="#fff" d="M889.8 1070.9l-.5.1v16.2l.5-.2 1944.5 272.3v-12.7L889.8 1070.9z"/></g><defs><path id="e" d="M1842.5 301.6c-256.1-124.7-718.8 99.2-951.3 55.4-328-61.8-698.4-81.2-673.5 232.2 21.6 272.6-81.8 288.5-91.3 548.4-9.2 252.7 80.7 377.4 251.8 380 662.5 10 886.6 203.6 1184.7 216.6 315.1 13.7 811.1-14.9 811.4-479.3.2-350.4-203.7-793.6-531.8-953.3z"/></defs><clipPath id="f"><use overflow="visible" xlink:href="#e"/></clipPath><g fill="#ff3f3d" clip-path="url(#f)" opacity=".3"><path d="M1031.7 1154.8c20.1 34.3 82.4 22 59.4 48.8-73.1 85.4-340.9 79.8-396.4 113.3-20.5 12.4 61.4 43.4 58.2 70.3-.7 6.2-43.7 27.9-58.9 29.7-25.9 3-91.5-11.7-135.8-22.2-35.2-8.3-116.3 36.8-153.3 41.5-121.5 15.6-81.2-58.9-136.7-46.9s-119.9 24.1-164.9 0c-25.7-13.8-24.1-85.8 59.3-89.6s203.1-55.1 255-66.1c51.8-11 359.2-107.5 402.3-114.9 43.1-7.2 188.9-2.9 211.8 36.1zm610.8 37.5c-83.4-18.7-73.7 23.1-51 29.1 67.7 18 206.5 137 262.6 144.1 183.2 23.3 436.2 70.4 484.6 62.9s149.4-107.3 73.1-122.9c-76.2-15.6-719.3-102-769.3-113.2z" opacity=".5"/></g><defs><path id="g" d="M1842.5 301.6c-256.1-124.7-718.8 99.2-951.3 55.4-328-61.8-698.4-81.2-673.5 232.2 21.6 272.6-81.8 288.5-91.3 548.4-9.2 252.7 80.7 377.4 251.8 380 662.5 10 886.6 203.6 1184.7 216.6 315.1 13.7 811.1-14.9 811.4-479.3.2-350.4-203.7-793.6-531.8-953.3z"/></defs><clipPath id="h"><use overflow="visible" xlink:href="#g"/></clipPath><g clip-path="url(#h)"><path fill="#ff3f3d" d="M657.2 1525c-21.1 6.1-16.1 27.4 21.6 32.5 21 2.8 45.2.3 64.7 9.5 19.6 9.1 34.6 19.4 57.8 16.4 17.2-2.1 89.6-3.4 103.7-16.4 11.1-10.3-7-14.7-73.7-17.9-24.7-1.3-137.7-34.7-174.1-24.1z" opacity=".2"/></g><defs><path id="i" d="M1842.5 301.6c-256.1-124.7-718.8 99.2-951.3 55.4-328-61.8-698.4-81.2-673.5 232.2 21.6 272.6-81.8 288.5-91.3 548.4-9.2 252.7 80.7 377.4 251.8 380 662.5 10 886.6 203.6 1184.7 216.6 315.1 13.7 811.1-14.9 811.4-479.3.2-350.4-203.7-793.6-531.8-953.3z"/></defs><clipPath id="j"><use overflow="visible" xlink:href="#i"/></clipPath><g clip-path="url(#j)"><path fill="#ff3f3d" d="M1235.1 1688.1c54.2 32.9 238.7 62.2 280.3 49.9 115.2-34.1 302.9-182.5 366.9-149.8 72.5 37 192.8 16.2 231.4 12.4 54.9-5.3 159.1-74.8 135.9-101.5-23.2-26.6-270.4-31.1-306.6-55.1s-136-58.4-187.4-44.6-201.6 60.3-263 59.7c-61.5-.6-450.8 13.5-532.5 22.2s91 68.5 63 83.9c-27.9 15.4-96.4 28.5-93.1 53.7 3.3 25.3 57.9 52.5 99 51.5 41.1-.9 176.3-.4 206.1 17.7z" opacity=".2"/></g><defs><path id="k" d="M1842.5 301.6c-256.1-124.7-718.8 99.2-951.3 55.4-328-61.8-698.4-81.2-673.5 232.2 21.6 272.6-81.8 288.5-91.3 548.4-9.2 252.7 80.7 377.4 251.8 380 662.5 10 886.6 203.6 1184.7 216.6 315.1 13.7 811.1-14.9 811.4-479.3.2-350.4-203.7-793.6-531.8-953.3z"/></defs><clipPath id="l"><use overflow="visible" xlink:href="#k"/></clipPath><g clip-path="url(#l)"><path fill="#ff3f3d" d="M1077.9-80.3c0 220.6-.1 1175.3-.1 1175.3l212.2 29.8 252.7 35.5 254.8 35.8 272.3 38.3 342.9 48.2 74.9 10.5 201.6 28.3V145.6c0-19.3-14.2-35.7-33.3-38.5L1122.5-118.8c-23.5-3.5-44.6 14.7-44.6 38.5z" opacity=".08"/><path fill="#ffe2e1" d="M2711.3 109.9c-28-35.2-104.7-53.6-150-60l-62.7 19.2-92.4 81.2 230.7 32.4 74.4-72.8zm-444.7 163l-380.8 334.7v248.8l380.8-341.5v-242zm-973.7 852.4l162.2 22.8V983.7l-162.2 141.6zm193.7-169.1v196.3l56.2 7.9L1860 879.5V630.3l-373.4 325.9zM2388.3 166l-99 86.9v241.5l330-295.9-231-32.5zm-587.7 1030.6l269.3 37.9 196.7-210.4V747l-466 449.6zm892.8-859.7l-404.1 388.3v274.6l404.1-430.9v-232zm-16.8 739.1l-203.3 215.9 196.9 27.7 6.4-243.6z"/><path fill="#ffe2e1" d="M1092.1-29.9l1.5-10.9 1572.6 221-1.5 10.9-1572.6-221z"/><path fill="#ffe2e1" d="M2283.7 58.1h11v1207.2h-11V58.1zM1883.7 9h11v1200.1h-11V9zm-400-56.3h11v1200.1h-11V-47.3z"/></g><path fill="#fff" d="M237.3 1323.6c0 4.1 3.3 7.5 7.5 7.5 4.1 0 7.5-3.3 7.5-7.5V725.1c-5.2-10.7-7.8-23.4-14.9-31.4v629.9h-.1z"/><path fill="#fe9287" d="M244.7 664.1c-4.1 0-7.5 3.3-7.5 7.5v22.1c7.2 7.9 9.7 20.7 14.9 31.4v-53.5c.1-4.2-3.2-7.5-7.4-7.5z"/><path fill="#fff" d="M366.5 1354.2c0 4.5-4.2 7.7-8.6 6.7l-220.6-55c-3.1-.8-5.3-3.6-5.2-6.8 0-4.5 4.2-7.7 8.6-6.7l220.6 55c3 .8 5.2 3.6 5.2 6.8z"/><ellipse cx="359.8" cy="1397.6" fill="#ffe2e1" rx="11.8" ry="11.8" transform="rotate(-23 360 1398)"/><path fill="#fe9287" d="M365.1 1400.9c1.2 1.2 3.1 2 4.9 2.9 1.1-1.8 1.8-4 1.8-6.3 0-6.5-5.3-11.8-11.8-11.8-2.6 0-5.1.9-7 2.3 6.3 1.6 8.3 9.1 12.1 12.9z"/><path fill="#fff" d="M353.6 1355.2c-.2 5.9.1 20.3 0 24.6-.1 6 16.3 16.7 17.8 20.6 1.5 3.8 12.5-4.8 3.7-13.5-5.7-5.6-8.8-7.6-8.7-11.3.1-2.7 0-20.4 0-20.4h-12.8z"/><ellipse cx="137.9" cy="1340.6" fill="#ffe2e1" rx="11.8" ry="11.8" transform="rotate(-45 138 1341)"/><path fill="#fe9287" d="M143.4 1343.9c1.2 1.2 3.1 2 4.9 2.9 1.1-1.8 1.8-4 1.8-6.3 0-6.5-5.3-11.8-11.8-11.8-2.6 0-5.1.9-7 2.3 6.2 1.6 8.2 9.1 12.1 12.9z"/><path fill="#fff" d="M131.9 1298.2c-.2 5.9.1 20.3 0 24.6-.1 6 16.3 16.7 17.8 20.6 1.5 3.8 12.5-4.8 3.7-13.5-5.7-5.6-8.8-7.6-8.7-11.3.1-2.7 0-20.4 0-20.4h-12.8zm731.9-168.1c0 4.1 3.3 7.5 7.5 7.5s7.5-3.3 7.5-7.5V530.4c-4.8-9.4-8.1-19.5-14.9-27.2l-.1 626.9z"/><path fill="#fe9287" d="M871.3 470.6c-4.1 0-7.5 3.3-7.5 7.5v25.2c6.9 7.7 10.2 17.8 14.9 27.2v-52.4c.1-4.2-3.3-7.5-7.4-7.5z"/><path fill="#fff" d="M993 1160.7c0 4.5-4.2 7.7-8.6 6.7l-220.6-55c-3.1-.8-5.3-3.6-5.2-6.8 0-4.5 4.2-7.7 8.6-6.7l220.6 55c3.1.8 5.2 3.6 5.2 6.8z"/><ellipse cx="986.6" cy="1204.3" fill="#ffe2e1" rx="11.8" ry="11.8" transform="rotate(-23 987 1204)"/><path fill="#fe9287" d="M991.7 1207.4c1.2 1.2 3.1 2 4.9 2.9 1.1-1.8 1.8-4 1.8-6.3 0-6.5-5.3-11.8-11.8-11.8-2.6 0-5.1.9-7 2.3 6.2 1.6 8.3 9.1 12.1 12.9z"/><path fill="#fff" d="M980.2 1161.7c-.2 5.9.1 20.3 0 24.6-.1 6 16.3 16.7 17.8 20.6 1.5 3.8 12.5-4.8 3.7-13.5-5.7-5.6-8.8-7.6-8.7-11.3.1-2.7 0-20.4 0-20.4h-12.8z"/><ellipse cx="764.9" cy="1147.2" fill="#ffe2e1" rx="11.8" ry="11.8" transform="rotate(-45 765 1147)"/><path fill="#fe9287" d="M769.9 1150.4c1.2 1.2 3.1 2 4.9 2.9 1.1-1.8 1.8-4 1.8-6.3 0-6.5-5.3-11.8-11.8-11.8-2.6 0-5.1.9-7 2.3 6.3 1.6 8.3 9.1 12.1 12.9z"/><path fill="#fff" d="M758.4 1104.7c-.2 5.9.1 20.3 0 24.6-.1 6 16.3 16.7 17.8 20.6 1.5 3.8 12.5-4.8 3.7-13.5-5.7-5.6-8.8-7.6-8.7-11.3.1-2.7 0-20.4 0-20.4h-12.8zM212.2 670.3c-1.4-5.8 2.2-11.6 8-12.9l663-192.7c5.8-1.4 11.6 2.2 12.9 8 1.4 5.8-2.2 11.6-8 12.9l-663 192.7c-5.8 1.3-11.5-2.2-12.9-8z"/><path fill="#ef3535" d="M873.3 603.3c3.2-11.7-22.1-13.6-25.3-14.8s-35.7-6.7-46.7-13.9c-11-7.3-34.6-26.3-45.6-18.8-.7.5-10.9 5.5-13.3 8.3-6.6 7.4-7.8 30.7-7.8 52.6 0 11.9 25.5 13.8 27.5 27.6 9.6 65.3 24.4 143.3 26.8 146 2.4 2.9 74.4 17.5 73.5-13.6-2.5-82.1 5.7-154.4 10.9-173.4z"/><path fill="#ffe2e1" d="M863.3 604.4L807 548s-4.7-7.8-4.8-12.4c-.3-12.5-.7-36.1-.7-39.8 0-5-4.4-10.5-10.9-10.5-7.4 0-11.2 4.5-10.9 9.2l8.2-2.3s2-.7 3.5-.3c3.5.9 4 3.4 4 7.5v34.7c0 3.3-8.3 10.9-8.3 10.9l-34.6 13.3c-.8.3-.3 2.4-.6 3.2s-19.7 3.6-11.6 9.9c5.5 4.2 42.5 36.4 62 43.1 14.4 5 48.2 10.4 61.8 12.5 3.4.5 6.5-2.1 6.4-5.6 0-5-1.3-12.1-7.2-17zm-57.9 4.7c-18.8-6.5-44-27.5-50-32.7 0 0-4.8-10 0-13.5 0 0 20.9-7.7 33.5-12.4 4.9-1.8 13.9 1.4 13.9 1.4l52.7 55.5 8 12.2c.5.7-.1 1.7-1 1.6-11.7-1.4-40.9-6.5-57.1-12.1z"/><path fill="#ff3f3d" d="M790.5 657.6c-1-.9-2.1-1.8-3.2-2.8 1.1 1.5 2.2 2.4 3.2 2.8zm-3.2-2.7c-13.3-16-38.7-92.1-25.8-100.8 0 0-12.2.5-19 10 .4.3.7.7.9 1.2 6.3 19.7 3.3 39.4.8 59.1 10.3 8.1 21.1 15.7 32.4 22.9 3.9 2.4 7.4 5 10.7 7.6zm46 82.4c-4-29-4.2-51.7 3.8-79.7 5.9-21.5 25.6-65.9 36.5-56.3-1-10.5-25.6-12.8-25.6-12.8 1.4 1.2 6.6 8.7 3.1 13.3-13.5 17.3-48.8 60.7-60.5 55.8 26.1 23.6 22.7 54.2 13.1 99.3-6 24-.8 52.7-26.8 54.7-.9 48.4 14.5 98.6 17.7 146.8 23.9 15 49.1 27.5 58.5 24.8 19.9-5.5 26.2-10.7 25.6-13.9-.4-2.2-10.3-120.8-16.2-192.7-6.1 5.2-9.8 7.7-13.6 5.2-11.1-7.9-13.6-32.5-15.6-44.5z"/><path fill="#ef3535" d="M790 806.7c26-2 46-26.7 51.5-40.4 1.4-11.9-24-94-65-119-14.9-9.5-28.8-19.7-41.8-30.6-.3 7.1-.5 13.3-.5 17.2 0 13.3 8.5 273.3 8.5 283 0 5.1 25.1 24.8 51.8 41.5-3.2-48.2-5.5-103.3-4.5-151.7z"/><path fill="#151516" d="M756.3 632.2c11-5.1-.8-14.4-4-15.6-3.2-1.2-35.7-6.7-46.7-13.9-11-7.3-34.6-26.3-45.6-18.8-10.9 7.5 14.5 91.2 18.5 95.9 4 4.6 40.6-30.5 77.8-47.6z"/><path fill="#ffe2e1" d="M767.6 632.5l-56.3-56.4s-4.7-7.8-4.8-12.4c-.3-12.5-.7-36.1-.7-39.8 0-5-4.4-10.5-10.9-10.5-7.4 0-11.2 4.5-10.9 9.2l8.2-2.3s2-.7 3.5-.3c3.5.9 4 3.4 4 7.5v34.7c0 3.3-8.3 10.9-8.3 10.9l-34.6 13.3c-.8.3-.3 2.4-.6 3.2s-1.9 18.4-1.4 18.9c5.2 4.5 32.4 27.4 51.9 34.1 18.2 6.3 48.1 9.7 56.8 10.6.3 0 2.3-16.9 2.6-17 .6-.2 1.1-.7 1.5-1.3.5-.9.5-1.9 0-2.4zm-57.9 4.7c-18.8-6.5-44-27.5-50-32.7 0 0-4.8-10 0-13.5 0 0 20.9-7.7 33.5-12.4 4.9-1.8 13.9 1.4 13.9 1.4l52.7 55.5 1 12c-9.7-1-33.7-4.3-51.1-10.3z"/><path fill="#2d2c2f" d="M781.5 785.3c3.9 3.6 48.2-36.9 45.9-42.5-8.5-21.2-45.2-107-53.9-117.8-8.7-10.9-21.3-8.3-21.3-8.3 1.4 1.2 7.8 10.4 2 11.2-21.3 2.8-53.6 48-65.4 43.2-11.8-4.8-37.1-79.3-23.2-88.8 0 0-17.6.7-22.4 16.9-1.5 4.9-6.3 18-8.9 30.6-1.4 7.1-2.9 15.9-4 23.9 9.9 13 18.5 27.3 26.8 40.8 22 35 46 64 66 101 3 6 10 13 8 21-6 23-28 29-45 40-2.6 40.8-.7 82.3 1.8 123.3 26.6 17.7 58.3 34.7 69.1 31.7 19.9-5.5 26.2-10.7 25.6-13.9-.6-3.2-20.5-243.2-20.5-246.6s17.3 32.3 19.4 34.3z"/><path fill="#151516" d="M686.3 856.3c17-11 39-17 45-40 2-8-5-15-8-21-20-37-44-66-66-101-8.3-13.5-17-27.7-26.8-40.8-1.2 8.6-2 16.3-2 19.8 0 1.7 4.3 6.9 10.3 5.3 1.7 60.1 8.1 257.9 8.1 266.4 0 4.4 18.8 19.8 41.2 34.6-2.5-41-4.4-82.5-1.8-123.3z"/><path fill="#ffe2e1" d="M363.3 1099.3c-18.2-23-34.6-47.9-59.7-63.1-1.4 9.7.6 24.2 1.7 30.8 1.2 7.1 79.5 60.7 91.7 62.7 9.7 1.6 32.3 1.3 35.7-2.7 1.1-1.4 1.5-5.5 1.5-10.4-26.8 6.6-55.2 3.4-70.9-17.3z"/><path fill="#fe9287" d="M432.6 1095.3L305.3 1030c-.8 1.7-1.4 3.8-1.7 6.2 25.1 15.2 41.5 40.1 59.7 63.1 15.8 20.7 44.2 23.9 70.8 17.3-.1-9.4-1.5-21.3-1.5-21.3zM414 732.6c11-5.1-.8-14.4-4-15.6-3.2-1.2-34.6-8.7-46.7-13.9-19.7-8.5-34.6-26.3-45.6-18.8-10.9 7.5 14.5 91.2 18.5 95.9 4 4.6 40.6-30.5 77.8-47.6z"/><path fill="#ffe2e1" d="M425.3 732.9L369 676.5s-4.7-7.7-4.8-12.4c-.3-12.5-.7-36.1-.7-39.8 0-5-4.4-10.5-10.9-10.5-7.4 0-11.2 4.5-10.9 9.2l8.2-2.3s2-.7 3.5-.3c3.5.9 4 3.4 4 7.5v34.8c0 3.3-8.3 10.9-8.3 10.9l-34.6 13.3c-.8.3-.3 2.4-.6 3.2-.3.8-1.9 18.4-1.4 18.9 5.2 4.5 32.4 27.4 51.9 34.1 18.2 6.3 48.1 9.7 56.8 10.6.3 0 2.3-16.9 2.6-17 .6-.2 1.1-.7 1.5-1.3.5-.9.5-1.9 0-2.5zm-57.9 4.7c-18.8-6.5-44-27.5-50-32.7 0 0-4.8-10 0-13.5 0 0 20.9-7.7 33.5-12.4 4.9-1.8 13.9 1.4 13.9 1.4l52.7 55.5 1 12c-9.7-1-33.7-4.3-51.1-10.3z"/><path fill="#ffe2e1" d="M481.7 1029.9c-8.5-21.2-29-275.9-37.8-286.8-8.7-10.9-34-26.2-34-26.2 1.4 1.2 7.8 10.4 2 11.2-21.3 2.8-47.7 14.9-62.7 30.8-5.4-33.9-39.8-67-25.8-76.5 0 0-17.6.7-22.4 16.9-2.5 8.5-14.6 242.6-14.1 302.8 0 0 4.7-1.6 4.7 0 0 6-.7 14 7.6 11.7 3.8 2.2-9 19.7 5.4 31.3 7.5 6.1 90.4 71.9 110.3 66.4s26.2-10.7 25.6-13.9c-.6-3.2-4.4-47.1-4.4-50.5.1-3.2 47.9-11.5 45.6-17.2z"/><path fill="#fff" d="M405.9 745.6c-21 13.6-56.7 13.4-56.7 13.4s16-18.2 29.8-24.7 39.7-9.1 30.9-17.3c0 0 10.8-4.8 21.3 0s13.6 34.5 15.8 39.3c2.3 4.8-16.4-26.7-41.1-10.7z"/><path fill="#fff" d="M349.3 759s-3.1-32.4-13.5-44.1c-12-13.5-18.1-26.7-9.8-32.4 0 0-8.7-2.7-13.6-1.4-4.9 1.2-19 12.2-10.5 25.9s34.6 20.7 47.4 52z"/><path fill="#fe9287" d="M436.2 1047.4l4.7 54.2s-6.3 9.3-26 10.1c-19.7.9 15.8-15.9 10.7-32.2s-25-56.3-16.7-90.3 4.9-105.3 9.6-108.7c4.7-3.3 14.7 131.3 16 140 1.3 8.7 51.5 2 47.4 12-4 10.1-45.7 14.9-45.7 14.9zm-136.9-42.6s10-142.3 8.7-154.3c-1.3-11.9-17.4 142.7-21 151.8 7.9-.7 12.3 2.5 12.3 2.5z"/><path fill="#ffe2e1" d="M436.9 1034.3c-.4 4.3-2 17.2 0 21.6s39.7 3.8 41.7-2.2-1.7-21.7-1.7-21.7-39.5-2.4-40 2.3z"/><path fill="#fff" d="M342.1 1073.7h-3s.1-73.2.1-97.7v-8.9c-.2-43-.6-173.9 8.7-208.5.2-.8 1-1.3 1.8-1.1s1.3 1 1.1 1.8c-6.1 22.7-9 92.6-8.6 207.7v8.9c0 24.6-.1 97.8-.1 97.8zm24.8-203.2c-.7 0-1.4-.6-1.5-1.3 0-.2-2.6-20.4-3.9-45-1.8-33-.5-57.8 3.7-73.5.2-.8 1-1.3 1.8-1.1s1.3 1 1.1 1.8c-9.9 36.8.1 116.5.2 117.3s-.5 1.6-1.3 1.7c.1.1 0 .1-.1.1zm-46.1-42.6c-.2 0-.3 0-.5-.1-.8-.3-1.2-1.1-1-1.9.1-.4 13.3-40.6 23.3-77.6.2-.8 1-1.3 1.8-1.1s1.3 1 1.1 1.8c-10 37.2-23.2 77.4-23.4 77.8-.1.7-.7 1.1-1.3 1.1zm77.5 232.3c-.3 0-.6-.1-.9-.3-27.5-20.9-36.3-54.4-36.4-54.8-.2-.8.3-1.6 1.1-1.8.8-.2 1.6.3 1.8 1.1.1.3 8.7 32.8 35.3 53.1.7.5.8 1.4.3 2.1-.3.4-.8.6-1.2.6zm-90.2-40.1c-.6 0-1.1-.3-1.4-.9-.3-.8 0-1.6.7-2 8.4-3.8 15.3-23.9 15.4-24.1.3-.8 1.1-1.2 1.9-.9s1.2 1.1.9 1.9c-.3.9-7.4 21.5-17 25.9-.1.1-.3.1-.5.1z"/><path fill="#fe9287" d="M647.7 663.6c11-5.1-.8-14.4-4-15.6-3.2-1.2-34.6-8.7-46.7-13.9-19.7-8.5-34.6-26.3-45.6-18.8-10.9 7.5 14.5 91.2 18.5 95.9 4.1 4.6 40.7-30.5 77.8-47.6z"/><path fill="#ffe2e1" d="M659 663.9l-56.3-56.4s-4.7-7.7-4.8-12.4c-.3-12.5-.7-36.1-.7-39.8 0-5-4.4-10.5-10.9-10.5-7.4 0-11.2 4.5-10.9 9.2l8.2-2.3s2-.7 3.5-.3c3.5.9 4 3.4 4 7.5v34.7c0 3.3-8.3 10.9-8.3 10.9l-34.6 13.3c-.8.3-.3 2.4-.6 3.2s-1.9 18.4-1.4 18.9c5.2 4.5 32.4 27.4 51.9 34.1 18.2 6.3 48.1 9.7 56.8 10.6.3 0 2.3-16.9 2.6-17 .6-.2 1.1-.7 1.5-1.3.5-.8.6-1.8 0-2.4zm-57.9 4.7c-18.8-6.5-44-27.5-50-32.7 0 0-4.8-10 0-13.5 0 0 20.9-7.7 33.5-12.4 4.9-1.8 13.9 1.4 13.9 1.4l52.7 55.5 1 12c-9.7-.9-33.7-4.3-51.1-10.3z"/><path fill="#fff" d="M713.8 950.6c-2.3-5.7-12.7-52.4-11.3-100.1 1.7-55.5-2.6-153.3-10.2-170.4-10.6-23.9-48.6-32.1-48.6-32.1 1.4 1.2 7.8 10.4 2 11.2-21.3 2.8-48.6-.8-60.4-5.7-11.8-4.8-42.1-30.5-28.2-40 0 0-17.6.7-22.4 16.9-2.9 9.8-9.9 263.6-9.9 276.9 0 1.8 3.8 4.8 11.8 5.3 1.7 61.9 1.7 55.4 1.7 63.8 0 4.1 15.8 23.6 39.6 25.7 2.5.2.8 9.4 2.3 10.3 25.1 16.1 58.5 33.1 68.4 30.4 19.9-5.5 26.2-10.7 25.6-13.9-.6-3.2-5.9-62.6-5.5-62.3 4 3.6 47.4-10.3 45.1-16z"/><defs><path id="m" d="M713.8 950.6c-2.3-5.7-12.7-52.4-11.3-100.1 1.7-55.5-2.6-153.3-10.2-170.4-10.6-23.9-48.6-32.1-48.6-32.1 1.4 1.2 7.8 10.4 2 11.2-21.3 2.8-48.6-.8-60.4-5.7-11.8-4.8-42.1-30.5-28.2-40 0 0-17.6.7-22.4 16.9-2.9 9.8-9.9 263.6-9.9 276.9 0 1.8 3.8 4.8 11.8 5.3 1.7 61.9 1.7 55.4 1.7 63.8 0 4.1 15.8 23.6 39.6 25.7 2.5.2.8 9.4 2.3 10.3 25.1 16.1 58.5 33.1 68.4 30.4 19.9-5.5 26.2-10.7 25.6-13.9-.6-3.2-5.9-62.6-5.5-62.3 4 3.6 47.4-10.3 45.1-16z"/></defs><clipPath id="n"><use overflow="visible" xlink:href="#m"/></clipPath><g fill="#ffe2e1" clip-path="url(#n)"><path d="M681.9 666.6c-18.6 0-40.4-2.9-63.8-8.6-16.5-4-32.5-9.1-46.5-14.7s-26-11.8-34.5-17.8c-8.3-5.9-12.7-11.3-13.2-16.2l2-.2c.4 4.2 4.7 9.3 12.4 14.7 16.5 11.7 47.4 24.2 80.4 32.2 32.9 8 67.9 11.5 92.5 5.5l.5 1.9c-8.7 2.2-18.7 3.2-29.8 3.2zm-158.5-32.3l2-.2c.4 4.2 4.7 9.4 12.4 15 9.8 7.2 24.7 14.8 42.1 21.6 11.9 4.7 25 9 38.5 12.6 10.8 2.9 21.8 5.3 32.7 7 22.5 3.6 44 4.3 60.7.2l.5 1.9c-4.7 1.2-9.9 2-15.4 2.4-4.4.4-9.1.5-14 .5-18.4-.2-40-3.2-63.1-9.2-17-4.4-33.5-10.3-48-16.5-14-6-26.2-12.5-34.9-18.9-8.5-5.9-13-11.5-13.5-16.4zm-.5 24.9l2-.2c.4 4.2 4.7 9.5 12.4 15.3 9.8 7.4 24.7 15.4 42.1 22.7 11.9 5 25.1 9.7 38.6 13.6 10.9 3.2 22 5.8 32.8 7.8 22.7 4.2 44.6 5.3 61.4 1.2l.5 1.9c-4.7 1.1-9.8 1.9-15.3 2.4-4.4.4-9 .5-13.9.4-18.3-.3-39.6-3.5-62.4-9.8-17.5-4.8-34.6-11.5-49.4-18.2-14.1-6.4-26.5-13.3-35.3-19.9-8.3-6.4-13-12.2-13.5-17.2zm-.5 25l2-.2c.4 4.2 4.8 9.6 12.5 15.6 9.8 7.7 24.7 16 42.1 23.7 11.9 5.3 25.1 10.3 38.7 14.6 10.9 3.4 22.1 6.4 33 8.6 23 4.7 45.1 6.3 62.1 2.2l.5 1.9c-4.6 1.1-9.7 1.9-15.1 2.3-4.3.3-8.9.4-13.7.3-18.1-.5-39.3-3.9-61.6-10.4-18.1-5.3-35.6-12.7-50.9-20-14.1-6.7-26.7-14-35.7-21-8.5-6.6-13.4-12.7-13.9-17.6zm-.4 24.9l2-.2c.4 4.2 4.8 9.7 12.5 16 9.8 7.9 24.7 16.7 42.2 24.8 12 5.6 25.2 10.9 38.8 15.5 11 3.7 22.2 6.9 33.2 9.4 23.3 5.3 45.7 7.3 62.8 3.1l.5 1.9c-4.6 1.1-9.6 1.9-15 2.2-4.3.3-8.9.3-13.6.2-18-.7-38.9-4.3-60.9-11.1-18.6-5.7-36.6-13.8-52.3-21.7-14.1-7.1-26.9-14.8-36.1-22.1-8.7-6.7-13.6-13-14.1-18zm-.5 25l2-.2c.4 4.2 4.8 9.9 12.5 16.3 9.8 8.2 24.7 17.3 42.2 25.9 12 5.9 25.3 11.6 39 16.5 11 4 22.3 7.5 33.4 10.2 23.6 5.9 46.2 8.3 63.4 4.1l.5 1.9c-4.6 1.1-9.5 1.8-14.9 2.2-4.3.3-8.8.3-13.5.1-17.8-.8-38.5-4.7-60.2-11.7-19.1-6.2-37.7-15-53.7-23.4-14.1-7.4-27.2-15.5-36.5-23.2-8.6-7.2-13.7-13.7-14.2-18.7z"/><path d="M521 759l2-.2c.4 4.2 4.8 10 12.6 16.6 9.8 8.4 24.7 17.9 42.3 26.9 12 6.2 25.3 12.2 39.1 17.5 11.1 4.3 22.4 8 33.6 11 23.9 6.4 46.8 9.3 64.1 5l.5 1.9c-4.5 1.1-9.5 1.8-14.7 2.1-4.2.2-8.7.2-13.3 0-17.6-1-38.1-5.1-59.4-12.3-19.6-6.7-38.7-16.1-55.2-25.2-14.2-7.8-27.4-16.3-36.9-24.3-8.9-7.2-14.2-13.9-14.7-19z"/><path d="M520.6 783.9l2-.2c.4 4.2 4.9 10.1 12.6 16.9 9.8 8.6 24.8 18.5 42.3 28 12 6.5 25.4 12.9 39.2 18.5 11.1 4.5 22.5 8.5 33.7 11.8 24.2 7 47.4 10.2 64.8 6l.5 1.9c-4.5 1.1-9.4 1.8-14.6 2-4.2.2-8.6.1-13.2-.1-17.5-1.1-37.7-5.5-58.7-12.9-20.1-7.1-39.7-17.3-56.6-26.9-14.2-8.1-27.6-17-37.3-25.3-8.9-7.6-14.2-14.5-14.7-19.7z"/><path d="M520.1 808.9l2-.2c.4 4.2 4.9 10.2 12.6 17.2 9.9 8.9 24.8 19.2 42.3 29.1 12 6.8 25.5 13.5 39.3 19.5 11.2 4.8 22.7 9.1 33.9 12.6 24.4 7.6 47.9 11.2 65.5 6.9l.5 1.9c-4.5 1.1-9.3 1.7-14.5 1.9-4.2.2-8.5.1-13.1-.3-17.3-1.3-37.4-5.9-58-13.6-20.6-7.6-40.8-18.4-58.1-28.6-14.3-8.4-27.9-17.8-37.7-26.4-8.7-7.7-14.2-14.8-14.7-20z"/><path d="M519.6 833.8l2-.2c.4 4.2 4.9 10.3 12.7 17.5 9.9 9.1 24.8 19.8 42.4 30.2 12.1 7.1 25.5 14.2 39.5 20.5 11.2 5.1 22.8 9.6 34.1 13.4 24.7 8.2 48.5 12.2 66.2 7.9l.5 1.9c-4.4 1.1-9.2 1.7-14.4 1.9-4.1.1-8.4 0-12.9-.4-17.2-1.5-37-6.4-57.2-14.2-21.1-8.1-41.8-19.6-59.5-30.4-14.3-8.8-28.1-18.5-38.1-27.5-9.1-8-14.8-15.3-15.3-20.6z"/><path d="M519.2 858.8l2-.2c.4 4.2 4.9 10.5 12.7 17.8 9.9 9.4 24.8 20.4 42.4 31.2 12.1 7.4 25.6 14.8 39.6 21.5 11.3 5.4 22.9 10.2 34.3 14.2 25 8.7 49.1 13.2 66.9 8.9l.5 1.9c-4.4 1.1-9.1 1.7-14.2 1.8-4.1.1-8.4 0-12.8-.5-17-1.6-36.6-6.8-56.5-14.8-21.6-8.7-42.9-20.7-61-32.1-14.3-9.1-28.4-19.3-38.5-28.6-9.2-8.3-14.9-15.8-15.4-21.1z"/><path d="M518.7 883.7l2-.2c.4 4.2 5 10.6 12.7 18.1 9.9 9.6 24.8 21 42.5 32.3 12.1 7.7 25.6 15.5 39.7 22.4 11.3 5.6 23 10.8 34.5 15 25.3 9.4 49.6 14.2 67.5 9.8l.5 1.9c-4.3 1.1-9.1 1.6-14.1 1.7-4 .1-8.3-.1-12.7-.6-16.8-1.8-36.2-7.3-55.8-15.4-22.1-9.2-43.9-21.8-62.4-33.9-14.4-9.4-28.6-20-38.9-29.7-9.1-8.3-15-16-15.5-21.4z"/><path d="M518.2 908.6l2-.2c.4 4.2 5 10.7 12.8 18.4 9.9 9.8 24.8 21.6 42.5 33.4 12.1 8 25.7 16.1 39.8 23.4 11.4 5.9 23.1 11.3 34.6 15.8 25.5 9.9 50.2 15.2 68.2 10.8l.5 1.9c-4.3 1.1-9 1.6-14 1.7-4 .1-8.2-.2-12.6-.7-16.7-2-35.7-7.7-55-16-22.6-9.7-45-22.9-63.8-35.6-14.4-9.7-28.9-20.8-39.3-30.8-9.1-8.7-15.2-16.6-15.7-22.1z"/><path d="M517.7 933.6l2-.2c.4 4.2 5 10.8 12.8 18.7 9.9 10.1 24.8 22.3 42.5 34.4 12.1 8.3 25.8 16.8 39.9 24.4 11.4 6.2 23.2 11.9 34.8 16.6 25.8 10.5 50.7 16.2 68.9 11.7l.5 1.9c-4.3 1-8.9 1.6-13.8 1.6-4 0-8.1-.2-12.4-.8-16.5-2.1-35.3-8.2-54.3-16.7-23-10.3-46.1-24-65.3-37.3-14.5-10-29.1-21.5-39.7-31.8-9.2-8.9-15.3-17-15.9-22.5z"/><path d="M706.1 1071.8c-19 0-42.3-7.4-65.8-18.2s-47.1-25.2-66.7-39.1c-27.2-19.3-55.1-44.1-56.2-56l2-.2c.9 9.6 23.7 32 55.4 54.5 21.9 15.6 48.9 31.7 75.1 42.8s51.3 17.1 69.6 12.7l.5 1.9c-4.5 1.1-9 1.6-13.9 1.6z"/></g><defs><path id="o" d="M713.8 950.6c-2.3-5.7-12.7-52.4-11.3-100.1 1.7-55.5-2.6-153.3-10.2-170.4-10.6-23.9-48.6-32.1-48.6-32.1 1.4 1.2 7.8 10.4 2 11.2-21.3 2.8-48.6-.8-60.4-5.7-11.8-4.8-42.1-30.5-28.2-40 0 0-17.6.7-22.4 16.9-2.9 9.8-9.9 263.6-9.9 276.9 0 1.8 3.8 4.8 11.8 5.3 1.7 61.9 1.7 55.4 1.7 63.8 0 4.1 15.8 23.6 39.6 25.7 2.5.2.8 9.4 2.3 10.3 25.1 16.1 58.5 33.1 68.4 30.4 19.9-5.5 26.2-10.7 25.6-13.9-.6-3.2-5.9-62.6-5.5-62.3 4 3.6 47.4-10.3 45.1-16z"/></defs><clipPath id="p"><use overflow="visible" xlink:href="#o"/></clipPath><g fill="#ffe2e1" clip-path="url(#p)"><path d="M727.2 1064.6l-2-.4c5.1-25.9 4-102.5 2.9-183.6-1-70.2-1.5-128.4 0-169.2.8-20.4 2-36.4 4-47.5 1-5.5 2.1-9.8 3.5-12.7s2.9-4.5 4.7-4.7l.2 2c-2 .2-4.3 3.6-6.3 14.5s-3.7 29.3-4.5 59.6c-1.2 44.1-.4 102 .4 158 1.2 81.3 2.2 157.9-2.9 184zm-35.8-358.7c.8-17 1.9-31 3.5-41.6.3-2.3.7-4.5 1.1-6.5 1.1-5.6 2.3-9.9 3.7-12.9.3-.7.7-1.3 1-1.8 1.2-1.8 2.4-2.8 3.8-2.9l.1 1.3c-.1 0-.1.8-.1.8-.4.1-.8.3-1.2.7-1.9 1.7-3.8 6.4-5.5 15.8-1.6 8.9-3.1 22.1-4.1 40.9-.3 6-.6 12.6-.9 19.7-.9 25.7-1.2 55.8-1.1 86.8 0 24.4.3 49.5.6 73.9.2 14.9.4 29.5.7 43.5.5 27.2 1 52 1.5 71.9 0 .5-.3 1.1-.3 1.6-.8 23.9-2.1 39.9-4.4 44.6 0-.1-1.6-.6-1.7-.7 4-27.6 3.1-98.9 2.3-174.3-.7-66.2-.8-121.5 1-160.8zm-36.8-5.7c1-17.3 2.3-31.4 4-42.1.4-2.4.8-4.5 1.2-6.6 1.1-5.7 2.4-10 3.9-13 .3-.7.7-1.3 1-1.8 1.2-1.8 2.5-2.8 3.9-2.9l.1 1.4c-.1 0-.2.6-.4.8-.4.1-.8.4-1.2.8-2.1 2.2-4.1 7.7-6 17.6-1.7 9.5-3.3 23.1-4.4 41.5-.4 6.2-.7 12.9-1.1 20.1-1.2 26.5-1.6 57.2-1.7 88.3-.1 25.2.1 50.6.4 75.2.2 15.3.5 30.1.8 44.3.7 29 1.6 54.4 2.6 73 0 .4-.7 1-.7 1.4-1.3 16.4-2.8 23.8-4.9 20.5 0-.2-1.3-.7-1.3-1 2.9-29.4 2.1-95.3 1.7-165-.3-62 0-114.6 2.1-152.5zm-36.8-5.6c1.1-17.5 2.7-31.8 4.5-42.6.4-2.4.8-4.6 1.2-6.6 1.2-5.7 2.6-10.1 4.1-13.1.3-.7.7-1.3 1.1-1.9 1.2-1.8 2.5-2.8 4-2.9l.2 1.6c-.2 0-.4.5-.6.7-.4.2-.9.5-1.3 1-2.3 2.6-4.5 8.9-6.4 19.4-1.9 10.1-3.5 24.1-4.7 42.2-.5 6.4-.9 13.2-1.2 20.4-1.4 27.3-2.1 58.6-2.3 89.8-.2 25.9-.1 51.8.2 76.5.2 15.7.5 30.8.9 45 .9 30.8 2.2 56.8 3.8 74.2 0 .3-1 .9-1 1.2-1.8 9-3.6 7.7-5.5-3.5 0-.4-1-.9-1-1.3 1.8-31.1 1.1-91.7 1.1-155.7-.2-58.2.5-107.9 2.9-144.4zM581 689c1.3-17.8 3-32.2 5-43.1.4-2.4.9-4.7 1.3-6.7 1.3-5.8 2.7-10.3 4.2-13.3.4-.7.7-1.3 1.1-1.9 1.2-1.8 2.6-2.8 4-3l.2 1.7c-.3 0-.5.4-.8.7-.4.3-.9.7-1.4 1.2-2.5 3.1-4.8 10.2-6.8 21.1-2 10.7-3.7 25.1-5 42.9-.5 6.5-1 13.4-1.4 20.7-1.6 28-2.5 60-2.9 91.3-.3 26.6-.3 52.9 0 77.7.2 16 .5 31.4 1 45.7 1 32.6 2.8 59.2 5 75.3 0 .2-1.3.7-1.3.9-2.3 1.5-4.3-8.3-6.1-27.6 0-.5-.7-1.1-.7-1.6.7-32.8.2-88.1.5-146.4.3-53.7 1.4-100.6 4.1-135.6zm-36.8-5.7c1.6-18 3.4-32.6 5.4-43.6.5-2.4.9-4.7 1.4-6.8 1.4-5.9 2.9-10.4 4.4-13.4.4-.7.7-1.3 1.1-1.9 1.3-1.8 2.7-2.8 4.1-3l.2 1.8c-.4 0-.7.3-1.1.6-.5.3-.9.8-1.4 1.4-2.7 3.6-5.1 11.5-7.2 22.9-2.1 11.3-3.9 26.1-5.3 43.6-.6 6.7-1.1 13.7-1.6 21.1-1.9 28.8-3 61.4-3.5 92.8-.5 27.3-.5 54.1-.2 79 .2 16.4.6 32.1 1.1 46.5 1.2 34.4 3.4 61.7 6.1 76.5 0 .1-1.6.6-1.6.7-2.8-5.9-5.1-24.4-6.7-51.7 0-.6-.4-1.3-.4-1.9-.3-34.6-.8-84.5-.2-137.1.9-49.8 2.5-93.9 5.4-127.5zm-34.9 319.3c-3.4-13.7-5.9-41.6-7.4-77.9-1.4-36.3-1.8-80.9-.8-127.8 1-45.8 3.1-87.1 6.2-119.2 1.7-18.3 3.7-33.1 5.9-44.2 2.2-11.1 4.6-18.6 7.3-22.3 1.3-1.8 2.7-2.9 4.2-3l.2 2c-.9.1-1.8.8-2.8 2.2-2.9 4.1-5.4 12.7-7.6 24.7-2.2 11.9-4.1 27.1-5.6 44.3-3.1 34.3-5 76.4-5.8 115.6-1 46.8-.7 91.3.8 127.5 1.4 36.2 3.9 64.1 7.3 77.7l-1.9.4z"/></g><path fill="#fff" d="M656.5 868.3c4.8 49.6 11.9 98 12.3 98.3 0 0 .1.1.2.1-4.5-53.4-10.5-127.1-13.5-163.1-.8 18.6-1 44.3 1 64.7z"/><path fill="#ffe2e1" d="M657.5 757.3c.5-4.8-10.8 8.4-7.8 46.4 2.1 26.2-13.2 50.2-13.8 65.1-1.3 33.1 12.3 107.5 28.3 136.5 4 8 5 17 2 25-1.8 3.5-4.3 6.6-7.4 9.3 11.9-4.3 15.9-8.1 15.5-10.7-.2-1-2.4-27.2-5.3-62.2-.1 0-.1-.1-.2-.1-.1-.1 45-5.3 45-16 0-2-46.5 1.8-46.8-.7-4.1-41.9-13.6-151.3-9.5-192.6z"/><path fill="#ffe2e1" d="M708.4 926.8s-27.5-.1-31.5 0-7-4.2 0-5.5 21.7-1 21.3-9.7c-.3-8.7-.6-50.2 4.2-61.1 0 0-.9 26.5 1.1 38.1 2.1 11.7 4.9 38.2 4.9 38.2zM538.9 743.9c9.2-13.9-2.3 168.7-2.3 168.7s-11.8-1.5-11.8-5.3c.1-3.7 5.3 7.9 7-13.1 1.8-20.9 3.1-144.3 7.1-150.3zm167.3 193.2c.6 2.4-.4 4.7-2.1 5.1-1.7.4-3.5-1.3-4.1-3.7s.4-4.7 2.1-5.1 3.5 1.2 4.1 3.7zm-128.2 65c.4-9.6.2-120.6 4.3-214.5 3.1-71 11.7-132.3 8-132.4-3.6-.1-10 61.3-12.7 132.4-3.6 93.9-3.2 204.7-4 213.6 10.3 2 4.4.9 4.4.9z"/><path fill="#ffe2e1" d="M573.5 670.3c1.9-6.7 16.7-15.1 16.7-15.1s-32.2-29.4-33.1-41.6c-.9-12.3-12.9 4.7-14.7 13.7-1.6 9 28.4 52.5 31.1 43zm24 8.7c.9-6.9-7.3-23.8-7.3-23.8s32.2 3.9 53.5-7.2c4.6-2.4 16.7 5.5 16.7 5.5-5.2 22.2-63.6 31.2-62.9 25.5z"/><path fill="#fff" d="M1118 1419c-3.8 14.8 1.7 51.6-1.6 58.5s-14.6 15.1-32.9 5.7c-13-6.7-18.3-16.6-11.2-30 7-13.5 5.6-46.2 5.6-46.2l40.1 12z"/><path fill="#151516" d="M1121.2 1487.4c-2.2 14.6 1.9 13.9-2.5 17.9-2.2 1.9-95.2 14.2-109.3 13.1s-17.7-3.1-22.3-15.7c-4.2-11.6 8.6-16.7 31.2-20.8 17.2-3.2 39.9-18.5 42.8-24.8s8.2-11.9 14.4-8.2c6.1 3.7 7.6 10.4 4.4 19s10.2 18.4 19.1 14.3 13.3-15.1 18.9-15.1c7.6-.2 5.3 18.9 3.3 20.3z"/><path fill="#fff" d="M1120.1 1513.3c1.7-.3 3.1-11.5.1-11-4.2.6-41.8 4.9-72.1 8.4-30.3 3.5-49.5 3.1-56-3.1-6.5-6.1-4.5-12.4-3.8-14.4 0 0-2.3 3.4-2.6 5-.6 2.9-1.1 18.3 13.6 23 9.6 3.1 84-.6 120.8-7.9z"/><path fill="#fff" d="M1020.3 1508.2c-1 2.1-19 3.1-24.2-.8-5.1-3.9-7.7-11.5-6.5-15.8 1.1-3.8 15.6-7.7 17.8-7.5 2.3.2 16 17.7 12.9 24.1z"/><path fill="#383333" d="M1020.7 1518.6c-.5 0-1-.4-1-.9 0-.6.4-1 .9-1.1 49.5-2.6 87-6.9 99.9-8.8.5-.1 1.1.3 1.1.8.1.5-.3 1.1-.8 1.1-12.9 1.9-50.5 6.2-100.1 8.9z"/><path fill="#fff" d="M1258.3 1419c3.8 14.8-1.7 51.6 1.6 58.5 3.3 6.8 14.6 15.1 32.9 5.7 13-6.7 18.3-16.6 11.2-30-7-13.5-5.6-46.2-5.6-46.2l-40.1 12z"/><path fill="#151516" d="M1255.1 1487.4c2.2 14.6-1.9 13.9 2.5 17.9 2.2 1.9 95.2 14.2 109.3 13.1s17.7-3.1 22.3-15.7c4.2-11.6-8.6-16.7-31.2-20.8-17.2-3.2-39.9-18.5-42.8-24.8s-8.2-11.9-14.4-8.2c-6.1 3.7-7.6 10.4-4.4 19s-10.2 18.4-19.1 14.3-13.3-15.1-18.9-15.1c-7.6-.2-5.3 18.9-3.3 20.3z"/><path fill="#fff" d="M1256.2 1513.3c-1.7-.3-3.1-11.5-.1-11 4.2.6 41.8 4.9 72.1 8.4 30.3 3.5 49.5 3.1 56-3.1 6.5-6.1 4.5-12.4 3.8-14.4 0 0 2.3 3.4 2.6 5 .6 2.9 1.1 18.3-13.6 23-9.6 3.1-84-.6-120.8-7.9z"/><path fill="#fff" d="M1356 1508.2c1 2.1 19 3.1 24.2-.8s7.7-11.5 6.5-15.8c-1.1-3.8-15.6-7.7-17.8-7.5-2.3.2-16 17.7-12.9 24.1z"/><path fill="#383333" d="M1355.6 1518.6c-49.6-2.6-87.2-6.9-100.1-8.8-.5-.1-.9-.6-.8-1.1s.6-.9 1.1-.8c12.9 1.9 50.4 6.2 99.9 8.8.6 0 1 .5.9 1.1 0 .3-.4.8-1 .8z"/><path fill="#2d2c2f" d="M1319 1112c-3.2-194.1-27.8-300.3-37-330.1 0 0-38.7-19.9-83.3-25.4v-1.4c-3.5 0-7.1.1-10.6.4-3.5-.2-7-.4-10.6-.4v1.4c-44.7 5.4-83.3 25.4-83.3 25.4-9.1 29.8-33.7 136-37 330.1-1.4 83.2 9.6 214.3 13.5 305.5l56.2 23.3s10.2-134.9 18.5-191.6c4.6-31.1-1.7-116.2 2-139.4 10.9-68.6 26-136.9 40.7-171.2 14.6 34.3 29.7 102.6 40.7 171.2 3.7 23.1-2.6 108.2 2 139.4 8.3 56.7 22.3 193.1 22.3 193.1l52.5-2.2c4-91.2 14.8-245 13.4-328.1z"/><path d="M1090.6 795.3c-6.4-.3-16.6 86.9-17.9 96.9s55-52.2 55-58c0-.9 73.6 10.1 156.4-39.2l-2-13.1c-.1 0-99.1 17.2-191.5 13.4zm107 112.3c-4.5 9.4-11.7 25.6-9.5 31 1.8 4.4 24.1 78.7 34 132.4 2.2 12.1 7.7-18.6-1.8-54.1-7.9-29.7-8.7-65.5-11.4-80.1-2.7-14.6 10-39.5 5.8-40-4.1-.6-12.5 1.1-17.1 10.8zm-127.1 501.9s53.7 38.7 56.5 31.3c2.8-7.4 7-85.1 8.4-99.7s-17.4 53.8-17.4 65.9-45.8-10.3-47.5 2.5zm82.1-330c-2.5 14.6-5.8 35-6 39.8s-.3 109.8.2 114.6c.5 4.9-15.8-95.3-14.7-110.4 2-24.9 20.5-44 20.5-44z" fill="#151516"/><path d="M1070.5 1409.5c-3.7-.2-1.2 36.7 4.3 36.7 21.7 0 33.1 20.5 45.9 15.7 4.8-1.8 10.8-24.4 9.2-28.6-.6-1.3-28-22.1-59.4-23.8zm236 11.1c3.6-.8.6 22-5.4 24-14.4 4.7-30.1 22.9-42.8 18.1-4.8-1.8-14.4-31.5-6-30.1 21.4 3.5 24.1-5.5 54.2-12z" fill="#151516"/><path fill="#ff6f68" d="M1590.4 499.3c10.6-14.8 3.8-38-16.6-22.5-67.1 51.4-141 73.1-159 89.6-4.2 3.9-31.7-27-47.5-46.5-2.6 33.6-12.7 43.7-36.9 66.5 26.4 20.5 68.4 59.3 84.7 54.2 29.9-9.5 142.5-95.5 175.3-141.3z"/><path fill="#ff3f3d" d="M1367.2 519.9c-2.6 33.6-12.7 43.7-36.9 66.5 2.2 1.7 44.2 38 51.9 40.8 3.2-2.6-35.4-38.4-30.7-44.4 20.6-26.5 22.1-55.3 22.1-55.3-3.1-3.6-3.8-4.4-6.4-7.6z"/><path fill="#ff6f68" d="M1580.7 469.7c13.5-13.3 26.4-19.5 31.2-21.1 4.6-1.5 12.9-1.8 20.7-1.1 8 .8 15.7 3.1 17.8 3.5 4.1.9 4.1 6-3.5 6-3.4 0-10.1-.5-13.6-1.2-2.9 1-9.8 3.4-10.3 3.9-.9.9-.4.6.4 1s16.4-.8 19-.1c2.7.8 12.2 7.8 13.6 8.9 1.3 1.1-2.1 4.6-6.4 2.6s-8.2-4.2-8.8-4.2c-1.3 0-14.4 1.2-14.8 1.8-.4.6.3 1.3 1 1.8s14.3 1.9 15.3 2.5 9.3 10 9.6 11.2c.4 1.4-3.3 1.6-6.7-.8-3.3-2.4-5.6-4.7-5.6-4.7s-10.4-.1-11.3.4-.2 1.3-.2 1.3 7.4 3.4 8.1 3.9 5 8.7 5.5 9.4c.6.8-2.5 2.4-4 .9s-4.9-5.7-4.9-5.7-5.3-.1-6.6-1.2c-18.7 11.1-29.5 14.6-35.9 10.5-11.4-7.3-17.1-22.2-9.6-29.5z"/><path fill="#2d2c2f" d="M1658.8 513.7l-30.9-72.3-2-4.8-.6-1.3c-.9-2.1-2.9-3.6-5.2-3.9l-20.2-2.4 39.7 92.9 19.2-8.2z"/><path fill="#151516" d="M1599.8 429l-12.2 16.3c-1.4 1.9-1.7 4.4-.8 6.6l.5 1.2 2 4.8 30.9 72.3 19.2-8.2-39.6-93z"/><path fill="#666" d="M1662 521.3l-6.8-15.8c-.8-2-2.7-3.3-4.8-3.6l-17.1-2.1c-2.1-.3-4.2.6-5.5 2.4l-10.3 13.8c-1.3 1.7-1.6 4-.7 6l6.8 15.8c.8 2 2.7 3.3 4.8 3.6l17.1 2.1c2.1.3 4.2-.6 5.5-2.4l10.3-13.8c1.2-1.8 1.5-4.1.7-6z"/><path fill="#ff6f68" d="M1580.9 480.6c4.6 4.1 9.9 7.1 15.9-.4s4.1-12.6 9.4-14.6 13.9-2.3 17.1-5 2.9-4.5 2.6-4.8-9.4 1.5-13.5.9c-1.3-.2-17.5-1.2-20.6 1.1-3.1 2.3-19.9 14.7-10.9 22.8z"/><path fill="#fff" d="M1354.9 503.6c-47.4-43.9-44.1-43.2-61.1-46.2-27.9-5-57.2 81-73.3 113.9 0 0 .6 26.9 14.7 14.7s21-27.6 51.2-9.6c5 3 10.5 6.9 16.5 11.4 17.4-7.3 35.4-20.4 44.8-36.5 7.8-13.5 10.8-30 7.2-47.7z"/><path fill="#efeded" d="M1369.6 520.3c-5-6.1-9.7-10.1-14.7-16.6-5.1 33.9-26.6 60.7-52 84.1 5.7 4.3 11.8 9 18 13.9 27-21.4 45.7-49.9 48.7-81.4z"/><path fill="#ff6f68" d="M1085.1 769.8c17.6 4.6 31.3-20.6 8.7-32.7-55.4-29.7-90.4-80.4-114.7-90.3 0 0 89.8-58.2 94.8-82.8-15.2-16.8 3.1-69.4-29.9-73.6C952 551 887.7 639.3 891.4 656c5 23.2 149 102 193.7 113.8z"/><path fill="#ff6f68" d="M1089.3 743.3c2.5 5.6 6.2 10.5 14.7 6s8.8-9.9 14.5-9.5c5.7.3 13.6 3.6 17.7 2.4 4.1-1.2 4.5-2.9 4.3-3.3-.2-.4-9.2-2.5-12.7-4.7-1.1-.7-15.5-8.2-19.3-7.3-3.8.9-24.1 5.4-19.2 16.4z"/><path fill="#ff3f3d" d="M969.1 648c10.1 3.6 32.1 19.3 32.4 14.7 0 0-16.3-15.7-22.4-15.9 0 0 45.9-31.3 50.8-36.2 0 0-67.4-47.6-70.6-47.1-3.2.5-8.2 5-8.2 5l-5 5.3s13.6 22.9 21.7 28.2c12 7.9 32.7 14.3 27 19.2-5.8 4.7-30.5 25.1-25.7 26.8z"/><path fill="#fff" d="M1048.7 484c-8.6 7.5 7.1 124 20.1 154.3s32.5 87.3 28.1 104.6c-4.3 17.3-10.8 35.4-9.4 44.7 1.4 9.4 15.1 30.3 54.8 30.3 44.7 0 143.3-21.6 143.3-44.3 0-11.7-7.2-26.7-5.1-40.4 2.2-13.7 13-128.4 13.7-147.2s22.4-126-.7-128.7c-27.7-3.2-85.3-12.1-126.8-8.1-62.7 6.1-108.3 26.4-118 34.8z"/><path fill="#efeded" d="M951.8 558.5c-9.4 8.3-15.4 14.3-15 15.8 7.6 31.4 87.1 61.2 87.1 61.2s5.7-4.5 13.3-10.4c-16.2-13.6-35.1-21.5-53.9-34-12.1-8.2-26.8-17.9-31.5-32.6z"/><path fill="#fff" d="M1082.6 519.2c-4.7-24.8-14.7-47-27.8-39.1-21.6 13.1-76.4 54.9-103 78.3 4.7 14.8 14 26.6 26.1 34.7 18.7 12.5 43.1 18.2 59.3 31.8 14.5-11.3 36-27.8 37.4-27.8 2.2.1 13.7-47.6 8-77.9z"/><path fill="#efeded" d="M1291.3 574c-6.5 7.4-10.8 51-.9 64.1 0 0 4-46.1 6.2-55 3.7 2.6 6.3 4.6 6.3 4.6-5-5.7-8-17.8-11.6-13.7zm-237.2 37.9l5.9-4.5s4.5 19.6 6.6 25.2c2.1 5.7 12.4 31.7 12.4 31.7s-7.7-65.5-10.6-67.4c-2.8-1.9-14.3 15-14.3 15zm86.7 187.7c2.2-1.1 3.8-6 3.8-9.2 6.8 0 6-5.1 7.6-10.5 1.7-5.9 7.8-6.3 4.9-10.3-23.4-17.4-39.8-44.5-61.4-48 0 2.5 1.7 19.6 1.3 21.3-4.3 17.3-2.5 23.8-1.1 33.2 1 6.3 25.3 35 44.9 23.5z"/><path fill="#2d2c2f" d="M1284.3 701.5s-1.5 25.3-3.9 36.2c.2 5 3.2 21.3 3.2 21.3s-12.7-7.5-13.6-22.6c-.8-11.6 14.3-34.9 14.3-34.9z" opacity=".45"/><path d="M1261.4 588.7c.6-11.7-7.8-18.4-18.6-17.9-7.1.3-11.5 7.2-14.7 13.3-3.7-5.8-12.6-11.3-19.7-11-10.8.5-17.7 8.2-17.2 19.5.5 11.6 25.5 31.1 34.5 39 2.1 1.9 5.3 1.7 7.2-.5 7.3-8.4 27.8-28.4 28.5-42.4zm-116.9 83.5c0-2.8 1.2-4.2 3.3-4.3h2.2c2 0 2.7.5 3.4 2.3 1.7 4.5 2.5 6.8 4.2 11.3 1.5-4.6 2.3-6.9 3.8-11.5.7-2 1.5-2.4 3.2-2.5.9 0 1.3 0 2.1-.1 2.3-.1 3.5 1.3 3.6 4.1.2 8.2.3 12.3.6 20.6.1 2.7-.7 4.1-2.9 4.2h-1.2c-2.1.1-3-1.3-3.1-4-.1-4.9-.2-7.3-.3-12.2-1 3.4-1.4 5-2.4 8.4-.3 1.1-.3 2.2-3.2 2.2-2.9.1-2.8-1-3.3-2.1-1.1-3.2-1.6-4.8-2.7-7.9.1 4.7.1 7.1.2 11.8.1 2.7-.7 4.1-2.9 4.1h-1.2c-2.1 0-3-1.4-3.1-4-.1-8.1-.2-12.2-.3-20.4zm93.1-5.3c-.4-3.1.7-5 3.2-5.4 3-.4 4.5-.6 7.5-1.1 6.8-1 10.6 1.7 11.6 7.7.6 4.1-.8 7.4-4.1 9.1 2.7 2.8 4 4.2 6.7 7 .3.3-.7 3.2-3.9 3.7-2.4.4-3.7-.6-5.7-2.9-1.7-1.9-2.6-2.9-4.3-4.8-.5.1-.8.1-1.4.2.3 2 .4 3 .7 5 .4 2.6-.6 4.2-2.8 4.5-.4.1-.6.1-1.1.2-2.1.3-3.5-1.4-3.9-4.6-1-7.5-1.5-11.2-2.5-18.6zm11.8 6.8c2.3-.3 3.2-1.7 2.9-3.8-.3-2.2-1.6-3.1-4-2.8-1.2.2-1.9.3-3.1.5.4 2.6.6 3.9 1 6.6 1.3-.2 1.9-.3 3.2-.5zm-43.8-9.1c6.9-.5 9.9 3.5 10.1 6.3.3 3.7-3.9 4.9-4.1 4.6-1.1-2-2.9-3-5.1-2.9-3.2.2-5.3 3-5.1 7.1.3 4.1 2.8 6.6 6 6.4 2.4-.2 4-1.5 4.7-3.8.1-.3 4.5.3 4.7 4 .2 2.8-2.3 7.4-9.4 7.8-7.8.5-13.4-5.3-13.9-14-.4-8.5 4.4-15 12.1-15.5zm-47.9-82.3v-1.2c-.1-2.3-1.4-3.5-4.1-3.5l-20.1.7c-2.6.1-3.9 1.4-3.8 3.7v1.2c.1 2.4 1.5 3.7 4.1 3.6l5.8-.2v1.1l1.2 37.1c0 .4 0 .7.1 1.1l-5.8.2c-2.6.1-3.9 1.4-3.8 3.7v1.2c.1 2.4 1.5 3.7 4.1 3.6l20.1-.7c2.6-.1 3.9-1.4 3.8-3.8v-1.2c-.1-2.3-1.4-3.5-4.1-3.5l-5.8.2v-1.1l-1.2-37.1c0-.4 0-.7-.1-1.1l5.8-.2c2.6-.1 3.9-1.4 3.8-3.8z" fill="#fe9287"/><path fill="#ff6f68" d="M1093.8 737.1c18.9-2.1 32.9 1.1 37.6 2.8 4.6 1.7 11.2 6.5 16.9 12 5.8 5.6 10.5 12.2 11.8 13.8 2.7 3.2-.5 7.3-6.5 2.5-2.6-2.1-7.6-6.7-9.9-9.4-2.8-1-9.8-3.4-10.5-3.3-1.2.1-.7.3-.3 1 .4.8 13.4 9.5 15 11.7 1.6 2.3 4.8 13.7 5.1 15.4.3 1.7-4.5 2.3-6.6-2-2.1-4.2-3.9-8.4-4.3-8.8-1-.8-12.1-8-12.8-7.8-.7.2-.5 1.2-.3 2s10.1 10.4 10.5 11.5c.4 1 1.1 13.6.6 14.7-.6 1.3-3.6-.8-4.8-4.8-1.1-4-1.5-7.2-1.5-7.2s-8.1-6.5-9.1-6.7-.9.9-.9.9 3.7 7.2 3.9 8.1c.2.9-1.5 9.9-1.5 10.8s-3.5.4-3.7-1.8-.3-7.5-.3-7.5-4.1-3.4-4.4-5c-21.5-2.9-32.2-6.8-34.6-14-4.6-12.6.2-27.8 10.6-28.9z"/><path fill="#efeded" d="M1187.8 490.4c29.2-2.6 45.1-27.6 45.9-35.3.8-7.6-14.9-6.7-25.1-7.8-10.2-1.2-37.1-2.4-48.5-1.4-9.6.8-41.3 7.1-40.6 12.3.6 5.1 22.3 36.3 68.3 32.2z"/><path fill="#ff6f68" d="M1139.9 460.1c-1.7-1.7-2.3-4.1-1.6-6.4 2.8-9.3 10.3-33.8 15.6-51.1 5.5-17.7 43.6-21.3 49.8 5.8 6.2 27.1 9.5 46.2 11.3 50.3 1.9 4.1-15.5 16.8-32.4 16.8-12.6 0-31.8-4.6-42.7-15.4z"/><path fill="#ff3f3d" d="M1164.6 396.4c11.6 1.2 40.5 18.2 42.8 28.3s5 24 6.3 29c0 0-14.8-2.6-30.9-14.6-16.1-11.9-18.2-42.7-18.2-42.7z"/><path fill="#151516" d="M1237.2 385.8c.7 3.6 14.4-18.9 14.8-29.6.3-8-7.2-10.8-11.8-10.7-4.7 0-3.4 38.1-3 40.3z"/><path fill="#ff6f68" d="M1154.4 396.4c2.3 5.2 24.9 29.6 37.6 36.5s23.9 2.2 29.7-3.7c5.8-5.9 25-52.5 23.2-78.9-1.9-26.3-40.4-55-65.8-42.1-25.4 12.8-27.7 27.3-28.1 42.5-.5 15.4 1.3 40.8 3.4 45.7z"/><path fill="#151516" d="M1143.2 362.9c.4 9.6 9.4 39.8 10.7 39.7 1.3-.1 4.1-8.3 4.8-11.6s.5-8.4.5-8.4-8.6-2.6-6.4-12.6c2.2-10.1 10.2-7.5 12.7-2.6s-.2 38.6 2.8 37.9c3-.8 4.7-42.7 8-46.4 3.3-3.6 10.8-3.1 10.9-7.8.1-4.7-12.3-12.1-6.1-15.8 6.2-3.7 36.5 16.6 52.1 23.1 15.7 6.5 30.4-3 31.6-9.9.3-1.5-4.4 1-9.4 1.1-4.7.1-10-.7-10-.7s5.4-14.3-.3-19.1c-5.7-4.9-33.6-28.2-48-28.2s-38.8 6.8-40.4 16.9-8.3 1.7-12.6 14.4c-4.4 12.7-1.2 20.4-.9 30z"/><path fill="#efeded" d="M1238.2 334.9c7.7-.3 12.5-5.5 10.4-8s-16.2-28.4-37.4-34.3-53.7-6.6-60.5-1.1c-13.4 10.8-15.6 44.2-15.7 52.2s6.6 16.5 8.6 16.6 37.3-29.9 45.7-30.5c8.5-.7 48.9 5.1 48.9 5.1z"/><path fill="#d6d6d6" d="M1219.3 310.3c-25-5-49 1-68 19-2 2-8 2-10-2-2.8-7.6-1.2-15.2.6-22.4-5.6 14.2-6.8 33-6.8 38.8-.1 8 6.6 16.5 8.6 16.6s37.3-29.9 45.7-30.5c8.4-.6 48.9 5.2 48.9 5.2 3-.1 5.6-1 7.5-2.2-8.8-8.1-13.8-19.6-26.5-22.5z"/><path fill="#efeded" d="M1248.7 326.9c-2.1-2.5-16.2-28.4-37.4-34.3-21.2-5.9-53.7-6.6-60.5-1.1-3.8 3-6.7 7.9-8.9 13.4-1.9 7.3-3.4 14.8-.6 22.4 2 4 8 4 10 2 19-18 43-24 68-19 12.7 2.9 17.8 14.5 26.4 22.5 2.9-1.9 4.2-4.4 3-5.9z"/><path fill="#efeded" d="M1135.6 353.4c-1.6 3.2 3.5 15.3 5.5 15.5s30.5-31.1 53.4-34c14-1.8 50.5 13.3 54.4 13.7 3.9.4 4.5-20 2-24.3-1.8-3-46.4-11.8-61.9-8.7-26.4 5.4-48.7 28.2-53.4 37.8z"/><defs><path id="q" d="M1135.6 353.4c-1.6 3.2 3.5 15.3 5.5 15.5s30.5-31.1 53.4-34c14-1.8 50.5 13.3 54.4 13.7 3.9.4 4.5-20 2-24.3-1.8-3-46.4-11.8-61.9-8.7-26.4 5.4-48.7 28.2-53.4 37.8z"/></defs><clipPath id="r"><use overflow="visible" xlink:href="#q"/></clipPath><g fill="#d6d6d6" clip-path="url(#r)"><path d="M1132.8 349.9l1.7-1.1 13.1 21-1.7 1.1-13.1-21zm8.5-9.6l1.7-1.1 13.1 21-1.7 1.1-13.1-21zm11.4-9.3l1.7-1.1 13.1 21-1.7 1.1-13.1-21zm14.3-10l1.8-.9 10.9 22.3-1.8.9L1167 321zm20.4-6l1.9-.5 6.4 24-1.9.5-6.4-24zm26.8 24.6l2.6-24.7 2 .2-2.6 24.7-2-.2zm16 3.6l3.9-24.5 2 .3-3.9 24.5-2-.3zm14.7 5.4l4.4-26.7 2.1.3-4.4 26.7-2.1-.3z"/></g><path fill="#151516" d="M1165.5 367.4c1.9 7.4.3 36.3 1.4 42.5.7 3.7 20 24.7 27.2 28.2 4.8 2.4 21.2 3.1 25 .9 3.7-2.2 15-22.1 12.9-29.9-.9-3.2-12.4-6.3-21.5-2.1-5.1 2.3-10.4 8.2-16.8 6.8-7.4-1.5-10.5-6.7-12-8.5-.7-.8-.7-6.5-.6-12.8.2-7.9-8.7-9.3-7.4-21.2 0-2.2-8.2-3.9-8.2-3.9z"/><path fill="#ff6f68" d="M1215 411.1c-4.3 2-9.9 5.7-9.8 8.7s13.8 4.4 16.5 4.2 5.1-7.5 4.4-11.6c-.3-2-8.2-2.7-11.1-1.3z"/><path fill="#fe9287" d="M2282.4 1294.9l-80.9 57.2-1.3-696 87-49.9-.2 679.8c0 3.6-1.7 6.9-4.6 8.9z"/><path fill="#ff6f68" d="M2275.4 1188.2c-3.2 109.5-63.2 156.3-63.2 156.3l70.2-49.6c2.9-2 4.7-5.3 4.7-8.8l.1-328.2c-17.4 74.7-9.6 153.6-11.8 230.3z"/><path fill="#fff" d="M2287.2 606.2l-87 49.9-458.7-47.1 102.2-41.2 443.5 38.4z"/><path fill="#ff6f68" d="M1741.5 1276.7l460 75.4-.3-696-459.7-47.1v667.7z"/><path fill="#fe9287" d="M1841.8 633l-90-8.8v645.6l90-46.4V633z"/><path fill="#fe9287" d="M1751.8 938.2v5.2c4.4-1 8.4-3 12-5.6-4 .2-8 .3-12 .4z"/><path fill="#ff6f68" d="M1825.7 676.5c-8.6 10.7-4.3 25.7-10.7 37.5-11.8 19.3-35.3 18.2-52.5 27.8-4.5 2.6-7.9 6.5-10.7 10.9v27.4c35.8 2.3 63.7-23.4 90-45.5v-62.2c-4.9-.8-12.2.2-16.1 4.1zm1.8 204.2c-19.3 28.9-35 13.1-52.1 44.1-3 5-6.9 9.5-11.6 12.9 24.2-1 48.1-2.4 72.6-5.4 2 0 3.9-1.1 5.4-2.6V828.2c-6.1 1-11 47.6-14.3 52.5z"/><path fill="#fff" d="M1841.8 1222.4v1l-90 46.4 438.8 66.5v-63.5l-348.8-50.4z"/><path fill="#ffe2e1" d="M2190.4 667.8L1841.8 633v589.4l348.8 50.4-.2-605z"/><path fill="#ff6f68" d="M1743.6 1113.9l451.8 59.3V1162l-451.8-56.7v8.6z"/><path fill="#fff" d="M1751.8 1106.3l438.7 55.2v-52.6l-348.7-44.8-90 42.2z"/><path fill="#ff6f68" d="M1743.6 948.2l451.8 59.2v-11.2l-451.8-56.7v8.7z"/><path fill="#fff" d="M1751.8 942.3l438.7 53.4v-52.6l-348.7-44.7-90 43.9z"/><path fill="#ff6f68" d="M1743.6 781.8l451.8 59.2v-11.1l-451.8-56.7v8.6z"/><path fill="#fff" d="M1751.8 775.9l438.7 53.4v-52.6L1841.8 732l-90 43.9z"/><path fill="#ff6f68" d="M2022.7 734.3c-18.3 20.2-25.3 48.2-46 66.1v2.4l72.1-44.8.6-48.4c-10.5 3.8-19.7 16.2-26.7 24.7z"/><path fill="#fe9287" d="M1977.1 645.8l-.4 154.6c20.7-17.9 27.7-45.9 46-66.1 7-8.5 16.1-20.9 26.7-24.7l.7-55.6-73-8.2z"/><path fill="#ff6f68" d="M1981 946.3c-1.3 1.1-2.7 1.9-4.2 2.5l-.1 21.7 72.1-45.6.7-55.9c-32 12.9-44.2 53.8-68.5 77.3z"/><path fill="#fe9287" d="M1977.1 812.4l-.3 136.4c1.5-.6 3-1.4 4.2-2.5 24.4-23.5 36.6-64.4 68.6-77.3l.6-47.1-73.1-9.5zm-.2 166l-.2 156.1 72.1-44.3 1.4-102.3-73.3-9.5zm-.2 166.1v159.4l72.2-52.1 1.3-97.8-73.5-9.5z"/><path fill="#ff6f68" d="M1968.5 644.3l-3 667.1 11.2-1.3.4-666.8-8.6 1z"/><path d="M2032.3 800.3c-2.3 5.7 19 7.6 29.6 10.3 10.6 2.8 41.9 2.6 50.9 5.8 16.6 5.8 36.7 2.1 47.6-3.2 15.3-7.5 29.9-5.2 29.9-5.2l-.5-30.3-111.5-17.4c.1.1-41.5 29.1-46 40zm-185 125.5c-10.7 4.7-.2 12.1.4 22.6.4 8.6 33.7 8.4 43.1 9.6 18.6 2.3 31.7 4.2 42.7-1.2 15.3-7.5 33.7-9.1 33.7-9.1l-.5-30.3-81.4-12s-27.1 15.7-38 20.4z" fill="#ffe2e1"/><path fill="#fe9287" d="M1856.1 950.2l20.5 4.8 45.4-32.5 36.6-112.4-25.7-3.4-39.1 8.2c-1.9.3-3.3 2-3.3 4L1853 946.4c-.1 1.8 1.2 3.4 3.1 3.8z"/><path fill="#ff6f68" d="M1878.4 954.7l57.8-32.3 31.5-111.2-9.2-1.3-43.2 10.5c-1.2.3-1.7 1.3-2 2.6l-38.8 129.3c0 2.1 2.2 3.3 3.9 2.4z"/><path fill="#fff" d="M1898.4 816.9l13.9 2.2h.1l42.7-9.7-16.7-2.2-40.1 9c-.2.2-.2.7.1.7z"/><path fill="#ffe2e1" d="M1898.1 849.3c.2-.5-.2-1.1-.7-1.2l-3.8-1c-.5-.1-1.1.1-1.2.7l-2.5 8c-.2.5.1 1.1.7 1.3l3.8 1.1c.5.2 1.1-.1 1.2-.7l2.5-8.2zm-10.7 14.5l-15.8 50.2c-.2.5.1 1.1.7 1.3l4.7 1.4c.5.2 1.1-.1 1.3-.7l15.2-50.5c.2-.5-.2-1.1-.7-1.3l-4-1.1c-.7-.1-1.3.2-1.4.7zm-19.6 62.1c-.2.5.1 1.1.7 1.3l4.9 1.3c.5.1 1.1-.2 1.2-.7l1.9-6.2c.2-.5-.1-1.1-.7-1.2l-4.7-1.5c-.5-.2-1.1.1-1.3.7l-2 6.3z"/><path fill="#2d2c2f" d="M1895.6 956.1l18.1 4.3 53.5-40.3.5-100.9v-8l-6.2-.9-35 9c-1.9.3-3.3 2-3.3 4l-30.8 128.8c0 1.9 1.4 3.6 3.2 4z"/><path fill="#151516" d="M1915.3 960l51.9-29v-46.6l.5-67.1-22.2 7.2c-1.2.3-2 1.4-2 2.6l-32.1 130.6c0 2 2.1 3.3 3.9 2.3z"/><path fill="#fff" d="M1928 823.2L1898.3 941c-.4 1.8.6 3.5 2.4 4l5.7 1.3c1.7.4 3.5-.7 3.9-2.4l28.8-118.2.3-.9-11-2.6c-.2.4-.3.7-.4 1z"/><path fill="#ffe2e1" d="M1941.7 822.9l26.1-8v-3.8l-3.9-.5-33.2 9.7c-1 .3-1.8 1-2.3 1.8l11 2.6c.4-.8 1.3-1.5 2.3-1.8z"/><path fill="#ff3f3d" d="M2040.2 804.1l20.5 4.8 45.4-32.5 38.7-112.9-27.8-2.9-39.1 8.2c-1.9.3-3.3 2-3.3 4L2037 800.2c0 1.9 1.4 3.5 3.2 3.9z"/><path fill="#ff3f3d" d="M2062.6 808.6l57.8-32.3 31.5-112.3-7.1-.6-45.3 11c-1.2.3-1.7 1.3-2 2.6l-38.8 129.3c-.1 2 2.1 3.3 3.9 2.3z"/><path fill="#fff" d="M2046.5 789.3c-.6 2.2.7 4.4 3 4.8l5.6 1.1c2 .4 3.9-.8 4.4-2.7l33.6-119.2-10.7-2.9c-1.5 4.3-29.9 98.1-35.9 118.9z"/><path fill="#ffe2e1" d="M2140.9 663l-17.9-1.9-40.5 9.1s0 .1-.1.2l10.7 2.9c.1 0 47.8-10.3 47.8-10.3z"/><path fill="#fe9287" d="M2078.8 807.8l20.5 4.8 45.4-32.5 38.7-112.9-27.8-2.9-39.1 8.2c-1.9.3-3.3 2-3.3 4L2075.7 804c-.1 1.8 1.2 3.5 3.1 3.8z"/><path fill="#ff6f68" d="M2101.1 812.3l57.8-32.3 31.5-112.2-7-.7-45.3 11c-1.2.3-1.7 1.3-2 2.6L2097.2 810c0 2 2.1 3.3 3.9 2.3z"/><path fill="#fff" d="M2085.1 793c-.6 2.2.7 4.4 3 4.8l5.6 1.1c2 .4 3.9-.8 4.4-2.7l33.6-119.2-10.7-2.9c-1.6 4.3-29.9 98.2-35.9 118.9z"/><path fill="#ffe2e1" d="M2179.5 666.7l-17.9-1.9-40.5 9.1s0 .1-.1.2l10.7 2.9 47.8-10.3z"/><path fill="#ff6f68" d="M2118.3 813.7l18.1 4.3 53.5-40.3.5-100.9-.1-9-3.8-.4-37.4 9.6c-1.9.3-3.3 2-3.3 4L2115 809.8c.1 1.9 1.4 3.5 3.3 3.9z"/><path fill="#ff3f3d" d="M2138 817.7l52.6-29.8-.7-45.8.5-67.1-22.2 7.2c-1.2.3-2 1.4-2 2.6L2134 815.4c0 2 2.2 3.3 4 2.3z"/><path fill="#fff" d="M2150.7 680.9l-29.8 117.8c-.4 1.8.6 3.5 2.4 4l5.7 1.3c1.7.4 3.5-.7 3.9-2.4l28.8-118.2.3-.9-11-2.6c-.1.3-.2.6-.3 1z"/><path fill="#ffe2e1" d="M2164.3 680.6l26.1-8-.1-4.8-1.7-.2-35.3 10.5c-1 .3-1.8 1-2.3 1.8l11 2.6c.5-.9 1.3-1.6 2.3-1.9z"/><path fill="#ff6f68" d="M1777.1 1118.3l-12 4.5v144.4l200.8 30.5.4-154.6-189.2-24.8z"/><path fill="#ffe2e1" d="M1965.9 1297.7l-200.8-30.5v-144.4l72.6 9.5c3.5.5 6.1 3.4 6.1 6.9v4.7c0 3.5 2.6 6.5 6.1 7l43.7 5.3c4.1.5 7.7-2.6 7.8-6.8.1-4.1 3.7-7.3 7.8-6.8l57 7-.3 148.1z"/><path fill="#2d2c2f" d="M1926.4 1266.4c-37.5 7.5-78.1 10.7-108.1-13.9-20.8-16.5-30.4-49.8-53.2-63v77.7l200.8 30.5.1-32.8c-12.6-3.3-27.3-1.4-39.6 1.5z" opacity=".45"/><path fill="#ff6f68" d="M2001.8 1147.7l-12.4 4.6v144.4l201.2 30.6v-154.8l-188.8-24.8z"/><path fill="#ff3f3d" d="M2190.6 1179.2l-6.3-.8-50.7-6.2c-4.1-.5-7.7 2.6-7.8 6.8-.1 4.1-3.7 7.3-7.8 6.8l-43.7-5.3c-3.5-.4-6.2-3.4-6.1-7v-4.7c0-3.5-2.6-6.5-6.1-6.9l-72.6-9.5v148.4l201.2 30.6-.1-152.2z"/><path fill="#2d2c2f" d="M2190.6 1331.3v-152.1l-6.3-.8c-1.7 41.6 10.1 98.9-32 116.8-39.6 16.1-84.6-2.1-127.4-12.8-11.9-2.5-23.8-1-35.5 2.4v15.9l201.2 30.6z" opacity=".45"/><path fill="#ff6f68" d="M1777.1 952.4l-12 4.5v144.3l200.8 19.9 1.3-143.7-190.1-25z"/><path fill="#ff3f3d" d="M1966.4 1125.4l-201.3-24.2V956.9l72.6 9.5c3.5.5 6.1 3.4 6.1 6.9v4.7c0 3.5 2.6 6.5 6.1 7l43.7 5.3c4.1.5 7.7-2.6 7.8-6.8.1-4.1 3.7-7.3 7.8-6.8l58 7.3-.8 141.4z"/><path fill="#2d2c2f" d="M1905 1099.4c-61-7.5-93.1-58.9-116.7-110.3-4.4-8.7-14.4-9.6-23.2-13.1v125.3l201.3 24.2.1-20.8c-20.5-1-41-2.6-61.5-5.3z" opacity=".45"/><path fill="#ff6f68" d="M2001.8 981.8l-12.4 4.6v133.7l201.2 30.6v-144.1l-188.8-24.8z"/><path fill="#fff" d="M2190.6 1153.6l-201.2-24.2v-143l72.6 9.5c3.5.5 6.1 3.4 6.1 6.9v4.7c0 3.5 2.6 6.5 6.1 7l43.7 5.3c4.1.5 7.7-2.6 7.8-6.8.1-4.1 3.7-7.3 7.8-6.8l57 7 .1 140.4z"/><path fill="#ffe2e1" d="M2156.5 1100.4c-27.8 26.8-65.3 37.5-101.7 24.6-21-7.3-42.8-13.8-65.4-12.3v16.6l201.2 24.2v-63.3c-12.8-.3-25 .5-34.1 10.2zm-146.8-492.3c-31.3-.9-72.3.7-59 6.5 13.3 5.9 33 0 67.1 2.9 31.1 2.6 64.7-3 52.6-6.1-10.2-2.7-17-2.1-60.7-3.3z"/><path fill="#fff" d="M1979 549.3c-2.2 14.7-1.1 62.1 50.1 62.1 50.4 0 55.1-43.8 48.1-62.1-7.1-18.3-31.1-26-55.5-25.7-24.5.3-40.8 12.5-42.7 25.7z"/><path fill="#ffe2e1" d="M2077.1 549.3c-7.1-18.3-31.1-26-55.5-25.7-19 .3-33.2 7.7-39.4 17.3 29.3-16.4 23.2 31.7 50.1 33.1 32.4 1.7 35.9 22.6 43.7 10 5.1-12.5 4.4-26.3 1.1-34.7zm-98.6 5.3c-.6 12.6 1.8 34.6 18.1 47.1 7.5 5.8 32.1-1.7 6.8-13.8-21.5-10.2-24.9-34.3-24.9-33.3z"/><path fill="#ff6f68" d="M1983.7 547.9c0 13.3 21.4 22.3 43.3 22.6 23.4.3 50.8-8.2 45.9-22.6-4.5-13.2-29.8-22-50.1-21.7-20.2.2-39.1 10.6-39.1 21.7z"/><path fill="#ff3f3d" d="M2070.2 547.3c-1.3-3.1-4.3-5-7.6-5.3-6.7-.4-12.5-1.5-19.2 1.1-5.5 1.8-22 8.8-29.4 7.7-4.9-.7-6.1 1.4-1.1 4.8 7.8 5.4 27.5 1.9 34.2 6.1 1.1 1.1-7.3 5.7-3.7 5.2 16.8-2.7 30.6-8.4 27-18.8 0-.2-.1-.5-.2-.8z"/><path fill="#2d2c2f" d="M1930.6 395.1c-2.6 17.2 7.9 31.2-12.8 43.1 13.9 6.2 25.7 5.3 34.4.9-6.4-8.6-4-21.4-6.2-32-1.5-8-8.2-11.8-15.4-12z"/><path fill="#242326" d="M1967.5 407.5c-15.7-42.7-31.8-28.3-35.2-19.1-.8 2.3-1.4 4.5-1.7 6.7 7.2.2 13.9 4 15.5 12 2.2 10.6-.2 23.4 6.2 32 12.9-6.6 19-21.1 15.2-31.6z"/><path fill="#424144" d="M1956.1 385.1c0-.2-.3-.4-.5-.4s-.4.3-.4.5c2.3 15.1-.2 27.4-7.4 36.6-9 11.5-23 14.8-28.1 15.7l.4.8c5.4-1 19.4-4.4 28.4-16 7.4-9.4 10-21.9 7.6-37.2zm32.9 74.6c-.2-.7-1-1.1-1.7-.9s-1.1 1-.9 1.7l40.7 91.1c.2.5.7.8 1.2.8 1 0 1.6-1 1.2-1.9l-40.5-90.8z"/><path fill="#424144" d="M1984.2 422.2c-2.5-15.8-2.2-31.3-9.7-46-1.1-2.2-3.2-3.6-5.4-4-9.7-1.4-21.6-1.8-29.1 5.4-.6.9-1.5 1.8-2.6 1.9-1.8 2.7-3.5 5.6-5.1 8.9 13.7-4.6 24.1.5 23.8 26.2-.4 35.4 33 49.3 33 49.3s-.5-12.1 2.3-28.6c-4-3.3-6.7-8.1-7.2-13.1z"/><path fill="#4b4a4c" d="M1937.4 379.5c1.1 0 2-.9 2.6-1.9 7.5-7.2 19.4-6.8 29.1-5.4 2.2.4 4.3 1.8 5.4 4 7.5 14.7 7.2 30.2 9.7 46 .5 5 3.2 9.8 7.3 13.2 1.3-8 3.4-17 6.7-26.2 14.2-40.3-33-71.6-60.8-29.7z"/><path fill="#2d2c2f" d="M1988.8 464.1c-8.7-15.5-8.4-34.3-8.2-50.9.2-16.4.4-30.6-7.9-37.5-5.7-4.8-15.3-5.8-29.3-3l-.2-.9c14.3-2.8 24.1-1.8 30.1 3.2 8.6 7.2 8.5 21.6 8.2 38.2-.2 16.5-.5 35.2 8.1 50.5l-.8.4z"/><path fill="#2d2c2f" d="M1969 448.7l-.8-.5 12.7-20.7 11.2 4.8-.4.9-10.5-4.6-12.2 20.1zm-10.6-19.2l-.7-.5 23-33.2 18.2 11.2-.4.8-17.6-10.8-22.5 32.5zm-2.8-27.1l-.8-.5 17.7-27.2 24.7 3-.1.9-24.1-2.9-17.4 26.7zm-10.7-14.9l-.8-.2 3.9-16.3 25.6-11.4.4.8-25.2 11.2-3.9 15.9z"/><path fill="#424144" d="M2079.9 518.3c-17.7 29.7-40.4 23.1-45.5 21.2l58.4-74-.1 2.2c-.4 7.7-2.5 33.4-12.8 50.6z"/><path fill="#4b4a4c" d="M2035.8 510.9c7.5-6.5 16.9-9.3 24.4-15.8 6.1-5 11.5-10.8 15.1-18 .7-1.1 2.2-2.2 3.2-3.2 1.1-1.8 2.2-3.6 3.4-5.4-10.7 3.4-27.1 9.9-38.4 20-13.9 12.6-17.1 24.5-16.6 33.6 2.2-4.2 5.1-8 8.9-11.2z"/><path fill="#424144" d="M2081.9 468.5c-1.1 1.8-2.2 3.6-3.4 5.4-1.1 1.1-2.5 2.2-3.2 3.2-3.6 7.2-9 12.9-15.1 18-7.5 6.5-16.9 9.3-24.4 15.8-3.8 3.2-6.7 7-8.9 11.1.5 8.4 4.1 14.3 5.1 15.7l13 .9 47.9-73.3-2.6.6c-2 .7-4.9 1.5-8.4 2.6z"/><g fill="#2d2c2f"><path d="M2092.8 465.5l-58.4 74-12.7 15.6c-.5.6-1.4.7-2.1.2-.3-.2-.4-.5-.5-.8-.1-.4 0-.9.3-1.3l12.5-15.4c.1 0 60.7-72.3 60.9-72.3z"/><path d="M2037.8 531.9c0-.3.3-.5.6-.5l30.9-1.1c.3 0 .6.2.6.6 0 .3-.2.6-.6.6l-30.9 1.1c-.3-.1-.6-.3-.6-.7zm29.9-36.2c0-.3.2-.5.5-.5l20.2-1.2c.3 0 .6.2.6.5s-.2.6-.5.6l-20.2 1.2c-.3 0-.6-.2-.6-.6zm14-17.5c0-.3.2-.5.5-.5l9.2-.5c.3 0 .6.2.6.5s-.2.6-.5.6l-9.2.5c-.3 0-.6-.3-.6-.6zm-29.7 36.1c0-.3.2-.5.5-.5l30-1.7c.3 0 .6.2.6.5s-.2.6-.5.6l-30 1.7c-.3.1-.5-.2-.6-.6 0 .1 0 .1 0 0z"/><path d="M2033.6 499.2c0-.3.2-.5.5-.5s.6.2.6.5l4.2 32.7c0 .3-.2.6-.5.6s-.6-.2-.6-.5l-4.2-32.8zm31.7-24.6c0-.3.2-.5.5-.5s.6.2.6.5l2.4 21c0 .3-.2.6-.5.6s-.6-.2-.6-.5l-2.4-21v-.1zm15.9-5.7c0-.3.3-.5.5-.5.3 0 .6.2.6.5l.5 9.2c0 .3-.2.6-.5.6s-.6-.2-.6-.5l-.5-9.3c0 .1 0 0 0 0zm-32.4 15.4c0-.3.2-.5.5-.5s.6.2.6.5l3.3 30c0 .3-.2.6-.5.6s-.6-.2-.6-.5l-3.3-30.1c0 .1 0 .1 0 0z"/></g><path fill="#4b4a4c" d="M2018.3 362.9c-.4-1-.8-2.1-1.1-3.3-6.1-6.7-8.6-12-6.7-21 2.1-10.2-19.3-30.4-17.4-19.1l24 111.7c9.1-21.4 9.7-46.4 1.2-68.3z"/><path fill="#424144" d="M2037.7 380.2c-8.8-9.4-15.8-15.4-20.6-20.6.3 1.1.7 2.2 1.1 3.3 8.5 21.9 7.9 46.9-1.2 68.4l2.5 11.6c23.3-1.4 44.7-34.6 18.2-62.7z"/><path fill="#2d2c2f" d="M2018.6 438.2c.1 0 .1 0 .2-.1l30.6-26.9c.1-.1.1-.3 0-.4s-.3-.1-.4 0l-30.6 26.9c-.1.1-.1.3 0 .4 0 .1.1.1.2.1zm-4.6-26.1c.1 0 .1 0 .2-.1l28.9-25.3c.1-.1.1-.3 0-.4s-.3-.1-.4 0l-28.9 25.3c-.1.1-.1.3 0 .4 0 .1.1.1.2.1zm-6.5-25c.1 0 .1 0 .2-.1l19-16.6c.1-.1.1-.3 0-.4s-.3-.1-.4 0l-19 16.6c-.1.1-.1.3 0 .4 0 .1.1.1.2.1zm-5.1-25.8c.1 0 .1 0 .2-.1l9.4-8.1c.1-.1.1-.3 0-.4s-.3-.1-.4 0l-9.4 8.1c-.1.1-.1.3 0 .4 0 0 .1.1.2.1zm-5.3-24.2c.1 0 .1 0 .2-.1l9.4-8.1c.1-.1.1-.3 0-.4s-.3-.1-.4 0l-9.4 8.1c-.1.1-.1.3 0 .4 0 .1.1.1.2.1zm21.7 125.7c0-.6-.5-1.2-1.2-1.2-.6 0-1.2.5-1.2 1.2l-11.4 37.8h2.3l11.5-37.8z"/><path fill="#2d2c2f" d="M2059.7 292.3l-43.6 171.3c29.9 12.8 49.9.9 56.9-21.5 4-12.7 3.8-28.7-1-45.5-11.4-39.3-13.9-52.3-2.4-69.6 8.1-12-5.2-50-9.9-34.7z"/><path fill="#2d2c2f" d="M2072 396.7c-11.4-39.3-13.9-52.3-2.4-69.6 8.1-12.1-5.3-50.2-9.9-34.8l-9.1 35.8v.2c1.8 27.3 5 55-5.4 81.2-7.5 18.2-9.6 39.9-4.4 59.2 16.3-.7 27.4-11.2 32.2-26.7 4-12.5 3.9-28.5-1-45.3z"/><path fill="#242326" d="M2045.3 409.6c10.4-26.2 7.2-53.9 5.4-81.2v-.2l-34.5 135.5c9.2 3.9 17.5 5.5 24.7 5.2-5.3-19.4-3.1-41.1 4.4-59.3z"/><path fill="#424144" d="M2017.9 457.1l55.3-14.6c.2-.1.3-.3.3-.5-.1-.2-.3-.3-.5-.3l-55.2 14.6c-.2.1-.3.3-.3.5s.2.4.4.3zm10.5-35.6s.1 0 0 0l45.3-12c.2-.1.3-.3.3-.5-.1-.2-.3-.3-.5-.3l-45.2 12c-.2.1-.3.3-.3.5.1.2.2.3.4.3zm7.5-35.4l29.9-7.9c.2-.1.3-.3.3-.5-.1-.2-.3-.3-.5-.3l-29.8 7.9c-.2.1-.3.3-.3.5s.2.3.4.3zm9.7-35.6c.1 0 .1 0 0 0l16.8-4.3c.2-.1.3-.3.3-.5-.1-.2-.3-.3-.5-.3l-16.8 4.3c-.2.1-.3.3-.3.5.2.2.4.3.5.3zm8.4-33.6c.1 0 .1 0 0 0l16.8-4.3c.2-.1.3-.3.3-.5-.1-.2-.3-.3-.5-.3l-16.8 4.3c-.2.1-.3.3-.3.5.2.2.4.3.5.3z"/><path fill="#fff" d="M1052.4 1656.2l290.8-114.9-19-325.5-283.1 86.4s-.6 182.3 0 226.5c.4 32.9 11.3 127.5 11.3 127.5z"/><path fill="#ff6f68" d="M979.5 1290.2s3.6 215.3 6.9 248c3.3 32.7-6.9 86.7-6.9 86.7l72.9 31.3s-6.7-52.7-6.7-83.3-4.7-270.7-4.7-270.7l-21.3 8.7-40.2-20.7z"/><path fill="#fff" d="M1017 1607.6l2.4-296.9-39.9-20.5s3.6 215.3 6.9 248c3.3 32-6.5 84.4-6.9 86.6l37.5-17.2z"/><path fill="#ffe2e1" d="M1045.8 1572.8c0-30.7-4.7-270.7-4.7-270.7l-21.3 8.7-.3-.2-2.4 296.9 35.4 48.6c-1.2-9.4-6.7-55.9-6.7-83.3zm-28.8 34.8l-37.5 17.2v.1l72.9 31.3-35.4-48.6z"/><path fill="#ff6f68" d="M1188.3 1257.3c30.1-13.7 58.9-32.1 89.7-42.3-4.8-3.2-9.3-7.7-9.3-7.7-12 5-289.3 78.9-289.2 82.9.1 2.6 17.3 10.7 29.2 15.9 17.2-5.9 32.7-15.8 51.5-18.8 45.1-8 87.1-10 128.1-30z"/><path fill="#ff3f3d" d="M1283.7 1217.8c-1.7-.4-3.7-1.5-5.7-2.8-30.9 10.2-59.6 28.6-89.7 42.3-41 20-83 22-128 30-18.9 3-34.3 12.9-51.5 18.8 6.3 2.8 11 4.7 11 4.7l21.3-8.7s112.8-22 128.8-26 154.2-60.4 154.2-60.4-34.4 3.6-40.4 2.1z"/><path fill="#ff6f68" d="M1109.4 1260.8c0-.3-.5-28.4 0-51.2.6-26 17-49.8 35.2-50.9 9.3-.6 19 3.7 26.6 11.7 7.9 8.3 12.9 20 14.1 32.8 2.5 25.1 5.4 46.6 5.5 46.8l-8.9 1.2c0-.2-3-21.9-5.5-47.2-2.3-23.6-18-37.3-31.2-36.4-13.3.8-26.3 21.3-26.8 42.1-.5 22.6 0 50.5 0 50.8l-9 .3z"/><path fill="#fff" d="M1137.9 1285c0-.3-.5-28.4 0-51.2.6-26 17-49.8 35.2-50.9 9.3-.6 19 3.7 26.6 11.7 7.9 8.3 12.9 20 14.1 32.8 2.5 25.1 5.4 46.6 5.5 46.8l-8.9 1.2c0-.2-3-21.9-5.5-47.2-2.3-23.6-18-37.3-31.2-36.4-13.3.8-26.3 21.3-26.8 42.1-.5 22.6 0 50.5 0 50.8l-9 .3z"/><path fill="#ffe2e1" d="M738.9 1536.6c0 7-3.7 12.6-8.2 12.6h-9.3c0-7 4.7-25.2 9.3-25.2s8.2 5.6 8.2 12.6zm62 11.7c0 8.1-3.7 14.7-8.2 14.7h-12c0-8.1 4.7-29.4 9.3-29.4 4.5 0 10.9 6.6 10.9 14.7zm62.4-5.9c0 8.1-3.7 14.7-8.2 14.7h-12c0-8.1 4.7-29.4 9.3-29.4 4.5 0 10.9 6.6 10.9 14.7z"/><ellipse cx="843.1" cy="1542.4" fill="#ffe2e1" rx="8.2" ry="14.7"/><path fill="#ffe2e1" d="M795.8 1524.3c-3.5-12.9-17-18.1-28.9-23.8-3.5-.1-5.2-.1-5.2-.1s1.7 0 5.2.1c-.7-.3-1.4-.7-2.2-1.1-2.5-2.5-5-5-5-7.5-1-8.3-1.7-18.4-4-27.3-.3 0-.6-.1-.9-.1.3 0 .6.1.9.1-2.6-9.6-7.3-17.7-16.9-20.4-5.2.1-10.1.2-14.7.4 9.2 20.7 14 43.1 21.9 64.6-18.8.9-36.4-4.7-54-8.3-.2 12.5.6 23 3 25.4 6.2 6.2 79.6 26.4 89.9 27.1.8.1 2.1 0 3.7-.1 6.6-8.2 10-17.9 7.2-29z"/><path fill="#ffe2e1" d="M724.2 1444.8c-15.7.8-27.1 2.4-27.8 5.5s-1.5 9.3-2.3 16.9l40.4 5.8c-3.1-9.7-6.3-19.1-10.3-28.2z"/><path fill="#ffe2e1" d="M694.1 1467.1c-1 10.2-1.8 22.8-2 33.9 17.7 3.6 35.2 9.2 54 8.3-4.4-12-7.9-24.3-11.7-36.5l-40.3-5.7z"/><path fill="#fe9287" d="M742 1510.7c-13.3 0-26-2.9-38.4-5.8-3.2-.7-6.6-1.5-9.9-2.2-.7-.1-1.1-.8-1-1.5s.8-1.1 1.5-1c3.3.7 6.7 1.5 9.9 2.2 12.9 3 26.3 6.1 40.1 5.7-3-8.3-5.6-16.8-8.1-25-.9-3-1.9-6.1-2.8-9.1l-38.1-5.4c-.7-.1-1.2-.7-1.1-1.4.1-.7.7-1.1 1.4-1.1l38.9 5.6c.5.1.9.4 1 .9l3 9.9c2.7 8.7 5.4 17.8 8.6 26.5.1.4.1.8-.1 1.1-.2.3-.6.5-1 .6H742z"/><path fill="#fff" d="M831.8 1463.8c-3.3-7.9-6.7-15-9.5-16-4.1-1.6-48.5-4-83.4-3.5 9.6 2.7 14.3 10.7 16.9 20.4 25.3 2.8 52.2-4.9 76-.9z"/><path fill="#2d2c2f" d="M759.8 1491.9c0 2.5 2.5 5 5 7.5.7.4 1.4.7 2.2 1.1 9.4.2 18.8 0 28.1-.8l-37.4-25.9c.9 6.2 1.4 12.6 2.1 18.1zm83.5-3.3c-1.8-1.7-3.2-3.5-4-5.4-2-4.9-4.7-12.5-7.6-19.4-7.6-1.3-15.5-1.4-23.6-1l34.8 26.1c.2-.1.3-.2.4-.3z"/><path fill="#151516" d="M808.2 1462.8c-3.3.2-6.7.4-10.1.6l38 29c.6-.2 1.3-.4 1.9-.5 1.7-.5 3.4-1.6 4.9-3l-34.7-26.1z"/><path fill="#2d2c2f" d="M762.6 1465.2l46.7 32.9c9.1-1.3 18-3.1 26.9-5.6l-38-29c-11.8.9-23.9 2.2-35.6 1.7z"/><path fill="#151516" d="M755.8 1464.7c.8 2.9 1.4 6 1.8 9.1l37.4 25.9c4.8-.4 9.5-.9 14.3-1.6l-46.7-32.9c-2.3-.1-4.6-.3-6.8-.5z"/><path fill="#fff" d="M871.1 1506.9c-3.6-4.8-19.7-10.5-27.7-18.2-1.6 1.6-3.4 2.8-5.2 3.3-23.2 6.8-47.1 9-71.2 8.5 12 5.8 25.4 10.9 28.9 23.8 2.8 11.1-.6 20.8-7.2 29.1 18-1.3 79-11.8 82.4-12.6 3.7-1 4.3-28 0-33.9z"/><ellipse cx="721.4" cy="1536.6" fill="#fff" rx="8.2" ry="12.6"/><ellipse cx="780.7" cy="1548.3" fill="#fff" rx="8.2" ry="14.7"/><path fill="#ffe2e1" d="M851.4 1541l-28.5 4.2c-2.9.4-5.6-1.6-6.1-4.5l-.4-2.6c-.4-2.9 1.6-5.6 4.5-6.1l28.5-4.2c2.9-.4 5.6 1.6 6.1 4.5l.4 2.6c.4 3-1.6 5.7-4.5 6.1z"/><path fill="#fe9287" d="M738.3 1273.5h-9.7c-5 0-9-4.9-9-11s10.1-11 15.1-11 3.6 15.9 3.6 22z"/><path fill="#844e4e" d="M718.3 1284.5h-9.7c-5 0-9-4.9-9-11s10.1-11 15.1-11 3.6 15.9 3.6 22z"/><ellipse cx="542.2" cy="1339.5" fill="#fff" rx="8.5" ry="11.2"/><path fill="#fe9287" d="M663 1220.3c14.9-7.5 27.4-19.9 43.5-27.4 18.4-8.7 36.9-4.6 48.8 8.9.3-20 .2-39.7-.5-41.1-1.3-2.6-100.6 44.8-126.7 63.9 12.3.7 24.2 1.1 34.9-4.3z"/><path fill="#ffe2e1" d="M706.5 1193c-16.2 7.5-28.6 19.9-43.5 27.4-10.7 5.3-22.6 4.9-34.9 4.3-3.5 2.6-5.8 4.7-6.2 6-3.5 11.3-5.8 109.3-1 109.3s128.1-91.7 131.9-94.3c1.3-.9 2.2-22.6 2.6-43.9-12-13.4-30.4-17.6-48.9-8.8z"/><path fill="#ffe2e1" d="M552.3 1297.4c0-2.5 1.2-6.2 5-7.5 13.7-8.7 29.8-5 43.5-9.9 22.6-7.5 20.1-29 21.4-48.3-13.9-2.8-97.3-5.3-97.3-1.3-.2 15.3 2.5 101.1 2.5 105.6 0 .9 3.7 1.6 9.7 2.2 11.3-7.5 9.2-27.7 15.2-40.8z"/><path fill="#fe9287" d="M624.2 1232.4c-.1-.2-.8-.5-1.9-.7-1.3 19.3 1.2 40.8-21.4 48.3-13.7 5-29.8 1.2-43.5 9.9-3.7 1.2-5 5-5 7.5-6 13-4 33.3-15.3 40.7 23.4 2.2 81.3 1.8 83.9 1.8 3.2.1 4.7-104.5 3.2-107.5z"/><path fill="#fff" d="M676.3 1156.2c-7.5 1.5-151.4 69.5-151.4 74.2 0 4.8 94 3 99.3 2s130.6-69 130.6-71.7c0-2.8-78.5-4.5-78.5-4.5z"/><g fill="#fff"><ellipse cx="738.3" cy="1262.5" rx="9" ry="11"/><ellipse cx="718.3" cy="1273.5" rx="9" ry="11"/></g><path fill="#ffe2e1" d="M602.9 1367.3c0 6.4-3.9 10.7-8.5 11.7s-5.2.3-5.2.3c0-6.4.5-23.6 5.2-23.6 4.7-.1 8.5 5.1 8.5 11.6zm-23.2-7.4c0 6.4-3.9 10.7-8.5 11.7s-5.2.3-5.2.3c0-6.4.5-23.6 5.2-23.6 4.7-.1 8.5 5.2 8.5 11.6z"/><path fill="#fe9287" d="M611.6 1366.3c1.1 3.9 1.5 9 4.1 9.8s35.7-13.5 36.7-16.7c1.1-3.3-1.4-56.6-1.4-56.6s-49.5 12.6-48.3 21.1c1.2 8.4 8.9 42.4 8.9 42.4z"/><path fill="#ffe2e1" d="M556.3 1305.4c-.3 8.3-1.7 47.4 0 49.8s57 19.9 59.4 20.9c2.4.9 1.9-52.8 0-54-1.8-1.1-59.2-19.7-59.4-16.7z"/><path fill="#fe9287" d="M651.1 1302.8c-1.1-2-19.9-7.7-34.6-11.5-.9 6.5.4 13.5-5.8 16.1-10.7 5.8-22.2 5.6-33.2 5.2 16.4 4.5 36.5 9.4 38.2 9.6 2.9.3 37.1-16.2 35.4-19.4z"/><path fill="#fff" d="M610.8 1307.4c6.2-2.6 4.9-9.6 5.8-16.1-8.9-2.3-16.2-3.9-17.1-3.6-3.6 1.3-43 15.3-43.1 17.7 0 1 9.7 4 21.3 7.2 10.9.4 22.4.6 33.1-5.2z"/><g fill="#fff"><ellipse cx="589.9" cy="1367.6" rx="8.5" ry="11.7"/><ellipse cx="566.7" cy="1360.2" rx="8.5" ry="11.7"/></g><path fill="#ffe2e1" d="M670.8 1386.9c0 8.8-5.3 14.6-11.5 15.9s-7.1.4-7.1.4c0-8.8.7-32.2 7.1-32.2s11.5 7.2 11.5 15.9z"/><path fill="#ffe2e1" d="M655.9 1296.6c-5.7-8.5-22.2-4.1-34-8.9-.5 17-1.2 80.4 0 86.4.5 2.4 59.8 17.4 70.9 18-1.3-12.2-.1-25-1.2-37.3-.3-4-4.3-8.7-8.2-9.6-14.1-3-26.5-25.8-27.5-48.6z"/><path fill="#fff" d="M735.7 1326.4c-1.5-5-18.1-3-18.1-6.5s.3-35.9-1.3-38.4c-4-6.4-23.9-12.4-27.1-12.4-7.5 0-67.4 17.7-67.4 17.7v.9c11.8 4.8 26.9 2.6 32.6 11.2.5 21.5 1.7 36 1.4 40.5-.3 3.8 35.5 8.1 35.7 15.4.3 10 .1 27.5 1.2 37.3h.8c8.5 0 40.1-14.5 42.1-20.1 2.1-5.5 1.6-40.6.1-45.6z"/><path fill="#2d2c2f" d="M659.4 1299.3c-.7 3.2 2.3 39.1 3.9 38.5 2.1-.8 31.8-8.8 44.8-13.3l-42.6-28.4c-3.6 1.3-5.9 2.4-6.1 3.2zm35-11.3c-6.8 1.6-14.5 3.6-20.9 5.5l40.7 27.2c.2-3.2-.1-12.3-.4-20.6l-19.4-12.1z"/><path fill="#151516" d="M712.8 1284.8c-.1-.6-8.4.9-18.4 3.2l19.3 12.1c-.2-7.5-.7-14.3-.9-15.3zm-47.3 11.3l42.6 28.4c3.4-1.2 5.7-2.2 6-2.7.1-.1.1-.5.2-1.1l-40.7-27.2c-3.1.9-5.8 1.8-8.1 2.6z"/><path fill="#ff6f68" d="M720.2 1347.2c-6.1 11.1-1.4 23.9-2.2 35.7 1.9-.9 3.7-1.7 5.3-2.5-2.4-10.3 1-23.4-3.1-33.2z"/><path fill="#fe9287" d="M720.2 1347.2c4.1 9.8.6 22.9 3.1 33.2 3.6-1.7 6.2-2.9 6.4-3.1.8-.5-.1-41.6-1.1-42.6s-29.6 7.8-29.3 14.3c.4 8 2.3 41.4 2.3 41.4s2.9-1.3 6.8-3.1c-1.7-12.8-6.6-26.3 1.8-38.8 2.2 11.9 2.4 24.7 2.5 36.8 1.7-.8 3.5-1.6 5.3-2.4.8-11.8-3.8-24.6 2.2-35.7z"/><path fill="#ff6f68" d="M708.5 1387.2c1.3-.6 2.8-1.3 4.3-2 0-12.1-.3-25-2.5-36.8-8.4 12.6-3.6 26-1.8 38.8z"/><path fill="#2d2c2f" d="M647.2 1301.8c.1-1.4-19.5-7.8-19.6-6.4 0 1.7-.1 4.9-.1 8.7l19.8 26.6c.2-6.4-.2-27.7-.1-28.9z"/><path fill="#151516" d="M627.6 1304.1c-.1 8.2-.1 18.8.1 19.9.3 1.6 19.2 8.5 19.6 8.5.1 0 .1-.7.1-1.8l-19.8-26.6z"/><path fill="#fe9287" d="M652.5 1337.8c.1 4.6 1.1 21.2 0 21.6s-7.6-2.4-7.6-11.3 7.5-12.9 7.6-10.3z"/><path fill="#fff" d="M672.4 1374.8c-.3 3.3-.9 15.2-.6 17.3.3 2 19.4 7.4 21 7.6v-17.8s-16.3-3.1-17.2-3.5c-.9-.5-3-5.9-3.2-3.6z"/><path fill="#ffe2e1" d="M737.1 1361.6c-3.1 1.7-44.3 20.2-44.3 20.2v17.8s42.4-19.1 44.3-20.6 2.3-18.7 0-17.4z"/><path d="M687.1 1274.6h-1.9c-1.1 0-1.9-.9-1.9-1.9v-37.6c0-1.1.9-1.9 1.9-1.9h1.9c1.1 0 1.9.9 1.9 1.9v37.6c0 1-.8 1.9-1.9 1.9zm-47.4 13.1h-1.9c-1.1 0-1.9-.9-1.9-1.9v-37.6c0-1.1.9-1.9 1.9-1.9h1.9c1.1 0 1.9.9 1.9 1.9v37.6c0 1-.8 1.9-1.9 1.9z" fill="#fff"/><ellipse cx="653.1" cy="1387.3" fill="#fff" rx="11.5" ry="15.9"/><path fill="#ffe2e1" d="M1473.8 1298.1l4 209.3s242 30 242 26-.7-208-.7-208l-245.3-27.3z"/><path fill="#ff3f3d" d="M1897.8 1255.7l-246-28.6-1.2.5v90.8l68.6 7.7 178.6-70.4z"/><path fill="#ffe2e1" d="M1473.8 1298.7l176.8 19.7v-90.8l-176.8 71.1z"/><path fill="#fe9287" d="M1719.8 1534.1l177.9-72.8.1-205.6-178.6 70.4.6 208z"/><path fill="#2d2c2f" d="M1691.3 1307.3c-4-4 2-11 7-12 23-6 44-18 66-16 13.8 1.6 26.4 7.4 39.1 13.7l50.6-19.9-178.7-22.2c-4.2-.5-8.5.1-12.4 1.8L1548 1307l171.2 19.1 10.9-4.3c-14.4-3.1-29.9-1.9-38.8-14.5z"/><path fill="#151516" d="M1764.3 1279.3c-22-2-43 10-66 16-5 1-11 8-7 12 8.9 12.6 24.4 11.5 38.8 14.5l73.3-28.9c-12.7-6.2-25.4-12-39.1-13.6zm-183 11.7c-1.2.6-1 2.3.3 2.6 20.7 5.4 81.2 18.2 103.7-.6 13.8-11.5-12.1-23.5-38.9-34.2l-65.1 32.2z"/><path fill="#fff" d="M1643.7 1300c-4.3 0-8.8-.2-13.5-.5-21-1.5-41.1-6-49.6-8.4-.6-.2-1-.7-1.1-1.3-.1-.6.3-1.2.9-1.5l65.5-30.8c.3-.2.7-.2 1.1-.1 4.1 1.4 40.2 13.7 42.4 25.2.3 1.7.1 4.2-2.7 6.5-8.8 7.2-23.2 10.9-43 10.9zm-58.4-10.8c22.9 5.8 78.3 15.1 99.4-2.5 1.9-1.5 1.9-2.8 1.7-3.7-.4-2.3-3.7-7.3-20.6-15.1-8.5-3.9-17-6.9-19.2-7.6l-61.3 28.9z"/><path fill="#2d2c2f" d="M1612.1 1282.7l27.1-13.2c.3-.1.6-.2.9 0l15.3 5.4c1 .3 1 1.7.1 2.1l-26.1 12c-.2.1-.5.1-.8.1l-16.3-4.3c-1-.3-1.1-1.7-.2-2.1z"/><path fill="#151516" d="M1619.5 1282.9c-.2 0-.4-.1-.5-.3-.1-.3 0-.5.3-.6.6-.2 13.7-6.8 18.7-9.4.2-.1.5 0 .7.2.1.2 0 .5-.2.7-4.3 2.2-18.4 9.3-18.8 9.4h-.2zm3.1 1.5c-.2 0-.4-.1-.5-.3-.1-.3 0-.5.3-.6.6-.2 13.7-6.8 18.7-9.4.2-.1.5 0 .7.2.1.2 0 .5-.2.7-4.3 2.2-18.4 9.3-18.8 9.4h-.2z"/><path fill="#ff6f68" d="M1699.6 1308.2l36.5 11.2 80.3-31.6-46.8-9.2-70 29.6z"/><path fill="#ffe2e1" d="M1698.5 1304.4l40.1 14 77.8-30.6-47.9-13-70 29.6z"/><path fill="#151516" d="M1719.2 1303.4c-.2 0-.4-.1-.5-.3-.1-.3 0-.5.3-.7l43.4-19c.3-.1.5 0 .7.3.1.3 0 .5-.3.7l-43.4 19h-.2zm4.9 2.6c-.2 0-.4-.1-.5-.3-.1-.3 0-.5.3-.7l16.1-7.1c.3-.1.5 0 .7.3.1.3 0 .5-.3.7l-16.1 7.1h-.2zm14.3 4.4c-.2 0-.4-.1-.5-.3-.1-.3 0-.5.3-.7l39.8-17.4c.3-.1.5 0 .7.3.1.3 0 .5-.3.7l-39.8 17.4h-.2zm5.1 1.9c-.2 0-.4-.1-.5-.3-.1-.3 0-.5.2-.7l45.3-20.9c.2-.1.5 0 .7.2.1.3 0 .5-.2.7l-45.3 20.9c0 .1-.1.1-.2.1zm4.8 2c-.2 0-.4-.1-.5-.3-.1-.3 0-.5.3-.7l27.4-11.5c.3-.1.5 0 .7.3.1.3 0 .5-.3.7l-27.4 11.5h-.2z"/><path fill="#ff3f3d" d="M1473.8 1298.7l1.3 66.6h-30l28.7-66.6zm277.5 117.2l177.9-72.8-31.4-87.4-178.6 70.4 32.1 89.8z"/><path fill="#ff6f68" d="M1473.8 1298.7l-87.2-43 242 26 90.6 44.4-245.4-27.4z"/><path fill="#fff" d="M1597.8 1375.1l110.1 10.8v-47.2l-110.1-10.9v47.3z"/><path fill="#ff3f3d" d="M1670.8 1345.8l-59.8-6.2c-.5-.1-.9-.5-.9-1.1.1-.5.6-.9 1.1-.9l59.7 6.2c.5.1.9.5.9 1.1-.1.5-.5.9-1 .9zm0 9.8l-59.8-6.2c-.5-.1-.9-.5-.9-1.1.1-.5.6-.9 1.1-.9l59.7 6.2c.5.1.9.5.9 1.1-.1.5-.5.9-1 .9z"/><path fill="#ffe2e1" d="M1867.3 1381l3.1 156.4s186.7 23.1 186.7 20.1-.5-155.3-.5-155.3l-189.3-21.2z"/><path fill="#fff" d="M1948.2 1390v156.7c9.2 1.1 18.6 2.2 27.8 3.2v-156.8l-27.8-3.1z"/><path fill="#fff" d="M2004.6 1325.7l-137.3 55.3 189.2 21.1 137.8-54.3-189.7-22.1z"/><path fill="#ffe2e1" d="M2073.8 1333.8l-125.6 56.2 27.7 3.1 124.6-56.2-26.7-3.1z"/><path fill="#fe9287" d="M2057 1557.4l137.3-56.2v-153.4l-137.8 54.3.5 155.3z"/><path fill="#ff3f3d" d="M2113.8 1421.3v.4c0 3.8 3.9 6.4 7.4 5l26.7-10.9c2-.8 3.4-2.8 3.4-5 0-3.8-3.8-6.4-7.4-5l-26.7 10.5c-2.1.8-3.4 2.8-3.4 5z"/><path fill="#ffe2e1" d="M1926.6 1357.1l192.6 20.4 24.7-9.7-194.3-20-23 9.3z"/><path fill="#ff6f68" d="M2119.4 1404v-26.5l24.5-9.7v25.3l-3.6-1.3-3.7 4.5h-5.9l-2.7 3.9-4.3-.6-4.3 4.4z"/><g fill="#ff3f3d"><path d="M2065.8 1522.1c-.2 0-.3 0-.5-.1-.3-.2-.5-.5-.5-.9 0-12 4.9-19.5 13.8-21 4-.7 7.7.2 10.4 2.5s4.3 5.9 4.3 10.1c0 .5-.4 1-1 1l-2.7.1-2.8 1.4c-.1.1-.2.1-.3.1l-3.3.3-3.9 2.2c-.1.1-.3.1-.4.1l-4.8.5-2.6 1.8c-.2.1-.4.2-.6.2l-2.2-.2-2.3 1.6c-.2.2-.4.3-.6.3zm15.3-20.2c-.7 0-1.5.1-2.2.2-9.5 1.6-11.7 10.6-12.1 17l.9-.7c.2-.1.4-.2.7-.2l2.2.2 2.5-1.7c.1-.1.3-.2.5-.2l4.9-.5 3.9-2.2c.1-.1.3-.1.4-.1l3.3-.3 2.8-1.4c.1-.1.3-.1.4-.1l1.9-.1c-.2-3.2-1.4-5.9-3.5-7.6-1.7-1.5-4-2.3-6.6-2.3zm11.2 10.9z"/><path d="M2075.8 1539.1c-.8 0-1.5-.2-2.2-.7-1-.7-1.5-1.8-1.5-3v-.9c0-.6.4-1 1-1s1 .4 1 1v.9c0 .5.3 1 .7 1.4.4.3 1 .4 1.5.2.7-.2 1.2-.9 1.2-1.6l.2-18.4c0-.5.5-1 1-1 .6 0 1 .5 1 1l-.2 18.4c0 1.6-1 3-2.6 3.5-.3.1-.7.2-1.1.2zm27.7-10.4c-.6 0-1-.4-1-1v-31.1c0-.6.4-1 1-1s1 .4 1 1v31.1c0 .6-.5 1-1 1z"/><path d="M2099.7 1502.9c-.2 0-.4-.1-.6-.2-.4-.3-.5-1-.2-1.4l3.9-5.3c.3-.4 1-.5 1.4-.2l3.3 2.4c.4.3.5 1 .2 1.4s-1 .5-1.4.2l-2.5-1.8-3.3 4.5c-.2.3-.5.4-.8.4zm.5 27.3c-.4 0-.8-.2-.9-.6-.2-.5 0-1.1.6-1.3.3-.1 7.3-3 7.3-3l.8 1.9s-7 2.9-7.3 3h-.5zm17.4-7.5c-.6 0-1-.4-1-1v-29.6c0-.6.4-1 1-1s1 .4 1 1v29.6c0 .5-.5 1-1 1z"/><path d="M2113.8 1498.4c-.2 0-.4-.1-.6-.2-.4-.3-.5-1-.2-1.4l3.9-5.3c.2-.2.4-.4.7-.4s.5 0 .7.2l3.3 2.4c.4.3.5 1 .2 1.4s-1 .5-1.4.2l-2.5-1.8-3.3 4.5c-.2.3-.5.4-.8.4zm.5 25.8c-.4 0-.8-.2-.9-.6-.2-.5 0-1.1.5-1.3l7.3-3 .8 1.9-7.3 3c-.2-.1-.3 0-.4 0z"/></g><path fill="#fe9287" d="M1177.4 1454.8l51.8 192.9c1.9 7 3.8 13.2 6.5 14.2l114.4-184.2-172.6-26.9c-.4 1.3-.5 2.6-.1 4z"/><path fill="#fe9287" d="M1419.1 1352.8c-2.4-.8-8.2 1.5-12.4 3.2l-225.5 90.8c-1.9.7-3.2 2.3-3.8 4l172.6 26.9 76.3-122.9-7.2-2z"/><path fill="#2d2c2f" d="M1421.3 1354.8l-233.5 93.1c-3.1 1.2-4.8 4.6-3.9 7.9l51.8 191.7 245.3-108-50.8-180.3c-1.1-3.9-5.2-5.9-8.9-4.4z"/><path fill="#2d2c2f" d="M1430.2 1359.1c-1.1-3.8-5.2-5.8-8.8-4.4l-233.5 93.1c-3.1 1.2-4.8 4.6-3.9 7.9l2.7 10.1 246-97.9-2.5-8.8z"/><path fill="#151516" d="M1422.9 1371.5l-3.7 1.4 47 161 .7-.3-.7.3.4 1.4-.4-1.4-218.3 97 1 3.5 222-98.2-48-164.7z"/><path fill="#ff6f68" d="M1419.2 1372.9l-217.7 87 4.5 16.5 217.6-88.6-4.4-14.9z"/><path fill="#fff" d="M1209.7 1467.9c.5.9 1.6 1.3 2.6.9l5.4-2.2c1.1-.5 1.6-1.8 1.1-2.8-.5-1-1.7-1.4-2.7-1l-5.4 2.2c-1.1.4-1.6 1.8-1 2.9zm190-81.2l-158.9 65.8c-1 .4-1.5 1.6-1.1 2.7.4 1.1 1.6 1.6 2.7 1.1l158.9-65.8c1-.4 1.5-1.4 1.2-2.4-.3-1.2-1.6-1.9-2.8-1.4zm-193.7 89.7l41.9 154.5 218.3-97-42.6-146.1-217.6 88.6z"/><path fill="#fe9287" d="M1235.7 1647.4v14.5l212.9 26c6.8.6 13.7-.5 20-3.2l5.6-77.4-238.5 40.1z"/><path fill="#ff3f3d" d="M1694.2 1564.5l-245.3 108c.5 9.8 10.7 16.1 19.7 12.1l206.6-91c11.6-5 19-16.4 19-29.1z"/><path fill="#fe9287" d="M1646.9 1590.8l-36.4 16v2.7l36.3-16 .1-2.7zm21-9.2l-8.8 4v2.6l8.8-3.8v-2.8z"/><path fill="#fff" d="M1481 1539.4l-245.3 108 213.2 25.2 245.3-108.1-213.2-25.1z"/><path fill="#ffe2e1" d="M1477.9 1552.5l-196.5 85.8 93.6 10.5 196.4-85.8-93.5-10.5zm48.2 40.1l-68 29.5 65 8.8 68-29.4-65-8.9z"/><path fill="#2d2c2f" d="M1256 1583.8c.7-1.5 2-2.6 3.5-3.3.1-.1.3-.1.5-.2.9-.4 2.1 2.8 4.1 2.1 1.7-.6.1-3.9.7-4.2.2-.1.4-.2.5-.2 1.4-.6 3-.7 4.5-.3l4 1.1-.5 2.9-3.4-.4 3.6 7.5s-.3 4.5-4.2 5.9c-4.4 1.6-7.3 0-7.3 0l-2.9-8.9-1.7 3.5-2.9-1.9 1.5-3.6z"/><path fill="#ffe2e1" d="M1280.8 1573.3c.7-1.5 2-2.6 3.5-3.3.1-.1.3-.1.5-.2.9-.4 2.1 2.8 4.1 2.1 1.7-.6.1-3.9.7-4.2.2-.1.4-.2.5-.2 1.4-.6 3-.7 4.5-.3l4 1.1-.5 2.9-3.4-.4 3.6 7.5s-.3 4.5-4.2 5.9c-4.4 1.6-7.3 0-7.3 0l-2.9-8.9-1.7 3.5-2.9-1.9 1.5-3.6z"/><path fill="#ff6f68" d="M1304.2 1562.3c.7-1.5 2-2.6 3.5-3.3.1-.1.3-.1.5-.2.9-.4 2.1 2.8 4.1 2.1 1.7-.6.1-3.9.7-4.2.2-.1.4-.2.5-.2 1.4-.6 3-.7 4.5-.3l4 1.1-.5 2.9-3.4-.4 3.6 7.5s-.3 4.5-4.2 5.9c-4.4 1.6-7.3 0-7.3 0l-2.9-8.9-1.7 3.5-2.9-1.9 1.5-3.6z"/><path fill="#2d2c2f" d="M1452.3 1526.1l-67 29c-2.8 1.2-6-.3-6.8-3.3l-5-18.1c-.7-2.5.6-5 3-6l67.2-27.3c2.8-1.1 5.9.4 6.7 3.2l4.8 16.4c.6 2.5-.6 5.1-2.9 6.1z"/><path fill="#fff" d="M1436.1 1523.5c-.8.3-1.2 1.3-.9 2.1.3.8 1.3 1.2 2.1.9s1.2-1.3.9-2.1c-.3-.9-1.3-1.2-2.1-.9zm-9.3-10l.6 1.5 1.5-.6 5 4.5-.3 2.2c0 .2.1.6.2.8.3.8 1.3 1.2 2.1.9l8.1-3.4c.4-.2.6-.6.4-1-.2-.4-.6-.6-1-.4l-7.8 3.3c-.1 0-.2 0-.2-.1v-.1l.1-1.5 5.5-2.3c.6-.2.9-.7.9-1.3l.7-5.9c.1-.2.1-.3 0-.4-.2-.4-.6-.6-1-.4l-10.9 4.6-1.3-1.2-2.6.8zm16.7 6.9c-.8.3-1.2 1.3-.9 2.1.3.8 1.3 1.2 2.1.9.8-.3 1.2-1.3.9-2.1-.3-.8-1.3-1.2-2.1-.9z"/><path fill="#2d2c2f" d="M1337.2 1445.1c-1 0-1.9-.6-2.3-1.6-.5-1.3.1-2.7 1.4-3.3l72.2-29c1.3-.5 2.7.1 3.3 1.4.5 1.3-.1 2.7-1.4 3.3l-72.2 29c-.4.2-.7.2-1 .2zm5.7 10.4c-1 0-1.9-.6-2.3-1.6-.5-1.3.1-2.7 1.4-3.3l46.6-18.7c1.3-.5 2.7.1 3.3 1.4.5 1.3-.1 2.7-1.4 3.3l-46.6 18.7c-.4.2-.7.2-1 .2zm3.6 10.8c-1 0-1.9-.6-2.3-1.6-.5-1.3.1-2.7 1.4-3.3l48.9-19.7c1.3-.5 2.7.1 3.3 1.4.5 1.3-.1 2.7-1.4 3.3l-48.9 19.7c-.3.1-.7.2-1 .2zm5.6 9.8c-1 0-1.9-.6-2.3-1.6-.5-1.3.1-2.7 1.4-3.3l19.6-7.9c1.3-.5 2.7.1 3.3 1.4.5 1.3-.1 2.7-1.4 3.3l-19.6 7.9c-.4.2-.7.2-1 .2z"/><path fill="#fff" d="M1386.7 1540.8c-1 0-1.9-.6-2.3-1.6-.5-1.3.1-2.7 1.4-3.3l36.3-14.6c1.3-.5 2.7.1 3.3 1.4.5 1.3-.1 2.7-1.4 3.3l-36.3 14.6c-.4.1-.7.2-1 .2z"/><path fill="#ffe2e1" d="M1354.5 1486.8l4 10.6c.5 1.5 2.2 2.2 3.6 1.6l60.6-25.3c1.4-.6 2-2.1 1.5-3.5l-3.6-9.9c-.5-1.5-2.2-2.2-3.6-1.6l-60.9 24.6c-1.5.5-2.2 2.1-1.6 3.5z"/><path fill="#2d2c2f" d="M1415.4 1472.4c-.1 0-.3 0-.4-.1l-4.5-1.4c-.8-.2-1.2-1.1-1-1.9s1.1-1.2 1.9-1l3.3 1 1.4-2.9c.4-.7 1.3-1 2-.7.7.4 1.1 1.3.7 2l-2 4.1c-.3.6-.9.9-1.4.9zm-52.4 18.5c-.6 0-1.2-.4-1.4-.9-.3-.8.1-1.6.8-2l16-6.5c.8-.3 1.6.1 2 .8s-.1 1.6-.8 2l-16 6.5c-.2 0-.4.1-.6.1z"/><path fill="#ff6f68" d="M1223.3 1489l23.9 81.8c.4 1.3 1.9 2 3.2 1.5l101.2-44.4c1.1-.5 1.7-1.7 1.3-2.9l-26.8-77.4c-.4-1.3-1.8-1.9-3.1-1.4l-98.3 40c-1.2.5-1.8 1.7-1.4 2.8z"/><path fill="#fff" d="M1254.1 1495.8c2.6-5.4 7.1-9.7 12.7-12 .5-.2 1.1-.5 1.7-.7 3.2-1.4 7.7 10.4 14.9 7.8 6.2-2.2.4-14.3 2.6-15.3.7-.3 1.3-.6 2-.8 5.2-2.2 10.9-2.6 16.3-1.2l14.6 3.9-2 10.7-12.5-1.6 13 27.2s-1.2 16.3-15.3 21.6c-16.1 6-26.7 0-26.7 0l-10.7-32.5-6.3 12.7-10.4-7 6.1-12.8z"/><path fill="#ffe2e1" d="M1241.4 1531c-.2 0-.4-.1-.6-.2l-3.6-2.4c-.3-.2-.5-.7-.4-1.1l1.3-5.4c.1-.5.7-.9 1.2-.7.5.1.9.7.7 1.2l-1.2 4.7 3 2.1c.5.3.6.9.3 1.4-.1.2-.4.4-.7.4zm94-41.4c-.6 0-1-.5-1-1l.2-4.9-3.4-1.4c-.5-.2-.8-.8-.5-1.3.2-.5.8-.8 1.3-.5l4 1.7c.4.2.6.5.6 1l-.2 5.6c0 .4-.5.8-1 .8z"/><path fill="#fff" d="M1611.1 698.1c-.4 0-.8-.1-1.2-.2-7.9-3-13.1-9-14.6-16.8-.4-1.9.9-3.7 2.8-4.1 1.9-.4 3.7.9 4.1 2.8.7 3.8 3.1 8.9 10.2 11.6 1.8.7 2.7 2.7 2 4.5-.6 1.3-1.9 2.2-3.3 2.2zm-87.8 567.4c-.4 0-.8-.1-1.2-.2-7.9-3-13.1-9-14.6-16.8-.4-1.9.9-3.7 2.8-4.1s3.7.9 4.1 2.8c.7 3.8 3.1 8.9 10.2 11.6 1.8.7 2.7 2.7 2 4.5-.6 1.4-1.9 2.2-3.3 2.2zm135.8-714.7c-.4 0-.8-.1-1.2-.2-7.9-3-13.1-9-14.6-16.8-.4-1.9.9-3.7 2.8-4.1 1.9-.4 3.7.9 4.1 2.8.7 3.8 3.1 8.9 10.2 11.6 1.8.7 2.7 2.7 2 4.5-.6 1.3-1.9 2.2-3.3 2.2z"/><path fill="#ff3f3d" d="M1587.1 1128.9c-.4 0-.8-.1-1.2-.2-7.9-3-13.1-9-14.6-16.8-.4-1.9.9-3.7 2.8-4.1s3.7.9 4.1 2.8c.7 3.8 3.1 8.9 10.2 11.6 1.8.7 2.7 2.7 2 4.5-.5 1.4-1.8 2.2-3.3 2.2zm68.3-496.8c-.3 0-.6 0-.9-.1-1.9-.5-2.9-2.5-2.4-4.3 2.7-9.8-.9-21.1-8.5-26.2-1.6-1.1-2-3.3-.9-4.9 1.1-1.6 3.3-2 4.9-.9 10.1 6.9 14.9 21.1 11.3 33.9-.6 1.5-2 2.5-3.5 2.5z"/><path fill="#fff" d="M1667.7 926c-2.9 0-5.8-.4-8.7-1.2-1.9-.5-2.9-2.5-2.4-4.3.5-1.9 2.5-2.9 4.3-2.4 9.8 2.7 21.1-.9 26.2-8.5 1.1-1.6 3.3-2 4.9-.9s2 3.3.9 4.9c-5.3 7.7-15.1 12.4-25.2 12.4zm99.2 342.4c-2.9 0-5.8-.4-8.7-1.2-1.9-.5-2.9-2.5-2.4-4.3.5-1.9 2.5-2.9 4.3-2.4 9.8 2.7 21.1-.9 26.2-8.5 1.1-1.6 3.3-2 4.9-.9s2 3.3.9 4.9c-5.3 7.7-15.1 12.4-25.2 12.4zm-67.3-533.1c-4.7 0-8.5-3.8-8.5-8.5s3.8-8.5 8.5-8.5 8.5 3.8 8.5 8.5-3.8 8.5-8.5 8.5z"/><path fill="#ff3f3d" d="M1683.5 836.8c-4.7 0-8.5-3.8-8.5-8.5s3.8-8.5 8.5-8.5 8.5 3.8 8.5 8.5-3.8 8.5-8.5 8.5z"/><path fill="#fff" d="M1599.8 951.9c-4.7 0-8.5-3.8-8.5-8.5s3.8-8.5 8.5-8.5 8.5 3.8 8.5 8.5-3.8 8.5-8.5 8.5zm108.1 289.8c-4.7 0-8.5-3.8-8.5-8.5s3.8-8.5 8.5-8.5 8.5 3.8 8.5 8.5-3.8 8.5-8.5 8.5z"/><path fill="#ff3f3d" d="M1598.9 778.1l12.4-7.7 7.7 12.4-12.4 7.7-7.7-12.4z"/><path fill="#ff3f3d" d="M1607.3 794c-.3 0-.5 0-.8-.1-.9-.2-1.7-.8-2.2-1.5l-7.8-12.3c-1-1.6-.6-3.8 1.1-4.8l12.3-7.8c.8-.5 1.7-.7 2.6-.5s1.7.8 2.2 1.5l7.8 12.3c1 1.6.6 3.8-1.1 4.8l-12.3 7.8c-.5.4-1.2.6-1.8.6zm-3-14.7l4.1 6.4 6.4-4.1-4.1-6.4-6.4 4.1zm174.2 499.4l12.4-7.7 7.7 12.4-12.4 7.7-7.7-12.4z"/><path fill="#ff3f3d" d="M1786.6 1294.4c-1.2 0-2.3-.6-3-1.6l-7.8-12.3c-1-1.6-.6-3.8 1.1-4.8l12.3-7.8c1.6-1 3.8-.6 4.8 1.1l7.8 12.3c1 1.6.6 3.8-1.1 4.8l-12.3 7.8c-.5.3-1.2.5-1.8.5zm-3-14.7l4.1 6.4 6.4-4.1-4.1-6.4-6.4 4.1z"/><g fill="#ff3f3d"><path d="M1668.7 1054l4-14 14 4-4 14-14-4z"/><path d="M1682.9 1061.2c-.3 0-.6 0-1-.1l-14-4c-1.9-.5-2.9-2.5-2.4-4.3l4-14c.5-1.9 2.5-2.9 4.3-2.4l14 4c1.9.5 2.9 2.5 2.4 4.3l-4 14c-.3 1.5-1.7 2.5-3.3 2.5zm-9.7-9.9l7.3 2.1 2.1-7.3-7.3-2.1-2.1 7.3z"/></g><path fill="#ffe2e1" d="M1822.3 761.8c-9.8-1.4 19.2-6.8 25.8-5.6s36.6 9.3 44.4 8.8 25.4-8.6 33.1-9.4 29-2.8 34 4.3-1.6 12.5-10.4 13.3-10 16.9-25.4 15.4c-4.8-.5-39.8-8-57-9.5-17.2-1.6-31.6-15.5-44.5-17.3z"/><path fill="#151516" d="M1904.9 661.9c20.2 2 33.3 9.4 39.3 22.2.8 1.7 1.4 3.5 1.7 5.3.3 1.8.6 3.7.9 5.8.1.8 0 1.8-.2 2.8-.2 1.1-.5 1.8-1 2.3-.6.5-1.4.8-2.3.9-1 0-2 0-3.2-.1l-9.8-1.1c-.9-.1-1.9-.2-2.8-.3s-1.7-.3-2.3-.6c-1.2-.6-1.8-1.5-2-2.7-.2-1.1-.4-2.3-.8-3.5-.3-1.1-.7-2.2-1.3-3.4-.6-1.2-1.2-2.1-2-2.9-1.3-1.2-2.6-2.2-3.9-3.1-1.2-.6-2.7-1.3-4.4-1.8-1.8-.6-3.6-1-5.5-1.3s-3.8-.5-5.7-.5c-1.9 0-3.6.2-5.2.6-2.5.7-4.5 1.7-6 2.9s-2.7 3.2-3.6 5.8c-.3.7-.5 1.5-.5 2.3 0 .9 0 1.6.2 2.1.5 2.2 1.5 3.9 2.9 4.9s3.1 2.1 5 3.1c1.1.6 2.2 1.2 3.4 1.5 1.2.4 2.3.9 3.5 1.4 2.7 1.2 5.5 2.3 8.3 3.3 2.9 1 5.7 2.1 8.5 3.2.5.3 1 .4 1.5.5s1 .2 1.5.5c2 .9 4.1 1.9 6.2 2.7 2.2.9 4 2 5.7 3.3 2.6 2 4.8 4 6.5 6 1.8 2 3.4 4.4 4.8 7.3.4.9.7 1.8 1 2.9.2 1.1.5 2.1.7 3.2.1.3.1.6 0 .9 0 .3 0 .5.1.7.2 1.7.1 3.7-.2 6.1.1.5.1 1-.2 1.5l-.4 2.7c-.4 1.1-.7 2.1-1 3.1s-.7 2-1.1 3c-.9 1.8-1.8 3.3-2.7 4.8-.9 1.4-2 2.8-3.3 4.1-.5.5-1 .8-1.4 1.1-.5.3-.9.7-1.3 1.2-.6.5-1.3 1.1-2 1.6s-1.5.9-2.3 1.4c-.6.3-1.2.7-1.8 1-.6.3-1.3.7-2 1-1.9.9-3.9 1.6-5.9 2.1s-4.1 1-6.3 1.4c-1.5.3-3.1.5-4.7.5s-3.2 0-4.8.1c-.8.1-1.5.1-2.1 0-.7-.1-1.3-.1-2 0l-1.2-.1c-.2 0-.5-.1-.8-.2-.4-.1-.6-.1-.9 0-.5 0-1.4 0-2.7-.2-1.2-.1-2.1-.3-2.6-.5l-1.6-.2c-.7-.3-1.4-.5-2.2-.5-.8 0-1.5-.2-2.1-.5-.5-.1-1-.1-1.4-.2-.4-.1-.9-.2-1.4-.4-1.2-.4-2.5-.9-3.8-1.2-1.3-.4-2.5-.8-3.6-1.3-4.9-2.2-9.1-4.8-12.6-7.7s-6.3-6.6-8.3-10.9c-1.3-2.6-2.2-5.7-2.7-9.1-.1-.6-.2-1.3-.1-1.9 0-.6 0-1.3-.1-2-.1-.8-.1-1.8-.1-3 .1-1.2.4-2 1-2.6.6-.8 1.5-1.1 2.5-1.2 1 0 2.1 0 3.4.2l9.8 1.1c.8.1 1.7.2 2.7.3.9.1 1.7.4 2.4.7 1.1.6 1.6 1.6 1.7 2.7 0 1.2.2 2.4.6 3.7.2 1.3.6 2.4 1.1 3.5s1 2.1 1.6 3.1c.4.7.9 1.3 1.5 1.9.6.6 1.1 1.1 1.7 1.6 2.1 1.7 4.7 3.2 7.9 4.5.7.3 1.4.5 2.1.5.7.1 1.4.3 2.2.6l.8.1c.8.3 1.9.5 3.4.7s2.6.2 3.5.1c.3-.1.9-.1 1.6 0 .5 0 1.1-.1 1.7 0 .6 0 1.1 0 1.7-.2 3.7-.5 6.6-1.4 8.9-2.7s4.1-3.6 5.4-7.1c.3-.7.4-1.5.4-2.4s-.1-1.7-.3-2.2c-.7-2.9-2.1-5.2-4.4-7-.3-.2-.8-.6-1.6-1.1-1.4-1.1-3.1-2-4.9-2.8s-3.7-1.6-5.5-2.4c-.7-.3-1.4-.5-2-.8-.7-.2-1.4-.5-2.2-.8-1.6-.7-3.2-1.3-4.9-1.9-1.7-.6-3.2-1.2-4.7-1.9-.5-.3-.9-.4-1.2-.4-.3 0-.7-.2-1.1-.4-.8-.3-1.5-.6-2.2-.9-.6-.3-1.4-.6-2.2-.9-2.3-1.1-4.5-2.2-6.5-3.3-2.1-1.1-4-2.3-5.7-3.7-2.2-1.8-4.1-3.8-5.8-6.1-1.7-2.3-2.9-4.8-3.7-7.5-.3-1-.5-1.9-.6-2.9s-.2-2.1-.4-3.2c-.1-.9-.1-2.3.1-4 .1-1.7.4-3.1.7-4.2.2-.4.3-1 .4-1.8.5-1.1.9-2.1 1.2-3.1.3-1 .8-2 1.4-2.9 2-3.4 4.5-6.1 7.3-8.3s5.9-4.1 9.4-5.8c2.2-1 4.6-1.7 7.1-2.1 2.5-.4 5.1-.8 7.9-1.1 1.1-.1 2.1-.1 3.1 0s2 .1 3.1 0c.3-.1.8 0 1.5.2.9.5 1.3.5 1.6.3z"/><path fill="#404041" d="M1893.4 660.6c20.2 2 33.3 9.4 39.3 22.2.8 1.7 1.4 3.5 1.7 5.3.3 1.8.6 3.7.9 5.8.1.8 0 1.8-.2 2.8-.2 1.1-.5 1.8-1 2.3-.6.5-1.4.8-2.3.9-1 0-2 0-3.2-.1l-9.8-1.1c-.9-.1-1.9-.2-2.8-.3s-1.7-.3-2.3-.6c-1.2-.6-1.8-1.5-2-2.7-.2-1.1-.4-2.3-.8-3.5-.3-1.1-.7-2.2-1.3-3.4-.6-1.2-1.2-2.1-2-2.9-1.3-1.2-2.6-2.2-3.9-3.1-1.2-.6-2.7-1.3-4.4-1.8-1.8-.6-3.6-1-5.5-1.3s-3.8-.5-5.7-.5c-1.9 0-3.6.2-5.2.6-2.5.7-4.5 1.7-6 2.9s-2.7 3.2-3.6 5.8c-.3.7-.5 1.5-.5 2.3 0 .9 0 1.6.2 2.1.5 2.2 1.5 3.9 2.9 4.9s3.1 2.1 5 3.1c1.1.6 2.2 1.2 3.4 1.5 1.2.4 2.3.9 3.5 1.4 2.7 1.2 5.5 2.3 8.3 3.3 2.9 1 5.7 2.1 8.5 3.2.5.3 1 .4 1.5.5s1 .2 1.5.5c2 .9 4.1 1.9 6.2 2.7 2.2.9 4 2 5.7 3.3 2.6 2 4.8 4 6.5 6 1.8 2 3.4 4.4 4.8 7.3.4.9.7 1.8 1 2.9.2 1.1.5 2.1.7 3.2.1.3.1.6 0 .9 0 .3 0 .5.1.7.2 1.7.1 3.7-.2 6.1.1.5.1 1-.2 1.5l-.4 2.7c-.4 1.1-.7 2.1-1 3.1s-.7 2-1.1 3c-.9 1.8-1.8 3.3-2.7 4.8-.9 1.4-2 2.8-3.3 4.1-.5.5-1 .8-1.4 1.1-.5.3-.9.7-1.3 1.2-.6.5-1.3 1.1-2 1.6s-1.5.9-2.3 1.4c-.6.3-1.2.7-1.8 1-.6.3-1.3.7-2 1-1.9.9-3.9 1.6-5.9 2.1s-4.1 1-6.3 1.4c-1.5.3-3.1.5-4.7.5s-3.2 0-4.8.1c-.8.1-1.5.1-2.1 0-.7-.1-1.3-.1-2 0l-1.2-.1c-.2 0-.5-.1-.8-.2-.4-.1-.6-.1-.9 0-.5 0-1.4 0-2.7-.2-1.2-.1-2.1-.3-2.6-.5l-1.6-.2c-.7-.3-1.4-.5-2.2-.5-.8 0-1.5-.2-2.1-.5-.5-.1-1-.1-1.4-.2-.4-.1-.9-.2-1.4-.4-1.2-.4-2.5-.9-3.8-1.2-1.3-.4-2.5-.8-3.6-1.3-4.9-2.2-9.1-4.8-12.6-7.7s-6.3-6.6-8.3-10.9c-1.3-2.6-2.2-5.7-2.7-9.1-.1-.6-.2-1.3-.1-1.9 0-.6 0-1.3-.1-2-.1-.8-.1-1.8-.1-3 .1-1.2.4-2 1-2.6.6-.8 1.5-1.1 2.5-1.2 1 0 2.1 0 3.4.2l9.8 1.1c.8.1 1.7.2 2.7.3.9.1 1.7.4 2.4.7 1.1.6 1.6 1.6 1.7 2.7 0 1.2.2 2.4.6 3.7.2 1.3.6 2.4 1.1 3.5s1 2.1 1.6 3.1c.4.7.9 1.3 1.5 1.9.6.6 1.1 1.1 1.7 1.6 2.1 1.7 4.7 3.2 7.9 4.5.7.3 1.4.5 2.1.5.7.1 1.4.3 2.2.6l.8.1c.8.3 1.9.5 3.4.7s2.6.2 3.5.1c.3-.1.9-.1 1.6 0 .5 0 1.1-.1 1.7 0 .6 0 1.1 0 1.7-.2 3.7-.5 6.6-1.4 8.9-2.7s4.1-3.6 5.4-7.1c.3-.7.4-1.5.4-2.4s-.1-1.7-.3-2.2c-.7-2.9-2.1-5.2-4.4-7-.3-.2-.8-.6-1.6-1.1-1.4-1.1-3.1-2-4.9-2.8s-3.7-1.6-5.5-2.4c-.7-.3-1.4-.5-2-.8-.7-.2-1.4-.5-2.2-.8-1.6-.7-3.2-1.3-4.9-1.9-1.7-.6-3.2-1.2-4.7-1.9-.5-.3-.9-.4-1.2-.4-.3 0-.7-.2-1.1-.4-.8-.3-1.5-.6-2.2-.9-.6-.3-1.4-.6-2.2-.9-2.3-1.1-4.5-2.2-6.5-3.3-2.1-1.1-4-2.3-5.7-3.7-2.2-1.8-4.1-3.8-5.8-6.1-1.7-2.3-2.9-4.8-3.7-7.5-.3-1-.5-1.9-.6-2.9s-.2-2.1-.4-3.2c-.1-.9-.1-2.3.1-4 .1-1.7.4-3.1.7-4.2.2-.4.3-1 .4-1.8.5-1.1.9-2.1 1.2-3.1.3-1 .8-2 1.4-2.9 2-3.4 4.5-6.1 7.3-8.3s5.9-4.1 9.4-5.8c2.2-1 4.6-1.7 7.1-2.1 2.5-.4 5.1-.8 7.9-1.1 1.1-.1 2.1-.1 3.1 0s2 .1 3.1 0c.3-.1.8 0 1.5.2.9.5 1.3.5 1.6.3z"/></svg>