<svg xmlns="http://www.w3.org/2000/svg" xmlns:xlink="http://www.w3.org/1999/xlink" viewBox="0 0 2500 2000"><defs><path id="a" d="M2227.2 1361.3c-119.2 363.1-282.5 154.5-389.8 225.9-124.7 82.9-65 131-231.7 196.2-166.6 65.2-372-48.3-431-57.8-177.1-28.6-357.5 142-571.5 60-267.9-102.7-475.4-434.2-235-717.7s431.1-99.4 444.1-452.2c14.4-391.2 378.2-480.3 656.4-364.8 293.4 121.7 329.6-180.4 520.9 0s359.4 739.3 237.6 1110.4z" class="js-blob-mask" data-blob-array="M2227.2,1361.3c-119.2,363.1-282.5,154.5-389.8,225.9c-124.7,82.9-194.5,6.5-361.2,71.7 c-166.6,65.2-242.5,76.2-301.5,66.7c-177.1-28.6-305.7,86.7-519.7,4.7c-267.9-102.7-553.8-446.8-313.4-730.3 s546.7,33.7,559.7-319.1c14.4-391.2,289.2-545.5,567.4-430c293.4,121.7,425.9-200.6,617.2-20.2S2349,990.2,2227.2,1361.3z;M2172.6,1241.8c-119.2,363.1-227.9,274-335.2,345.4c-124.7,82.9-65,131-231.7,196.2 c-166.6,65.2-357.1,11-416.1,1.5c-177.1-28.6-320.6,27.4-534.6-54.6c-267.9-102.7-527.2-378.9-286.8-662.4 s431.1-99.4,444.1-452.2c14.4-391.2,241.1-422.4,519.3-306.9c293.4,121.7,466.7-238.3,658-57.9S2294.5,870.7,2172.6,1241.8z;M2200.7,1304.2c-141.3,444.6-256,211.6-363.3,283c-124.7,82.9-48.2,160-214.9,225.2 c-277.6,89.5-279.1-124.8-409.5-135.8c-177.1-28.6-340.3,207.3-609.8,109c-267.9-102.7-536.5-363.7-235-717.7 C673.4,685,740.8,896.3,753.8,543.5c14.4-391.2,436.7-408.1,714.9-292.6c293.4,121.7,387.2-89.9,578.5,90.5 C2276.9,502.3,2371.4,754.8,2200.7,1304.2z"/></defs><clipPath id="b"><use overflow="visible" xlink:href="#a"/></clipPath><g clip-path="url(#b)"><path fill="#fe9287" d="M-124.4 2180.8h2810l-797.8-800.6H-124.4v800.6z"/><path fill="#ff6f68" d="M2685.6-81.1v2261.9l-797.8-800.6-17.7-927.5 19.3-522.4 796.2-11.4z"/><path fill="#ffe2e1" d="M-124.4-81.1v1461.4h2012.3s0-702.2 16.7-939.5c9-127.3-15.1-510.4-15.1-510.4L-124.4-81.1z"/><path fill="#fff" d="M47.3 23.1H1255V1124H47.3V23.1z"/><path fill="#ff3f3d" d="M74.7 1107.6S-72.1 1326.7 265.3 1405c138.4 32.1 543.1-207.3 797.5-216.5 279.1-10 189-89.4 166.8-133.1-19.5-38.3-222.7-63.9-238.1-66.1-128.3-18.5-430.6 18.1-430.6 18.1L74.7 1107.6z" opacity=".03"/><path d="M795.5 1112.9h44.1l68-117.8v-76.3l-112.1 194.1zm133.1-212.2V977L988 874.1h-44l-15.4 26.6zm17.6-48.8h44.1l248.3-430.1v-76.3L946.2 851.9zm-294.6 261h99.5L895 870.2h-99.5l-143.9 242.7zm136.5-258h99.6l19.9-34.5V648L788.1 854.9zm347.9-581h99.5l3.1-5.3V96.2L1136 273.9zm-12.1 21L920 648v172.4l303.4-525.5h-99.5zM818.4 32.6L679.6 272.9h25.3L843.7 32.6h-25.3zM194.7 1112.9h25.2l106.7-187v-43.8l-131.9 230.8zm471.7-817l-320.5 555h25.3l320.4-555h-25.2z" fill="#ffe2e1" opacity=".2"/><g fill="#ffe2e1"><path d="M335.2 23.1h3V1124h-3V23.1zm577.1 0h3V1124h-3V23.1z"/><path d="M43.9 860.6h1214.5v3H43.9v-3zm0-577.1h1214.5v3H43.9v-3z"/></g><path fill="#ff6f68" d="M2089.3 1861.6h-1543l-316.1-322.7h1543l316.1 322.7z"/><path d="M542.2 1697.1c-78.9-79.4-123.1-125.2-147.7-151.8h-64.3c13.7 16.8 53 60 177.3 185 44.7 45 89 89 120.6 120.4h68.3c-25.2-24.9-89.2-88.2-154.2-153.6zm147.6 0c-78.9-79.4-123.1-125.2-147.8-151.8h-64.3c13.7 16.8 53 60 177.3 185 44.7 45 89 89 120.6 120.4H844c-25.2-24.9-89.2-88.2-154.2-153.6zm147.5 0c-78.9-79.4-123.1-125.2-147.7-151.8h-64.3c13.7 16.8 53 60 177.3 185 44.7 45 89 89 120.6 120.4h68.3c-25.2-24.9-89.2-88.2-154.2-153.6zm147.6 0c-78.9-79.4-123.1-125.2-147.8-151.8h-64.3c13.7 16.8 53 60 177.3 185 44.7 45 89 89 120.6 120.4h68.3c-25.1-24.9-89.1-88.2-154.1-153.6zm147.6 0c-78.9-79.4-123.1-125.2-147.8-151.8h-64.3c13.7 16.8 53 60 177.3 185 44.7 45 89 89 120.6 120.4h68.3c-25.1-24.9-89.1-88.2-154.1-153.6zm147.5 0c-78.9-79.4-123.1-125.2-147.8-151.8H1068c13.7 16.8 53 60 177.3 185 44.7 45 89 89 120.6 120.4h68.3c-25.2-24.9-89.2-88.2-154.2-153.6zm147.6 0c-78.9-79.4-123.1-125.2-147.8-151.8h-64.3c13.7 16.8 53 60 177.3 185 44.7 45 89 89 120.6 120.4h68.3c-25.1-24.9-89.1-88.2-154.1-153.6zm147.6 0c-78.9-79.4-123.1-125.2-147.8-151.8h-64.3c13.7 16.8 53 60 177.3 185 44.7 45 89 89 120.6 120.4h68.3c-25.1-24.9-89.1-88.2-154.1-153.6zm147.5 0c-78.9-79.4-123.1-125.2-147.8-151.8h-64.3c13.7 16.8 53 60 177.3 185 44.7 45 89 89 120.6 120.4h68.3c-25-24.9-89.1-88.2-154.1-153.6zm147.6 0c-78.9-79.4-123.1-125.2-147.8-151.8h-64.3c13.7 16.8 53 60 177.3 185 44.7 45 89 89 120.6 120.4h68.3c-25.1-24.9-89.1-88.2-154.1-153.6z" fill="#fe9287"/><path d="M1785.8 1540.1h-14c-.2 0-.4-.2-.4-.4s.2-.4.4-.4h14c.2 0 .4.2.4.4s-.2.4-.4.4zm20.9 20.1H1791c-.3 0-.5-.2-.5-.5s.2-.5.5-.5h15.7c.3 0 .5.2.5.5s-.2.5-.5.5zm21 20.1h-17.5c-.3 0-.5-.2-.5-.5s.2-.5.5-.5h17.5c.3 0 .5.2.5.5s-.3.5-.5.5zm20.9 20.1h-19.2c-.3 0-.5-.2-.5-.5s.2-.5.5-.5h19.2c.3 0 .5.2.5.5 0 .2-.2.5-.5.5zm20.9 20.1h-20.9c-.3 0-.5-.2-.5-.5s.2-.5.5-.5h20.9c.3 0 .5.2.5.5.1.2-.2.5-.5.5zm21 20.1h-22.7c-.3 0-.6-.3-.6-.6s.3-.6.6-.6h22.7c.3 0 .6.3.6.6-.1.3-.3.6-.6.6zm20.9 20H1887c-.3 0-.6-.3-.6-.6s.3-.6.6-.6h24.4c.3 0 .6.3.6.6s-.3.6-.6.6zm20.9 20.1h-26.2c-.3 0-.6-.3-.6-.6s.3-.6.6-.6h26.2c.3 0 .6.3.6.6s-.2.6-.6.6zm21 20.1h-27.9c-.4 0-.7-.3-.7-.7 0-.4.3-.7.7-.7h27.9c.4 0 .7.3.7.7-.1.5-.4.7-.7.7zm20.9 20.1h-29.7c-.4 0-.7-.3-.7-.7 0-.4.3-.7.7-.7h29.7c.4 0 .7.3.7.7 0 .4-.3.7-.7.7zm20.9 20.1h-31.4c-.4 0-.7-.3-.7-.7 0-.4.3-.7.7-.7h31.4c.4 0 .7.3.7.7 0 .4-.3.7-.7.7zm21 20.1h-33.2c-.4 0-.7-.3-.7-.7s.3-.7.7-.7h33.2c.4 0 .7.3.7.7s-.3.7-.7.7zm20.9 20.1h-34.9c-.4 0-.8-.3-.8-.8 0-.4.3-.8.8-.8h34.9c.4 0 .8.3.8.8s-.4.8-.8.8zm20.9 20.1h-36.7c-.4 0-.8-.4-.8-.8s.4-.8.8-.8h36.7c.4 0 .8.4.8.8s-.3.8-.8.8zm21 20.1h-38.4c-.5 0-.8-.4-.8-.8 0-.5.4-.8.8-.8h38.4c.5 0 .8.4.8.8 0 .5-.4.8-.8.8zm20.9 20.1h-40.1c-.5 0-.8-.4-.8-.8s.4-.8.8-.8h40.1c.5 0 .8.4.8.8s-.3.8-.8.8zm20.9 20.1h-41.9c-.5 0-.9-.4-.9-.9s.4-.9.9-.9h41.9c.5 0 .9.4.9.9s-.4.9-.9.9zM232.2 1540.1h-14c-.2 0-.4-.2-.4-.4s.2-.4.4-.4h14c.2 0 .4.2.4.4s-.2.4-.4.4zm20.9 20.1h-15.7c-.3 0-.5-.2-.5-.5s.2-.5.5-.5h15.7c.3 0 .5.2.5.5s-.2.5-.5.5zm20.9 20.1h-17.5c-.3 0-.5-.2-.5-.5s.2-.5.5-.5H274c.3 0 .5.2.5.5s-.2.5-.5.5zm21 20.1h-19.2c-.3 0-.5-.2-.5-.5s.2-.5.5-.5H295c.3 0 .5.2.5.5 0 .2-.3.5-.5.5zm20.9 20.1H295c-.3 0-.5-.2-.5-.5s.2-.5.5-.5h20.9c.3 0 .5.2.5.5 0 .2-.2.5-.5.5zm20.9 20.1h-22.7c-.3 0-.6-.3-.6-.6s.3-.6.6-.6h22.7c.3 0 .6.3.6.6s-.3.6-.6.6zm21 20h-24.4c-.3 0-.6-.3-.6-.6s.3-.6.6-.6h24.4c.3 0 .6.3.6.6s-.3.6-.6.6zm20.9 20.1h-26.2c-.3 0-.6-.3-.6-.6s.3-.6.6-.6h26.2c.3 0 .6.3.6.6s-.3.6-.6.6zm20.9 20.1h-27.9c-.4 0-.7-.3-.7-.7 0-.4.3-.7.7-.7h27.9c.4 0 .7.3.7.7 0 .5-.3.7-.7.7zm21 20.1h-29.7c-.4 0-.7-.3-.7-.7 0-.4.3-.7.7-.7h29.7c.4 0 .7.3.7.7-.1.4-.4.7-.7.7zm20.9 20.1h-31.4c-.4 0-.7-.3-.7-.7 0-.4.3-.7.7-.7h31.4c.4 0 .7.3.7.7s-.3.7-.7.7zm20.9 20.1h-33.2c-.4 0-.7-.3-.7-.7s.3-.7.7-.7h33.2c.4 0 .7.3.7.7s-.3.7-.7.7zm20.9 20.1h-34.9c-.4 0-.8-.3-.8-.8 0-.4.3-.8.8-.8h34.9c.4 0 .8.3.8.8s-.3.8-.8.8zm21 20.1h-36.7c-.4 0-.8-.4-.8-.8s.4-.8.8-.8h36.7c.4 0 .8.4.8.8s-.4.8-.8.8zm20.9 20.1h-38.4c-.5 0-.8-.4-.8-.8 0-.5.4-.8.8-.8h38.4c.5 0 .8.4.8.8 0 .5-.3.8-.8.8zm20.9 20.1H506c-.5 0-.8-.4-.8-.8s.4-.8.8-.8h40.1c.5 0 .8.4.8.8s-.3.8-.8.8zm21 20.1h-41.9c-.5 0-.9-.4-.9-.9s.4-.9.9-.9h41.9c.5 0 .9.4.9.9s-.4.9-.9.9z" fill="#ff6f68"/><path fill="#ff3f3d" d="M1363.3 217.8s-20.7 475.3 0 475.1c99.8-1.1 350.2 79.9 420.3 9.8 71.8-71.8 3.4-375.1-18-461.7-3.4-13.6-15.6-23.2-29.6-23.2h-372.7z" opacity=".05"/><path fill="#fff" d="M1352.9 210h396.4v475.1h-396.4V210z"/><g fill="#fe9287" opacity=".2"><path d="M1433.9 592.2c-21.9-3.9-42.4 1.8-61.3 11.3v58h357.1V523c-24.1 16.3-48.1 32.7-74.3 50.2-68.1 45.7-146.5 31-221.5 19z"/><path d="M1514 448.2c-44.6-11.5-94.6-33.2-141.5-36.5v44.9c1.2.6 2.4 1.3 3.5 2 44.8 25.9 81.9 60.3 128.5 80.2 35.3 15.5 74.1 20.7 112.9 17.2 19-2.6 34.5-13.8 50-25 21.7-15.2 42.1-30.4 62.2-45.5v-52.9l-.1.1c-63.7 50.8-143 34.5-215.5 15.5zm-20.6-168.1c-41.1-7.2-82.2 1.3-120.8 14.8v42.4c64.3 30.5 133.1 45.7 205.3 59.2 42.2 7.8 82.8-1.7 119-22.4 11.1-6.2 22-12.1 32.9-17.7v-51.5c-77 11.2-157-11.6-236.4-24.8z"/><path d="M1372.6 233.7v61.2c38.6-13.6 79.7-22 120.8-14.8 79.4 13.2 159.4 36 236.4 24.7v-71.1h-357.2zM1696.8 374c-36.2 20.7-76.7 30.2-119 22.4-72.2-13.5-140.9-28.7-205.3-59.2v74.4c46.8 3.3 96.9 25 141.5 36.5 72.4 19 151.7 35.3 215.5-15.5l.1-.1v-76.2c-10.8 5.7-21.7 11.5-32.8 17.7zm-79.3 182c-38.8 3.4-77.6-1.7-112.9-17.2-46.6-19.8-83.6-54.3-128.5-80.2-1.2-.7-2.3-1.3-3.5-2v146.9c18.8-9.4 39.4-15.2 61.3-11.3 75 12.1 153.5 26.7 221.6-19 26.2-17.5 50.2-33.9 74.3-50.2v-37.5c-20.1 15-40.5 30.3-62.2 45.5-15.6 11.2-31.1 22.4-50.1 25z" opacity=".5"/></g><path fill="#ff3f3d" d="M1372 944.3c57.5 12.4 165.9 23.2 190.6 16.6 12.9-3.4-12-84.7-18.2-98.2-15.6-33.9-172.5-7.7-172.5-7.7s-21.7 84.6.1 89.3z" opacity=".05"/><path fill="#fff" d="M1361.7 845.5h149.1v89.3h-149.1v-89.3z"/><g fill="#fe9287" opacity=".2"><path d="M1370.3 920.8v4.5h22.5c-7.6-2.3-15.2-4-22.5-4.5zm44.6-48.7c-15.2-2.7-30.4.5-44.6 5.5v15.7c23.8 11.3 49.2 16.9 75.8 21.9 15.6 2.9 30.6-.6 44-8.3 4.1-2.3 8.1-4.5 12.2-6.6v-19c-28.5 4.2-58.1-4.3-87.4-9.2z"/><path d="M1370.3 855v22.6c14.3-5 29.4-8.1 44.6-5.5 29.3 4.9 58.9 13.3 87.3 9.1V855h-131.9zm131.9 45.3c-4 2.1-8.1 4.2-12.2 6.6-13.4 7.6-28.3 11.1-44 8.3-26.7-5-52.1-10.6-75.8-21.9v27.5c7.4.5 15 2.3 22.5 4.5h109.4l.1-25z" opacity=".5"/></g><path fill="#ff6f68" d="M-124.4 1356.6s736.6 12 982.1 12c257.5 0 1030.2-12 1030.2-12v23.7s-770.4 12-1027.2 12c-246.3 0-985.1-12-985.1-12v-23.7z"/><path fill="#ef5b5b" d="M2219.3 137.3c0-49.9-40.5-90.4-90.4-90.4-24.7 0-47 9.9-63.3 25.9v1452.1h153.7V137.3z"/><path fill="#fe9287" d="M2128.9 46.9c-24.7 0-47 9.9-63.3 25.9-16.7 16.4-27.1 39.2-27.1 64.5v1387.6h27.1V135.2c0-39.2 12.6-83.3 63.3-88.3z"/><path fill="#ff6f68" d="M2035.3 1524.9v1.6l33.8 34v-35.6h-33.8zm33.8 0v35.6l150.2 151v-186.6h-150.2z"/><path fill="#fff" d="M2307.5 1569.1c.2-1.5.4-3 .4-4.5 0-1.3-.1-2.5-.4-3.7v-30.1h-34.8c-80-33.9-273-39.1-333.7 0h-18.6v38.4h1.3c44.6 82.1 372.8 79.2 385.8-.1z"/><path fill="#f9d7d7" d="M1980.6 1490.9l42.9 62.7c6.4-.4 12.8-.8 19.2-1.3l-44.1-61.7c-6-.1-12 0-18 .3z"/><path fill="#ffe2e1" d="M2060.9 1499.6c-21-5.3-41.6-8.6-62.4-9l44.1 61.7c4.6-.3 9.2-.7 13.8-1 14.3-1.8 25-14.3 30.3-26.7 7.2-14.3-14.2-22.3-25.8-25zm-88.9-7.9c-31.3 7.3-51.7 18.5-51.7 33.9 0 12.1 7.2 22.2 19.7 30.6 27.8.4 55.6-.8 83.6-2.5l-42.9-62.7c-2.9.1-5.8.4-8.7.7z"/><path fill="#fe9287" d="M2203.6 1537c-.9 5.3.9 11.6 1.8 16.9h2.7c4.5-17.8 1.8-35.7 4.5-53.5.4-3.7 1.4-7.2 2.3-10.8-2.2-.3-4.4-.7-6.6-1 .1 16-1.6 31.6-4.7 48.4z"/><path fill="#f9d7d7" d="M2214.8 1489.7c-.9 3.6-1.9 7.1-2.3 10.8-2.7 17.8 0 35.7-4.5 53.5h-2.7c-.9-5.3-2.7-11.6-1.8-16.9 3.1-16.9 4.8-32.4 4.7-48.3-75.5-10.9-176.2-11-236.3 3 29.8-3.2 59 .4 89 7.9 11.6 2.7 33 10.7 25.9 25-5.3 12.5-16 25-30.3 26.7-39.1 2.9-77.9 5.5-116.5 4.9 78.9 52.9 367.9 34.2 367.9-25.8 0-18.5-39.4-32.5-93.1-40.8z"/><path fill="#2d2c2f" d="M2234.4 1558.2c-45.4-23.9-205.3-28.8-244.1-2.6 51.8 31.6 182.5 23.2 244.1 2.6z"/><path fill="#ff3f3d" d="M312.5 1630.7c-7.5-29.5 16.5-51.3 45.1-62.3 35.7-13.7 389.3-57.8 454-39.7 55.8 15.6 382.8 71.4 429 81.9 126.9 28.9 301.9 200.1 295.6 268.8-4.6 50.8-404.7 62.1-583 15.5-173.9-45.5-626.6-208.6-640.7-264.2zm1008.7-215.9c-29.9 5.2-57.6 6-31.1 25.7s172.9 63.6 216.1 46.1c29.9-12.1 95.5-33.3 120.7-35.4 63.4-5.2 45.8-34.9 45.8-34.9-125.3-.1-330.7-5.1-351.5-1.5zm322 224.8c-61.3 0-165.6 29.5-139.4 49.2 26.3 19.7 210.9 136.7 312 159.4 96.8 21.8 259.5 12 227.3-36.3-29.8-44.8-236.5-172.3-399.9-172.3z" opacity=".34"/></g><path fill="#fff" d="M1485.5 1206.7c1.9-8.1 3.4-15.4 4.7-21.8 2.7-14.3-13.6-24.5-25.3-15.8-17.2-14.9-40.7-17.7-49.8-3.9-9.1 13.8-20.5 9-25.3 8.7-2.5-.2-18.4 13.3-21.2 29.1-5.5 17.2 25.7 33.9 31.9 34.2 20.7 1 28-28.2 48.1-22.2 19.7 5.7 32.5 27.4 35.8 48.5 1.3 5.9 6.2 10.6 7.4 16.9 2.3 17.8 1.3 35.3-.9 52.6 2.5-.5 4.3-1.9 5.3-4.3 26.1-65.7-10.7-122-10.7-122z"/><path fill="#ffe2e1" d="M1448.5 1215c-24.6-6.4-42.7-14.9-71.1-12.9-4.2.3-6.9 4.5-5.6 8.4 4.6 13.2 25 22.7 35.1 27.6 0 0 6.4 4.3 6.4 5.6 1.3 5.7 9.7 13.1 14.5 30.9 6.1 22.8 45.9 61.8 62.9 58.4 2.3-17.3 11.5-104.2-42.2-118z"/><path fill="#fe9287" d="M1439.6 1245.8c-13.7-2.5-25.5-7-39.2-8.6 6 2.9 11.1 5.3 13 6.6 1.5 1 10.9 6.6 26.2 2z"/><path fill="#2d2c2f" d="M1376 1186.5s14.4-4.1 15.6-12.4c0 0-11.5-3.5-12.5.1-1.3 4.8-3.1 12.3-3.1 12.3z"/><path fill="#242326" d="M1408.5 1205.1c-.4 3-.6 5.9-.3 9.1 1.3 12.5 36.4 18 52 6.6-3.6-2.6-7.5-4.5-11.8-5.8-13.1-3.9-26.4-7.6-39.9-9.9z"/><path fill="#2d2c2f" d="M1485.5 1206.7s16.2-48.5 9.2-66.9c-.4-1.1-1.8-1.3-2.5-.4-8.3 10.9-21.8 14.9-27.4 29.6 0 0-15.3-13.4-30.3-13.7-15-.3-22 12.8-25.8 16.6-3.1 3 1.6 3.3 2 9.6.7 9.8-1.3 16.8-2.2 23.6 13.5 2.3 26.8 6 40 9.9 4.3 1.2 8.2 3.2 11.8 5.8 1.9-1.4 3.5-3 4.7-4.9 5.8-9.1 20.5-9.2 20.5-9.2z"/><path fill="#242326" d="M1433.2 1438c-3-2.6-4.3-7.8-2.2-10 10.8-9.1 21.2-19 24.2-32.9 1.1-6 1.3-14.8-3.1-19.9h-.1c-4.5.6-62.3 52.6-62.3 52.6l5.8 6.5s23.4-2.6 28.6-3.3c5.2-.7-1.3 10.4 5.8 11 1.7.2 4.5.2 7.9.3-.3-.6-.5-1.1-.7-1.8-.8-1.6-2.6-1.2-3.9-2.5z"/><path fill="#2d2c2f" d="M1469 1402.5c1.9-12.9-12.2-27.7-16.8-27.3 4.4 5.1 4.3 14 3.1 19.9-3 13.9-13.4 23.8-24.2 32.9-2.2 2.2-.9 7.4 2.2 10 1.3 1.3 3 .9 3.9 2.6.2.6.5 1.2.7 1.8 10.7.1 26.5-.3 26.5-.3s-1.3-12.3-13-14.3c0 0 15.6-12.3 17.6-25.3z"/><path fill="#ffe2e1" d="M1478.3 1256c-23.4 1.5-46.9-.3-69.5-6.9.5.4 1 .8 1.4 1.1 12.1 12.1 24.7 24.7 28.1 42 2.6 12.6 2.6 23.8.4 36.4-4.8 25.1-11.3 51.9-32 67.5-16.4 1.7-30.7-11.3-35.5-26-2.5-7.6-4.2-16.6-7.5-24.2-8.5 10.2-25 16.6-31.8 38.1-3.1 9.8 15.6 43.2 49.3 49.7 33.8 6.5 76.6-35.7 78.6-53.2 1.9-17.5 49.3-34.5 42.8-76-2.8-18.3-12-35.9-24.3-48.5z"/><path fill="#fff" d="M1406.8 1396c20.8-15.6 27.3-42.4 32-67.5 2.2-12.6 2.2-23.8-.4-36.4-3.5-17.3-16-29.9-28.1-42-.6-.5-1.3-1-2.1-1.6-32.8 23.7-37.7 66.8-39.2 85.1-.4 4.9-2.4 8.8-5.2 12.2 3.3 7.6 5 16.6 7.5 24.2 4.8 14.8 19.1 27.8 35.5 26z"/><path fill="#2d2c2f" d="M1333.2 1428.9c-.7-3.4-3-5.3-6-6.4-.9 1.3-2.3 2.2-4.3 2.7-9.1 1.9-6.5 17.2-6.5 17.2h8.7c-.4-6 1.5-12.7 8.1-13.5z"/><path fill="#242326" d="M1364.2 1366.3c-16.9 6.5-30.7 20.2-39.3 36.6 2.9 8.4 4.9 15.8 2.3 19.7 3 1.1 5.3 2.9 6 6.4-6.7.7-8.6 7.5-8.2 13.5h24.4s-.6-11.3 5.2-15.2c5.1-3.5 12.6-35.5 9.6-61z"/><path fill="#2d2c2f" d="M1337.5 1354.5c-10 11.1-18.6 31.8-14 44.6.5 1.3.9 2.5 1.3 3.8 8.6-16.4 22.4-30.1 39.3-36.6-.5-4.2-1.3-8.2-2.4-11.8-1.2-11.7-12-13.6-24.2 0z"/><path fill="#ffe2e1" d="M1483.4 1414.6c4.8-30.3 3.9-59.3 1.7-88.7-.7-9-1.7-19.7-7-27.5-6.8 14.8-12.2 30.7-12.5 37.2-.6 15.6 10 71.5 8.4 90.9-1.5 19.5 8.2 19.5 8.2 19.5h2.7c-4-9.5-3.6-20.8-1.5-31.4z"/><path fill="#fff" d="M1484.2 1409.5c.3 4.6 1.4 8.9 4 12.5 1.9 2.6 4.5 1.1 6.8-.9.3-1.2.7-2.6 1.4-4.3 8.4-21.4 17.3-128.6 8.4-146.7-2.7-5.4-7.2-3.1-12.3 3.2-8.6 10.8-12 24.9-9.2 38.4 1 4.8 1.4 9.7 1.8 14.2 2.1 27.8 3 55.1-.9 83.6z"/><path fill="#ffe2e1" d="M1488.6 1429.8c2.7-1.1 5.3-2 7.7-3.4-1.4-.7-2-2.1-1.3-5.2-2.3 2-4.9 3.4-6.8.9-2.6-3.7-3.7-8-4-12.5-.2 1.7-.5 3.5-.8 5.2-1.4 6.9-2 14.1-1.2 21 1.2-3.1 3.7-5 6.4-6z"/><path fill="#fff" d="M1513.7 1446c0-22.9-12.8-17.3-17.4-19.6-2.4 1.4-5 2.4-7.7 3.4-2.8 1-5.2 2.9-6.4 5.8.5 3.6 1.3 7.1 2.7 10.4h28.8z"/><path d="M1493.6 1447c-.6 0-1-.4-1-1 0-10-2.1-12.2-2.1-12.2-.4-.4-.4-1 0-1.4s1-.4 1.4-.1c.3.2 2.7 2.7 2.7 13.7 0 .6-.4 1-1 1zm12.1 0c-.6 0-1-.4-1-1 0-10-2.1-12.2-2.1-12.2-.4-.4-.4-1 0-1.4s1-.4 1.4-.1c.3.2 2.7 2.7 2.7 13.7 0 .6-.5 1-1 1z" fill="#525252"/><path fill="#ffe2e1" d="M1393.9 1414.6c-4.8-30.3-3.9-59.3-1.7-88.7.7-9 1.7-19.7 7-27.5 6.8 14.8 12.2 30.7 12.5 37.2.6 15.6-10 71.5-8.4 90.9 1.5 19.5-8.2 19.5-8.2 19.5h-2.7c4-9.5 3.6-20.8 1.5-31.4z"/><path fill="#fff" d="M1393.1 1409.5c-.3 4.6-1.4 8.9-4 12.5-1.9 2.6-4.5 1.1-6.8-.9-.3-1.2-.7-2.6-1.4-4.3-8.4-21.4-11.2-122.7 4-141.7 7.3-9.1 4.8 2.9 14.2 23.3-5.2 7.9-6.2 18.6-7 27.5-2 27.8-2.9 55.1 1 83.6z"/><path fill="#ffe2e1" d="M1388.7 1429.8c-2.7-1.1-5.3-2-7.7-3.4 1.4-.7 2-2.1 1.3-5.2 2.3 2 4.9 3.4 6.8.9 2.6-3.7 3.7-8 4-12.5.2 1.7.5 3.5.8 5.2 1.4 6.9 2 14.1 1.2 21-1.2-3.1-3.7-5-6.4-6z"/><path fill="#fff" d="M1363.6 1446c0-22.9 12.8-17.3 17.4-19.6 2.4 1.4 5 2.4 7.7 3.4 2.8 1 5.2 2.9 6.4 5.8-.5 3.6-1.3 7.1-2.7 10.4h-28.8z"/><path d="M1383.7 1447c-.6 0-1-.4-1-1 0-11 2.4-13.5 2.7-13.7.4-.4 1-.3 1.4.1s.3 1-.1 1.4c-.1.1-2.1 2.5-2.1 12.2.1.6-.3 1-.9 1zm-12.1 0c-.6 0-1-.4-1-1 0-11 2.4-13.5 2.7-13.7.4-.4 1-.3 1.4.1s.3 1-.1 1.4c-.1.1-2.1 2.5-2.1 12.2.1.6-.3 1-.9 1z" fill="#525252"/><path fill="#ff6f68" d="M1413.4 1243.8l-3.3 2.8c24.1 20 58.7 18.7 78.5 15.7l-4.1-12.6c-46.6 4.3-71.1-5.9-71.1-5.9z"/><path fill="#fe9287" d="M1501.8 1247.6c-6.1.9-11.9 1.6-17.3 2.1l4.1 12.6c9.4-1.4 15.4-3.2 15.4-3.2 1.5-5.9-2.2-11.5-2.2-11.5z"/><path fill="#2d2c2f" d="M1453.9 1265.9c0 4.7-3.8 8.6-8.6 8.6s-8.6-3.8-8.6-8.6 3.8-8.6 8.6-8.6 8.6 3.9 8.6 8.6z"/><path fill="#ff6f68" d="M653 1530.4c-1.9-1.4 6-14.9 8.4-16.2 4.9-2.6 13.7 6.9 28 6 11.4-.7 21.4-12 25.2-9.6 3.4 2.2 7.2 13.6 4 16.2-5.9 4.8-18.7 6.7-29.6 7.7-11.1.9-33.8-2.4-36-4.1z"/><path fill="#fe9287" d="M653 1530.4c-1-.2-1.1-1.4-1.1-1.4 5-2.7 19.6-9.6 34.2-10.6 11.6-.7 30.7 3.8 34.5 6.2 0 0-.8 2.5-2 2.2-7.8-2.3-19.8-3-30.9-2.4-10.4.6-32 6.7-34.7 6z"/><path fill="#fff" d="M652.2 1529.4c-2-1.5 5.6-16 8-17.3 5.1-2.7 12.6-8 27.5-9 11.8-.7 23.9 2.7 27.8 5.2 3.6 2.3 7.8 18.4 3.7 17.4-8.1-1.9-20.3-5.7-31.7-5.1-10.7.6-33 10.5-35.3 8.8z"/><path fill="#ff6f68" d="M626.1 1570.7l-54.8 108.9c-5.2 11 .6 32.4 12.7 34.6l121.6 22.1c10.8 2 21.1-5.2 23-16l25-138.4c1.2-6.9-3.7-13.3-10.7-13.9l-100-8c-7.2 0-13.8 4.2-16.8 10.7z"/><path fill="#ffe2e1" d="M645.4 1545.9c-7.2 0-13.7 4.1-16.8 10.6L573 1673.7c-5.2 11 1.4 24.1 13.5 26.2l3.8.7 62.5-154.7h-7.4z"/><path fill="#fff" d="M731.5 1545.9h-78.6l-62.5 154.7 112.6 20.5c10.1 1.8 19.8-4.9 21.6-14.9l25.3-138.3c1.9-11.5-6.8-22-18.4-22z"/><path d="M612.4 1681.8l2.9 1.2c1.6.7 3.4-.1 4.1-1.6.7-1.6-.1-3.4-1.6-4.1l-2.9-1.2c-1.6-.7-3.4.1-4.1 1.6-.7 1.6 0 3.4 1.6 4.1zm36.5-77.2l-2.9-1.2c-1.6-.7-3.4.1-4.1 1.6l-2.7 6.4c-.7 1.6.1 3.4 1.6 4.1l2.9 1.2c1.6.7 3.4-.1 4.1-1.6l2.7-6.4c.7-1.6 0-3.4-1.6-4.1zm10.4-24.3l-2.9-1.2c-1.6-.7-3.4.1-4.1 1.6l-2.7 6.4c-.7 1.6.1 3.4 1.6 4.1l2.9 1.2c1.6.7 3.4-.1 4.1-1.6l2.7-6.4c.7-1.5 0-3.4-1.6-4.1zm-27.8 48.9l-2.7 6.4c-.7 1.6.1 3.4 1.6 4.1l2.9 1.2c1.6.7 3.4-.1 4.1-1.6l2.7-6.4c.7-1.6-.1-3.4-1.6-4.1l-2.9-1.2c-1.6-.7-3.4 0-4.1 1.6zm-11.5 34.7l2.9 1.2c1.6.7 3.4-.1 4.1-1.6l2.7-6.4c.7-1.6-.1-3.4-1.6-4.1l-2.9-1.2c-1.6-.7-3.4.1-4.1 1.6l-2.7 6.4c-.7 1.6.1 3.4 1.6 4.1zm46.9-101.4l-2.9-1.2c-1.6-.7-3.4.1-4.1 1.6-.7 1.6.1 3.4 1.6 4.1l2.9 1.2c1.6.7 3.4-.1 4.1-1.6.8-1.6 0-3.5-1.6-4.1zm-25.1 128.8l3 1c1.6.6 3.4-.3 4-1.9.6-1.6-.3-3.4-1.9-4l-3-1c-1.6-.6-3.4.3-4 1.9-.6 1.6.2 3.4 1.9 4zm35.2-82l1.7-4.8c.6-1.6-.3-3.4-1.9-4l-3-1c-1.6-.6-3.4.3-4 1.9l-1.7 4.8c-.6 1.6.3 3.4 1.9 4l3 1c1.7.6 3.5-.3 4-1.9zm-29.4 65.3l3 1c1.6.6 3.4-.3 4-1.9l1.7-4.8c.6-1.6-.3-3.4-1.9-4l-3-1c-1.6-.6-3.4.3-4 1.9l-1.7 4.8c-.6 1.7.2 3.5 1.9 4zm36.7-95.6l-3-1c-1.6-.6-3.4.3-4 1.9l-1.7 4.8c-.6 1.6.3 3.4 1.9 4l3 1c1.6.6 3.4-.3 4-1.9l1.7-4.8c.6-1.6-.3-3.4-1.9-4zm-29.2 74.2l3 1c1.6.6 3.4-.3 4-1.9l1.7-4.8c.6-1.6-.3-3.4-1.9-4l-3-1c-1.6-.6-3.4.3-4 1.9l-1.7 4.8c-.6 1.6.2 3.4 1.9 4zm7.2-30.3l-1.7 4.8c-.6 1.6.3 3.4 1.9 4l3 1c1.6.6 3.4-.3 4-1.9l1.7-4.8c.6-1.6-.3-3.4-1.9-4l-3-1c-1.6-.6-3.4.2-4 1.9zm27.8-60.5l-3-1c-1.6-.6-3.4.3-4 1.9-.6 1.6.3 3.4 1.9 4l3 1c1.6.6 3.4-.3 4-1.9.6-1.7-.2-3.5-1.9-4zm-18.2 129l3 .9c1.7.5 3.4-.5 3.9-2.2.5-1.7-.5-3.4-2.2-3.9l-3-.9c-1.7-.5-3.4.5-3.9 2.2-.4 1.7.5 3.4 2.2 3.9zm27.6-73.7l2.1-7.3c.5-1.7-.5-3.4-2.2-3.9l-3-.9c-1.7-.5-3.4.5-3.9 2.2l-2.1 7.3c-.5 1.7.5 3.4 2.2 3.9l3 .9c1.6.4 3.4-.5 3.9-2.2zm-14.6 16.7l-2.1 7.3c-.5 1.7.5 3.4 2.2 3.9l3 .9c1.7.5 3.4-.5 3.9-2.2l2.1-7.3c.5-1.7-.5-3.4-2.2-3.9l-3-.9c-1.7-.4-3.4.5-3.9 2.2zM707 1580l-3-.9c-1.7-.5-3.4.5-3.9 2.2l-2.1 7.3c-.5 1.7.5 3.4 2.2 3.9l3 .9c1.7.5 3.4-.5 3.9-2.2l2.1-7.3c.4-1.7-.6-3.4-2.2-3.9zm-29.6 92.1l3 .9c1.7.5 3.4-.5 3.9-2.2l2.1-7.3c.5-1.7-.5-3.4-2.2-3.9l-3-.9c-1.7-.5-3.4.5-3.9 2.2l-2.1 7.3c-.4 1.7.5 3.4 2.2 3.9zm35.1-111.4l-3-.9c-1.7-.5-3.4.5-3.9 2.2-.5 1.7.5 3.4 2.2 3.9l3 .9c1.7.5 3.4-.5 3.9-2.2.4-1.7-.6-3.4-2.2-3.9zm-16.4 137l3 .8c1.7.4 3.4-.6 3.8-2.3.4-1.7-.6-3.4-2.3-3.8l-3-.8c-1.7-.4-3.4.6-3.8 2.3-.4 1.7.7 3.4 2.3 3.8zm27.3-108.9l3 .8c1.7.4 3.4-.6 3.8-2.3l1.3-5.3c.4-1.7-.6-3.4-2.3-3.8l-3-.8c-1.7-.4-3.4.6-3.8 2.3l-1.3 5.3c-.4 1.7.6 3.4 2.3 3.8zm-22.9 91.4l3 .8c1.7.4 3.4-.6 3.8-2.3l1.3-5.3c.4-1.7-.6-3.4-2.3-3.8l-3-.8c-1.7-.4-3.4.6-3.8 2.3l-1.3 5.3c-.4 1.7.6 3.4 2.3 3.8zm15.8-76.2l-12 48c-.6 2.5.9 5.1 3.4 5.7 2.5.6 5.1-.9 5.7-3.4l12-48c.6-2.5-.9-5.1-3.4-5.7-2.5-.6-5 .9-5.7 3.4zm10.5-41.8c-.4 1.7.6 3.4 2.3 3.8l3 .8c1.7.4 3.4-.6 3.8-2.3.4-1.7-.6-3.4-2.3-3.8l-3-.8c-1.7-.4-3.4.6-3.8 2.3z" fill="#fe9287"/><path fill="#fc2826" d="M339.1 1643.2l122.2 30.1 54.3-102.9c.1-.2.1-.5 0-.7-.3-1.3-4.5-3.2-6.5 2l2.2-14.5 1.5-2.9c.3-.7-.1-1.5-.9-1.8L406.6 1528c-5.9-1.7-12.2.4-15.9 5.2-12 16-50.6 70.1-60.3 83.6-1.4 2-2.2 4.4-2.3 6.9l-.2 4.4c-.2 7.1 4.5 13.3 11.2 15.1z"/><path fill="#ffe2e1" d="M349.6 1632.9c39 4 76 15 114 18 12.8-31.5 31.3-60 48.2-89.4l-.4-4.4-52 93.4-111.6-26.4-7.4-1.3c-4-.7-7.7 2.4-7.5 6.4.1 2.2.9 4.5 2.5 6.3 1.3 1.5 3 2.5 4.9 3l1.4.3c1.6-3.3 5-5.9 7.9-5.9z"/><path fill="#fff" d="M463.6 1650.9c-38-3-75-14-114-18-2.9 0-6.3 2.6-8 5.9l118.9 29.2 52.2-97.4-.9-9.2c-16.9 29.5-35.5 58-48.2 89.5z"/><path fill="#262626" d="M408.7 1662.1h-3.1v-25.8l80.8-96.9 2.3 2-80 96v24.7z"/><path fill="#ffe2e1" d="M382.6 1583.9c23 17 55 29 80 20 18-7 25-35 25-56-1-7-11-10-19-11-32-5.3-62.2-8.3-92.9-13.9-6.9 9.5-15.1 20.9-22.8 31.7 9.4 10.5 18.4 21.4 29.7 29.2z"/><path fill="#ffe2e1" d="M513.4 1542c-.3-1.3-4.5-3.2-6.5 2l2.2-14.5 1.5-2.9c.3-.7-.1-1.5-.9-1.8l-105.4-24.5c-5.9-1.7-12.2.4-15.9 5.2-2.9 3.9-7.5 10.1-12.8 17.4 30.7 5.5 60.9 8.6 92.9 13.9 8 1 18 4 19 11 0 21-7 49-25 56-25 9-57-3-80-20-11.3-7.8-20.3-18.7-29.7-29.2-10.7 14.9-20.5 28.6-24.7 34.6-1.4 2-2.2 4.4-2.3 6.9l-.2 4.4c-.3 7 4.4 13.3 11.2 15l122.2 30.1 54.3-102.9c.2-.2.2-.5.1-.7z"/><path fill="#fff" d="M333 1607.9c1.3 1.5 3 2.5 4.9 3l120.2 29.6 52.2-97.4-1.3-13.6-52 93.4-111.6-26.4-7.4-1.3c-4-.7-7.7 2.4-7.5 6.4.1 2.2.9 4.5 2.5 6.3z"/><path fill="#ff6f68" d="M335.6 1586.2c6.3-.3 99.7 23.2 99.7 23.2s-90.8-26.2-89.6-29.2c1.3-3 2.6-13.4 2.6-13.4l-12.7 19.4z"/><path fill="#ff3f3d" d="M418 1392.7l-16.1-9.3c-8.8 15.8-22.2 56.5-31.3 94.8 5.3 2.7 9.7 7 14.1 11.1 9.4-35.6 26.4-80.5 33.3-96.6z"/><path fill="#ff6f68" d="M426.6 1546.9c-2.1-1.9-3.6-4.1-4.6-6.5l-42.4 2.1c1-2.6 1.1-5.6 0-8.5-2.9-7.4-.1-24.6 5.2-44.7-4.3-4.2-8.8-8.4-14.1-11.1-8.2 34.6-12.8 67.4-7.3 78 9.3 13.3 80.2 49.2 80.2 49.2 5.2 2.3 11.4.2 14.1-4.8 7.8-14.3 21.5-36.1 28.5-47.8 2.2-3.7 3.2-7.9 3-12.2l-.2-3.5-6.9.3c-15.8 15.4-37 26.4-55.5 9.5z"/><path fill="#ff6f68" d="M426.6 1546.9c18.6 16.9 39.7 5.9 55.6-9.5l-60.3 3c1.1 2.4 2.6 4.6 4.7 6.5z"/><path fill="#ffe2e1" d="M418 1392.7l-7.5-6.9c-7 16.3-21.7 59.8-31.4 98.4 3.3 2.9 6.4 6.1 9.6 8.9 4.1-32.9 23.4-84 29.3-100.4zm63.7 134.4l-62.1-3.6c0 8.6.5 17.6 7 23.4 20.9 19 45 2.7 61.3-15.4-1.3-2.2-3.5-3.9-6.2-4.4z"/><path fill="#fff" d="M426.6 1546.9c-6.5-5.7-7.1-14.8-7-23.4l-21.5-1.2c-9.5-.4-11.4-12.4-9.3-29.2-3.2-2.9-6.2-6.1-9.6-8.9-7.3 29-11.7 55.2-7.9 65 2.7 10.5 74.4 48.3 74.4 48.3 4.7 1.7 10-.8 11.5-5.6l31.4-53.2c.8-2.5.5-5-.7-7.1-16.3 18-40.5 34.3-61.3 15.3z"/><path fill="#fe9287" d="M400.6 1389.6c-2.3-9.2-4.5-18.6-6.6-27.9-15.9-72.9-14.5-170.3-26-163.3-9.6 5.9-21.3 33.6.1 143 7.5 18.7 17 36.7 32.5 48.2z"/><path fill="#ff6f68" d="M445.8 1531.1c-11.1-29.2-30.5-83.3-45.2-141.6-15.5-11.5-25-29.5-32.5-48.2 2.2 11.2 4.7 23.3 7.7 36.3 11.4 50.8 36.1 120.1 61.4 159.1 7.3 11.3 24.6 8.8 30.8-3.2-5.7 8.6-18.6 7.2-22.2-2.4z"/><path fill="#fff" d="M518.8 1443.8l-50.8 89.8c-5.7 8.5-18.6 7.1-22.2-2.5-12.9-33.8-36.8-101-51.8-169.5-15.9-72.9-25.2-130.7-28.8-155.1-1-6.9 6.7-12.3 10.7-14.3 16.9-8.7 70.2-28.9 70.2-28.9 6.6-.9 12.7 3.4 14.1 9.9 8.4 40.7 37.4 179.3 60.3 260.1 1 3.7.4 7.4-1.7 10.5z"/><path fill="#2d2c2f" d="M454 1175l-4.1 1.7 1.5 284 27.3-38.9.9-123.4c-10.9-50.2-22.8-105.5-25.6-123.4z"/><path fill="#4d4d4d" d="M479.7 1298.5l-.9 123.4 9-12.7 1.2-68.8c-2.9-12.9-6.1-27.2-9.3-41.9z"/><path fill="#2d2c2f" d="M489 1340.3l-1.2 68.8 12.6-17.9s-4.9-21.4-11.4-50.9z"/><path fill="#4d4d4d" d="M431.7 1184.3l.8 274.7c2.3 6.3 4.7 12.5 7.2 18.5l11.8-16.7-1.5-284-18.3 7.5z"/><path fill="#2d2c2f" d="M380.7 1205.6s14.6 150.5 51.8 253.4l-.8-274.7-51 21.3z"/><path d="M492.9 1458.2c1.9 2.7 3.4 7.9-3.6 8.3.4 6.7-5.5 6.7-7.8 1.9-1.6-3.4-5.9-18-1.3-18.3 2.9-.3 8.1 1.6 12.7 8.1zm-13.6-9.7c-3 2.4-3.3-8.5-.5-9.9 2.9-1.4 2 8.7.5 9.9z" fill="#ffe2e1"/><path fill="#262626" d="M416.4 1193.4c.1 1.3-.9 2.3-2.1 2.4s-2.3-.9-2.4-2.1c-.1-1.3.9-2.3 2.1-2.4 1.2-.1 2.3.8 2.4 2.1z"/><path fill="#424144" d="M2135.2 412.7L2096 781.6c-68.1 3.3-141.3-87.3-72.5-177.6 52.3-68.7 81.6-84.3 66.9-130.1-9.4-29 47-94.8 44.8-61.2z"/><path fill="#424144" d="M2072 630.5c-14.2-26.5-12.7-55-3.9-81.5-11.7 14.4-26.8 31.6-44.7 55.1-68.7 90.3 4.4 180.9 72.5 177.6l4.2-39.2c-3-21.3-2.6-44.3-5-63.8-1.8-18.6-14.7-31.5-23.1-48.2z"/><path fill="#4b4a4c" d="M2090.4 474c9.7 30.2.3 47.2-22.2 75-8.8 26.5-10.3 55.1 3.9 81.5 8.3 16.6 21.3 29.6 23.1 48.1 2.4 19.4 2 42.4 5 63.8l35.1-329.7c2.1-33.6-54.3 32.2-44.9 61.3z"/><path d="M2097.6 767.7c-.2 0-.4 0-.5-.2l-97.9-69.1c-.4-.3-.5-.8-.2-1.2s.8-.5 1.2-.2l97.9 69.1c.4.3.5.8.2 1.2-.2.2-.4.4-.7.4zm5.3-77.8c-.2 0-.4 0-.5-.2l-92.3-65.1c-.4-.3-.5-.8-.2-1.2s.8-.5 1.2-.2l92.3 65.1c.4.3.5.8.2 1.2-.2.3-.5.4-.7.4zm11.2-75.2c-.2 0-.4 0-.5-.2l-60.6-42.8c-.4-.3-.5-.8-.2-1.2s.8-.5 1.2-.2l60.6 42.8c.4.3.5.8.2 1.2-.2.3-.5.4-.7.4zm6.8-77.1c-.2 0-.4 0-.5-.2l-29.9-20.7c-.4-.3-.5-.8-.2-1.2s.8-.5 1.2-.2l29.9 20.7c.4.3.5.8.2 1.2-.2.3-.5.4-.7.4zm8-72.3c-.2 0-.4 0-.5-.1l-29.9-20.7c-.4-.3-.5-.8-.2-1.2.3-.4.8-.5 1.2-.2l29.9 20.7c.4.3.5.8.2 1.2-.2.2-.5.3-.7.3z" fill="#2d2c2f"/><path fill="#4b4a4c" d="M2119.7 955.6c30.6 27.9 17.5 52.9 14 58.4l-72.9-86.2 2.6.6c8.9 2.4 38.5 11 56.3 27.2z"/><path fill="#424144" d="M2060.9 931l-.1-3.2 70.3 88.7c-4 1.7-33 12.1-55.1-25.3-12.2-20.7-14.6-50.4-15.1-60.2z"/><path fill="#2d2c2f" d="M2060.8 927.8l72.9 86.2 15.3 18.6c.6.8.5 1.9-.2 2.5-.3.2-.7.4-1 .4-.5 0-1.1-.2-1.5-.6l-15.1-18.4c-.1 0-70.4-88.4-70.4-88.7z"/><g fill="#2d2c2f"><path d="M2125.8 1008.1c.3 0 .5-.2.5-.5l6.1-36.5c.1-.3-.2-.6-.5-.7-.3 0-.6.2-.7.5l-6.1 36.5c-.1.3.2.6.5.7h.2zm-35.4-43.7c.3 0 .5-.2.5-.5l3.4-24c0-.3-.2-.6-.5-.7-.3 0-.6.2-.7.5l-3.4 24c0 .3.2.6.5.7h.2zm-17.2-20.6c.3 0 .5-.2.5-.5l1.6-10.9c0-.3-.2-.6-.5-.7-.3 0-.6.2-.7.5l-1.6 10.9c0 .3.2.6.5.7h.2zm35.4 43.5c.3 0 .5-.2.5-.5l5.1-35.5c0-.3-.2-.6-.5-.7-.3 0-.6.2-.7.5l-5.1 35.5c0 .3.2.6.5.7h.2z"/><path d="M2125.8 1008.1c.3 0 .5-.2.6-.5 0-.3-.2-.6-.5-.6l-39.4-2.9c-.3 0-.6.2-.6.5s.2.6.5.6l39.4 2.9c-.1 0 0 0 0 0zm-35.4-43.7c.3 0 .5-.2.6-.5 0-.3-.2-.6-.5-.6l-25.2-2.2c-.3 0-.6.2-.6.5s.2.6.5.6l25.2 2.2zm-17.2-20.6c.3 0 .5-.2.5-.5s-.2-.6-.5-.7l-11-1.7c-.3 0-.6.2-.7.5 0 .3.2.6.5.7l11 1.7h.2zm35.4 43.5c.3 0 .5-.2.6-.5 0-.3-.2-.6-.5-.6l-36-3.3c-.3 0-.6.2-.6.5s.2.6.5.6l36 3.3z"/></g><path fill="#2d2c2f" d="M2134.4 869.3c-.2-1.9-1.9-3.2-3.8-3-1.9.2-3.2 1.9-3 3.8l62.1 570.1 6.6-2.4-61.9-568.5z"/><path fill="#2d2c2f" d="M1955 387.3L2132.3 865c2.1 5.7-.4 12-5.8 14.7-78.7 39.5-137.3 10.7-163.8-50.1-15.6-35.8-20.1-82.6-11.1-133.3 21.1-118.5 24.3-157.3-14.7-204.2-27.4-32.9-.2-148.3 18.1-104.8z"/><path fill="#2d2c2f" d="M1977.7 561.2c.9 2.8 3.7 4.6 4.6 6.5 4.6 10.2 4.6 20.3 7.4 30.5 1.8 5.5.9 11.1 2.8 16.6 2.8 11.1 3.7 22.2 5.5 33.3 9.2 58.3-2.8 114.7 11.1 172 5.5 22.2 29.6 31.4 49 36.1 23.7 5.7 49.6 11.5 73.9 8.1l-177-477c-18.3-43.5-45.4 71.9-18.1 104.9 2.3 2.8 4.4 5.5 6.5 8.2 17.5 15.3 30.4 35.3 34.3 60.8z"/><path fill="#242326" d="M2132 864.4c-24.3 3.3-50.2-2.4-73.9-8.1-19.4-4.6-43.5-13.9-49-36.1-13.9-57.3-1.8-113.8-11.1-172-1.8-11.1-2.8-22.2-5.5-33.3-1.8-5.5-.9-11.1-2.8-16.6-2.8-10.2-2.8-20.3-7.4-30.5-.9-1.8-3.7-3.7-4.6-6.5-3.9-25.5-16.8-45.5-34.4-60.8 32.1 43.6 28.1 84.4 8.2 196-9 50.6-4.5 97.5 11.1 133.3 26.5 60.8 85.1 89.6 163.8 50.1 5.4-2.7 7.9-9.1 5.8-14.7l-.2-.8z"/><path d="M2128.7 856.3h-.2l-166-25.6c-.6-.1-1-.7-1-1.3.1-.6.7-1 1.3-1l166 25.6c.6.1 1 .7 1 1.3-.1.6-.6 1-1.1 1zm-41.9-100.9h-.2l-135.9-20.9c-.6-.1-1-.7-1-1.3.1-.6.7-1.1 1.3-1l135.9 20.9c.6.1 1 .7 1 1.3-.1.6-.6 1-1.1 1zm-32.9-101.3h-.2l-89.8-13.8c-.6-.1-1-.7-1-1.3.1-.6.7-1 1.3-1l89.8 13.8c.6.1 1 .7 1 1.3-.1.5-.6.9-1.1 1zm-39.6-101h-.2l-50.4-7.3c-.6-.1-1.1-.7-1-1.3s.7-1.1 1.3-1l50.4 7.3c.6.1 1.1.7 1 1.3-.1.5-.6.9-1.1 1zm-35-95.7h-.2l-50.4-7.3c-.6-.1-1.1-.7-1-1.3.1-.6.7-1.1 1.3-1l50.4 7.3c.6.1 1.1.7 1 1.3-.2.5-.6.9-1.1 1z" fill="#424144"/><path fill="#2d2c2f" d="M1833.3 1157.4c-6.7 44.3 20.2 80.4-32.9 110.9 35.9 16 66.3 13.7 88.7 2.3-16.5-22.1-10.2-55-15.9-82.4-4.1-20.5-21.3-30.2-39.9-30.8z"/><path fill="#242326" d="M1928.2 1189.3c-40.3-109.9-81.8-72.8-90.5-49.2-2.2 5.9-3.6 11.6-4.4 17.2 18.6.6 35.8 10.3 39.9 30.9 5.6 27.3-.6 60.2 15.9 82.4 33.3-17 49.1-54.2 39.1-81.3z"/><path fill="#424144" d="M1899 1131.6c-.1-.6-.7-1-1.3-1-.6.1-1 .7-1 1.3 5.9 38.8-.6 70.5-19.2 94.1-23.2 29.5-59.3 38.2-72.4 40.4l1 2.1c13.9-2.5 49.9-11.5 73.2-41.1 19.1-24.1 25.7-56.3 19.7-95.8zm84.7 192.2c-.6-1.8-2.5-2.8-4.3-2.2-1.8.6-2.8 2.5-2.2 4.3l105.7 236.5h7.4l-106.6-238.6z"/><path fill="#424144" d="M1971.2 1227.1c-6.5-40.7-5.5-80.5-25-118.4-2.8-5.5-8.3-9.2-13.9-10.2-25-3.7-55.5-4.6-74.9 13.9-1.6 2.4-3.8 4.7-6.7 4.8-4.6 6.9-8.9 14.5-13 22.9 35.2-11.9 62.1 1.4 61.3 67.4-1.1 91.3 85 127 85 127s-1.2-31 5.9-73.5c-10.5-8.6-17.3-21-18.7-33.9z"/><path fill="#4b4a4c" d="M1850.7 1117.2c2.9-.1 5.2-2.4 6.7-4.8 19.4-18.5 49.9-17.6 74.9-13.9 5.5.9 11.1 4.6 13.9 10.2 19.4 37.9 18.5 77.7 25 118.4 1.4 12.9 8.2 25.3 18.7 33.9 3.4-20.6 8.8-43.8 17.3-67.5 36.8-103.6-84.8-184-156.5-76.3z"/><g fill="#2d2c2f"><path d="M1983.1 1335.1c-22.4-39.9-21.7-88.3-21.2-131.1.6-42.3 1-78.8-20.4-96.6-14.8-12.3-39.5-14.9-75.6-7.8l-.4-2.2c36.8-7.2 62.1-4.5 77.5 8.3 22.3 18.6 21.8 55.6 21.2 98.4-.6 42.4-1.2 90.6 20.9 129.9l-2 1.1z"/><path d="M1932 1295.3l-1.9-1.1 32.5-53.5 28.9 12.6-.9 2.1-27.1-11.8-31.5 51.7zm-27.1-49.3l-1.9-1.3 59.2-85.4 47 28.9-1.2 1.9-45.1-27.7-58 83.6zm-7.3-69.8l-1.9-1.3 45.5-69.9 63.6 7.8-.3 2.2-62.1-7.6-44.8 68.8zm-27.5-38.4l-2.2-.5 10.2-41.9 65.9-29.3.9 2.1-64.9 28.9-9.9 40.7z"/></g><path fill="#424144" d="M2238.3 1464.4c-45.6 76.4-104.1 59.5-117.1 54.5l150.5-190.6-.2 5.7c-1.2 19.8-6.7 86-33.2 130.4z"/><path fill="#4b4a4c" d="M2124.8 1445.4c19.4-16.6 43.5-24 62.9-40.7 15.7-12.9 29.6-27.7 38.8-46.2 1.8-2.8 5.5-5.5 8.3-8.3 2.9-4.7 5.8-9.4 8.6-14-27.7 8.8-69.8 25.4-98.8 51.5-35.9 32.4-44 63.2-42.8 86.4 5.7-10.7 13.1-20.5 23-28.7z"/><path fill="#424144" d="M2243.5 1336.1c-2.9 4.6-5.7 9.3-8.6 14-2.8 2.8-6.5 5.5-8.3 8.3-9.2 18.5-23.1 33.3-38.8 46.2-19.4 16.6-43.5 24-62.9 40.7-9.8 8.3-17.3 18-22.9 28.7 1.2 21.7 10.5 36.8 13 40.5l33.5 2.4 123.3-188.6-6.7 1.6c-5.2 1.3-12.6 3.4-21.6 6.2z"/><g fill="#2d2c2f"><path d="M2271.6 1328.3L2121.2 1519l-32.6 40.2c-1.3 1.6-3.7 1.9-5.3.6-.7-.5-1.1-1.2-1.3-2-.3-1.1-.1-2.4.7-3.3l32.3-39.7c-.1-.2 156.1-186.3 156.6-186.5z"/><path d="M2130 1499.3c.1-.7.7-1.3 1.4-1.4l79.5-2.8c.8 0 1.5.6 1.5 1.4s-.6 1.5-1.4 1.5l-79.5 2.8c-.8 0-1.5-.6-1.5-1.5 0 .1 0 .1 0 0zm77-93.3c.1-.7.6-1.3 1.4-1.4l52-3c.8 0 1.5.6 1.6 1.4 0 .8-.6 1.5-1.4 1.6l-52 3c-.8 0-1.5-.6-1.6-1.4v-.2zm36-45c.1-.7.6-1.3 1.4-1.4l23.7-1.4c.8 0 1.5.6 1.6 1.4s-.6 1.5-1.4 1.6l-23.7 1.4c-.8 0-1.5-.6-1.6-1.4v-.2zm-76.4 93.1c.1-.7.6-1.3 1.4-1.4l77.1-4.5c.8 0 1.5.6 1.6 1.4s-.6 1.5-1.4 1.6l-77.1 4.5c-.8 0-1.5-.6-1.6-1.4v-.2z"/><path d="M2119.2 1415.1c0-.7.6-1.3 1.3-1.4.8-.1 1.5.5 1.7 1.3l10.8 84.2c.1.8-.5 1.5-1.3 1.7-.8.1-1.5-.5-1.7-1.3l-10.8-84.2v-.3zm81.5-63.2c0-.7.6-1.3 1.3-1.4.8-.1 1.5.5 1.6 1.3l6.3 54.1c.1.8-.5 1.5-1.3 1.6s-1.5-.5-1.6-1.3l-6.3-54.1v-.2zm41.1-14.8c.1-.7.6-1.3 1.4-1.4.8 0 1.5.6 1.5 1.4l1.2 23.8c.1.8-.6 1.5-1.4 1.5-.8 0-1.5-.6-1.5-1.4l-1.2-23.9c0 .2 0 .1 0 0zm-83.6 39.8c0-.7.6-1.3 1.3-1.4.8-.1 1.5.5 1.6 1.3l8.4 77.3c.1.8-.5 1.5-1.3 1.6s-1.5-.5-1.6-1.3l-8.4-77.3v-.2z"/></g><path fill="#4b4a4c" d="M2059.1 1074.5c-1.1-2.7-2.1-5.5-3-8.4-15.7-17.2-22.1-30.8-17.3-53.9 5.4-26.2-49.7-78.2-44.7-49.2l61.9 287.6c23.4-55.4 24.9-119.6 3.1-176.1z"/><path fill="#424144" d="M2109.1 1119.2c-22.8-24.1-40.7-39.7-53-53.1.8 2.9 1.8 5.8 3 8.4 21.8 56.5 20.3 120.7-3.1 176.1l6.4 29.9c59.7-3.5 114.9-89.1 46.7-161.3z"/><path d="M2059.7 1268.5c.2 0 .3-.1.5-.2l78.8-69.2c.3-.3.3-.7.1-1.1-.3-.3-.7-.3-1.1-.1l-78.8 69.2c-.3.3-.3.7-.1 1.1.2.2.4.3.6.3zm-11.8-67.2c.2 0 .3-.1.5-.2l74.3-65.2c.3-.3.3-.7.1-1.1-.3-.3-.7-.3-1.1-.1l-74.3 65.2c-.3.3-.3.7-.1 1.1.2.2.4.3.6.3zm-16.7-64.5c.2 0 .3-.1.5-.2l48.8-42.8c.3-.3.3-.7.1-1.1-.3-.3-.7-.3-1.1-.1l-48.8 42.8c-.3.3-.3.7-.1 1.1.2.3.4.4.6.3zm-13-66.5c.2 0 .3-.1.4-.2l24.1-20.8c.3-.3.3-.7.1-1.1-.3-.3-.7-.3-1.1-.1l-24.1 20.8c-.3.3-.3.7-.1 1.1.2.3.5.4.7.3zm-13.7-62.1c.2 0 .3-.1.4-.2l24.1-20.8c.3-.3.3-.7.1-1.1-.3-.3-.7-.3-1.1-.1l-24.1 20.8c-.3.3-.3.7-.1 1.1.3.2.5.3.7.3zm55.8 323.5c0-1.7-1.3-3-3-3-1.6 0-3 1.3-3 3l-29.4 97.4h6l29.4-97.4z" fill="#2d2c2f"/><path fill="#2d2c2f" d="M2165.8 892.8l-112.3 441.1c77 32.9 128.5 2.3 146.6-55.3 10.3-32.6 9.8-73.8-2.7-117-29.3-101.2-35.7-134.6-6.1-179.1 20.7-31.3-13.7-129.2-25.5-89.7z"/><path fill="#2d2c2f" d="M2197.4 1161.5c-29.3-101.2-35.7-134.6-6.1-179.1 20.7-31.2-13.6-129.2-25.5-89.6l-23.5 92.3c0 .2 0 .4.1.6 4.6 70.3 12.9 141.5-13.9 209-19.2 46.8-24.8 102.6-11.4 152.6 41.9-1.9 70.5-28.8 83-68.7 10.2-32.6 9.8-73.8-2.7-117.1z"/><path fill="#242326" d="M2128.5 1194.7c26.8-67.5 18.5-138.7 13.9-209 0-.2 0-.4-.1-.6l-88.8 348.8c23.7 10.1 45 14.2 63.6 13.4-13.5-49.9-7.9-105.8 11.4-152.6z"/><path d="M2058 1317.2h.2l142.1-37.6c.5-.1.8-.7.7-1.2s-.7-.9-1.2-.7l-142.1 37.6c-.5.1-.8.7-.7 1.2.1.4.6.7 1 .7zm27.1-91.7h.2l116.4-30.8c.5-.1.8-.7.7-1.2s-.7-.9-1.2-.7l-116.4 30.8c-.5.1-.8.7-.7 1.2.1.4.6.7 1 .7zm19.3-91.3h.2l76.9-20.4c.5-.1.8-.7.7-1.2s-.7-.8-1.2-.7l-76.9 20.4c-.5.1-.8.7-.7 1.2s.5.8 1 .7zm25.1-91.6h.2l43.2-11c.5-.1.9-.7.7-1.2-.1-.5-.7-.9-1.2-.7l-43.2 11c-.5.1-.9.7-.7 1.2.1.5.5.8 1 .7zm21.6-86.5h.2l43.2-11c.5-.1.9-.7.7-1.2-.1-.5-.7-.9-1.2-.7l-43.2 11c-.5.1-.9.7-.7 1.2.1.4.5.7 1 .7z" fill="#424144"/><path fill="#ff6f68" d="M1806.3 1657.7c.1-2.7.2-5.3.3-7.9-12.7-11.2-27.1-19.7-40.2-30.1v31.1c12.6 4.8 26.3 7.1 39.9 6.9z"/><path fill="#fff" d="M1766.4 1650.8c.1 13.6.3 24.1 1.3 28.4 2 8.5 36.7 19.2 38.1-10.2.2-3.8.3-7.6.5-11.3-13.6.2-27.3-2.1-39.9-6.9z"/><path fill="#ff3f3d" d="M1806.6 1649.8c1.2-30.8 1.8-55.8 1.8-55.8s-42.2-4.4-42 11.8c0 4.7.1 9.3.1 13.9 13 10.4 27.4 18.9 40.1 30.1z"/><path fill="#2d2c2f" d="M1782.4 1695.6c3.2-6 2.1-12.3.6-18.9-.7.1-1.2.1-1.2.1s-3.5-21-17.6-18.8c-14.2 2.2.7 12-20.9 37.1-15.1 17.7-49.5 30.4-48.6 36.1 25.3 5.1 48.6 2.2 71.8-8.2 6.2-6.8 11.7-19.5 15.9-27.4z"/><path fill="#242326" d="M1806.2 1664.7c-5.8 9.9-18.7 11.5-23.1 12 1.5 6.5 2.6 12.9-.6 18.9-4.2 7.9-13.8 22.4-19.9 29.2 15.8-7.1 38.5-20.5 51.3-28.4-.6-8.9-2-18.1-4.8-23.3-.3-.6-.2-1.4.3-1.9 1.9-1.6.7-6.5-3.2-6.5z"/><path fill="#ffe2e1" d="M1813.7 1696.4c-35.5 20.4-76.5 43.4-119 34.8l-.1.1 1.1 7.2c36.1 14.5 118.3-28.1 119.1-35.2.2-.8-.7-4.8-1.1-6.9z"/><g fill="#242326"><path d="M1724.4 1710.3l-.3.9c4.1 1.4 10.8 6.8 13 13.6l1-.2c-2.4-7.1-9.4-12.8-13.7-14.3z"/><path d="M1737 1725.9c-.4 0-.8-.3-1-.7-2-6.4-8.5-11.7-12.3-13-.5-.2-.8-.7-.6-1.3l.3-.9c.1-.3.3-.5.5-.6s.5-.1.8-.1c4.3 1.4 11.8 7.2 14.2 15 .1.3.1.6-.1.8-.1.2-.4.4-.6.5l-1 .2c0 .1-.1.1-.2.1z"/></g><path fill="#4b4a4c" d="M1799.8 1701.2c-.8-5.1-2.4-21.9 7.1-28.6.7-.5 1.6-.2 2 .5.3.6.1 1.4-.4 1.8-8.1 5.7-6.6 21.2-5.9 25.8.1.7-.4 1.4-1.1 1.6-.8.2-1.6-.3-1.7-1.1z"/><path fill="#fff" d="M1756.8 1717.8c-.8.3-1.5.6-2.3.7-4.3.7-7.4-1.8-7.5-1.9l1.7-2.7c.4-.4 3.9.6 5.6.3 2.6-.5 5.6-2.1 9.6-10.9 2.5-5.5 8.3-6.1 15.2-6.5 5.4-.3 10.3-.2 17-5.7l-.2 5.4c-5.3 4.7-10.5 3.9-16.1 4.2-6.4.4-10.7.6-12.4 4.5-3.2 6.6-6.7 10.9-10.6 12.6z"/><g fill="#242326"><path d="M1731.8 1706.7l.1-1 16.4 1.4-.1 1-16.4-1.4z"/><path d="M1748.3 1709.3l-16.5-1.4c-.3 0-.5-.1-.7-.4-.2-.2-.3-.5-.2-.7l.1-1c0-.5.5-1 1.1-.9l16.4 1.4c.3 0 .5.1.7.4.2.2.3.5.2.7l-.1 1c0 .5-.5.9-1 .9z"/><path d="M1736.5 1701.5l.8-.5 6.4 10.2-.8.5-6.4-10.2z"/><path d="M1742.7 1712.7c-.3 0-.7-.2-.8-.5l-6.4-10.2c-.1-.2-.2-.5-.1-.8s.2-.5.4-.6l.8-.5c.5-.3 1.1-.2 1.4.3l6.4 10.2c.1.2.2.5.1.8s-.2.5-.4.6l-.8.5c-.3.1-.4.2-.6.2zm-3.6-15l.1-1 16.4 1.4-.1 1-16.4-1.4z"/><path d="M1755.3 1700.5s-.1 0 0 0l-16.5-1.4c-.3 0-.5-.1-.7-.4-.2-.2-.3-.5-.2-.7l.1-1c0-.5.5-1 1.1-.9l16.4 1.4c.3 0 .5.1.7.4.2.2.3.5.2.7l-.1 1c0 .5-.5.9-1 .9z"/><path d="M1743.6 1692.7l.8-.5 6.4 10.2-.8.5-6.4-10.2z"/><path d="M1749.7 1703.9c-.3 0-.7-.2-.8-.5l-6.4-10.2c-.1-.2-.2-.5-.1-.8s.2-.5.4-.6l.8-.5c.5-.3 1.1-.2 1.4.3l6.4 10.2c.1.2.2.5.1.8s-.2.5-.4.6l-.8.5c-.3.2-.5.2-.6.2zm-5.4-14.6l.1-1 16.4 1.4-.1 1-16.4-1.4z"/><path d="M1761.6 1691.8l-16.5-1.4c-.3 0-.5-.1-.7-.4-.2-.2-.3-.5-.2-.7l.1-1c0-.5.5-1 1.1-.9l16.4 1.4c.3 0 .5.1.7.4.2.2.3.5.2.7l-.1 1c0 .5-.4.9-1 .9z"/><path d="M1749.5 1683.9l.8-.5 6.4 10.2-.8.5-6.4-10.2z"/><path d="M1756 1695.2c-.3 0-.7-.2-.8-.5l-6.4-10.2c-.1-.2-.2-.5-.1-.8s.2-.5.4-.6l.8-.5c.5-.3 1.1-.2 1.4.3l6.4 10.2c.1.2.2.5.1.8s-.2.5-.4.6l-.8.5c-.2.1-.4.2-.6.2z"/></g><path fill="#ff3f3d" d="M1647.4 1601.6c1.2-30.2 1.8-54.4 1.8-54.4s-41.6-4.1-41.4 12.1c0 5.2 0 10.5-.1 15.9 15.2 5.6 27.9 15.5 39.7 26.4z"/><path fill="#fff" d="M1606.3 1638.5c2 8.5 38.9 13.1 40.2-16.3.1-3.3.3-6.6.4-9.9-13.6-.6-27.2-5.1-40.3-9.6-.7 17.1-1.3 31.1-.3 35.8z"/><path fill="#ff6f68" d="M1607.6 1575.2c-.2 9.4-.6 18.9-1 27.5 13.1 4.6 26.7 9 40.3 9.6.2-3.6.3-7.2.4-10.7-11.7-10.9-24.4-20.8-39.7-26.4z"/><path fill="#2d2c2f" d="M1623 1647.4c3.2-6 2.1-12.3.6-18.9-.7.1-1.2.1-1.2.1s-3.5-21-17.6-18.8c-14.2 2.2.7 12-20.9 37.1-15.1 17.7-49.5 30.4-48.6 36.1 25.3 5.1 48.6 2.2 71.8-8.2 6.2-6.8 11.7-19.5 15.9-27.4z"/><path fill="#242326" d="M1646.8 1616.5c-5.8 9.9-18.7 11.5-23.1 12 1.5 6.5 2.6 12.9-.6 18.9-4.2 7.9-13.8 22.4-19.9 29.2 15.8-7.1 38.5-20.5 51.3-28.4-.6-8.9-2-18.1-4.8-23.3-.3-.6-.2-1.4.3-1.9 2-1.6.7-6.5-3.2-6.5z"/><path fill="#ffe2e1" d="M1654.4 1648.2c-35.5 20.4-76.5 43.4-119 34.8l-.1.1 1.1 7.2c36.1 14.5 118.3-28.1 119.1-35.2.1-.8-.7-4.8-1.1-6.9z"/><g fill="#242326"><path d="M1565 1662.1l-.3.9c4.1 1.4 10.8 6.8 13 13.6l1-.2c-2.4-7.1-9.4-12.8-13.7-14.3z"/><path d="M1577.7 1677.7c-.4 0-.8-.3-1-.7-2-6.4-8.5-11.7-12.3-13-.5-.2-.8-.7-.6-1.3l.3-.9c.1-.3.3-.5.5-.6s.5-.1.8-.1c4.3 1.4 11.8 7.2 14.2 15 .1.3.1.6-.1.8-.1.2-.4.4-.6.5l-1 .2c-.1.1-.2.1-.2.1z"/></g><path fill="#4b4a4c" d="M1640.5 1653c-.8-5.1-2.4-21.9 7.1-28.6.7-.5 1.6-.2 2 .5.3.6.1 1.4-.4 1.8-8.1 5.7-6.6 21.2-5.9 25.8.1.7-.4 1.4-1.1 1.6-.9.2-1.6-.3-1.7-1.1z"/><path fill="#fff" d="M1597.4 1669.6c-.8.3-1.5.6-2.3.7-4.3.7-7.4-1.8-7.5-1.9l1.7-2.7c.4-.4 3.9.6 5.6.3 2.6-.5 5.6-2.1 9.6-10.9 2.5-5.5 8.3-6.1 15.2-6.5 5.4-.3 10.3-.2 17-5.7l-.2 5.4c-5.3 4.7-10.5 3.9-16.1 4.2-6.4.4-10.7.6-12.4 4.5-3.1 6.6-6.7 10.9-10.6 12.6z"/><g fill="#242326"><path d="M1572.6 1659l.1-1 16.4 1.4-.1 1-16.4-1.4z"/><path d="M1589 1661.1c-.1 0-.1 0 0 0l-16.5-1.4c-.3 0-.5-.1-.7-.4-.2-.2-.3-.5-.2-.7l.1-1c0-.6.5-1 1.1-.9l16.4 1.4c.3 0 .5.1.7.4.2.2.3.5.2.7l-.1 1c-.1.5-.5.9-1 .9z"/><path d="M1577 1652.9l.8-.5 6.4 10.2-.8.5-6.4-10.2z"/><path d="M1583.3 1664.5c-.3 0-.7-.2-.8-.5l-6.4-10.2c-.1-.2-.2-.5-.1-.8s.2-.5.4-.6l.8-.5c.5-.3 1.1-.2 1.4.3l6.4 10.2c.1.2.2.5.1.8s-.2.5-.4.6l-.8.5c-.2.1-.4.2-.6.2zm-3.4-14.5l.1-1 16.4 1.4-.1 1-16.4-1.4z"/><path d="M1595.9 1652.3l-16.5-1.4c-.3 0-.5-.1-.7-.4-.2-.2-.3-.5-.2-.7l.1-1c0-.6.5-1 1.1-.9l16.4 1.4c.3 0 .5.1.7.4.2.2.3.5.2.7l-.1 1c0 .5-.4.9-1 .9z"/><path d="M1584 1644.3l.8-.5 6.4 10.2-.8.5-6.4-10.2z"/><path d="M1590.3 1655.7c-.3 0-.7-.2-.8-.5l-6.4-10.2c-.1-.2-.2-.5-.1-.8s.2-.5.4-.6l.8-.5c.5-.3 1.1-.2 1.4.3l6.4 10.2c.1.2.2.5.1.8s-.2.5-.4.6l-.8.5c-.2.2-.4.2-.6.2zm-4.2-15l.1-1 16.4 1.4-.1 1-16.4-1.4z"/><path d="M1602.3 1643.6s-.1 0 0 0l-16.5-1.4c-.3 0-.5-.1-.7-.4s-.3-.5-.2-.7l.1-1c0-.5.5-1 1.1-.9l16.4 1.4c.3 0 .5.1.7.4s.3.5.2.7l-.1 1c-.1.5-.5.9-1 .9z"/><path d="M1590.6 1635.7l.8-.5 6.4 10.2-.8.5-6.4-10.2z"/><path d="M1596.6 1647c-.3 0-.7-.2-.8-.5l-6.4-10.2c-.1-.2-.2-.5-.1-.8s.2-.5.4-.6l.8-.5c.5-.3 1.1-.2 1.4.3l6.4 10.2c.1.2.2.5.1.8s-.2.5-.4.6l-.8.5c-.2.1-.4.2-.6.2z"/></g><path fill="#242326" d="M1649.6 1048.9c-5 65-1 130 2 195 0 6-2 13-2 18-3 25 6 48 10 73 5.4 28.9 8.7 57 11.6 85 4.4-69.7 6.3-141.6-1.6-157.1 0 0-2.4-139.1-5.1-241.4-8.4 6.7-14.1 16.4-14.9 27.5zm-73.5 229.5c-5.3 0-10.5.1-15.8.2.7 7.2 1.5 15 2.4 23.2 3.5 2.9 7.4 5.3 11.6 7.1-.4-10.2.1-20.3 1.8-30.5z"/><path fill="#ff6f68" d="M1628.6 1282.9c-18.1-3.3-35.3-4.4-52.4-4.5-1.7 10.2-2.2 20.4-1.8 30.5 19 8.5 43.7 6.7 60.3-2 8.9-4 5.9-22-6.1-24z"/><path fill="#2d2c2f" d="M1659.6 1334.9c-4-25-13-48-10-73 0-5 2-12 2-18-3-65-7-130-2-195 .8-11 6.6-20.8 14.9-27.4-.8-31.6-1.7-59.7-2.5-79-18.5-.5-37.1 1-54.4 1.5-10 0-22 5-27 14-7.5 12.5-16.4 23.6-25.5 35.1-4.6 96-2.4 228.8-.4 235.6.7 2.2 2.8 21.6 5.7 50 5.3-.1 10.5-.2 15.8-.2.1-.8.3-1.7.4-2.5-.2.8-.3 1.7-.4 2.5 17.2.1 34.4 1.2 52.4 4.5 12 2 15 20 6 24-16.6 8.7-41.3 10.5-60.3 2 .2 5 .6 10 1.3 15-.6-5-1.1-10-1.3-15-4.2-1.9-8.1-4.2-11.6-7.1 6.6 64.7 24.8 181.5 37.9 257.5 1.8 10.5 4.8 26.4 2.5 34.6-5.6 19.7 1.9 29.2 2.7 30 5.2 5 36.6 11.5 40.9-7.3.4-1.9 8.6-3.6 5.9-15.8-1.2-5.7-1.5-11.6-.6-17.3 6.3-42.4 16-115.3 19-163.4-2.7-28.3-6.1-56.4-11.4-85.3z"/><path fill="#242326" d="M1565 903.5c-4.9 15.2-8 49.1-10 89.5 9.1-11.5 18-22.6 25.5-35.1 5-9 17-14 27-14 17.3-.4 35.9-1.9 54.4-1.5-.2-5.3-.4-9.9-.6-13.8 0 .1-84.3-62.1-96.3-25.1zm121.4 395.5c2.3 11.1 4.9 23.8 7.8 37.6.1.1.3.2.4.3 4.5 1.8 9.3 3.2 14.1 4.2-5.1-16.6-3.9-34.2-7.3-50.6-5.4 2.2-10.5 5.1-15 8.5z"/><path fill="#ff6f68" d="M1750.6 1297.9c-11.8-14.6-31.7-14.7-49.2-7.4 3.3 16.4 2.2 34 7.3 50.6 14.4 2.9 29.4 1.6 39.9-8.2 11-10 9-27 2-35z"/><path fill="#2d2c2f" d="M1815.3 1483.3c-8.4-32.7-13-66-21.7-100.4-1-7-4-14-6-21-4-13-4-26-6-39-2-6-5-13-5-17 4.9-103.1 13.7-206.2 17.8-309.3-21.9-6.3-42.3-20-60.8-33.7-32.6-23.8-73.7-21.2-111.1-19.5-.2 28.5 3.1 69.3 15.6 91.4 19.1 33.9 36 210.3 38.9 219.9.6 2 4.2 18.9 9.5 44.4 19.5-14.6 48.8-20.1 64.2-1.1 7 8 9 25-2 35-14 13-36 11-54 4-.1-.1-.3-.2-.4-.3 15.4 74.4 48.7 207.1 65.7 279.8 6.7 28.8 1.9 35.4 9.5 51.9 6.2 13.5 32.5 15.1 36.8-3.7.5-2.4 9.2-1.2 3.4-28.8 3.7-38.9 8.6-107.6 5.6-152.6z"/><path fill="#242326" d="M1812.7 1000c-6.2-.5-12.3-1.6-18.3-3.4-4.1 103.1-12.9 206.2-17.8 309.3 0 4 3 11 5 17 2 13 2 26 6 39 2 7 5 14 6 21 8.8 34.4 13.3 67.7 21.7 100.4-5.5-82.3-14.6-177-23.4-194.4 0 0 14.4-171.8 20.8-288.9z"/><path fill="#242326" d="M1733.6 962.9c23.5 17.4 50.1 34.9 79.1 37.1 2.3-42.8 3.6-78.3 2.6-95.5 0 0-184.2-7.8-190.3 8.7-1.3 3.5-2.4 15.1-2.5 30.2 37.3-1.7 78.5-4.3 111.1 19.5z"/><path d="M1651.8 1090.4c-5.7-30.2-10.5-48.8-14.2-55.4-14.8-26.2-16.6-77.3-15.3-103.4h1c-1.3 26 .5 76.9 15.2 102.9 3.8 6.7 8.6 25.4 14.3 55.7l-1 .2zm141.6-94c-38.1-11.3-66.6-33.5-66.8-33.7l.6-.8c.3.2 28.6 22.3 66.5 33.5l-.3 1zm-237.7-.2l-.8-.6c.2-.2 15.7-22.4 20.2-35l.9.3c-4.6 12.8-20.2 35.1-20.3 35.3zm-10.1-193.3c7-2 13-8 14-15 13.5-58.7 3.8-123.9-44.3-160.8-1.3 42.2-3.5 90.3-3.5 90.3s-13.7-40.4-18.9-43c0 0 8.6 26.4-6.2 49.5-14.6 22.8-34.2 9.1-34.2 9.1s10.9 29.6 30.9 55.8c18.1 12.5 40.5 19.3 62.2 14.1z" fill="#4b4a4c"/><path fill="#242326" d="M1452.5 691.9c8.5-18.6 33.9-30.3 40.4-17.6 10.5 20.6 12.4 59.3 0 68.4s-31.9 5.9-40.4-9.8c-8.5-15.6-3.6-33.1 0-41z"/><path fill="#424144" d="M1581.6 580.4l-40.4-46.9c-16.9 17.6-28.5 21.5-25.6 31.3 1.2 4.1.7 31.7-.2 62.3 48 36.9 57.7 102.1 44.3 160.8-1 7-7 13-14 15-21.6 5.2-44.1-1.5-62.1-14.2 16.8 21.9 40.1 41.5 68.8 39.4 63.1-4.5 29.2-247.7 29.2-247.7z"/><path fill="#ffe2e1" d="M1583.6 848.9c17-39 5-82 6-124 1-14 3-29 7-43 10-26 20-53 13-80-11.1-37.9-17-75-17.9-113.5-52.7 23.3-86.5 65.9-73.3 86.2 23.9 36.7 39 217.3 44.4 294.2 8.9-4.6 16.5-10.9 20.8-19.9z"/><path fill="#fff" d="M1657.8 472.4c-23.7 1.1-46.3 7.1-66.1 15.9.8 38.6 6.8 75.6 17.9 113.5 7 27-3 54-13 80-4 14-6 29-7 43-1 42 11 85-6 124-4.3 9-11.9 15.3-20.8 19.9 1.1 15.8-7.7 55.6-12.4 75.5-1.8 7.4 3 14.9 10.5 16.2 27.4 5 54.4-14.3 101.8.2 5.1-6 11-46 11.9-53.8 8-55-4-107-6-161-1-21-3-42 3-63 5-17 13-32 19-49 19-61 78-88 131-120 4.5-2.5 8.2-6.5 12.1-10.3-41.6-24.4-115.6-33.8-175.9-31.1z"/><path fill="#ffe2e1" d="M1865.8 544.4c-2-16.6-14-30.2-32.2-40.8-3.9 3.9-7.6 7.9-12.1 10.3-53 32-112 59-131 120-6 17-14 32-19 49-6 21-4 42-3 63 2 54 14 106 6 161-.9 7.9-6.8 47.8-11.9 53.8 66.9 17.6 87.6-18.3 150.9-31.9 12.7-2.7 1.8-24.4 1.8-24.4 10.5-28.5 57-305.3 50.5-360z"/><path fill="#242326" d="M1506.3 558.9s1.3 23.2 9.9 29.3l-.7-23.5-9.2-5.8z"/><path fill="#2d2c2f" d="M1547.5 742.2c4.4 47.5 8.5 94.7 10 107.5 4.3 38.6 1.3 51.1 1.1 53.9-.4 4.9 20.3 16.9 23 10.9 5.3-11.9 12.4-37.5 5.9-72.1-5.4-29-6.8-50.4-7.5-73.9-12.6-5.8-23.2-16-32.5-26.3z"/><path fill="#242326" d="M1545.1 716.3c.8 8.5 1.6 17.2 2.4 25.9 9.3 10.3 19.9 20.5 32.5 26.2-.3-11.8-.5-24.1-.9-38.1-11.9-2.4-23.3-8.3-34-14zm18.5-206.4c16 6 16 26 22 41 5.5 11 19.5 6.9 29.5 12.3.1-1.4.2-2.9.2-4.3.6-17.8-21.3-24.1-21.3-38.2 0-10.9 9.8-37.4 9.8-37.4-27.4 6.8-47.3 17.3-61.7 28.4 6.8-3 14.3-4.2 21.5-1.8z"/><path fill="#2d2c2f" d="M1585.6 550.9c-6-15-6-35-22-41-7.2-2.4-14.7-1.2-21.5 1.8-29.2 22.5-35.8 47.2-35.8 47.2s15.8 9.1 29.5 72c1.1 4.9 2.8 19.9 4.9 39.9 12.4 8.7 25.7 16.4 40.3 19.1 7.7-37.3 31.2-80.9 34.1-126.8-10-5.4-24-1.2-29.5-12.2z"/><path fill="#242326" d="M1545.1 716.3c10.7 5.7 22.1 11.6 34 14-.1-5-.3-10.3-.5-15.8-.3-7.8.6-16 2.4-24.5-14.6-2.7-27.9-10.4-40.3-19.1 1.3 13.3 2.8 29 4.4 45.4zm252.6-132.1c-28-35.2 16.2-85.3 71.8-62.2 0 0 7.6 8.8-12 35.8-14.3 19.7-45.1 44.9-59.8 26.4z"/><path fill="#2d2c2f" d="M1764.6 822.9c-10-7-22-8-33-13-14.1-6.2-29-7.7-43.3-12.1.4 10.2 1.3 19.9 2.7 28.8 7.7 48.2 6.6 103.9 9.9 108.2 11.7 15.2 102.3-7.9 119.5-29.5 3.2-4-.2-10.1 0-15.6 0-.6.3-2 .7-3.9-13.3-25.1-32.1-45.6-56.5-62.9z"/><path fill="#242326" d="M1840.8 776.7l-152.8-7c-.2 9.6-.2 19.1.2 28.1 14.3 4.4 29.2 5.9 43.3 12.1 11 5 23 6 33 13 24.4 17.3 43.2 37.8 56.5 62.8 3.4-15.8 18.2-70.8 19.7-85.1.4-3 .4-11.6.1-23.9zm-137.2-218.8c22-14 26-38 31-60 2.9-11.7 11.7-17.7 22.7-20.8-15.5-2.5-32.8-4.3-52.1-5.2l-4.3 48.7c-10 14.5-11.7 21.7-11.3 33 .1 3.5 1.4 12.1 3 23.4 1.1-7.9 4.9-15.1 11-19.1z"/><path fill="#2d2c2f" d="M1757.3 477.1c-11 3.1-19.8 9-22.7 20.8-5 22-9 46-31 60-6.1 4-9.8 11.2-11.1 19.2 3.4 24.8 8.1 62.7 4.6 88.7-1.8 13.5-4 31.6-5.9 51.6 36.4-15.4 61.3-50.1 66.3-90.5 3-24-4-56 19-71 2-1.4 4.1-2.6 6.2-3.6-7-6.6-3.9-14.2 27.7-28.8 33.6-15.5 59-1.6 59-1.6s-30.4-31.6-112.1-44.8z"/><path fill="#242326" d="M1757.6 626.9c-5 40.4-29.9 75.1-66.3 90.5-1.5 16.7-2.8 34.7-3.2 52.3l152.8 7c-1.1-46.8-6.8-147-19.1-192-4.7-17.3-30.1-24.1-39-32.4-2.1 1.1-4.2 2.3-6.2 3.6-23 15-16 47-19 71z"/><path fill="#4b4a4c" d="M1696.4 480.7c3.6 5.5 5.1 12.6 3.6 20.8-3.5 18.7-13 36.9-10.4 52.1 0 0 11.3-25.6 22.2-13.5 0 0 10.4-33.9 10.9-47.8.2-7.8-1.6-19.4-10.8-27.6-6.3 4.1-11.6 9.4-15.5 16z"/><path fill="#424144" d="M1674.8 455.3s-6.9 14.7 0 14.5c9.1-.2 17 3.9 21.6 10.9 3.9-6.7 9.2-11.9 15.4-15.9-7.1-6.3-18.7-10.5-37-9.5z"/><path fill="#4b4a4c" d="M1630.1 460.5s-5 10.8-10.8 14.7-17.9 12.9-14.4 31.6c3.5 18.7 13 36.9 10.4 52.1 0 0-11.3-25.6-22.2-13.5 0 0-10.4-33.9-10.9-47.8-.4-13.9 5.7-39.5 47.9-37.1z"/><path fill="#ffe2e1" d="M1424 622.6c13 28 27.9 71.1 37.6 103.7 2.2 7.4 80.4 5 80.4-.6 0-35.6-21.3-82.7-37.3-103.2-4.9-6.5-83.6-6.3-80.7.1z"/><path fill="#fff" d="M1419.9 622.6c13 28 31.1 68.4 40.8 101 2.2 7.4 77.6 3.4 77.3 0-2.9-35.4-22.6-82.4-38.7-102.9-5.1-6.5-82.4-4.5-79.4 1.9z"/><path d="M1471.2 650.9c-6.5 3.3.4 24.9 5.5 28s5.8.1 5.8.1 10.2 2.8 12.2-3.7c2-6.7-16.4-28.1-23.5-24.4zm-8.5-12.8c-3.9 1.8 3.9 10.1 6.6 8.5 2.8-1.6-2.2-10.4-6.6-8.5z" fill="#ffe2e1"/><path fill="#ff6f68" d="M1432.2 677.2c-2.1-4.7 7.6-8.9 11.5-13.8s3.9 10.5 1.7 13.8c0 0 14.1-2.6 15.4 0s-10.2 13-10.2 13 12.4.4 13 2.6c.6 2.2-8.5 7.6-8.5 7.6s7.8 0 8.5 2.8c.6 2.8-13 5.9-15.7 3.5s1-6.1 1-6.1-5.4-2.2-6.3-3.3 2.2-5 2.2-5-6.1-1.3-6.7-3c-.7-1.7 2-7 2-7s-6-.8-7.9-5.1z"/><path fill="#242326" d="M1604.3 723.9c-4.3 13.9-2.7 61.4 11.5 61.8 14.2.4 29-49.5 29-49.5s-21.9-26.9-29-27.4c-7.1-.4-11.5 15.1-11.5 15.1z"/><path fill="#ff6f68" d="M1578.7 711c-8.9-.6-15.7-13.3-23-18s-44.9-31.1-48.4-34.1c-3.5-3.1-3.1 4.8 3.2 11.5 6.3 6.7 20.9 21 20.9 21s-5.1-2-8.5-1.1c-5.8 1.6-14.4 4-17.9 5.1-5.6 1.8 0 5.5 4.2 5.1 5-.5 13.9-2.3 13.9-2.3l11.6 6.1s-10.7-.9-12.2-1-12.6 6.4-13.7 6.9 1.3 4.7 5.6 3.2 8.9-3.5 8.9-3.5 13 4.7 14.6 5c0 0-12.6-.4-13.2-.5-.7 0-6.9 5.7-8.3 6.6-1.3.8 4.5 1.9 6.4.9s3.1-2.3 3.1-2.3 12.5 5.6 14.6 5.5c2.1 0 2.7 3.9 13.2 13.1 7.3 6.4 26.8 8.1 34.8 3.4l71.5 1.2-35.5-31.4-45.8-.4z"/><path fill="#4b4a4c" d="M1849.6 572.9c-1-8-8-17-17-18-22.9-2.8-52.6 1.2-65.8 21.2 5.2 32.1 20.1 124.9 20.1 124.9-7.2-.5-4.3 6.5-4.3 6.5-16.9-3.9-166.7 1.3-166.7 1.3 33.4 51.7 0 76.9 0 76.9 10.7 3.5 177.9 32.9 238.7 24.9 5.3-79.4 8.2-157.2-5-237.7z"/><path fill="#424144" d="M1862.7 523.5c-20-26.5-101.9 15.4-97.1 45.4.3 1.8.7 4.2 1.1 7.2 13.2-19.9 42.9-23.9 65.8-21.2 9 1 16 10 17 18 13.3 80.5 10.4 158.3 4.9 237.7 6.6-.9 11.9-2.2 15.7-4 20.7-10 18.1-249.4-7.4-283.1z"/><path fill="#ff6f68" d="M1685.5 469.9c-5.1-5.1-8.9-10.8-11.7-16.4.5 9.4.3 18.7-1.3 28.4-4.6 22.3-25.6 29-42.2 38.7 26.9 2 73.2-32.7 55.2-50.7z"/><path fill="#ff6f68" d="M1673.9 453.5c-8.2-16.6-7.5-32.5-7.5-32.5l-8.8-16.9c-7.4-.9-13.7 2.4-19.1 7.6 12.3 28.7 1.9 65.7-25.9 86.1-.3.3-.5.9-.7 1.7.5 4.2 1.5 8.1 3.2 11.5 2.9 6.1 8.5 9 15.3 9.5 16.6-9.7 37.6-16.4 42.2-38.7 1.6-9.6 1.8-18.9 1.3-28.3z"/><path fill="#ff3f3d" d="M1638.4 411.8c-14.5 14.2-21.7 43-21.7 43s-7.5 25.1-4.9 44.8c.2-.8.4-1.4.7-1.7 35.2-14.5 40.4-46.9 25.9-86.1z"/><path fill="#262626" d="M1540.2 364c-.6 6.9 6.3 29 12.1 32.4s14.3-37 7.8-38.9-18.6-7.5-19.9 6.5z"/><path fill="#ff6f68" d="M1633.7 333.4c-18.7-7.2-80.2-5.7-84.7 43.7-2.9 31.9 15.6 108.9 54.8 106.2 28.8-1.9 39.6-25.1 43-44.7 10.3-3.4 18.5-9.2 19.6-17.7 2.5-20.1 6.1-72.5-32.7-87.5z"/><path fill="#ff3f3d" d="M1549 377.1s18.3 11.5 42.6-6.2 11.7 2.2 16 7.9c4.3 5.7 18.1 9.9 19.8 17.9 1.7 8.1 3-21 3-21l24 7.2s9.8 13.6.5 21.8c-6.2 5.5 0 14.2 5.1 10.8 5.1-3.5 9.1-32.5 9.1-32.5l-3.6-26-35.1-15.6h-35.8l-45.6 35.7z"/><path fill="#262626" d="M1606.1 314.2c-14 1.4-46 3.7-49.7-13.7-7.9 4.7-10.9 13.4-12.8-5.3-13.7 7-10.1 26.3-20.9 10.3-12.3 16.7-14.5 64.8 26.2 71.5 13.7 2.3 29.7.1 41.7-11.1 11.1-10.4 24.7-10.9 23.3-4.8-1.1 4.8-4.8 11.2-4.2 13.2l67.8-7c5-8.1 13.7-30.8-8-30.8 4.6-38.3-35.1-25.1-63.4-22.3z"/><path d="M1556.4 365.4c-7.3-.7-12.8-3.4-16.6-8.1-6.8-8.5-5.3-20.3-5.2-20.8l1 .1c0 .1-1.5 11.9 5 20 3.6 4.5 8.9 7.1 15.9 7.8l-.1 1zm7.3-16c-5 0-5.9-2.8-6.9-5.7-.2-.7-.5-1.5-.8-2.3l.9-.4c.3.8.6 1.6.9 2.3 1 2.9 1.7 5 6 5l-.1 1.1z" fill="#4b4a4c"/><path fill="#6b6b6b" d="M1677.6 367.4c-24.9-16.6-67.8 5-67.8 7-.1 4.4 15.4 10.7 16.2 24.4l4.6 2.1s-.3-16.7 12-19.3c14.6-3 25.6 18.7 10 31.3 0 0 13.9 10 14.6 0 1.9-27.2 10.6-45.3 10.4-45.5z"/><path fill="#ff3f3d" d="M1054.7 1326.6l-27.3 70.4c-38-1.1-171.2 49.4-240.3 50-.7 0-1.2.2-1.6.6-43.5 6.8-68 63.8-67.7 80.6.2 10.4 13.4 27 20.1 32.6 8.7-.2-.4-14.6-6.2-25.2 2.2-9.5 14.6-18.5 16.4-17.5 7.7 4.3 20.7-.2 23.8-3 3-2.7 7.8-27 7.2-31.8-.6-4.7 4.1-9.1 10.5-8.5 0 0 263.4 27.6 310.6-.6 41.7-24.9 48-128.5 48-128.5l-93.5-19.1z"/><path fill="#242326" d="M861.1 1557.4c-11-9.7-23.3-34.9-20.7-41.4s29.8-44 45.9-40.8c16.2 3.2 181.1 67.1 181.1 67.1l50.6 20.2-256.9-5.1zm133.5 132.5c-30-9-55-21-83-33-15.1-6.8-32.4-1.6-48.6 5.1 43.1 17.3 92.9 36.1 142.8 51.4.1-11.3-1.3-20.9-11.2-23.5z"/><path fill="#2d2c2f" d="M1139.6 1676.9c-24-21-46-42-68-66-2-2-6-2-8-4-6-6-11-12-17-18-12-11-21-24-33-35-8.2-6.7-18.7-11.8-29.3-14.7-101.5-3.9-227.2-13.5-237.5.5-15.9 21.7-58.3 53.2 0 74.5 21 7.7 63.6 26.7 116.2 47.8 16.2-6.8 33.5-11.9 48.6-5.1 28 12 53 24 83 33 9.9 2.6 11.4 12.2 11.2 23.5 44.4 13.5 88.9 24.3 129.1 28.7 12.2-2.7 23.4-7.9 31.7-18.2 14-18-14-35-27-47z"/><path fill="#242326" d="M1079.1 1539.7c-23.8 1.6-57.7.9-94.9-.5 10.6 3 21.1 8 29.3 14.7 12 11 21 24 33 35 6 6 11 12 17 18 2 2 6 2 8 4 22 24 44 45 68 66 13 12 41 29 27 47-8.3 10.3-19.5 15.5-31.7 18.2 12.8 1.4 25.2 2.2 36.9 2.2 77.7 0 83-66 83-66 1.6-62.2-175.6-138.6-175.6-138.6z"/><path fill="#ff3f3d" d="M1102.1 1167.2c-14.6 10.3-26.8 25.6-43.5 33.7-7.6 3.5-16.2 4.3-25 3.7l40.9 24c11.4 11.8 30 12.8 42.5 2.1 13.6-11.6 20.6-40.3 8.2-53.1l-23.1-10.4z"/><path fill="#ff6f68" d="M1058.6 1200.9c16.7-8 28.8-23.4 43.5-33.7l-69.2-31.1s-11.8-25.4-21.2-33c-28.9-1.8-58.1-3-86.8-3.2l13.8 86.2c1.5 9 9.6 13.6 18.6 12.2l24.5-2.5c10.7-1.8 18.2-10.8 37.2.3l14.6 8.6c8.8.5 17.4-.3 25-3.8z"/><path fill="#ff3f3d" d="M1008.7 1101.3l-1.2-7.4-84.4-4.8 1.7 10.8c28.7.1 57.9 1.3 86.8 3.2-1-.9-2-1.5-2.9-1.8z"/><path fill="#4d4d4d" d="M1067.4 1088.9c0-1.4-.1-2.7-.2-4.1l-30.4-4.5c-3.8-.6-6.4-4-5.8-7.8s4-6.4 7.8-5.8l26 3.8c-9.6-35-44.1-47.2-80.9-51.8-37-4.6-47.7 11.2-53.1 30.7 4.7 9.4 15.6 14.5 21.8 21.5 4.5 5.4-16 2.7-26.7 1.4l-.3 1.5-39.2 2c-9 .8-23.3 1-24.6 9.8l205.2 11.7.1-3.1h.1c.1-1.7.1-3.3.1-5l.1-.3z"/><path fill="#606060" d="M952.6 1070.9c-6.2-7-17.1-12.1-21.8-21.5-2 7.4-3.3 15.3-4.9 22.9 10.7 1.3 31.2 4 26.7-1.4z"/><path fill="#242326" d="M1031 1072.5c.6-3.8 4-6.4 7.8-5.8l26 3.8c.7 2.4 1.2 4.9 1.6 7.4.4 2.3.6 4.6.8 6.9l-30.4-4.5c-3.8-.5-6.4-4-5.8-7.8z"/><path fill="#2d2c2f" d="M937.6 1183.9l.5 3.4c1.2 8.1 8.7 13.7 16.8 12.5l33.4-4.5s16.8-3.3 9.4-26.7c-4.8-15.3-3.4-37.9.8-51.3-14.4 14.2-10.2 44.3-18 61.7-7.6 14.4-27.8 10.7-42.9 4.9zm106-75c-8-5.1-21.2-5.9-30.5-.7 8.9 4.2 12.6 13.6 9.7 30.3-2.3 13.2 21.8 9.5 27.8 5 .9-.7 2-2.3 3-4.4-1.5-.7-2.8-1.4-4-2.2-7-8 2-22-6-28z"/><path fill="#242326" d="M988 1092.8s-4.8 34.5-12.4 43.7c-7.6 9.2-42.6 15.3-42.6 15.3l4.6 32c15.1 5.8 35.2 9.6 42.9-5 7.8-17.3 3.6-47.5 18-61.7 2.2-7.1 5.3-11.6 8.5-11 2.2.4 4.2 1.1 6 1.9 9.3-5.2 22.5-4.3 30.5.7 8 6-1 20 6 28 1.2.8 2.5 1.6 4 2.2 5.9-11.9 13.4-41.9 13.4-41.9l-78.9-4.2z"/><path fill="#424144" d="M938.9 1090s-7.5 5.6-14.7 5.8c-10.5.3-10.2-7.3-10.2-7.3l24.9 1.5z"/><path fill="#ff6f68" d="M935.7 1151s-7.3-2.7-10.8-4.4c-3.5-1.7 8.2-27.7 8.2-27.7l2.6 32.1z"/><path fill="#2d2c2f" d="M1024.2 1122.4c-1.2-11-11.1-19-22.1-17.8l-75.6 8.2-.8-9.7c-.1-.9-.8-1.5-1.7-1.4s-1.5.8-1.4 1.7l2.6 30.5c.1.8.7 1.4 1.5 1.4h.1c.9-.1 1.5-.8 1.4-1.7l-1.5-17.7 75.6-8.2c4.5-.5 8.9.8 12.5 3.7 3.5 2.8 5.8 6.9 6.2 11.4.5 4.7-.9 9.2-3.9 12.8-.6.7-.5 1.6.2 2.2.3.2.6.4 1 .4s.9-.2 1.2-.5c3.7-4.4 5.3-9.8 4.7-15.3z"/><path fill="#ffe2e1" d="M1125.2 1171.2c-5.2 2.6-10 6.1-14.6 10.7-17.5 16.5-29.8 41.5-50.3 53.2 4.9 4.1 18.9 8.5 18.9 8.5l60.2-57.6c-.1 0-6.2-7.6-14.2-14.8z"/><path fill="#fff" d="M1110.6 1181.9c4.6-4.6 9.4-8 14.6-10.7-6.8-6-15-11.8-22.1-12.4-15.5-1.3-44.6 69.2-44.5 73.8 0 .8.7 1.6 1.7 2.5 20.4-11.7 32.8-36.7 50.3-53.2z"/><path fill="#ffe2e1" d="M1182 1459.2c18-32 1.6-97.3-23.4-125.3-4-4-4-12-7-18-5-8-14-13-23-12-25 5-50 9-69 27-4.3 4.1-8.2 8.4-11.8 12.9.6 35.5 30.3 76.3 79.5 126.3 18.1-8.5 44.2 7.9 54.7-10.9zm30.9 180c4-2-86.3-126.3-90.3-131.3-2.1-3-5.2-6.4-8.3-9.8-25 19.6-40.4 16.7-44 32.2-8.9.2-2.9 12.1-2.9 12.1.5.8 1 1.5 1.6 2.3 11-15.4 125.9 101.4 143.9 94.5zm-49.3-141.3c-9.5-11.4-28.1-4.7-41.1-12.7-.6 1.9-.1 3.4 2.2 3.9-.4.4-.7.7-1.1 1 2.2.1 4.4 1.2 6 1.8 11 5 22 7 34 6z"/><path fill="#fff" d="M1323.2 1367.7c-52.4-178.6-206.3-205.2-223.9-193.4-17.6 11.8-44.6 129.2-50.3 155.6-1 4.5-1.4 9.2-1.3 13.9 3.7-4.5 7.6-8.8 11.8-12.9 19-18 44-22 69-27 9-1 18 4 23 12 3 6 7.5 32.5 8.5 51.1 2.2 41.3 33.4 49.9 15.4 81.9-10.5 18.8-30.1 12.7-48.2 21.2 2.4 2.4 4.8 4.9 7.3 7.3-5.9 0-10.9 4.4-12.1 7.8 13 8 31.6 1.3 41.1 12.7-12 1-23-1-34-6-1.6-.5-3.9-1.7-6-1.8-3.2 3-6.3 5.6-9.2 8 3.1 3.5 6.2 6.9 8.3 9.8 4 5 4 13 0 15-9.3 3.5-39.6 3.3-30.3 7.9 24 12.1 69 64.2 37.2 39.2-20.9-16.4-41.3-30.7-52.1-33.1-3.8-.8-6.2 4.6-8.5 7.8 57.2 84.6 170.2 167.9 195 171.8 3.5.5 6.5.7 9 .4 1.1-1.9 2.1-4.2 2.7-7 2-11-8-21-4-31 1-3 5-5 7-9 22-66 50-129 58-198 .7-6.4 1.3-12.7 1.9-19.1-1.9-27.2-6.6-55.7-15.3-85.1z"/><path fill="#ffe2e1" d="M1338.5 1452.8c-.6 6.4-1.2 12.8-1.9 19.1-8 69-36 132-58 198-2 4-6 6-7 9-4 10 6 20 4 31-.6 2.9-1.6 5.2-2.7 7 19.9-1.8 11.5-25.1 11.5-25.1s63.6-101.5 54.1-239z"/><path fill="#ff6f68" d="M667.6 1468.4c14.7-22.4 21.9-59.7 22.5-67.5s39.1-42.9 86.6-19.3c47.3 23.5 1.9 38.5-19.5 22.2-5.1-3.9-11.7-.3-12.8 4.4-1.1 4.6-7 20.1-10.7 21.6-3.9 1.6-25.7 5.2-30.3 3.8-4.6-1.4-21.3 39.8-35.8 34.8z"/><path fill="#ff6f68" d="M1072.6 1510.9c15.6-12.2 26-28.9 33.7-46.1-6.5-.6-13-1.6-19.7-2.9-21-4-29-25-45-37-2.6-3.5-7.6-4.7-12.2-6.3l-21.2 19.8c-33.7-17.5-175.6-29.8-238.2-59.3-6.9-3.3-23.3 19.8-23.3 19.8s148.9 90.8 238.5 126.5c30.3 5.8 63.5 5.8 87.4-14.5z"/><path fill="#ff3f3d" d="M1063.4 1386.8l-34 31.8c4.6 1.6 9.5 2.8 12.2 6.3 16 12 24 33 45 37 6.6 1.3 13.2 2.2 19.7 2.9-7.7 17.3-18 34-33.7 46.1-23.9 20.3-57.1 20.3-87.3 14.6 23.9 9.5 43.5 15.1 55 14.1 33.2-3 67.4-46.5 85.7-73.6 8.4-12.4 13.3-21.3 13.3-21.3l-75.9-57.9z"/><path fill="#ffe2e1" d="M1025.6 1394.9c-2.6 3-4.4 7-5.1 11.4 2 5.6 5.4 10.3 7.5 12.7l12.3-11c.6.6 1.3 1.1 1.9 1.7-2.4-3.9-4.4-8.2-6.6-12.8-1-2-7-6-10-2z"/><path fill="#fff" d="M1150.3 1419c-1.3-9.1 5.2-77 0-102.9s-70.4-44.6-86.1-29.8c-15.7 14.9-18.8 83.5-36.2 95.8-10.1 7.1-10.2 16.5-7.5 24.2.7-4.3 2.5-8.4 5.1-11.4 3-4 9 0 10 2 2.3 4.6 4.3 8.8 6.6 12.8 53.5 47.5 98.5 48.2 110.7 37.9 12.3-10.4-1.3-19.6-2.6-28.6z"/><path fill="#242326" d="M865 1727.4c-10.8-14.3-13.1-31.5-11.2-39.7 1.8-7.5 24.1-24.3 40.3-17.8 11.2 4.5 77.7 48.6 108.6 45.2 0 5.9-2.8 11.5-7.6 15-38.9 27.6-115.3 16.9-130.1-2.7z"/><path fill="#666" d="M898.1 1730.7c-17.4-13.8-27.4-44.3-25-54.4 2.2-9.3 19.9-12.4 40-4.4 18.7 7.4 34.4 31.9 59 26.7 28.6-6 39 17.6 23.2 27.7-28 17.8-79.8 18.2-97.2 4.4z"/><path fill="#4b4a4c" d="M973.3 1732.4c-.6 0-1.1-.1-1.6-.4-.8-.4-1.4-1.2-1.6-2.1l-6.8-27.3c-.2-.9-.2-1.6.2-2.2.6-.9 1.8-1.2 3.3-1.5h.1c22-5.1 32.3 2.8 34.5 11.8 2.7 10.6-18 18.6-27.1 21.5-.3.1-.7.2-1 .2zm-9-30.1l6.8 27.3c.2.6.6 1.1 1.1 1.5.6.3 1.2.4 1.8.2 6.8-2.2 28.9-10.3 26.4-20.3-2.1-8.6-12-16-33.3-11.1h-.1c-1.3.3-2.3.5-2.6 1.1-.3.2-.3.7-.1 1.3zm-71.4 11.9l-.8-.6c.9-1.3 1.3-3.3.9-5-.2-.9-.6-2.1-1.8-2.9-2.9-1.8-3.1-5.6-.7-10 1.2-2.2-.1-3.4-1.7-4.8-.7-.6-1.4-1.2-1.8-1.9-.9-1.6.1-3.1 1.3-4.8.7-1 1.4-2.1 2-3.4.6-1.5-.7-2.8-1.8-4-.9-1-1.7-1.8-1.5-2.7.1-.6.6-1 1.5-1.4l.4.9c-.5.2-.9.4-.9.6-.1.4.6 1.1 1.3 1.8 1.3 1.3 2.9 3 2 5.1-.6 1.4-1.4 2.5-2.1 3.6-1.2 1.7-1.8 2.8-1.2 3.7.3.5.9 1.1 1.6 1.6 1.6 1.4 3.6 3.2 1.9 6.1-1.7 3-2.5 6.9.4 8.6 1.2.7 2 2 2.3 3.5.2 2.2-.3 4.6-1.3 6zm-8.8-7.3c-1.3-.7-2.2-2.9-2.5-4.8-.4-2.2-.1-4.1.8-5.2 1.1-1.3-.5-3.4-1.7-5.1-.6-.8-1-1.4-1.3-2-.6-1.4.1-2.7.9-4.3.5-.9 1-1.9 1.3-3.1.5-1.8-.7-3.4-1.9-5-.6-.8-1.2-1.6-1.5-2.5l.9-.4c.3.7.8 1.4 1.4 2.2 1.3 1.7 2.7 3.5 2 5.8-.3 1.3-.9 2.3-1.4 3.3-.7 1.4-1.3 2.5-.9 3.4.2.5.7 1.1 1.2 1.8 1.5 2 3.3 4.5 1.7 6.4-.7.8-.9 2.4-.6 4.3.3 1.9 1.2 3.7 2 4.1l-.4 1.1zm19.6 17.4l-1-.1c.8-6-.4-12.9-2-15.5-2.1-3.5.8-10.7 1.8-12.9.9-1.9-1-4.9-2.3-7-1-1.5-1.7-2.6-1.5-3.4.1-.5.4-1.2.7-2 .6-1.5 1.4-3.4.9-4.6l-.6-1.2c-.8-1.6-1.8-3.4-.2-5.5l.8.6c-1.2 1.5-.5 2.8.3 4.4.2.4.4.9.6 1.3.7 1.6-.2 3.7-.9 5.4-.3.7-.6 1.3-.6 1.8-.1.4.7 1.6 1.4 2.7 1.6 2.5 3.5 5.5 2.4 7.9-1.9 4.2-3.3 9.5-1.8 11.9 1.8 3.2 2.7 10.5 2 16.2zm14 8.4l-1-.2c.2-1.4.9-6.2-1.3-11-1.8-4.1-2.1-14.7-.5-19.3 1.5-4.1-.7-11-3.6-15.3-2.4-3.8-1.5-6.8-.6-9.5.2-.6.4-1.2.5-1.8l1 .2c-.1.6-.3 1.2-.5 1.8-.8 2.6-1.7 5.3.5 8.6 3 4.7 5.2 11.7 3.7 16.2-1.5 4.3-1.3 14.7.5 18.5 2.3 5.3 1.6 10.4 1.3 11.8zm12.2 2.8l-1-.1c.1-1.4-.7-4.5-1.6-7.8-1.2-4.6-2.6-9.7-2-12.4 1.1-4.8 2-9.6 0-15.7-1.8-5.7-1.3-8.1-.4-11.8.1-.6.3-1.2.4-1.9l1 .2c-.1.7-.3 1.3-.4 1.9-.8 3.6-1.3 5.8.4 11.3 2 6.4 1.1 11.5 0 16.3-.6 2.4.8 7.4 2 11.9.9 3.5 1.7 6.5 1.6 8.1zm11-.9c-2-1.5-4.9-11.6-3.7-14.8 1.1-3 .3-9.1-1.9-14.3-1.9-4.5-.5-8.1.9-11.6.4-.9.7-1.7 1-2.6l.9.3c-.3.9-.7 1.8-1 2.6-1.3 3.3-2.7 6.7-.9 10.8 2.3 5.5 3.2 11.8 1.9 15.1-1.1 3 1.7 12.5 3.3 13.6l-.5.9z"/><path fill="#ff3f3d" d="M321.1 1376.7c-13.6-5.9-44.4-4.2-58.9-.4-.9.2-14.5 26.5 4.8 33.9 32.1 12.2 65-28.8 54.1-33.5z" opacity=".34"/><path fill="#f4d3d3" d="M321 1325.2c-4.8 6-12.4 7.7-19.1 10.4-14.7 6.3-30.3 8.3-45.9 9.6-3.2-16.7-6.2-33.1-6.2-33.1H328s-.7 3.2-1.8 7.8c-1.8 1.7-3.6 3.3-5.2 5.3z"/><path fill="#ffe2e1" d="M301.9 1335.6c6.8-2.7 14.3-4.4 19.1-10.4 1.6-2 3.4-3.6 5.1-5.3-.4 1.7-.9 3.7-1.4 5.7-3 11.6-7.7 51.2-11.3 53.9-12.1 9.1-37.6 9.8-49.9.9-.7-.5-4.3-18.1-7.5-35.3 15.6-1.2 31.2-3.2 45.9-9.5z"/><path fill="#fff" d="M247 1318.4c-.1-.3-.1-.6-.1-1 0-.3 0-.5.1-.8v-6.5h7.5c17.3-7.3 59.1-8.5 72.3 0h4v8.3h-.3c-9.6 17.8-80.7 17.2-83.5 0z"/><path fill="#f9d7d7" d="M317.8 1301.5l-9.3 13.6-4.2-.3 9.6-13.4c1.3 0 2.6 0 3.9.1z"/><path fill="#ffe2e1" d="M300.4 1303.3c4.6-1.1 9-1.9 13.5-1.9l-9.6 13.4c-1-.1-2-.1-3-.2-3.1-.4-5.4-3.1-6.6-5.8-1.5-3.1 3.2-4.9 5.7-5.5zm19.3-1.7c6.8 1.6 11.2 4 11.2 7.3 0 2.6-1.6 4.8-4.3 6.6-6 .1-12-.2-18.1-.6l9.3-13.6c.6.2 1.2.3 1.9.3z"/><path fill="#fe9287" d="M269.5 1311.5c.2 1.2-.2 2.5-.4 3.7h-.6c-1-3.9-.4-7.7-1-11.6-.1-.8-.3-1.6-.5-2.3.5-.1.9-.1 1.4-.2 0 3.3.4 6.7 1.1 10.4z"/><path fill="#f9d7d7" d="M267 1301.2c.2.8.4 1.5.5 2.3.6 3.9 0 7.7 1 11.6h.6c.2-1.2.6-2.5.4-3.7-.7-3.7-1-7-1-10.5 16.4-2.4 38.2-2.4 51.2.6-6.5-.7-12.8.1-19.3 1.7-2.5.6-7.1 2.3-5.6 5.4 1.2 2.7 3.5 5.4 6.6 5.8 8.5.6 16.9 1.2 25.2 1.1-17.1 11.5-79.7 7.4-79.7-5.6 0-3.9 8.5-6.9 20.1-8.7z"/><path fill="#2d2c2f" d="M262.8 1316c9.8-5.2 44.5-6.2 52.9-.6-11.2 6.9-39.6 5.1-52.9.6z"/><path fill="#424144" d="M300.9 1067.9l-8.5 79.9c-14.8.7-30.6-18.9-15.7-38.5 11.3-14.9 17.7-18.3 14.5-28.2-2-6.3 10.2-20.5 9.7-13.2z"/><path fill="#424144" d="M287.2 1115.1c-3.1-5.7-2.8-11.9-.8-17.7-2.5 3.1-5.8 6.9-9.7 11.9-14.9 19.6.9 39.2 15.7 38.5l.9-8.5c-.6-4.6-.6-9.6-1.1-13.8-.4-4-3.2-6.8-5-10.4z"/><path fill="#4b4a4c" d="M291.2 1081.1c2.1 6.5.1 10.2-4.8 16.3-1.9 5.7-2.2 11.9.8 17.7 1.8 3.6 4.6 6.4 5 10.4.5 4.2.4 9.2 1.1 13.8l7.6-71.4c.5-7.3-11.7 6.9-9.7 13.2z"/><path d="M292.8 1144.8h-.1l-21.2-15c-.1-.1-.1-.2 0-.3.1-.1.2-.1.3 0l21.2 15c.1.1.1.2 0 .3-.1-.1-.2 0-.2 0zm1.1-16.9h-.1l-20-14.1c-.1-.1-.1-.2 0-.3.1-.1.2-.1.3 0l20 14.1c.1.1.1.2 0 .3h-.2zm2.4-16.3h-.1l-13.1-9.3c-.1-.1-.1-.2 0-.3.1-.1.2-.1.3 0l13.1 9.3c.1.1.1.2 0 .3h-.2zm1.5-16.7h-.1l-6.5-4.5c-.1-.1-.1-.2 0-.3.1-.1.2-.1.3 0l6.5 4.5c.1.1.1.2 0 .3h-.2zm1.7-15.6h-.1l-6.5-4.5c-.1-.1-.1-.2 0-.3.1-.1.2-.1.3 0l6.5 4.5c.1.1.1.2 0 .3 0-.1-.1 0-.2 0z" fill="#2d2c2f"/><path fill="#4b4a4c" d="M297.6 1185.5c6.6 6 3.8 11.5 3 12.7l-15.8-18.7.6.1c1.9.5 8.3 2.4 12.2 5.9z"/><path fill="#424144" d="M284.8 1180.2v-.7l15.2 19.2c-.9.4-7.1 2.6-11.9-5.5-2.6-4.5-3.2-10.9-3.3-13z"/><path fill="#2d2c2f" d="M284.8 1179.5l15.8 18.7 3.3 4c.1.2.1.4-.1.5-.1.1-.1.1-.2.1s-.2 0-.3-.1l-3.3-4-15.2-19.2z"/><g fill="#2d2c2f"><path d="M298.9 1196.9c.1 0 .1 0 .1-.1l1.3-7.9c0-.1 0-.1-.1-.1s-.1 0-.1.1l-1.3 7.9c-.1 0 0 .1.1.1zm-7.7-9.5c.1 0 .1 0 .1-.1l.7-5.2c0-.1 0-.1-.1-.1s-.1 0-.1.1l-.7 5.2s0 .1.1.1zm-3.7-4.5c.1 0 .1 0 .1-.1l.3-2.4c0-.1 0-.1-.1-.1s-.1 0-.1.1l-.3 2.4c0 .1 0 .1.1.1zm7.7 9.4c.1 0 .1 0 .1-.1l1.1-7.7c0-.1 0-.1-.1-.1s-.1 0-.1.1l-1.1 7.7c-.1.1 0 .1.1.1-.1 0 0 0 0 0z"/><path d="M298.9 1196.9c.1 0 .1-.1.1-.1 0-.1 0-.1-.1-.1l-8.5-.6c-.1 0-.1 0-.1.1s0 .1.1.1l8.5.6zm-7.7-9.5c.1 0 .1-.1.1-.1 0-.1 0-.1-.1-.1l-5.5-.5c-.1 0-.1 0-.1.1s0 .1.1.1l5.5.5zm-3.7-4.5c.1 0 .1 0 .1-.1s0-.1-.1-.1l-2.4-.4c-.1 0-.1 0-.1.1s0 .1.1.1l2.4.4zm7.7 9.4c.1 0 .1-.1.1-.1 0-.1 0-.1-.1-.1l-7.8-.7c-.1 0-.1 0-.1.1s0 .1.1.1l7.8.7c-.1 0 0 0 0 0z"/></g><path fill="#2d2c2f" d="M300.8 1166.8c0-.4-.4-.7-.8-.7s-.7.4-.7.8l16.4 150.3 1.5-.2-16.4-150.2z"/><path fill="#2d2c2f" d="M261.9 1062.4l38.4 103.5c.5 1.2-.1 2.6-1.3 3.2-17.1 8.5-29.7 2.3-35.5-10.9-3.4-7.8-4.4-17.9-2.4-28.9 4.6-25.7 5.3-34.1-3.2-44.2-5.9-7.2 0-32.2 4-22.7z"/><path fill="#2d2c2f" d="M266.8 1100c.2.6.8 1 1 1.4 1 2.2 1 4.4 1.6 6.6.4 1.2.2 2.4.6 3.6.6 2.4.8 4.8 1.2 7.2 2 12.6-.6 24.8 2.4 37.3 1.2 4.8 6.4 6.8 10.6 7.8 5.1 1.2 10.7 2.5 16 1.8l-38.4-103.4c-4-9.4-9.8 15.6-3.9 22.7.5.6 1 1.2 1.4 1.8 3.9 3.4 6.7 7.7 7.5 13.2z"/><path fill="#242326" d="M300.2 1165.7c-5.3.7-10.9-.5-16-1.8-4.2-1-9.4-3-10.6-7.8-3-12.4-.4-24.6-2.4-37.3-.4-2.4-.6-4.8-1.2-7.2-.4-1.2-.2-2.4-.6-3.6-.6-2.2-.6-4.4-1.6-6.6-.2-.4-.8-.8-1-1.4-.8-5.5-3.6-9.9-7.5-13.2 6.9 9.4 6.1 18.3 1.8 42.5-1.9 11-1 21.1 2.4 28.9 5.7 13.2 18.4 19.4 35.5 10.9 1.2-.6 1.7-2 1.3-3.2l-.1-.2z"/><path d="M299.5 1164l-36-5.5c-.1 0-.2-.1-.2-.3 0-.1.1-.2.3-.2l36 5.5c.1 0 .2.1.2.3-.1.1-.2.2-.3.2zm-9.1-21.9l-29.5-4.5c-.1 0-.2-.1-.2-.3 0-.1.1-.2.3-.2l29.4 4.5c.1 0 .2.1.2.3 0 .1-.1.2-.2.2zm-7.1-21.9l-19.5-3c-.1 0-.2-.1-.2-.3 0-.1.1-.2.3-.2l19.4 3c.1 0 .2.1.2.3 0 .1-.1.2-.2.2zm-8.6-21.9l-11-1.6c-.1 0-.2-.1-.2-.3 0-.1.1-.2.3-.2l10.9 1.6c.1 0 .2.1.2.3 0 .1-.1.2-.2.2zm-7.6-20.8l-11-1.6c-.1 0-.2-.1-.2-.3 0-.1.1-.2.3-.2l10.9 1.6c.1 0 .2.1.2.3 0 .2 0 .2-.2.2z" fill="#424144"/><path fill="#2d2c2f" d="M235.5 1229.2c-1.5 9.6 4.4 17.4-7.1 24 7.8 3.5 14.4 3 19.2.5-3.6-4.8-2.2-11.9-3.4-17.8-.9-4.5-4.7-6.6-8.7-6.7z"/><path fill="#242326" d="M256.1 1236.1c-8.7-23.8-17.7-15.8-19.6-10.7-.5 1.3-.8 2.5-1 3.7 4 .1 7.8 2.2 8.7 6.7 1.2 5.9-.1 13.1 3.4 17.8 7.2-3.5 10.6-11.6 8.5-17.5z"/><path fill="#424144" d="M249.8 1223.6c0-.1-.1-.2-.3-.2-.1 0-.2.1-.2.3 1.3 8.4-.1 15.3-4.1 20.4-5 6.4-12.8 8.3-15.7 8.8l.2.5c3-.5 10.8-2.5 15.9-8.9 4-5.3 5.4-12.3 4.2-20.9zm18.3 41.7c-.1-.4-.5-.6-.9-.5s-.6.5-.5.9l22.9 51.2h1.6l-23.1-51.6z"/><path fill="#424144" d="M265.4 1244.3c-1.4-8.8-1.2-17.4-5.4-25.6-.6-1.2-1.8-2-3-2.2-5.4-.8-12-1-16.2 3-.3.5-.8 1-1.5 1-1 1.5-1.9 3.1-2.8 5 7.6-2.6 13.5.3 13.3 14.6-.2 19.8 18.4 27.5 18.4 27.5s-.3-6.7 1.3-15.9c-2.3-1.9-3.8-4.6-4.1-7.4z"/><path fill="#4b4a4c" d="M239.3 1220.5c.6 0 1.1-.5 1.5-1 4.2-4 10.8-3.8 16.2-3 1.2.2 2.4 1 3 2.2 4.2 8.2 4 16.8 5.4 25.6.3 2.8 1.8 5.5 4.1 7.3.7-4.5 1.9-9.5 3.7-14.6 8-22.4-18.4-39.8-33.9-16.5z"/><g fill="#2d2c2f"><path d="M268 1267.7c-4.8-8.6-4.7-19.1-4.6-28.4.1-9.2.2-17.1-4.4-20.9-3.2-2.7-8.6-3.2-16.4-1.7l-.1-.5c8-1.6 13.5-1 16.8 1.8 4.8 4 4.7 12 4.6 21.3-.1 9.2-.3 19.6 4.5 28.1l-.4.3z"/><path d="M256.9 1259.1l-.4-.3 7-11.5 6.3 2.7-.2.4-5.9-2.5-6.8 11.2zm-5.9-10.7l-.4-.3 12.8-18.5 10.2 6.3-.2.4-9.8-6-12.6 18.1zm-1.6-15.1l-.4-.3 9.9-15.2 13.8 1.7-.1.5-13.5-1.6-9.7 14.9zm-5.9-8.3l-.5-.1 2.2-9.1 14.3-6.4.2.5-14.1 6.2-2.1 8.9z"/></g><path fill="#424144" d="M323.2 1295.7c-9.9 16.5-22.6 12.9-25.4 11.8l32.6-41.3-.1 1.2c-.1 4.3-1.3 18.7-7.1 28.3z"/><path fill="#4b4a4c" d="M298.7 1291.6c4.2-3.6 9.4-5.2 13.6-8.8 3.4-2.8 6.4-6 8.4-10 .4-.6 1.2-1.2 1.8-1.8.6-1 1.3-2 1.9-3-6 1.9-15.1 5.5-21.4 11.2-7.8 7-9.5 13.7-9.3 18.7 1.2-2.4 2.8-4.5 5-6.3z"/><path fill="#424144" d="M324.4 1267.9c-.6 1-1.2 2-1.9 3-.6.6-1.4 1.2-1.8 1.8-2 4-5 7.2-8.4 10-4.2 3.6-9.4 5.2-13.6 8.8-2.1 1.8-3.7 3.9-5 6.2.3 4.7 2.3 8 2.8 8.8l7.2.5 26.7-40.9-1.5.3c-1 .5-2.6.9-4.5 1.5z"/><g fill="#2d2c2f"><path d="M330.5 1266.2l-32.6 41.3-7.1 8.7c-.3.4-.8.4-1.2.1-.1-.1-.2-.3-.3-.4-.1-.2 0-.5.2-.7l7-8.6s33.9-40.3 34-40.4z"/><path d="M299.8 1303.3c0-.2.1-.3.3-.3l17.2-.6c.2 0 .3.1.3.3 0 .2-.1.3-.3.3l-17.2.6c-.2 0-.3-.1-.3-.3zm16.7-20.2c0-.2.1-.3.3-.3l11.3-.7c.2 0 .3.1.3.3 0 .2-.1.3-.3.3l-11.3.7c-.2 0-.3-.1-.3-.3zm7.8-9.8c0-.2.1-.3.3-.3l5.1-.3c.2 0 .3.1.3.3 0 .2-.1.3-.3.3l-5.1.3c-.2.1-.3-.1-.3-.3zm-16.6 20.2c0-.2.1-.3.3-.3l16.7-1c.2 0 .3.1.3.3 0 .2-.1.3-.3.3l-16.7 1c-.1 0-.3-.1-.3-.3z"/><path d="M297.5 1285c0-.1.1-.3.3-.3.2 0 .3.1.4.3l2.3 18.2c0 .2-.1.3-.3.4-.2 0-.3-.1-.4-.3l-2.3-18.3c0 .1 0 .1 0 0zm17.6-13.7c0-.2.1-.3.3-.3.2 0 .3.1.4.3l1.4 11.7c0 .2-.1.3-.3.4-.2 0-.3-.1-.4-.3l-1.4-11.8c0 .1 0 .1 0 0zm8.9-3.2c0-.2.1-.3.3-.3.2 0 .3.1.3.3l.3 5.2c0 .2-.1.3-.3.3-.2 0-.3-.1-.3-.3l-.3-5.2c0 .1 0 .1 0 0zm-18.1 8.7c0-.2.1-.3.3-.3.2 0 .3.1.4.3l1.8 16.7c0 .2-.1.3-.3.4-.2 0-.3-.1-.4-.3l-1.8-16.8z"/></g><path fill="#4b4a4c" d="M284.4 1211.2c-.2-.6-.5-1.2-.6-1.8-3.4-3.7-4.8-6.7-3.8-11.7 1.2-5.7-10.8-16.9-9.7-10.6l13.4 62.3c5.1-12 5.4-25.9.7-38.2z"/><path fill="#424144" d="M295.3 1220.9c-4.9-5.2-8.8-8.6-11.5-11.5l.6 1.8c4.7 12.2 4.4 26.1-.7 38.1l1.4 6.5c13-.7 24.9-19.2 10.2-34.9z"/><path d="M284.6 1253.3l17.2-15c.1-.1.1-.2 0-.2-.1-.1-.2-.1-.2 0l-17.1 15c-.1.1-.1.2 0 .2h.1zm-2.6-14.6s.1 0 0 0l16.2-14.2c.1-.1.1-.2 0-.2-.1-.1-.2-.1-.2 0l-16.1 14.1c-.1.1-.1.2 0 .2 0 .1.1.1.1.1zm-3.6-13.9s.1-.1 0 0l10.7-9.3c.1-.1.1-.2 0-.2-.1-.1-.2-.1-.2 0l-10.6 9.3c-.1.1-.1.2 0 .2 0-.1 0 0 .1 0zm-2.8-14.5l5.3-4.5c.1-.1.1-.2 0-.2-.1-.1-.2-.1-.2 0l-5.2 4.5c-.1.1-.1.2 0 .2h.1zm-3-13.4s.1 0 0 0l5.3-4.5c.1-.1.1-.2 0-.2-.1-.1-.2-.1-.2 0l-5.2 4.5c-.1.1-.1.2 0 .2h.1zm12.1 70.1c0-.4-.3-.7-.6-.7-.4 0-.7.3-.7.6L277 1288h1.3l6.4-21z" fill="#2d2c2f"/><path fill="#2d2c2f" d="M307.5 1171.9l-24.3 95.6c16.7 7.1 27.8.5 31.8-12 2.2-7.1 2.1-16-.6-25.4-6.4-21.9-7.7-29.2-1.3-38.8 4.5-6.8-3-28-5.6-19.4z"/><path fill="#2d2c2f" d="M314.4 1230.1c-6.4-21.9-7.7-29.2-1.3-38.8 4.5-6.8-2.9-28-5.5-19.4l-5.1 20v.1c1 15.2 2.8 30.7-3 45.3-4.2 10.1-5.4 22.2-2.5 33.1 9.1-.4 15.3-6.2 18-14.9 2.2-7.1 2.1-16-.6-25.4z"/><path fill="#242326" d="M299.5 1237.3c5.8-14.6 4-30.1 3-45.3v-.1l-19.2 75.6c5.1 2.2 9.7 3.1 13.8 2.9-3-10.9-1.8-23 2.4-33.1z"/><path d="M284.2 1263.8l30.8-8.2c.1 0 .2-.1.2-.3 0-.1-.1-.2-.3-.2l-30.8 8.2c-.1 0-.2.1-.2.3.1.2.2.2.3.2zm5.9-19.8l25.3-6.7c.1 0 .2-.1.2-.3 0-.1-.1-.2-.3-.2l-25.2 6.7c-.1 0-.2.1-.2.3 0 .1.1.2.2.2zm4.1-19.8c.1 0 .1 0 0 0l16.7-4.4c.1 0 .2-.1.2-.3s-.1-.2-.3-.2l-16.7 4.4c-.1 0-.2.1-.2.3.1.1.2.2.3.2zm5.5-19.9l9.4-2.4c.1 0 .2-.1.2-.3 0-.1-.1-.2-.3-.2l-9.4 2.4c-.1 0-.2.1-.2.3.1.2.2.2.3.2zm4.7-18.7l9.4-2.4c.1 0 .2-.1.2-.3 0-.1-.1-.2-.3-.2l-9.4 2.4c-.1 0-.2.1-.2.3.1.1.2.2.3.2zm1830.8-772.9L2096 781.6c-68.1 3.3-141.3-87.3-72.5-177.6 52.3-68.7 81.6-84.3 66.9-130.1-9.4-29 47-94.8 44.8-61.2z" fill="#424144"/><path fill="#424144" d="M2072 630.5c-14.2-26.5-12.7-55-3.9-81.5-11.7 14.4-26.8 31.6-44.7 55.1-68.7 90.3 4.4 180.9 72.5 177.6l4.2-39.2c-3-21.3-2.6-44.3-5-63.8-1.8-18.6-14.7-31.5-23.1-48.2z"/><path fill="#4b4a4c" d="M2090.4 474c9.7 30.2.3 47.2-22.2 75-8.8 26.5-10.3 55.1 3.9 81.5 8.3 16.6 21.3 29.6 23.1 48.1 2.4 19.4 2 42.4 5 63.8l35.1-329.7c2.1-33.6-54.3 32.2-44.9 61.3z"/><path d="M2097.6 767.7c-.2 0-.4 0-.5-.2l-97.9-69.1c-.4-.3-.5-.8-.2-1.2s.8-.5 1.2-.2l97.9 69.1c.4.3.5.8.2 1.2-.2.2-.4.4-.7.4zm5.3-77.8c-.2 0-.4 0-.5-.2l-92.3-65.1c-.4-.3-.5-.8-.2-1.2s.8-.5 1.2-.2l92.3 65.1c.4.3.5.8.2 1.2-.2.3-.5.4-.7.4zm11.2-75.2c-.2 0-.4 0-.5-.2l-60.6-42.8c-.4-.3-.5-.8-.2-1.2s.8-.5 1.2-.2l60.6 42.8c.4.3.5.8.2 1.2-.2.3-.5.4-.7.4zm6.8-77.1c-.2 0-.4 0-.5-.2l-29.9-20.7c-.4-.3-.5-.8-.2-1.2s.8-.5 1.2-.2l29.9 20.7c.4.3.5.8.2 1.2-.2.3-.5.4-.7.4zm8-72.3c-.2 0-.4 0-.5-.1l-29.9-20.7c-.4-.3-.5-.8-.2-1.2.3-.4.8-.5 1.2-.2l29.9 20.7c.4.3.5.8.2 1.2-.2.2-.5.3-.7.3z" fill="#2d2c2f"/><path fill="#4b4a4c" d="M2119.7 955.6c30.6 27.9 17.5 52.9 14 58.4l-72.9-86.2 2.6.6c8.9 2.4 38.5 11 56.3 27.2z"/><path fill="#424144" d="M2060.9 931l-.1-3.2 70.3 88.7c-4 1.7-33 12.1-55.1-25.3-12.2-20.7-14.6-50.4-15.1-60.2z"/><path fill="#2d2c2f" d="M2060.8 927.8l72.9 86.2 15.3 18.6c.6.8.5 1.9-.2 2.5-.3.2-.7.4-1 .4-.5 0-1.1-.2-1.5-.6l-15.1-18.4c-.1 0-70.4-88.4-70.4-88.7z"/><g fill="#2d2c2f"><path d="M2125.8 1008.1c.3 0 .5-.2.5-.5l6.1-36.5c.1-.3-.2-.6-.5-.7-.3 0-.6.2-.7.5l-6.1 36.5c-.1.3.2.6.5.7h.2zm-35.4-43.7c.3 0 .5-.2.5-.5l3.4-24c0-.3-.2-.6-.5-.7-.3 0-.6.2-.7.5l-3.4 24c0 .3.2.6.5.7h.2zm-17.2-20.6c.3 0 .5-.2.5-.5l1.6-10.9c0-.3-.2-.6-.5-.7-.3 0-.6.2-.7.5l-1.6 10.9c0 .3.2.6.5.7h.2zm35.4 43.5c.3 0 .5-.2.5-.5l5.1-35.5c0-.3-.2-.6-.5-.7-.3 0-.6.2-.7.5l-5.1 35.5c0 .3.2.6.5.7h.2z"/><path d="M2125.8 1008.1c.3 0 .5-.2.6-.5 0-.3-.2-.6-.5-.6l-39.4-2.9c-.3 0-.6.2-.6.5s.2.6.5.6l39.4 2.9c-.1 0 0 0 0 0zm-35.4-43.7c.3 0 .5-.2.6-.5 0-.3-.2-.6-.5-.6l-25.2-2.2c-.3 0-.6.2-.6.5s.2.6.5.6l25.2 2.2zm-17.2-20.6c.3 0 .5-.2.5-.5s-.2-.6-.5-.7l-11-1.7c-.3 0-.6.2-.7.5 0 .3.2.6.5.7l11 1.7h.2zm35.4 43.5c.3 0 .5-.2.6-.5 0-.3-.2-.6-.5-.6l-36-3.3c-.3 0-.6.2-.6.5s.2.6.5.6l36 3.3z"/></g><path fill="#2d2c2f" d="M1955 387.3L2132.3 865c2.1 5.7-.4 12-5.8 14.7-78.7 39.5-137.3 10.7-163.8-50.1-15.6-35.8-20.1-82.6-11.1-133.3 21.1-118.5 24.3-157.3-14.7-204.2-27.4-32.9-.2-148.3 18.1-104.8z"/><path fill="#2d2c2f" d="M1977.7 561.2c.9 2.8 3.7 4.6 4.6 6.5 4.6 10.2 4.6 20.3 7.4 30.5 1.8 5.5.9 11.1 2.8 16.6 2.8 11.1 3.7 22.2 5.5 33.3 9.2 58.3-2.8 114.7 11.1 172 5.5 22.2 29.6 31.4 49 36.1 23.7 5.7 49.6 11.5 73.9 8.1l-177-477c-18.3-43.5-45.4 71.9-18.1 104.9 2.3 2.8 4.4 5.5 6.5 8.2 17.5 15.3 30.4 35.3 34.3 60.8z"/><path fill="#242326" d="M2132 864.4c-24.3 3.3-50.2-2.4-73.9-8.1-19.4-4.6-43.5-13.9-49-36.1-13.9-57.3-1.8-113.8-11.1-172-1.8-11.1-2.8-22.2-5.5-33.3-1.8-5.5-.9-11.1-2.8-16.6-2.8-10.2-2.8-20.3-7.4-30.5-.9-1.8-3.7-3.7-4.6-6.5-3.9-25.5-16.8-45.5-34.4-60.8 32.1 43.6 28.1 84.4 8.2 196-9 50.6-4.5 97.5 11.1 133.3 26.5 60.8 85.1 89.6 163.8 50.1 5.4-2.7 7.9-9.1 5.8-14.7l-.2-.8z"/><path d="M2128.7 856.3h-.2l-166-25.6c-.6-.1-1-.7-1-1.3.1-.6.7-1 1.3-1l166 25.6c.6.1 1 .7 1 1.3-.1.6-.6 1-1.1 1zm-41.9-100.9h-.2l-135.9-20.9c-.6-.1-1-.7-1-1.3.1-.6.7-1.1 1.3-1l135.9 20.9c.6.1 1 .7 1 1.3-.1.6-.6 1-1.1 1zm-32.9-101.3h-.2l-89.8-13.8c-.6-.1-1-.7-1-1.3.1-.6.7-1 1.3-1l89.8 13.8c.6.1 1 .7 1 1.3-.1.5-.6.9-1.1 1zm-39.6-101h-.2l-50.4-7.3c-.6-.1-1.1-.7-1-1.3s.7-1.1 1.3-1l50.4 7.3c.6.1 1.1.7 1 1.3-.1.5-.6.9-1.1 1zm-35-95.7h-.2l-50.4-7.3c-.6-.1-1.1-.7-1-1.3.1-.6.7-1.1 1.3-1l50.4 7.3c.6.1 1.1.7 1 1.3-.2.5-.6.9-1.1 1zm259 1007c-45.6 76.4-104.1 59.5-117.1 54.5l150.5-190.6-.2 5.7c-1.2 19.8-6.7 86-33.2 130.4z" fill="#424144"/><path fill="#4b4a4c" d="M2124.8 1445.4c19.4-16.6 43.5-24 62.9-40.7 15.7-12.9 29.6-27.7 38.8-46.2 1.8-2.8 5.5-5.5 8.3-8.3 2.9-4.7 5.8-9.4 8.6-14-27.7 8.8-69.8 25.4-98.8 51.5-35.9 32.4-44 63.2-42.8 86.4 5.7-10.7 13.1-20.5 23-28.7z"/><path fill="#424144" d="M2243.5 1336.1c-2.9 4.6-5.7 9.3-8.6 14-2.8 2.8-6.5 5.5-8.3 8.3-9.2 18.5-23.1 33.3-38.8 46.2-19.4 16.6-43.5 24-62.9 40.7-9.8 8.3-17.3 18-22.9 28.7 1.2 21.7 10.5 36.8 13 40.5l33.5 2.4 123.3-188.6-6.7 1.6c-5.2 1.3-12.6 3.4-21.6 6.2z"/><g fill="#2d2c2f"><path d="M2271.6 1328.3L2121.2 1519l-32.6 40.2c-1.3 1.6-3.7 1.9-5.3.6-.7-.5-1.1-1.2-1.3-2-.3-1.1-.1-2.4.7-3.3l32.3-39.7c-.1-.2 156.1-186.3 156.6-186.5z"/><path d="M2130 1499.3c.1-.7.7-1.3 1.4-1.4l79.5-2.8c.8 0 1.5.6 1.5 1.4s-.6 1.5-1.4 1.5l-79.5 2.8c-.8 0-1.5-.6-1.5-1.5 0 .1 0 .1 0 0zm77-93.3c.1-.7.6-1.3 1.4-1.4l52-3c.8 0 1.5.6 1.6 1.4 0 .8-.6 1.5-1.4 1.6l-52 3c-.8 0-1.5-.6-1.6-1.4v-.2zm36-45c.1-.7.6-1.3 1.4-1.4l23.7-1.4c.8 0 1.5.6 1.6 1.4s-.6 1.5-1.4 1.6l-23.7 1.4c-.8 0-1.5-.6-1.6-1.4v-.2zm-76.4 93.1c.1-.7.6-1.3 1.4-1.4l77.1-4.5c.8 0 1.5.6 1.6 1.4s-.6 1.5-1.4 1.6l-77.1 4.5c-.8 0-1.5-.6-1.6-1.4v-.2z"/><path d="M2119.2 1415.1c0-.7.6-1.3 1.3-1.4.8-.1 1.5.5 1.7 1.3l10.8 84.2c.1.8-.5 1.5-1.3 1.7-.8.1-1.5-.5-1.7-1.3l-10.8-84.2v-.3zm81.5-63.2c0-.7.6-1.3 1.3-1.4.8-.1 1.5.5 1.6 1.3l6.3 54.1c.1.8-.5 1.5-1.3 1.6s-1.5-.5-1.6-1.3l-6.3-54.1v-.2zm41.1-14.8c.1-.7.6-1.3 1.4-1.4.8 0 1.5.6 1.5 1.4l1.2 23.8c.1.8-.6 1.5-1.4 1.5-.8 0-1.5-.6-1.5-1.4l-1.2-23.9c0 .2 0 .1 0 0zm-83.6 39.8c0-.7.6-1.3 1.3-1.4.8-.1 1.5.5 1.6 1.3l8.4 77.3c.1.8-.5 1.5-1.3 1.6s-1.5-.5-1.6-1.3l-8.4-77.3v-.2z"/></g><path fill="#fc2826" d="M339.1 1643.2l122.2 30.1 54.3-102.9c.1-.2.1-.5 0-.7-.3-1.3-4.5-3.2-6.5 2l2.2-14.5 1.5-2.9c.3-.7-.1-1.5-.9-1.8L406.6 1528c-5.9-1.7-12.2.4-15.9 5.2-12 16-50.6 70.1-60.3 83.6-1.4 2-2.2 4.4-2.3 6.9l-.2 4.4c-.2 7.1 4.5 13.3 11.2 15.1z"/><path fill="#ffe2e1" d="M349.6 1632.9c39 4 76 15 114 18 12.8-31.5 31.3-60 48.2-89.4l-.4-4.4-52 93.4-111.6-26.4-7.4-1.3c-4-.7-7.7 2.4-7.5 6.4.1 2.2.9 4.5 2.5 6.3 1.3 1.5 3 2.5 4.9 3l1.4.3c1.6-3.3 5-5.9 7.9-5.9z"/><path fill="#fff" d="M463.6 1650.9c-38-3-75-14-114-18-2.9 0-6.3 2.6-8 5.9l118.9 29.2 52.2-97.4-.9-9.2c-16.9 29.5-35.5 58-48.2 89.5z"/><path fill="#262626" d="M408.7 1662.1h-3.1v-25.8l80.8-96.9 2.3 2-80 96v24.7z"/><path fill="#ffe2e1" d="M382.6 1583.9c23 17 55 29 80 20 18-7 25-35 25-56-1-7-11-10-19-11-32-5.3-62.2-8.3-92.9-13.9-6.9 9.5-15.1 20.9-22.8 31.7 9.4 10.5 18.4 21.4 29.7 29.2z"/><path fill="#ffe2e1" d="M513.4 1542c-.3-1.3-4.5-3.2-6.5 2l2.2-14.5 1.5-2.9c.3-.7-.1-1.5-.9-1.8l-105.4-24.5c-5.9-1.7-12.2.4-15.9 5.2-2.9 3.9-7.5 10.1-12.8 17.4 30.7 5.5 60.9 8.6 92.9 13.9 8 1 18 4 19 11 0 21-7 49-25 56-25 9-57-3-80-20-11.3-7.8-20.3-18.7-29.7-29.2-10.7 14.9-20.5 28.6-24.7 34.6-1.4 2-2.2 4.4-2.3 6.9l-.2 4.4c-.3 7 4.4 13.3 11.2 15l122.2 30.1 54.3-102.9c.2-.2.2-.5.1-.7z"/><path fill="#fff" d="M333 1607.9c1.3 1.5 3 2.5 4.9 3l120.2 29.6 52.2-97.4-1.3-13.6-52 93.4-111.6-26.4-7.4-1.3c-4-.7-7.7 2.4-7.5 6.4.1 2.2.9 4.5 2.5 6.3z"/><path fill="#f4d7d7" d="M335.6 1586.2c6.3-.3 99.7 23.2 99.7 23.2s-90.8-26.2-89.6-29.2c1.3-3 2.6-13.4 2.6-13.4l-12.7 19.4z"/><path fill="#ff3f3d" d="M418 1392.7l-16.1-9.3c-8.8 15.8-22.2 56.5-31.3 94.8 5.3 2.7 9.7 7 14.1 11.1 9.4-35.6 26.4-80.5 33.3-96.6z"/><path fill="#ff6f68" d="M426.6 1546.9c-2.1-1.9-3.6-4.1-4.6-6.5l-42.4 2.1c1-2.6 1.1-5.6 0-8.5-2.9-7.4-.1-24.6 5.2-44.7-4.3-4.2-8.8-8.4-14.1-11.1-8.2 34.6-12.8 67.4-7.3 78 9.3 13.3 80.2 49.2 80.2 49.2 5.2 2.3 11.4.2 14.1-4.8 7.8-14.3 21.5-36.1 28.5-47.8 2.2-3.7 3.2-7.9 3-12.2l-.2-3.5-6.9.3c-15.8 15.4-37 26.4-55.5 9.5z"/><path fill="#ff6f68" d="M426.6 1546.9c18.6 16.9 39.7 5.9 55.6-9.5l-60.3 3c1.1 2.4 2.6 4.6 4.7 6.5z"/><path fill="#ffe2e1" d="M418 1392.7l-7.5-6.9c-7 16.3-21.7 59.8-31.4 98.4 3.3 2.9 6.4 6.1 9.6 8.9 4.1-32.9 23.4-84 29.3-100.4z"/><path fill="#f4d7d7" d="M481.7 1527.1l-62.1-3.6c0 8.6.5 17.6 7 23.4 20.9 19 45 2.7 61.3-15.4-1.3-2.2-3.5-3.9-6.2-4.4z"/><path fill="#fff" d="M426.6 1546.9c-6.5-5.7-7.1-14.8-7-23.4l-21.5-1.2c-9.5-.4-11.4-12.4-9.3-29.2-3.2-2.9-6.2-6.1-9.6-8.9-7.3 29-11.7 55.2-7.9 65 2.7 10.5 74.4 48.3 74.4 48.3 4.7 1.7 10-.8 11.5-5.6l31.4-53.2c.8-2.5.5-5-.7-7.1-16.3 18-40.5 34.3-61.3 15.3z"/><path fill="#fe9287" d="M400.6 1389.6c-2.3-9.2-4.5-18.6-6.6-27.9-15.9-72.9-14.5-170.3-26-163.3-9.6 5.9-21.3 33.6.1 143 7.5 18.7 17 36.7 32.5 48.2z"/><path fill="#ff6f68" d="M445.8 1531.1c-11.1-29.2-30.5-83.3-45.2-141.6-15.5-11.5-25-29.5-32.5-48.2 2.2 11.2 4.7 23.3 7.7 36.3 11.4 50.8 36.1 120.1 61.4 159.1 7.3 11.3 24.6 8.8 30.8-3.2-5.7 8.6-18.6 7.2-22.2-2.4z"/><path fill="#fff" d="M518.8 1443.8l-50.8 89.8c-5.7 8.5-18.6 7.1-22.2-2.5-12.9-33.8-36.8-101-51.8-169.5-15.9-72.9-25.2-130.7-28.8-155.1-1-6.9 6.7-12.3 10.7-14.3 16.9-8.7 70.2-28.9 70.2-28.9 6.6-.9 12.7 3.4 14.1 9.9 8.4 40.7 37.4 179.3 60.3 260.1 1 3.7.4 7.4-1.7 10.5z"/><path fill="#2d2c2f" d="M454 1175l-4.1 1.7 1.5 284 27.3-38.9.9-123.4c-10.9-50.2-22.8-105.5-25.6-123.4z"/><path fill="#4d4d4d" d="M479.7 1298.5l-.9 123.4 9-12.7 1.2-68.8c-2.9-12.9-6.1-27.2-9.3-41.9z"/><path fill="#2d2c2f" d="M489 1340.3l-1.2 68.8 12.6-17.9s-4.9-21.4-11.4-50.9z"/><path fill="#4d4d4d" d="M431.7 1184.3l.8 274.7c2.3 6.3 4.7 12.5 7.2 18.5l11.8-16.7-1.5-284-18.3 7.5z"/><path fill="#2d2c2f" d="M380.7 1205.6s14.6 150.5 51.8 253.4l-.8-274.7-51 21.3z"/><path d="M492.9 1458.2c1.9 2.7 3.4 7.9-3.6 8.3.4 6.7-5.5 6.7-7.8 1.9-1.6-3.4-5.9-18-1.3-18.3 2.9-.3 8.1 1.6 12.7 8.1zm-13.6-9.7c-3 2.4-3.3-8.5-.5-9.9 2.9-1.4 2 8.7.5 9.9z" fill="#ffe2e1"/><path fill="#262626" d="M416.4 1193.4c.1 1.3-.9 2.3-2.1 2.4s-2.3-.9-2.4-2.1c-.1-1.3.9-2.3 2.1-2.4 1.2-.1 2.3.8 2.4 2.1z"/></svg>