<svg xmlns="http://www.w3.org/2000/svg" xmlns:xlink="http://www.w3.org/1999/xlink" viewBox="0 0 2500 2000"><defs><path id="a" d="M147.1 1068.9c2.3 455.5 286 704.3 533.5 709.7 247.5 5.4 187.3-95.4 374-109.7s318.7 104.1 492.7 70.9 124.4-175.8 264.6-216.1 205.5 44.5 317-.6c160.8-65.1 266.5-587.3 207.7-852.5s-220-505-536-364.3c-343.4 152.9-568.8-93.9-885.1-45.6-240.4 36.5-771.2 248.3-768.4 808.2z" class="js-blob-mask" data-blob-array="M147.1,1068.9c2.3,455.5,286,704.3,533.5,709.7c247.5,5.4,187.3-95.4,374-109.7s318.7,104.1,492.7,70.9 s124.4-175.8,264.6-216.1s205.5,44.5,317-0.6c160.8-65.1,266.5-587.3,207.7-852.5s-220-505-536-364.3 c-343.4,152.9-568.8-93.9-885.1-45.6C675.1,297.2,144.3,509,147.1,1068.9z;M147.1,1068.9c2.3,455.5,286,704.3,533.5,709.7c247.5,5.4,187.3-95.4,374-109.7s318.7,104.1,492.7,70.9 s124.4-175.8,264.6-216.1s205.5,44.5,317-0.6c160.8-65.1,266.5-587.3,207.7-852.5s-220-505-536-364.3 c-343.4,152.9-568.8-93.9-885.1-45.6C675.1,297.2,144.3,509,147.1,1068.9z"/></defs><clipPath id="b"><use overflow="visible" xlink:href="#a"/></clipPath><path fill="#fe9287" d="M-485.4-184.7h3387.7v2103.1H-485.4z" clip-path="url(#b)"/><path fill="#ffe2e1" d="M-485.4-301.9h3387.7v1657.3H-485.4z" clip-path="url(#b)"/><path fill="#fe9287" d="M2902.3 1354.9H-485.4v-440s290.4-61.7 387.2-61.7c235 0 524.1 276.5 939.9 363.1 503.9 104.9 1036.9-10.1 1221.9-43 488.6-86.8 838.7 181.6 838.7 181.6z" clip-path="url(#b)" opacity=".5"/><path fill="#ff6f68" d="M-485.4 1355.4h3387.7v20.2H-485.4z" clip-path="url(#b)"/><path fill="#fc2826" d="M1714.5 1384.1c-90 0-86.2 22.1 13.9 33.9 100.2 11.8 172.7.2 190.1 12.8 33.7 24.3 45.1 152.6 203 106.3 157.9-46.4 218.4-153.1 171.9-153.1-42.9 0-578.9.1-578.9.1z" clip-path="url(#b)" opacity=".2"/><g clip-path="url(#b)"><path fill="#2d2c2f" d="M254.4 1599.1c-51.5-1.4-118.9 1.1-97.1 10.7s54.4 0 110.5 4.7c51.2 4.3 106.5-4.9 86.6-10.1-16.8-4.3-28.1-3.3-100-5.3z" opacity=".45"/><path fill="#fff" d="M203.9 1502.3c-3.5 24.2-1.7 102.2 82.4 102.2 82.9 0 90.7-72.1 79.1-102.2s-51.2-42.7-91.3-42.2c-40.1.5-67.1 20.5-70.2 42.2z"/><path fill="#ffe2e1" d="M365.4 1502.3c-11.6-30.1-51.2-42.7-91.3-42.2-31.3.4-54.6 12.7-64.8 28.4 48.3-27 38.2 52.2 82.4 54.5 53.3 2.7 59.1 37.2 71.9 16.5 8.3-20.7 7.1-43.4 1.8-57.2zm-162.4 8.8c-1 20.8 2.9 56.9 29.8 77.5 12.4 9.5 52.7-2.8 11.3-22.7-35.4-16.9-41-56.5-41.1-54.8z"/><path fill="#ff6f68" d="M211.7 1500c0 21.9 35.2 36.8 71.3 37.2 38.6.5 83.7-13.5 75.5-37.2-7.5-21.6-49-36.2-82.4-35.8s-64.4 17.6-64.4 35.8z"/><path fill="#ff3f3d" d="M354 1499.1c-2.1-5-7-8.3-12.5-8.7-11-.7-20.6-2.5-31.5 1.8-9.1 3-36.2 14.4-48.3 12.6-8-1.2-10 2.3-1.8 8 12.9 8.9 45.2 3.1 56.3 10.1 1.9 1.9-12.1 9.3-6.1 8.6 27.6-4.5 50.4-13.8 44.5-31-.2-.5-.4-.9-.6-1.4z"/></g><g clip-path="url(#b)"><path fill="#fe9287" d="M1521.4 324.4h454.8v545.1h-454.8z" opacity=".5"/><path fill="#fff" d="M1521.4 317.9h454.8V863h-454.8z"/><path fill="#ffe2e1" d="M1708.3 434.5c52.3-16 90.8-52.9 132.8-89.4h-297.2v122.8c10.5-9.3 23.2-16.3 38.2-19.6 42.4-10.4 84.9 0 126.2-13.8zm-114.7 328.1c-14.8-7.7-32.1-11.7-49.6-11.9v85.2h409.7V660c-30.1 32.6-57 69.6-84.7 103.7-70.1 85-190.6 42.5-275.4-1.1z"/><path fill="#fe9287" d="M1953.6 573.2V345h-112.5c-42.1 36.5-80.5 73.4-132.8 89.4-41.3 13.8-83.8 3.4-126.2 13.8-15 3.3-27.6 10.2-38.2 19.6v282.8c17.5.2 34.8 4.2 49.6 11.9 84.9 43.6 205.4 86 275.3 1.1 27.8-34.1 54.6-71.1 84.7-103.7V634l.1-60.8z" opacity=".5"/><path fill="#ffe2e1" d="M1735.1 669.5c-12.8 0-25.6-2.7-37.7-8-22.9-10.1-40.5-28.5-49.5-51.8-9.1-23.3-8.5-48.7 1.6-71.6 10.1-22.9 28.5-40.5 51.8-49.5 23.3-9.1 48.7-8.5 71.6 1.6s40.5 28.5 49.5 51.8c9.1 23.3 8.5 48.7-1.6 71.6-10.1 22.9-28.5 40.5-51.8 49.5-11 4.3-22.5 6.4-33.9 6.4zm0-183.9c-11 0-22.1 2.1-32.7 6.2-46.3 18-69.4 70.4-51.4 116.7s70.4 69.4 116.7 51.4c22.5-8.7 40.2-25.7 49.9-47.7 9.7-22 10.2-46.5 1.5-69s-25.7-40.2-47.7-49.9c-11.6-5.1-23.9-7.7-36.3-7.7z"/><path fill="#ffe2e1" d="M1735.1 586c-1.5 0-3-.3-4.4-.9-2.7-1.2-4.8-3.4-5.8-6.1-1.1-2.8-1-5.8.2-8.5s3.4-4.8 6.1-5.8c2.8-1.1 5.8-1 8.5.2s4.8 3.4 5.8 6.1c1.1 2.8 1 5.8-.2 8.5s-3.4 4.8-6.1 5.8c-1.4.4-2.8.7-4.1.7z"/><path fill="#fe9287" d="M1647.3 345.1h-3.7l37 95.3 3.6-.3z" opacity=".5"/><path fill="#ffe2e1" d="M1684.2 440.1l-3.6.3 140 360.4 3.2-1.5z"/><path fill="#fe9287" d="M1838 835.8l-14.2-36.5-3.2 1.5 13.7 35zM537.4 324.4h454.8v545.1H537.4z" opacity=".5"/><path fill="#fff" d="M535.5 315.8h454.8v545.1H535.5z"/><path fill="#fe9287" d="M835.6 342.9L558 620.5V640l297.1-297.1z"/><path fill="#ffe2e1" d="M967.7 424.5v-81.6H855.1L558 640v193.7h54.1l355.6-355.6zm0 146.6V501L635.1 833.7h114.7l217.9-218z"/><path fill="#fe9287" d="M967.7 631.8v-16.1l-217.9 218h21.8l196.1-196.2zm0 61.9l-139.9 140h139.9z"/><path fill="#ffe2e1" d="M967.7 674.8v-37.3L771.6 833.7h56.2l139.9-140z"/><path fill="#fe9287" d="M967.7 483.6v-5.5L612.1 833.7h23L967.7 501z"/><path fill="#ffe2e1" d="M558 342.9v277.6l277.6-277.6z"/></g><g clip-path="url(#b)"><clipPath id="c"/><path fill="#2d2c2f" d="M2111.7 1599.1c-51.5-1.4-118.9 1.1-97.1 10.7s54.4 0 110.5 4.7c51.2 4.3 106.5-4.9 86.6-10.1-16.7-4.3-28-3.3-100-5.3z" clip-path="url(#c)" opacity=".45"/><path fill="#fff" d="M2061.2 1502.3c-3.5 24.2-1.7 102.2 82.4 102.2 82.9 0 90.7-72.1 79.1-102.2-11.6-30.1-51.2-42.7-91.3-42.2-40.1.5-67 20.5-70.2 42.2z" clip-path="url(#c)"/><path fill="#ffe2e1" d="M2222.7 1502.3c-11.6-30.1-51.2-42.7-91.3-42.2-31.3.4-54.6 12.7-64.8 28.4 48.3-27 38.2 52.2 82.4 54.5 53.3 2.7 59.1 37.2 71.9 16.5 8.4-20.7 7.2-43.4 1.8-57.2zm-162.3 8.8c-1 20.8 2.9 56.9 29.8 77.5 12.4 9.5 52.7-2.8 11.3-22.7-35.4-16.9-41-56.5-41.1-54.8z" clip-path="url(#c)"/><path fill="#ff6f68" d="M2069 1500c0 21.9 35.2 36.8 71.3 37.2 38.6.5 83.7-13.5 75.5-37.2-7.5-21.6-49-36.2-82.4-35.8s-64.4 17.6-64.4 35.8z" clip-path="url(#c)"/><path fill="#ff3f3d" d="M2211.3 1499.1c-2.1-5-7-8.3-12.5-8.7-11-.7-20.6-2.5-31.5 1.8-9.1 3-36.2 14.4-48.3 12.6-8-1.2-10 2.3-1.8 8 12.9 8.9 45.2 3.1 56.3 10.1 1.9 1.9-12.1 9.3-6.1 8.6 27.6-4.5 50.4-13.8 44.5-31-.2-.5-.4-.9-.6-1.4z" clip-path="url(#c)"/></g><g clip-path="url(#b)"><path fill="none" stroke="#fff8f8" stroke-miterlimit="10" d="M600.3 1633.3H585m20.4-17.6l-15.2 2.1m20.4-19.7h-15.3m20.5-17.6l-15.3-2.2m20.4-15.5h-15.2m20.4-17.6l-15.3 2.1m20.5-19.7l-13.2-1.1m18.3-16.6h-15.2m20.4-17.6l-15.3-2.1m20.5-15.5h-15.3m20.4-17.7l-13.1 1.1m18.3-18.7h-15.3M1882 1631.2l-15.3 2.1m10.6-17.6H1862m10.5-15.5l-15.3-2.1m10.6-17.6h-15.3m10.5-19.8l-15.3 2.1m10.6-17.6H1843m10.5-15.5l-15.3-2.1m10.6-17.7h-15.3m10.5-19.7l-15.3 2.1m10.6-17.6H1824m10.5-16.6l-15.3-1.1m10.6-17.6h-15.3"/><path fill="#ffe2e1" d="M1870.2 1634.2l-55.7-196.2H653.6l-60 196.2z"/><path fill="#ff6f68" d="M1870.2 1634.2l-.1 3.4H593.9l-.3-3.4z"/><path fill="#fff8f8" d="M653.4 1441l-27.6 90.3-15.8 51.6-15.8 51.7 13.6-.4 31.5-103 27.5-90.2zm105.1 0l-19.7 78.1-3.4 13.5-13.1 51.6-12 50h11.5l22.9-90.7 3.4-13.4 9.6-38.1 12.9-51zm104.9 0l-15.8 79.4-2.7 13.5-10.3 51.5-9.7 48.8H836l18.3-91.8 2.7-13.4 7.5-38.1 10-49.9zm104.8 0l-11.8 80.7-1.9 13.5-7.5 51.5-7 47.5h10.4l13.5-93 1.9-13.4 5.5-38 7.1-48.8zm104.7 0l-7.6 82-1.3 13.5-4.7 51.4-4.3 46.3h9.8l8.6-94.1 1.3-13.4 3.5-38 4.3-47.7zm104.5 0l-3.3 83.3-.5 13.5-2 51.4-1.8 45h9.6l3.6-95.2.5-13.4 1.5-38 1.8-46.6zm115 83.5l-.6-38-.7-45.5h-9.4l1.2 84.6.2 13.5.8 51.3.6 43.8h9.6l-1.5-96.4zm108.8-1.2l-2.6-38-3-44.3h-9.7l5.9 85.9.9 13.5 3.5 51.3 2.9 42.5h9.8l-6.7-97.5zm108.9-1.1l-4.7-38-5.3-43.2H1490l10.6 87.2 1.6 13.5 6.3 51.2 5 41.3h10.3l-12.1-98.6zm108.8-1.1l-6.6-38-7.5-42.1h-10.9l15.5 88.6 2.4 13.4 9 51.2 7.1 40h11l-17.6-99.8zm108.9-1.2l-8.7-37.9-9.5-41h-12l.2.9 20.5 89 3.1 13.4 11.7 51.1 8.9 38.8h11.5l-22.6-100.9zm112.6 12.3l-14.5-51.3-11.4-39.9h-13.3l25.9 91.2 29 102 13.3-.1z"/></g><path fill="#fc2826" d="M445.9 1388.4c-28-.7-210.3-9-229.9 10.6-14.6 14.6 58.7 44.7 93.9 69.3 44 30.8 96.4 111.5 181.4 68 30.1-15.4 192.9-84.4 259.2-68 68.4 17 96.7-43.6 41.4-43.7-70.8-.2-132.7-3.1-203.6-4.4-51.2-1-96.2-30.8-142.4-31.8z" opacity=".2"/><path fill="#fc2826" d="M1403.5 1478.6c35.2-.4 231.7-6 256.3 7 18.3 9.6-96.7 22.8-128.7 57.4-43.7 47.2-216.9 64.4-268.2 43.7-35.5-14.4-196.1-55.7-274.9-50.5-87.7 5.7-98.6-32.9-29.2-33 88.9-.1 311.6-2.1 400.6-2.9 64-.6-13.8-21 44.1-21.7z" opacity=".1"/><path fill="#242326" d="M1176.4 684c-2.8 80.9 18 348.9 27.4 395s35.3 49 54.4 52c21.1 3.2 35.6 19.1 40.7-19s18.9-263.5 25.2-284.5 24.8-67.1-.2-108.3c-24.9-41.2-31.1-58.7-40.2-53.5-9 5.4-106.9 8.1-107.3 18.3z"/><path fill="#2d2c2f" d="M1324 719.2c-24.9-41.2-31.1-58.7-40.2-53.5-9.1 5.3-107 8-107.3 18.3-.8 23.6.4 63.3 2.7 108.7 20 26.6 58.8 40.7 91.7 31.8 8.5-2.1 18.1-31.6 24.5-26.3s-5.2 25.5-7.5 38c-7.3 41-12.8 78.9-24.5 118.3-6.4 22.4 3.2 50.1 24.5 58.6 6.1 2.2 12.7 2.6 19.3 1.7 5.9-77.9 13-174 16.9-187.4 6.3-21 24.8-67-.1-108.2z"/><path fill="#ff6f68" d="M1429.5 1355.2l13.5 16.5s15.9 14.9 22.3 24.4 14.4 16.2 8.2 25.9-8.7 12.9-13.9 21.1c-5.1 8 15.3 9.8 15.3 9.8l70.5-56s-20.6-22.5-25.7-26c-5.1-3.6-33.3-28.9-40.8-37.5s-49.4 21.8-49.4 21.8z"/><path fill="#242326" d="M1442.9 1371.7c-32.2-29.4-223.6-193.3-245.5-218.5s-2.5-46.9 17.5-57.7c19.9-10.8 69.1-8.5 139.4 61.2 62 61.5 120.7 149.4 133.6 169.3 1.5 2.3 1.1 5.5-1 7.3l-44 38.4z"/><path fill="#d1d1d1" d="M1462.4 1436.8c-4.3 6.5 8.7 24.9 8.7 24.9l76.5-66.8s-24.3-26.4-26.6-22.2c-7.7 14.3-6.3 15.6-17.9 29.3-10.5 12.4-19.7 16.3-22.1 16.4.5-4.3-6.8-8.5-9.5-5.6-3.1 3.1-1.3 12.3-9.1 24z"/><path fill="#2d2c2f" d="M1453.8 1447.2c12.3-22.9 15.5-32.2 17.7-34.5 2.7-2.9 10.1 1.4 9.5 5.6-1.5 10.9-17.1 27.7-2.5 20.8 25.1-11.9 28.1-8.5 28.1-8.5l-45.9 40.1h-43.2s-.1-2.6 4.1-7.2c3.7-4 27-6.6 32.2-16.3zm93.8-52.4c-1.5-4.4-15.9-15.9-15.9-15.9s-5.1 2.1-7.3 15.9 2.3 18.3 2.3 18.3l20.9-18.3z"/><defs><path id="d" d="M1453.8 1447.2c12.3-22.9 15.5-32.2 17.7-34.5 2.7-2.9 10.1 1.4 9.5 5.6-1.5 10.9-17.1 27.7-2.5 20.8 25.1-11.9 28.1-8.5 28.1-8.5l-45.9 40.1h-43.2s-.1-2.6 4.1-7.2c3.7-4 27-6.6 32.2-16.3zm93.8-52.4c-1.5-4.4-15.9-15.9-15.9-15.9s-5.1 2.1-7.3 15.9 2.3 18.3 2.3 18.3l20.9-18.3z"/></defs><clipPath id="e"><use overflow="visible" xlink:href="#d"/></clipPath><path fill="#4b4a4c" d="M1413.4 1394.3l-9.1-9.3 9.3-9.1 9.1 9.3-9.3 9.1zm9.1 9.3l-9.1-9.3-9.3 9.1 9.1 9.3 9.3-9.1zm18.4.2l-9.1-9.3-9.3 9.1 9.1 9.3 9.3-9.1zm-36.8-.4l-9.1-9.3-9.3 9.1 9.1 9.3 9.3-9.1zm-.2 18.3l-9.1-9.3-9.3 9.1 9.1 9.3 9.3-9.1zm18.4.3l-9.1-9.3-9.3 9.1 9.1 9.3 9.3-9.1zm37.6-73.2l-9.1-9.3-9.3 9.1 9.1 9.3 9.3-9.1zm-.2 18.4l-9.1-9.3-9.3 9.1 9.1 9.3 9.3-9.1zm18.4.2l-9.1-9.3-9.3 9.1 9.1 9.3 9.3-9.1zm-36.8-.4l-9.1-9.3-9.3 9.1 9.1 9.3 9.3-9.1zm-.2 18.4l-9.1-9.3-9.3 9.1 9.1 9.3 9.3-9.1zm18.4.2l-9.1-9.3-9.3 9.1 9.1 9.3 9.3-9.1zm-.3 18.4l-9.1-9.3-9.3 9.1 9.1 9.3 9.3-9.1zm-.2 18.4l-9.1-9.3-9.3 9.1 9.1 9.3 9.3-9.1zm18.4.2l-9.1-9.3-9.3 9.1 9.1 9.3 9.3-9.1zm-36.8-.4l-9.1-9.3-9.3 9.1 9.1 9.3 9.3-9.1zm-.2 18.4l-9.1-9.3-9.3 9.1 9.1 9.3 9.3-9.1zm18.4.2l-9.1-9.3-9.3 9.1 9.1 9.3 9.3-9.1zm37.7-73.2l-9.1-9.3-9.3 9.1 9.1 9.3 9.3-9.1zm-.3 18.4l-9.1-9.3-9.3 9.1 9.1 9.3 9.3-9.1zm18.5.2l-9.1-9.3-9.3 9.1 9.1 9.3 9.3-9.1zm-36.9-.4l-9.1-9.3-9.3 9.1 9.1 9.3 9.3-9.1zm-.2 18.4l-9.1-9.3-9.3 9.1 9.1 9.3 9.3-9.1zm18.4.2l-9.1-9.3-9.3 9.1 9.1 9.3 9.3-9.1zm-147.5 53.3l-9.1-9.3-9.3 9.1 9.1 9.3 9.3-9.1zm-.2 18.4l-9.1-9.3-9.3 9.1 9.1 9.3 9.3-9.1zm18.4.2l-9.1-9.3-9.3 9.1 9.1 9.3 9.3-9.1zm-36.8-.4l-9.1-9.3-9.3 9.1 9.1 9.3 9.3-9.1zm-.2 18.4l-9.1-9.3-9.3 9.1 9.1 9.3 9.3-9.1zm18.4.2l-9.1-9.3-9.3 9.1 9.1 9.3 9.3-9.1zm37.6-73.2l-9.1-9.3-9.3 9.1 9.1 9.3 9.3-9.1zm-.2 18.4l-9.1-9.3-9.3 9.1 9.1 9.3 9.3-9.1zm18.4.2l-9.1-9.3-9.3 9.1 9.1 9.3 9.3-9.1zm-36.8-.4l-9.1-9.3-9.3 9.1 9.1 9.3 9.3-9.1zm-.2 18.4l-9.1-9.3-9.3 9.1 9.1 9.3 9.3-9.1zm18.4.2l-9.1-9.3-9.3 9.1 9.1 9.3 9.3-9.1zm-.2 18.4l-9.1-9.3-9.3 9.1 9.1 9.3 9.3-9.1zm-.2 18.4l-9.1-9.3-9.3 9.1 9.1 9.3 9.3-9.1zm18.4.2l-9.1-9.3-9.3 9.1 9.1 9.3 9.3-9.1zm-36.8-.4l-9.1-9.3-9.3 9.1 9.1 9.3 9.3-9.1zm-.2 18.4l-9.1-9.3-9.3 9.1 9.1 9.3 9.3-9.1zm18.4.2l-9.1-9.3-9.3 9.1 9.1 9.3 9.3-9.1zm37.6-73.2l-9.1-9.3-9.3 9.1 9.1 9.3 9.3-9.1zm-.2 18.4l-9.1-9.3-9.3 9.1 9.1 9.3 9.3-9.1zm18.4.2l-9.1-9.3-9.3 9.1 9.1 9.3 9.3-9.1zm-36.8-.4l-9.1-9.3-9.3 9.1 9.1 9.3 9.3-9.1zm-.2 18.4l-9.1-9.3-9.3 9.1 9.1 9.3 9.3-9.1zm18.4.2l-9.1-9.3-9.3 9.1 9.1 9.3 9.3-9.1zm55.3-35.9l-9.1-9.3-9.3 9.1 9.1 9.3 9.3-9.1zm-.2 18.4l-9.1-9.3-9.3 9.1 9.1 9.3 9.3-9.1zm18.4.2l-9.1-9.3-9.3 9.1 9.1 9.3 9.3-9.1zm-36.8-.4l-9.1-9.3-9.3 9.1 9.1 9.3 9.3-9.1zm-.2 18.4l-9.1-9.3-9.3 9.1 9.1 9.3 9.3-9.1zm18.4.2l-9.1-9.3-9.3 9.1 9.1 9.3 9.3-9.1zm37.6-73.2l-9.1-9.3-9.3 9.1 9.1 9.3 9.3-9.1zm-.2 18.4l-9.1-9.3-9.3 9.1 9.1 9.3 9.3-9.1zm18.4.2l-9.1-9.3-9.3 9.1 9.1 9.3 9.3-9.1zm-36.8-.4l-9.1-9.3-9.3 9.1 9.1 9.3 9.3-9.1zm-.2 18.4l-9.1-9.3-9.3 9.1 9.1 9.3 9.3-9.1zm18.4.2l-9.1-9.3-9.3 9.1 9.1 9.3 9.3-9.1zm-.2 18.4l-9.1-9.3-9.3 9.1 9.1 9.3 9.3-9.1zm-.2 18.4l-9.1-9.3-9.3 9.1 9.1 9.3 9.3-9.1zm18.4.2l-9.1-9.3-9.3 9.1 9.1 9.3 9.3-9.1zm-36.8-.4l-9.1-9.3-9.3 9.1 9.1 9.3 9.3-9.1zm-.2 18.4l-9.1-9.3-9.3 9.1 9.1 9.3 9.3-9.1zm18.4.2l-9.1-9.3-9.3 9.1 9.1 9.3 9.3-9.1zm37.6-73.2l-9.1-9.3-9.3 9.1 9.1 9.3 9.3-9.1zm-.2 18.4l-9.1-9.3-9.3 9.1 9.1 9.3 9.3-9.1zm18.4.2l-9.1-9.3-9.3 9.1 9.1 9.3 9.3-9.1zm-36.8-.4l-9.1-9.3-9.3 9.1 9.1 9.3 9.3-9.1zm-.2 18.4l-9.1-9.3-9.3 9.1 9.1 9.3 9.3-9.1zm18.4.2l-9.1-9.3-9.3 9.1 9.1 9.3 9.3-9.1zm-147.5 53.3l-9.1-9.3-9.3 9.1 9.1 9.3 9.3-9.1zm-.2 18.4l-9.1-9.3-9.3 9.1 9.1 9.3 9.3-9.1zm18.4.2l-9.1-9.3-9.3 9.1 9.1 9.3 9.3-9.1zm-36.8-.4l-9.1-9.3-9.3 9.1 9.1 9.3 9.3-9.1zm-.2 18.4l-9.1-9.3-9.3 9.1 9.1 9.3 9.3-9.1zm18.4.2l-9.1-9.3-9.3 9.1 9.1 9.3 9.3-9.1zm37.6-73.2l-9.1-9.3-9.3 9.1 9.1 9.3 9.3-9.1zm-.2 18.4l-9.1-9.3-9.3 9.1 9.1 9.3 9.3-9.1zm18.4.2l-9.1-9.3-9.3 9.1 9.1 9.3 9.3-9.1zm-36.8-.4l-9.1-9.3-9.3 9.1 9.1 9.3 9.3-9.1zm-.2 18.4l-9.1-9.3-9.3 9.1 9.1 9.3 9.3-9.1zm18.4.2l-9.1-9.3-9.3 9.1 9.1 9.3 9.3-9.1zm-.2 18.4l-9.1-9.3-9.3 9.1 9.1 9.3 9.3-9.1zm-.3 18.4l-9.1-9.3-9.3 9.1 9.1 9.3 9.3-9.1zm18.5.2l-9.1-9.3-9.3 9.1 9.1 9.3 9.3-9.1zm-36.9-.4l-9.1-9.3-9.3 9.1 9.1 9.3 9.3-9.1zm-.2 18.4l-9.1-9.3-9.3 9.1 9.1 9.3 9.3-9.1zm18.4.2l-9.1-9.3-9.3 9.1 9.1 9.3 9.3-9.1zm37.7-73.2l-9.1-9.3-9.3 9.1 9.1 9.3 9.3-9.1zm-.2 18.4l-9.1-9.3-9.3 9.1 9.1 9.3 9.3-9.1zm18.4.2l-9.1-9.3-9.3 9.1 9.1 9.3 9.3-9.1zm-36.8-.4l-9.1-9.3-9.3 9.1 9.1 9.3 9.3-9.1zm-.3 18.4l-9.1-9.3-9.3 9.1 9.1 9.3 9.3-9.1zm18.5.2l-9.1-9.3-9.3 9.1 9.1 9.3 9.3-9.1zm95.1-292.8l-9.1-9.3-9.3 9.1 9.1 9.3 9.3-9.1zm-.2 18.4l-9.1-9.3-9.3 9.1 9.1 9.3 9.3-9.1zm18.4.2l-9.1-9.3-9.3 9.1 9.1 9.3 9.3-9.1zm-36.8-.4l-9.1-9.3-9.3 9.1 9.1 9.3 9.3-9.1zm-.2 18.4l-9.1-9.3-9.3 9.1 9.1 9.3 9.3-9.1zm18.4.2l-9.1-9.3-9.3 9.1 9.1 9.3 9.3-9.1zm37.6-73.2l-9.1-9.3-9.3 9.1 9.1 9.3 9.3-9.1zm-.2 18.4l-9.1-9.3-9.3 9.1 9.1 9.3 9.3-9.1zm18.4.2l-9.1-9.3-9.3 9.1 9.1 9.3 9.3-9.1zm-36.8-.4l-9.1-9.3-9.3 9.1 9.1 9.3 9.3-9.1zm-.2 18.4l-9.1-9.3-9.3 9.1 9.1 9.3 9.3-9.1zm18.4.2l-9.1-9.3-9.3 9.1 9.1 9.3 9.3-9.1zm-.3 18.4l-9.1-9.3-9.3 9.1 9.1 9.3 9.3-9.1zm-.2 18.4l-9.1-9.3-9.3 9.1 9.1 9.3 9.3-9.1zm18.4.2l-9.1-9.3-9.3 9.1 9.1 9.3 9.3-9.1zm-36.8-.4l-9.1-9.3-9.3 9.1 9.1 9.3 9.3-9.1zm-.2 18.4l-9.1-9.3-9.3 9.1 9.1 9.3 9.3-9.1zm18.4.2l-9.1-9.3-9.3 9.1 9.1 9.3 9.3-9.1zm37.7-73.2l-9.1-9.3-9.3 9.1 9.1 9.3 9.3-9.1zm-.3 18.4l-9.1-9.3-9.3 9.1 9.1 9.3 9.3-9.1zm18.5.2l-9.1-9.3-9.3 9.1 9.1 9.3 9.3-9.1zm-36.9-.4l-9.1-9.3-9.3 9.1 9.1 9.3 9.3-9.1zm-.2 18.4l-9.1-9.3-9.3 9.1 9.1 9.3 9.3-9.1zm18.4.2l-9.1-9.3-9.3 9.1 9.1 9.3 9.3-9.1zm-147.5 53.3l-9.1-9.3-9.3 9.1 9.1 9.3 9.3-9.1zm-.2 18.4l-9.1-9.3-9.3 9.1 9.1 9.3 9.3-9.1zm18.4.2l-9.1-9.3-9.3 9.1 9.1 9.3 9.3-9.1zm-36.8-.4l-9.1-9.3-9.3 9.1 9.1 9.3 9.3-9.1zm-.2 18.4l-9.1-9.3-9.3 9.1 9.1 9.3 9.3-9.1zm18.4.2l-9.1-9.3-9.3 9.1 9.1 9.3 9.3-9.1zm37.6-73.2l-9.1-9.3-9.3 9.1 9.1 9.3 9.3-9.1zm-.2 18.4l-9.1-9.3-9.3 9.1 9.1 9.3 9.3-9.1zm18.4.2l-9.1-9.3-9.3 9.1 9.1 9.3 9.3-9.1zm-36.8-.4l-9.1-9.3-9.3 9.1 9.1 9.3 9.3-9.1zm-.2 18.4l-9.1-9.3-9.3 9.1 9.1 9.3 9.3-9.1zm18.4.2l-9.1-9.3-9.3 9.1 9.1 9.3 9.3-9.1zm-.2 18.4l-9.1-9.3-9.3 9.1 9.1 9.3 9.3-9.1zm-.2 18.4l-9.1-9.3-9.3 9.1 9.1 9.3 9.3-9.1zm18.4.2l-9.1-9.3-9.3 9.1 9.1 9.3 9.3-9.1zm-36.8-.4l-9.1-9.3-9.3 9.1 9.1 9.3 9.3-9.1zm-.2 18.4l-9.1-9.3-9.3 9.1 9.1 9.3 9.3-9.1zm18.4.2l-9.1-9.3-9.3 9.1 9.1 9.3 9.3-9.1zm37.6-73.1l-9.1-9.3-9.3 9.1 9.1 9.3 9.3-9.1zm-.2 18.3l-9.1-9.3-9.3 9.1 9.1 9.3 9.3-9.1zm18.4.2l-9.1-9.3-9.3 9.1 9.1 9.3 9.3-9.1zm-36.8-.4l-9.1-9.3-9.3 9.1 9.1 9.3 9.3-9.1zm-.2 18.4l-9.1-9.3-9.3 9.1 9.1 9.3 9.3-9.1zm18.4.2l-9.1-9.3-9.3 9.1 9.1 9.3 9.3-9.1zm55.3-35.9l-9.1-9.3-9.3 9.1 9.1 9.3 9.3-9.1zm-.2 18.4l-9.1-9.3-9.3 9.1 9.1 9.3 9.3-9.1zm18.4.2l-9.1-9.3-9.3 9.1 9.1 9.3 9.3-9.1zm-36.8-.4l-9.1-9.3-9.3 9.1 9.1 9.3 9.3-9.1zm-.2 18.4l-9.1-9.3-9.3 9.1 9.1 9.3 9.3-9.1zm18.4.2l-9.1-9.3-9.3 9.1 9.1 9.3 9.3-9.1zm37.6-73.2l-9.1-9.3-9.3 9.1 9.1 9.3 9.3-9.1zm-.2 18.4l-9.1-9.3-9.3 9.1 9.1 9.3 9.3-9.1zm18.4.2l-9.1-9.3-9.3 9.1 9.1 9.3 9.3-9.1zm-36.8-.4l-9.1-9.3-9.3 9.1 9.1 9.3 9.3-9.1zm-.2 18.4l-9.1-9.3-9.3 9.1 9.1 9.3 9.3-9.1zm18.4.2l-9.1-9.3-9.3 9.1 9.1 9.3 9.3-9.1zm-.2 18.4l-9.1-9.3-9.3 9.1 9.1 9.3 9.3-9.1zm-.2 18.4l-9.1-9.3-9.3 9.1 9.1 9.3 9.3-9.1zm18.4.2l-9.1-9.3-9.3 9.1 9.1 9.3 9.3-9.1zm-36.8-.4l-9.1-9.3-9.3 9.1 9.1 9.3 9.3-9.1zm-.2 18.4l-9.1-9.3-9.3 9.1 9.1 9.3 9.3-9.1zm18.4.2l-9.1-9.3-9.3 9.1 9.1 9.3 9.3-9.1zm37.6-73.1l-9.1-9.3-9.3 9.1 9.1 9.3 9.3-9.1zm-.2 18.3l-9.1-9.3-9.3 9.1 9.1 9.3 9.3-9.1zm18.4.3l-9.1-9.3-9.3 9.1 9.1 9.3 9.3-9.1zm-36.8-.5l-9.1-9.3-9.3 9.1 9.1 9.3 9.3-9.1zm-.2 18.4l-9.1-9.3-9.3 9.1 9.1 9.3 9.3-9.1zm18.4.2l-9.1-9.3-9.3 9.1 9.1 9.3 9.3-9.1zm-147.5 53.3l-9.1-9.3-9.3 9.1 9.1 9.3 9.3-9.1zm-.2 18.4l-9.1-9.3-9.3 9.1 9.1 9.3 9.3-9.1zm18.4.2l-9.1-9.3-9.3 9.1 9.1 9.3 9.3-9.1zm-36.8-.4l-9.1-9.3-9.3 9.1 9.1 9.3 9.3-9.1zm-.2 18.4l-9.1-9.3-9.3 9.1 9.1 9.3 9.3-9.1zm18.4.2l-9.1-9.3-9.3 9.1 9.1 9.3 9.3-9.1zm37.6-73.2l-9.1-9.3-9.3 9.1 9.1 9.3 9.3-9.1zm-.2 18.4l-9.1-9.3-9.3 9.1 9.1 9.3 9.3-9.1zm18.4.2l-9.1-9.3-9.3 9.1 9.1 9.3 9.3-9.1zm-36.8-.4l-9.1-9.3-9.3 9.1 9.1 9.3 9.3-9.1zm-.2 18.4l-9.1-9.3-9.3 9.1 9.1 9.3 9.3-9.1zm18.4.2l-9.1-9.3-9.3 9.1 9.1 9.3 9.3-9.1zm-.2 18.4l-9.1-9.3-9.3 9.1 9.1 9.3 9.3-9.1zm-.3 18.4l-9.1-9.3-9.3 9.1 9.1 9.3 9.3-9.1zm18.5.2l-9.1-9.3-9.3 9.1 9.1 9.3 9.3-9.1zm-36.9-.4l-9.1-9.3-9.3 9.1 9.1 9.3 9.3-9.1zm-.2 18.4l-9.1-9.3-9.3 9.1 9.1 9.3 9.3-9.1zm18.4.2l-9.1-9.3-9.3 9.1 9.1 9.3 9.3-9.1zm37.7-73.1l-9.1-9.3-9.3 9.1 9.1 9.3 9.3-9.1zm-.2 18.4l-9.1-9.3-9.3 9.1 9.1 9.3 9.3-9.1zm18.4.2l-9.1-9.3-9.3 9.1 9.1 9.3 9.3-9.1zm-36.8-.4l-9.1-9.3-9.3 9.1 9.1 9.3 9.3-9.1zm-.3 18.3l-9.1-9.3-9.3 9.1 9.1 9.3 9.3-9.1zm18.5.3l-9.1-9.3-9.3 9.1 9.1 9.3 9.3-9.1z" clip-path="url(#e)"/><path fill="#fff" d="M1553.2 1407l-79.8 70.1c-4 3.5-9.2 5.5-14.5 5.5h-34.8c-3.6 0-6.6-3-6.6-6.6v-5.2h32.4c7 0 13.7-2.5 18.9-7.1l78.7-68.7 6 6.9c1.4 1.4 1.2 3.7-.3 5.1z"/><path fill="none" stroke="#4b4a4c" stroke-linecap="round" stroke-linejoin="round" stroke-miterlimit="10" d="M1431.9 1361.9l47.1-42.2m-240.7-166.3c45.1 47 205.4 198 205.4 198M1285.1 1112s-32.4 1.9-28.6 7.7c3.8 5.8 14.5-.2 14.5-.2m54.5-394.6c-3.5.6-7.4.5-11.9-.8-5.7-1.7 10.8 47.6 20.6 45.5.6-.1 1.2-.4 1.8-.9"/><path fill="#2d2c2f" d="M1159.8 671.2c-17.3 79.1-44.9 346.4-44 393.5s30.3 54.2 49.6 53.4c19.4-.8 38.6 11.3 50.4-25.3 11.8-36.6 53.6-234.4 63.5-254s36.4-61.5 19.3-106.5-20.1-63.4-29.9-59.8-106.7-11.3-108.9-1.3z"/><path fill="#ff6f68" d="M1176.2 1371.7c-.4 9.9 5.9 38.9 5.9 38.9s2.1 21.7.7 33c-1.4 11.4.2 21.7-10.8 24.9s-62 21.1-71.3 23.9c-9.1 2.7-12.8 4.5-12.8 4.5h154.8s-.8-30.5-2.2-36.5c-1.5-6-6.1-43.7-6.1-55.1s-58.2-33.6-58.2-33.6z"/><path fill="#2d2c2f" d="M1182.3 1411.3c-.8.1-1.5-.5-1.7-1.3-8.6-46.9-62.4-305.2-64.5-338.2-2.1-33.3 29.2-21.9 51.6-18.4s60 35.3 73.4 133.4c11.8 86.4 5 191.7 3.2 215.5-.2 2.9-2.5 5.1-5.4 5.3l-56.6 3.7z"/><path fill="#d1d1d1" d="M1104.4 1493.5c-7.6 1.5-20.8 3.4-20.8 3.4h162.2s-.9-35.9-5.5-34.2c-15.2 5.7-15 7.6-32.8 10.3-16.1 2.4-25.6-.7-27.5-2.2 3.2-2.9.5-10.9-3.5-10.5-4.3.4-44.7 27.9-72.1 33.2z"/><path fill="#2d2c2f" d="M1176.6 1460.3c4-.4 6.7 7.7 3.5 10.5-8.3 7.2-31.1 9.6-15.5 14 26.7 7.6 26.7 12.1 26.7 12.1h-107.7s-.1-3.4 11.8-6.3c27-6.7 76.8-29.9 81.2-30.3zm69.1 36.6c1.8-4.3-1.5-22.4-1.5-22.4s-5.2-1.8-15.9 7.2c-10.7 8.9-10.3 15.3-10.3 15.3l27.7-.1z"/><defs><path id="f" d="M1176.6 1460.3c4-.4 6.7 7.7 3.5 10.5-8.3 7.2-31.1 9.6-15.5 14 26.7 7.6 26.7 12.1 26.7 12.1h-107.7s-.1-3.4 11.8-6.3c27-6.7 76.8-29.9 81.2-30.3zm69.1 36.6c1.8-4.3-1.5-22.4-1.5-22.4s-5.2-1.8-15.9 7.2c-10.7 8.9-10.3 15.3-10.3 15.3l27.7-.1z"/></defs><clipPath id="g"><use overflow="visible" xlink:href="#f"/></clipPath><path fill="#4b4a4c" d="M1116.3 1396l.4-13 13 .4-.4 13-13-.4zm-.4 13l.4-13-13-.4-.4 13 13 .4zm12.6 13.4l.4-13-13-.4-.4 13 13 .4zm-25.2-26.7l.4-13-13-.4-.4 13 13 .4zm-13.4 12.6l.4-13-13-.4-.4 13 13 .4zm12.6 13.4l.4-13-13-.4-.4 13 13 .4zm78.8-23.7l.4-13-13-.4-.4 13 13 .4zm-13.4 12.6l.4-13-13-.4-.4 13 13 .4zm12.6 13.4l.4-13-13-.4-.4 13 13 .4zm-25.2-26.8l.4-13-13-.4-.4 13 13 .4zm-13.4 12.6l.4-13-13-.4-.4 13 13 .4zm12.6 13.4l.4-13-13-.4-.4 13 13 .4zm-13.4 12.6l.4-13-13-.4-.4 13 13 .4zm-13.4 12.6l.4-13-13-.4-.4 13 13 .4zm12.6 13.4l.4-13-13-.4-.4 13 13 .4zm-25.2-26.7l.4-13-13-.4-.4 13 13 .4zm-13.4 12.6l.4-13-13-.4-.4 13 13 .4zm12.6 13.4l.4-13-13-.4-.4 13 13 .4zm78.8-23.7l.4-13-13-.4-.4 13 13 .4zm-13.4 12.6l.4-13-13-.4-.4 13 13 .4zm12.7 13.4l.4-13-13-.4-.4 13 13 .4zm-25.3-26.8l.4-13-13-.4-.4 13 13 .4zm-13.4 12.6l.4-13-13-.4-.4 13 13 .4zm12.6 13.4l.4-13-13-.4-.4 13 13 .4zm-140.7-69.3l.4-13-13-.4-.4 13 13 .4zm-13.4 12.6l.4-13-13-.4-.4 13 13 .4zm12.6 13.4l.4-13-13-.4-.4 13 13 .4zm-25.2-26.7l.4-13-13-.4-.4 13 13 .4zm-13.4 12.6l.4-13-13-.4-.4 13 13 .4zm12.6 13.4l.4-13-13-.4-.4 13 13 .4zm78.8-23.7l.4-13-13-.4-.4 13 13 .4zm-13.4 12.6l.4-13-13-.4-.4 13 13 .4zm12.7 13.4l.4-13-13-.4-.4 13 13 .4zm-25.3-26.8l.4-13-13-.4-.4 13 13 .4zm-13.4 12.6l.4-13-13-.4-.4 13 13 .4zm12.6 13.4l.4-13-13-.4-.4 13 13 .4zm-13.4 12.6l.4-13-13-.4-.4 13 13 .4zm-13.3 12.6l.4-13-13-.4-.4 13 13 .4zm12.6 13.4l.4-13-13-.4-.4 13 13 .4zm-25.3-26.7l.4-13-13-.4-.4 13 13 .4zm-13.4 12.6l.4-13-13-.4-.4 13 13 .4zm12.7 13.4l.4-13-13-.4-.4 13 13 .4zm78.8-23.7l.4-13-13-.4-.4 13 13 .4zm-13.4 12.6l.4-13-13-.4-.4 13 13 .4zm12.6 13.4l.4-13-13-.4-.4 13 13 .4zm-25.3-26.8l.4-13-13-.4-.4 13 13 .4zm-13.4 12.6l.4-13-13-.4-.4 13 13 .4zm12.7 13.4l.4-13-13-.4-.4 13 13 .4zm64.3 15l.4-13-13-.4-.4 13 13 .4zm-13.4 12.6l.4-13-13-.4-.4 13 13 .4zm12.6 13.4l.4-13-13-.4-.4 13 13 .4zm-25.3-26.8l.4-13-13-.4-.4 13 13 .4zm-13.3 12.6l.4-13-13-.4-.4 13 13 .4zm12.6 13.4l.4-13-13-.4-.4 13 13 .4zm78.8-23.7l.4-13-13-.4-.4 13 13 .4zm-13.4 12.6l.4-13-13-.4-.4 13 13 .4zm12.6 13.4l.4-13-13-.4-.4 13 13 .4zm-25.2-26.8l.4-13-13-.4-.4 13 13 .4zm-13.4 12.6l.4-13-13-.4-.4 13 13 .4zm12.6 13.4l.4-13-13-.4-.4 13 13 .4zm-13.4 12.7l.4-13-13-.4-.4 13 13 .4zm-13.4 12.6l.4-13-13-.4-.4 13 13 .4zm12.6 13.4l.4-13-13-.4-.4 13 13 .4zm-25.2-26.8l.4-13-13-.4-.4 13 13 .4zm-13.4 12.6l.4-13-13-.4-.4 13 13 .4zm12.6 13.4l.4-13-13-.4-.4 13 13 .4zm78.8-23.7l.4-13-13-.4-.4 13 13 .4zm-13.4 12.6l.4-13-13-.4-.4 13 13 .4zm12.6 13.4l.4-13-13-.4-.4 13 13 .4zm-25.2-26.8l.4-13-13-.4-.4 13 13 .4zm-13.4 12.6l.4-13-13-.4-.4 13 13 .4zm12.6 13.4l.4-13-13-.4-.4 13 13 .4zm-140.7-69.2l.4-13-13-.4-.4 13 13 .4zm-13.4 12.6l.4-13-13-.4-.4 13 13 .4zm12.6 13.4l.4-13-13-.4-.4 13 13 .4zm-25.2-26.8l.4-13-13-.4-.4 13 13 .4zm-13.4 12.6l.4-13-13-.4-.4 13 13 .4zm12.6 13.4l.4-13-13-.4-.4 13 13 .4zm78.8-23.7l.4-13-13-.4-.4 13 13 .4zm-13.4 12.6l.4-13-13-.4-.4 13 13 .4zm12.6 13.4l.4-13-13-.4-.4 13 13 .4zm-25.2-26.8l.4-13-13-.4-.4 13 13 .4zm-13.4 12.6l.4-13-13-.4-.4 13 13 .4zm12.6 13.4l.4-13-13-.4-.4 13 13 .4zm-13.4 12.7l.4-13-13-.4-.4 13 13 .4zm-13.4 12.6l.4-13-13-.4-.4 13 13 .4zm12.6 13.4l.4-13-13-.4-.4 13 13 .4zm-25.2-26.8l.4-13-13-.4-.4 13 13 .4zm-13.4 12.6l.4-13-13-.4-.4 13 13 .4zm12.6 13.4l.4-13-13-.4-.4 13 13 .4zm78.8-23.7l.4-13-13-.4-.4 13 13 .4zm-13.4 12.6l.4-13-13-.4-.4 13 13 .4zm12.7 13.4l.4-13-13-.4-.4 13 13 .4zm-25.3-26.8l.4-13-13-.4-.4 13 13 .4zm-13.4 12.6l.4-13-13-.4-.4 13 13 .4zm12.6 13.4l.4-13-13-.4-.4 13 13 .4zm276.9-134.6l.4-13-13-.4-.4 13 13 .4zm-13.4 12.6l.4-13-13-.4-.4 13 13 .4zm12.6 13.4l.4-13-13-.4-.4 13 13 .4zm-25.2-26.8l.4-13-13-.4-.4 13 13 .4zm-13.4 12.6l.4-13-13-.4-.4 13 13 .4zm12.6 13.4l.4-13-13-.4-.4 13 13 .4zm78.8-23.7l.4-13-13-.4-.4 13 13 .4zm-13.4 12.6l.4-13-13-.4-.4 13 13 .4zm12.7 13.4l.4-13-13-.4-.4 13 13 .4zm-25.3-26.8l.4-13-13-.4-.4 13 13 .4zm-13.4 12.7l.4-13-13-.4-.4 13 13 .4zm12.6 13.4l.4-13-13-.4-.4 13 13 .4zm-13.4 12.6l.4-13-13-.4-.4 13 13 .4zm-13.4 12.6l.4-13-13-.4-.4 13 13 .4zm12.7 13.4l.4-13-13-.4-.4 13 13 .4zm-25.3-26.8l.4-13-13-.4-.4 13 13 .4zm-13.4 12.6l.4-13-13-.4-.4 13 13 .4zm12.7 13.4l.4-13-13-.4-.4 13 13 .4zm78.7-23.7l.4-13-13-.4-.4 13 13 .4zm-13.3 12.6l.4-13-13-.4-.4 13 13 .4zm12.6 13.4l.4-13-13-.4-.4 13 13 .4zM1375 1443l.4-13-13-.4-.4 13 13 .4zm-13.4 12.7l.4-13-13-.4-.4 13 13 .4zm12.7 13.4l.4-13-13-.4-.4 13 13 .4zm-140.8-69.3l.4-13-13-.4-.4 13 13 .4zm-13.4 12.6l.4-13-13-.4-.4 13 13 .4zm12.7 13.4l.4-13-13-.4-.4 13 13 .4zm-25.3-26.8l.4-13-13-.4-.4 13 13 .4zm-13.4 12.6l.4-13-13-.4-.4 13 13 .4zm12.7 13.4l.4-13-13-.4-.4 13 13 .4zm78.7-23.7l.4-13-13-.4-.4 13 13 .4zm-13.3 12.6l.4-13-13-.4-.4 13 13 .4zm12.6 13.4l.4-13-13-.4-.4 13 13 .4zm-25.3-26.8l.4-13-13-.4-.4 13 13 .4zm-13.4 12.7l.4-13-13-.4-.4 13 13 .4zm12.7 13.4l.4-13-13-.4-.4 13 13 .4zm-13.4 12.6l.4-13-13-.4-.4 13 13 .4zm-13.4 12.6l.4-13-13-.4-.4 13 13 .4zm12.6 13.4l.4-13-13-.4-.4 13 13 .4zm-25.3-26.8l.4-13-13-.4-.4 13 13 .4zM1206 1451l.4-13-13-.4-.4 13 13 .4zm12.6 13.4l.4-13-13-.4-.4 13 13 .4zm78.8-23.7l.4-13-13-.4-.4 13 13 .4zm-13.4 12.6l.4-13-13-.4-.4 13 13 .4zm12.6 13.4l.4-13-13-.4-.4 13 13 .4zm-25.2-26.8l.4-13-13-.4-.4 13 13 .4zm-13.4 12.7l.4-13-13-.4-.4 13 13 .4zm12.6 13.4l.4-13-13-.4-.4 13 13 .4zm64.3 14.9l.4-13-13-.4-.4 13 13 .4zm-13.4 12.6l.4-13-13-.4-.4 13 13 .4zm12.6 13.4l.4-13-13-.4-.4 13 13 .4zm-25.2-26.8l.4-13-13-.4-.4 13 13 .4zm-13.4 12.6l.4-13-13-.4-.4 13 13 .4zm12.6 13.4l.4-13-13-.4-.4 13 13 .4zm78.8-23.7l.4-13-13-.4-.4 13 13 .4zm-13.4 12.7l.4-13-13-.4-.4 13 13 .4zm12.6 13.4l.4-13-13-.4-.4 13 13 .4zm-25.2-26.8l.4-13-13-.4-.4 13 13 .4zm-13.4 12.6l.4-13-13-.4-.4 13 13 .4zm12.6 13.4l.4-13-13-.4-.4 13 13 .4zm-13.4 12.6l.4-13-13-.4-.4 13 13 .4zm-13.4 12.6l.4-13-13-.4-.4 13 13 .4zm12.6 13.4l.4-13-13-.4-.4 13 13 .4zm-25.2-26.8l.4-13-13-.4-.4 13 13 .4zm-13.4 12.6l.4-13-13-.4-.4 13 13 .4zm12.6 13.4l.4-13-13-.4-.4 13 13 .4zm78.8-23.7l.4-13-13-.4-.4 13 13 .4zm-13.4 12.7l.4-13-13-.4-.4 13 13 .4zm12.7 13.4l.4-13-13-.4-.4 13 13 .4zm-25.3-26.8l.4-13-13-.4-.4 13 13 .4zm-13.4 12.6l.4-13-13-.4-.4 13 13 .4zm12.6 13.4l.4-13-13-.4-.4 13 13 .4zm-140.7-69.3l.4-13-13-.4-.4 13 13 .4zm-13.4 12.6l.4-13-13-.4-.4 13 13 .4zm12.6 13.4l.4-13-13-.4-.4 13 13 .4zm-25.2-26.8l.4-13-13-.4-.4 13 13 .4zm-13.4 12.6l.4-13-13-.4-.4 13 13 .4zm12.6 13.4l.4-13-13-.4-.4 13 13 .4zm78.8-23.7l.4-13-13-.4-.4 13 13 .4zm-13.4 12.7l.4-13-13-.4-.4 13 13 .4zm12.6 13.4l.4-13-13-.4-.4 13 13 .4zm-25.2-26.8l.4-13-13-.4-.4 13 13 .4zm-13.4 12.6l.4-13-13-.4-.4 13 13 .4zm12.6 13.4l.4-13-13-.4-.4 13 13 .4zm-13.4 12.6l.4-13-13-.4-.4 13 13 .4zm-13.4 12.6l.4-13-13-.4-.4 13 13 .4zm12.7 13.4l.4-13-13-.4-.4 13 13 .4zm-25.3-26.8l.4-13-13-.4-.4 13 13 .4zm-13.4 12.6l.4-13-13-.4-.4 13 13 .4zm12.7 13.4l.4-13-13-.4-.4 13 13 .4zm78.7-23.7l.4-13-13-.4-.4 13 13 .4zm-13.3 12.7l.4-13-13-.4-.4 13 13 .4zm12.6 13.4l.4-13-13-.4-.4 13 13 .4zM1269 1518l.4-13-13-.4-.4 13 13 .4zm-13.4 12.6l.4-13-13-.4-.4 13 13 .4zm12.7 13.4l.4-13-13-.4-.4 13 13 .4z" clip-path="url(#g)"/><path fill="#fff" d="M1242.2 1509.7h-155.3c-1.9 0-3.4-1.5-3.4-3.4v-9.4h162.2v9.4c-.1 1.9-1.6 3.4-3.5 3.4z"/><path fill="none" stroke="#4b4a4c" stroke-linecap="round" stroke-linejoin="round" stroke-miterlimit="10" d="M1179.8 1399.1l60.6-4.2m-37.7-706s-5.7 383.3-11.4 394.3c-6.4 12.3-3.1 20.5-1.6 23.6 6.1 12.4 31.5 289.3 31.5 289.3"/><path fill="none" stroke="#4b4a4c" stroke-linecap="round" stroke-linejoin="round" stroke-miterlimit="10" d="M1211 1094.6s-20.5-5.8-19 1 13.6 5 13.6 5m19.8-362c-9.9-1.7 18.8 47.6 35.9 45.5 17-2.1 27.3-49.7 23.8-57.5-3.6-7.9-17.8 19.1-59.7 12z"/><path fill="#ff6f68" d="M993.9 607c-8.2-4.2-16.1-7.5-24-4.6-6.2 1.9-18.5 5.9-23.2 5.7-3.5-.2-3.8 7.8-.6 8.1 1.7.2 5.8.8 9 1 0 0-2.8 3.7 1.7 5.7-1.5 2.5-.5 5.6 2.7 7.3-.3 2.7 1.6 4.6 3.1 6 7.1 6.4 31.3-2.4 31.4-2.4 12-4.2 12.6-10.7 11.3-16.1-1.2-5.8-9.6-9.5-11.4-10.7z"/><path fill="#a0a0a0" d="M952.1 674c-46.8-5.1-104.9-27.8-135.9-43.5-3.2-1.6 23.7-73 31.5-81.3.7-.7 2.7-2.7 4.1-2.7 3.6 0 112.4 106.2 103.9 124.5-1.5 3.3-2.8 3.1-3.6 3z"/><path fill="#fff" d="M954.7 671.6c-46.8-5.1-104.9-27.8-135.9-43.5-3.2-1.6 27.7-84.2 33.9-81.8 38.4 15 102.1 34.1 127.7 41.2 4.1 1.1-20.6 84.6-25.7 84.1z"/><circle cx="836.8" cy="584.5" r="1.5" fill="#a0a0a0"/><circle cx="965.6" cy="628.4" r="3.9" fill="#a0a0a0"/><path fill="#a0a0a0" d="M945.5 664.4c-33.5-6-86-22.1-117-37.8-3.2-1.6 23.3-75 29.5-72.6 38.4 15 83.2 28.4 108.8 35.5 4.1 1.1-16.3 75.7-21.3 74.9z"/><path fill="#2d2c2f" d="M858 554c-6.2-2.4-32.6 71-29.5 72.6 4.2 2.1 8.8 4.2 13.6 6.4l19.8-34.1 7.2-40.6c-3.8-1.5-7.5-2.9-11.1-4.3z"/><path fill="#d1d1d1" d="M966.8 589.5c-23.2-6.4-62-18-97.7-31.2 0 0-11.7 26.8-15.2 37-3.1 8.9-11.7 37.6-11.7 37.6 31.2 13.5 74.3 26.2 103.4 31.4 4.9.9 25.3-73.7 21.2-74.8z"/><path fill="#ff6f68" d="M991.7 618.8c2.3-6.1-.9-12.9-6.9-15.4-1.3-.5-6.5-3.4-8.1-3.9-3-1-11-3.1-14.2-3.7-2.1-.4-2.5 2.9 2 6.7 1.4 1.2 3 2.3 4.9 3.2.3.2.6.3 1 .5 3.1 1.4-.4 9.7 6.3 16.9 6.8 7 10.5 3.6 15-4.3 0 .1 0 0 0 0z"/><circle cx="835.5" cy="622.4" r="2" fill="#a0a0a0"/><circle cx="838.1" cy="615.4" r="2" fill="#a0a0a0"/><circle cx="840.7" cy="608.4" r="2" fill="#a0a0a0"/><path fill="#ff6f68" d="M1113.6 597.4c-10.3 2.1-97.3 10.6-109.1 10.8-2.4 0-16-1.4-15.8 1.9.2 3.5-.1 14.2.2 16.3.6 4.1-1.7 6.7 2.4 6.7 23.2 0 153 16.9 159.6 13.6 7.2-3.7-37.3-49.3-37.3-49.3z"/><path fill="#ff3f3d" d="M1151 646.7c7.1-3.7-37.4-49.3-37.4-49.3-10.3 2.1-97.9 11.5-115.6 11.5-3.8 0-1.4 4.1 5.2 4 23-.4 68.8-4 91.5-1.2 17.1 1.6 29.2 17.8 40.1 31.9 1.1 1.2 2.3 2.3 3.5 3.3 6.8.4 11.4.4 12.7-.2z"/><path fill="#fff" d="M1150.7 597.4s-20 .2-35.5.3c-9.5-3.8-15.4-1.9-17.1.3-3 3.9 11.1 61.6 24.4 77.7 13.3 16.2 88.9-9.3 97.8-18 3.8-3.7 6.6-18.4 6.5-39l-73.3-24.1c-1.6-.5-3.3.8-3 2.4.1.1.1.3.2.4z"/><path fill="#ffe2e1" d="M1198.4 615.6c-9.2 10-31.6-12.9-32.4-6.2s38.4 24.1 35.4 30.8-41.8 5-46 7 3.2 21-6.8 21.3-9.8 8.7-7.2 9.7c10.1 3.8 52.3-8.7 75.8-21.5 6.4-3.5 7.9-18.5 6.5-38.8l-22.7-7.5c-.3 1.8-1.1 3.5-2.6 5.2z"/><path fill="none" stroke="#ffe2e1" stroke-linecap="round" stroke-linejoin="round" stroke-miterlimit="10" d="M1115.3 599.3c.6 3.5 3.4 33.7 18.4 66.8m-10.4 7.1s7.9-1 10.3-1.9m-17.9-13.1s7.9-1 10.3-1.9m-15.3-14.8s7.9-1 10.3-1.9m-14.2-13.2s7.9-1 10.3-1.9m-14.3-13.2s7.9-1 10.3-1.9"/><path fill="#fff" d="M854.3 627c8.5 3.3 47.6 18.3 79.7 23.8.8.1 1.6-.3 1.9-1.1l3.4-9.2c.4-1-.2-2.1-1.2-2.3-9-2.1-47.7-11.6-78.7-23.1-.9-.3-1.8.1-2.2.9l-3.9 8.6c-.3 1 .1 2.1 1 2.4z"/><path fill="none" stroke="#d1d1d1" stroke-linecap="round" stroke-linejoin="round" stroke-miterlimit="10" d="M861.2 619.4l1.5-3.2m7.3 6.2l1.5-3.3m7.5 6.3l1.6-3.3m7.6 5.8l1.6-3.3m8.1 6.6l1.6-3.3m6.8 5.5l1.6-3.2m7.6 6l1.6-3.3m8.1 5.6l1.6-3.3m7.9 5.7l1.6-3.3m-79.2-7.4l1.5-3.3m16.4 9.2l1.5-3.3m17.3 9.1l1.6-3.3m16 8.3l1.6-3.2m17.6 7.9l1.6-3.3"/><path fill="#fff" d="M870.2 587.2c8.5 3.3 47.6 18.3 79.7 23.8.8.1 1.6-.3 1.9-1.1l3.4-9.2c.4-1-.2-2.1-1.2-2.3-9-2.1-47.7-11.6-78.7-23.1-.9-.3-1.8.1-2.2.9l-3.9 8.6c-.4 1 .1 2.1 1 2.4z"/><path fill="none" stroke="#d1d1d1" stroke-linecap="round" stroke-linejoin="round" stroke-miterlimit="10" d="M877 579.7l1.6-3.3m7.2 6.2l1.6-3.3m7.5 6.3l1.6-3.3m7.6 5.8l1.5-3.3m8.2 6.6l1.5-3.3m6.9 5.6l1.5-3.3m7.7 6l1.5-3.3m8.1 5.6l1.6-3.3m7.9 5.7l1.6-3.3m-79.2-7.4l1.6-3.3m16.3 9.2l1.6-3.2m17.3 9l1.5-3.3m16.1 8.4l1.5-3.3m17.6 7.9l1.6-3.2"/><path fill="#fc2826" d="M940.9 536.2c0 26.9-27.7 49.4-47.9 75.8-2.6 3.4-7.8 3.5-10.5.1-20.4-26.1-47.8-49-47.8-75.9 0-29.3 23.8-53.1 53.1-53.1s53.1 23.8 53.1 53.1z"/><circle cx="413.2" cy="435.9" r="53.1" fill="#fe9287"/><path fill="#fe9287" d="M454.4 500.8H372c-.8 0-1.4-.6-1.4-1.4s.6-1.4 1.4-1.4h82.4c.8 0 1.4.6 1.4 1.4s-.7 1.4-1.4 1.4zm0 11.7H432c-.8 0-1.4-.6-1.4-1.4s.6-1.4 1.4-1.4h22.4c.8 0 1.4.6 1.4 1.4s-.7 1.4-1.4 1.4zm0 7.6H432c-.8 0-1.4-.6-1.4-1.4 0-.8.6-1.4 1.4-1.4h22.4c.8 0 1.4.6 1.4 1.4s-.7 1.4-1.4 1.4zm-60 0H372c-.8 0-1.4-.6-1.4-1.4 0-.8.6-1.4 1.4-1.4h22.4c.8 0 1.4.6 1.4 1.4s-.6 1.4-1.4 1.4zm2.1-7.6H372c-.8 0-1.4-.6-1.4-1.4s.6-1.4 1.4-1.4h24.5c.8 0 1.4.6 1.4 1.4s-.7 1.4-1.4 1.4z"/><circle cx="575.3" cy="435.9" r="53.1" fill="#ff6f68"/><path fill="#ff6f68" d="M616.5 500.8h-82.4c-.8 0-1.4-.6-1.4-1.4s.6-1.4 1.4-1.4h82.4c.8 0 1.4.6 1.4 1.4s-.6 1.4-1.4 1.4zm0 11.7h-22.4c-.8 0-1.4-.6-1.4-1.4s.6-1.4 1.4-1.4h22.4c.8 0 1.4.6 1.4 1.4s-.6 1.4-1.4 1.4zm0 7.6h-22.4c-.8 0-1.4-.6-1.4-1.4 0-.8.6-1.4 1.4-1.4h22.4c.8 0 1.4.6 1.4 1.4s-.6 1.4-1.4 1.4zm-60 0h-22.4c-.8 0-1.4-.6-1.4-1.4 0-.8.6-1.4 1.4-1.4h22.4c.8 0 1.4.6 1.4 1.4.1.8-.6 1.4-1.4 1.4zm2.1-7.6h-24.5c-.8 0-1.4-.6-1.4-1.4s.6-1.4 1.4-1.4h24.5c.8 0 1.4.6 1.4 1.4s-.6 1.4-1.4 1.4z"/><circle cx="738.7" cy="478.9" r="53.1" fill="#ff3f3d"/><path fill="#ff3f3d" d="M736.9 550.5h-39.4c-.8 0-1.4-.6-1.4-1.4 0-.8.6-1.4 1.4-1.4h39.4c.8 0 1.4.6 1.4 1.4.1.7-.6 1.4-1.4 1.4zM720 569.8h-22.4c-.8 0-1.4-.6-1.4-1.4 0-.8.6-1.4 1.4-1.4H720c.8 0 1.4.6 1.4 1.4s-.6 1.4-1.4 1.4zm2-7.6h-24.5c-.8 0-1.4-.6-1.4-1.4 0-.8.6-1.4 1.4-1.4H722c.8 0 1.4.6 1.4 1.4.1.7-.6 1.4-1.4 1.4z"/><path fill="#a0a0a0" d="M1186.5 448.4c-7.6 4.3-28.4 5.3-23.4-.7 5.1-5.9-2.1-24.3.9-30.5 1.3-2.6 44.2-15.1 53-14.7s-24.9 42.7-30.5 45.9z"/><path fill="#d1d1d1" d="M1214.9 704.7c10.7-2.1 70.5 63.9 90.7 70.6 22.8 7.5 40-8.3 40-13.3 0-22.6-38-85.5-41.4-91.9s-140.4 9-147.3 13.9c-3.9 2.8-7.1 13.3-9.4 23.3-1.7 7.6-7.6 36.9-.5 41.3 5.1-34.5 25.4-51 32.3-52.2s35.6 8.3 35.6 8.3z"/><path fill="#a0a0a0" d="M1325.7 710.2c-6.6-15.8-18.7-35.1-21.5-40.1-3.5-6.4-140.4 9-147.3 13.9-3.9 2.8-7.1 13.3-9.4 23.3 4.6 1.3 9.4 2.7 13.9 4.1 6.5-9.3 14.7-14.5 17.8-15 6.9-1.2 35.7 8.4 35.7 8.4 4-.8 12.8 2.4 23.3 7.1 33.7 19.3 39.5-5.8 59.6-7.6 10.2-.1 23-4.3 27.9 5.9z"/><path fill="#ff6f68" d="M1172.5 449.1c0-23.4.7-78.1 0-85.2-.7-7.1-32 18.7-49 15.6-11.4-2-41.2-73.9-41.2-96.6 0-19.9 22.4-43 57.5-47.6 35.2-4.6 42.8-3.9 52.1 25.9 9.3 29.8 28.3 92.4 48.4 119.7 20.3 27.4-67.8 91.3-67.8 68.2z"/><path fill="#ff3f3d" d="M1188.8 334.4c-1.1-6.4-4.3-11.7-9.6-16-9.6-6.4-24.5-7.5-28.8 3.2-7.1 20.4-.8 52-26.4 55.9-3.9.3-1.3 1.9-.6 2 17 2.6 48.3-22.7 49-15.6.4 3.8.4 21.1.2 40 3.5-1.5 6.9-3 10.1-4.4 2.5-21 11.3-42.7 6.1-65.1z"/><path fill="#ff3f3d" d="M1235.2 373c-16.1-.6-33.5 3.1-49.2 8.5-1.2 6.1-2.4 12.1-3.1 18 1.7-.8 3.4-1.5 4.9-2.3h-1.1 1.1c-1.6.7-3.2 1.5-4.9 2.3-.6 5-.8 9.9-.4 14.8 1 10.9 8.9 21.6 19.5 28.8 23.5-16 50.6-45.8 38.5-62.2-1.9-2.4-3.6-5-5.3-7.9z"/><path fill="#ff6f68" d="M1201.9 443.2c-10.6-7.2-18.5-17.9-19.5-28.8-.4-4.9-.2-9.8.4-14.8-3.2 1.4-6.6 2.9-10.1 4.4-.1 16.6-.2 34.3-.2 45.2 0 9.1 13.9 4.5 29.4-6z"/><path fill="#ff3f3d" d="M1128.6 314.3s-23.6 11-40.4-3.4c-.6-1.7-4.1-13.1-5-19.1.1.1 44 11.5 45.4 22.5z"/><path fill="#a0a0a0" d="M1182.2 456.9c-7.6 4.3-29.9 8.7-24.8 2.8 5.1-5.9-6.5-24.1-.7-28.5 2.3-1.8 47.3-20.5 56.2-20.1s-25 42.6-30.7 45.8z"/><path fill="#fff" d="M1315.5 670.2c-.3 2.6 5.1 21.8 1.4 22-11.9.7-45.4.5-99.9 19.2-17.9 6.1-49.9-13.2-67.3-14.1-1.7-.1-5.7-8.5-1.5-23.5-4.2-27.3 3-71.9-1.7-86.6-7.1-22-17.8-39.8-13.5-61.8s21-62.2 23.1-68.6 21.8-17 35.8-25 44.3-53.3 51.2-54.3 7.8 7.5 13.2 16.5 36.9 46.9 37.9 86.3c1.2 39.5 23.2 172.4 21.3 189.9z"/><path fill="#fff" d="M1162.2 650.9c3.2-16 10.7-28.8 17-42.6-3.2-1.1-7.5-4.3-7.5-5.3-4.3-23.4 7.5-43.7 11.7-67.1 6.9-28.5 13.3-101.2-31.8-67.2-6.9 18.3-16 43.2-18.7 56.9-4.3 22 6.4 39.8 13.5 61.8 4.1 12.8-.8 48 .6 74.9 7.4.1 13.3-2.2 15.2-11.4z"/><path fill="#ffe2e1" d="M1298.8 638.1c4.7 24.9-63.3 33.3-60.2 41.8 20.7-5.8 61.5-11.5 73.4-9.6.9-15.1-10.5-90.8-16.9-144.5-2.3 34.9-3.3 75.5 3.7 112.3z"/><path fill="none" stroke="#ffe2e1" stroke-linecap="round" stroke-linejoin="round" stroke-miterlimit="10" d="M1151.5 675.4c14.7 1.6 40.8 13.9 51.1 13.5 10.3-.4 67.4-22.3 111.7-18.6m-160.9 24.3s-1.1-9.6 0-16.3m19.8 22.5s-1.1-9.6 0-16.3m19.9 23.2s-1.1-9.6 0-16.3m25 14.5v-16.3m25.6 8.2s.7-8.9 0-16.3m28.2 10s1.6-9.9 0-16.3m25.4 13.7s1.1-10.6 0-16.3"/><path fill="#d1d1d1" d="M1156 433.5c14.1 4.7 13 15 19.2 16.4 3.1.7 40-35.2 44.1-46.7 0 0-12.3 8.9-25.4 12.1-20.4 4.9-42.5 16.7-37.9 18.2z"/><path fill="#2d2c2f" d="M1076.2 269.4c-8.7 25.9 13.5 49.9 52.6 44.8 0 0 .2-16 10.5-17.2s18.1 7.3 14 22.9c-16 61.4 9.5 65.4 13.1 97.7.4 3.3 28.6 4.4 40.7-1.7 3.6-1.8-11.4-14.4-10.1-15.3 2.9-2 13.9 9.1 17.1 13.4 1.9-.6 5.6-1.8 7.6-2.5 1.7-.6-9.8-9.7-8.1-10.4 1.8-.7 9.7 4.1 12.9 8.3 12.1-5.3 27.1-13.9 33.2-22.2 8.5-11.5 20.7-16 30.3-18.5-.7-10.1-7.2-18.6-5.7-19 2.2-.5 8.7 8.3 9.7 17.5 2.6-.7 11.2-2.4 11.5-3.5 4.8-20.1-7.1-38.6-42.6-57.5-45.8-24.5-74.5-77.4-101.1-83.9-26.6-6.6-75.9 18.4-85.6 47.1z"/><path fill="#ff6f68" d="M1032.7 471.7c-1.8-1-4.7 2.6-5.7 8.5l6.6-1.9c-.3-3.9-.5-6.4-.9-6.6z"/><path fill="#ff3f3d" d="M1033.7 478.2l-6.6 1.9c-.3 1.8-.4 3.8-.3 5.9l7.7-1.3c-.4-2.3-.6-4.6-.8-6.5z"/><path fill="#ff6f68" d="M1035.9 493.5c-.6-3.1-1.1-6-1.5-8.8-2.4-.9-5.1-.5-7.3 1l-.4.3c0 .4 0 .7.1 1.1.4 3.3-1.7 3.3-4.8 1.7-1.6 7.2-1 16.4 5.8 20.3 3.4 1 7.2-.3 10-2.8-.7-3.6-.8-7.4-1.9-12.8z"/><path fill="#ff3f3d" d="M1003.4 472.9c-2.4.3-6.1 3.9-5.4 5.8.6 1.9 9.6 3.2 10.8 4.3.9.8 7.2 2.8 7.7 0s-13.1-10.1-13.1-10.1z"/><path fill="#a0a0a0" d="M961.7 495.1c.1.4 3.9.6 5.6.6l-.9-3.9c-1.7.7-4.8 2.7-4.7 3.3z"/><path fill="#fff" d="M1035.2 474.9l-68 16.6c-.2 0-.4.2-.8.3l.9 3.9h.8l68.2-16.6-1.1-4.2z"/><path fill="#a0a0a0" d="M1039.9 473.7l-4.7 1.2 1.1 4.1 4.7-1.2z"/><path fill="#fff" d="M1047 474.2c-.3-1.1-1.4-1.9-2.6-1.6l-4.4 1.1 1.1 4.1 4.4-1.1c1-.2 1.7-1.4 1.5-2.5z"/><path fill="#ff6f68" d="M1043.3 518.1c-3.4-4.7-4.7-8.2-5.5-11.8-2.7-8.8-8.2-13.9-15.8-17.6-5.7-3.1-14.9-11.9-18-15.4-2.3-2.6-8.2 2.7-6.2 5.2 1 1.3 3.5 4.7 5.6 7.1 0 0-4.6.6-2.9 5.2-2.8.7-4.4 3.6-3.3 7.1-2.2 1.7-1.7 4.4-2.1 6.4-1 4.6 15.4 17.8 20.7 19.4s58.5 107.3 65.6 111.1 19-58.9 19-58.9c-7.5-7-50.1-48.2-57.1-57.8z"/><path fill="#ff3f3d" d="M1081.6 635c7.1 3.8 19-58.9 19-58.9-7.6-7.2-50.3-48.4-57.2-58-2.2-3-3.5-5.6-4.4-7.9-4.4-4.3-5.4 3.6-3.6 7.5 12.8 19.2 32 30.9 42.6 51.1 8.5 14.9 2.1 34.1-3.2 51.1-.4 1.6-.6 3.2-.7 4.8 3.6 5.8 6.2 9.6 7.5 10.3z"/><path fill="#fff" d="M1176.2 454.3c-8.5 14.7-20.4 135.5-21.1 145.5 0 0-6.2.3-6.8 3.6 0 0-19.7-12.4-34.9-21.9-6.9-9.7-13.9-11.5-16.9-10.4-5.4 1.9-27.7 67.1-24.9 91.3s92.7 46.6 106.9 43.7 61.8-69.6 73.9-148.5-2.7-113.3-27.3-118.6c-24.5-5.5-42.1 3.6-48.9 15.3z"/><path fill="#ffe2e1" d="M1101.7 671.4c9.9 5.9 14.7-17.3 20-16.6s42.3 26.6 49.4 22-20.2-46.2-15.3-52.2c5-6 12.4 30.4 27.7 26.4s10.7-28.2 6.7-70.8c-3.9-42.6 30.9-43.7 36.9-79.6s-19.1-53.5-22.9-57.9c-3.7-4.4 28.9-11 45.6-46.9 0 0-6.4 34.9-13.1 41.4 0 0 50.1 24.8 31.3 81.1-18.9 56.3-66.1 186.2-91.9 184.4-31-2.1-80-16.3-87.5-26.4-1.9-2.6 3.2-10.8 13.1-4.9z"/><path fill="none" stroke="#ffe2e1" stroke-linecap="round" stroke-linejoin="round" stroke-miterlimit="10" d="M1112.5 583c-1.6 3.8-17.8 35.1-23.9 76.8m-14.7.4s8.3 3.9 11.2 4.6m-9.1-24s8.3 3.9 11.2 4.6m-5.6-24s8.3 3.9 11.2 4.6m-5.6-21.8s8.3 3.9 11.2 4.6m-5.6-21.9s8.3 3.9 11.2 4.6"/><path fill="#fff" d="M595.3 1351.2c15.7 22.6 44.6 88.2 52.4 95 5.9 5.1 25.2 7.8 36.3 6.7 1.7-.2 1.2-1.6 1.2-1.6s6.7-1.8 9.3-3.3c0 0 .3-12.1-5.6-16-3.5-2.3-21.3-3.9-26.8-18.3s-15.8-39.9-6.1-70.6c9.7-30.6.4-60-24.9-52.6-25.2 7.4-51.5 38-35.8 60.7z"/><path fill="#ffe2e1" d="M629.3 1379.1c7.2-5 15.4-9.3 22.8-14.5.3-6.8 1.5-14 3.9-21.5 9.7-30.6.4-60-24.9-52.6-25.3 7.4-51.5 38-35.8 60.7 7.2 10.4 17.3 30 26.8 48.7-1-8.2.2-15.7 7.2-20.8z"/><path fill="#fff" d="M688.9 1431.9c-3.5-2.3-21.3-3.9-26.8-18.3-4.1-10.9-11-28.1-10-49.1-7.4 5.2-15.6 9.6-22.8 14.5-7 5.1-8.2 12.6-7.2 20.8 11.1 21.9 21.4 42.6 25.6 46.3 5.9 5.1 25.2 7.8 36.3 6.7 1.7-.2 1.2-1.6 1.2-1.6s6.7-1.8 9.3-3.3c0 0 .3-12.1-5.6-16z"/><path fill="none" stroke="#2d2c2f" stroke-linecap="round" stroke-linejoin="round" stroke-miterlimit="10" stroke-width="2" d="M679 1437.4c2.9 2.3 5.4 7.6 5.2 14.3"/><path fill="#2d2c2f" d="M521.6 1339.8c.4 10.8-.5 35.7-3.1 41.4-2.6 5.6 17.1 35.2 17.9 40.3.8 5.1 2 9.7 13 9.4s22.2 1.3 24.3 1.3c2 0-.5-14.6-7.1-15.3s-9.7-20.2-9.2-24.5 17.8-10.7 17-15.6-2.7-42.9-13.5-47.7c-10.7-4.9-39.7 2.3-39.3 10.7z"/><path fill="#242326" d="M528.2 1382.2c16.9 2.1 31.9-2.6 45.6-10.1-1.1-11.6-4-39-12.9-43-10.7-4.9-39.7 2.3-39.3 10.7.4 10.8-.5 35.7-3.1 41.4-.6 1.3.1 4 1.4 7.5 1.7-3.9 5-6.5 8.3-6.5z"/><path fill="#fff" d="M593.7 1191.1c-7.1 23.6-16.5 35.3-25.7 37.9s-102.3 33.4-107.2 37.3c-3.6 2.8-8.7-6.4-11.7-5.9-3.1.5-5 9.5-2.8 14.3 3.3 7.3-14 34.5-12 56.4 2 22 1.5 21.3-3.6 28.8s-11.2 3.9-12.8 19.2c-1.5 15.3-7.1 50.1-4.6 53.9 2.6 3.8 32.7 6.5 32.2-3.8s.5-34.4 2-37.9 4.6-3.5 4.6-7.6c0 0 16.8-2.6 25-10.7 8.2-8.2 9.7-24.5 14.8-25.5 5.1-1 36.2 18.4 67.4 19.4s74 4 93.9-17.1c19.9-21.2 24-48.2 22.5-70.2s3.2-51.1 5.7-66.1c2.5-15-84.1-34.1-87.7-22.4z"/><path fill="#ffe2e1" d="M564 1353.6c-11.2-8.2-24.5-8.2-36.8-6.1-6.4 1.3-13.2 2.6-18.3 6.1 13.1 5.5 31.8 12.7 50.5 13.3 18.1.6 40.1 1.8 59.3-1.3-11.3-15.1-39.4-1.2-54.7-12z"/><path fill="#2d2c2f" d="M491.5 1325c18.4-11.2 53.6 6.1 60.2-14.3 5.7-17.4-39.2-40.1-12.8-53.4 20.6-10.4 36.5-29.9 29.1-28.3-19.4 4.2-105.4 35.9-107.2 37.3-3.6 2.8-8.7-6.4-11.7-5.9-3.1.5-5 9.5-2.8 14.3 3.3 7.3-14 34.5-12 56.4 2 22 1.5 21.3-3.6 28.8s-11.2 3.9-12.8 19.2c-1.5 15.3-7.1 50.1-4.6 53.9 2.6 3.8 32.7 6.5 32.2-3.8s.5-34.4 2-37.9 4.6-3.5 4.6-7.6c0 0 16.8-2.6 25-10.7 8.2-8.2 9.7-24.5 14.8-25.5h.1c7.1-2.2-9.1-17.4-.5-22.5z"/><path fill="#242326" d="M407.2 1423c-2.5 2.7-4.6 12.5-2 14.8s36.8 2.3 39.8 0-3-16.9-12.2-18.4c-11.3-1.7-22.9.7-25.6 3.6z"/><path fill="#2d2c2f" d="M409.9 1438.7c-.4 0-.9-.3-1-.7-.5-1.6-.4-6.1 0-8.4.1-.6.6-.9 1.2-.8s.9.6.8 1.2c-.4 2.4-.3 6.5 0 7.6.2.5-.2 1.1-.7 1.3-.1-.2-.2-.2-.3-.2zm18.7.2c-.4 0-.9-.3-1-.7-.5-1.6-.4-6.1 0-8.4.1-.6.6-.9 1.2-.8s.9.6.8 1.2c-.4 2.4-.3 6.5 0 7.6.2.5-.2 1.1-.7 1.3-.1-.2-.2-.2-.3-.2z"/><path fill="#fff" d="M555 1355.3c5.1 19-.9 77.3-1.6 83.4s6 18.6 5.8 28.9c-.1 7.8 18.6 5.8 19.2 6.1 0 0 8.2 2.2 19.3 1.1 1.7-.2 1.2-1.6 1.2-1.6s6.7-1.8 9.3-3.3c0 0 .3-12.1-5.6-16-3.5-2.3-13.9-9.3-14.4-24.7-.5-15.4 18.9-45.2 28.6-75.9 9.7-30.6.4-60-24.9-52.6-25.2 7.4-44 27.9-36.9 54.6z"/><path fill="none" stroke="#2d2c2f" stroke-linecap="round" stroke-linejoin="round" stroke-miterlimit="10" stroke-width="2" d="M574.2 1460.3c2.4 2.5 4.3 6.5 4.1 12.4m14.4-13.3c2.9 2.3 5.4 7.6 5.2 14.3"/><path fill="#fff" d="M602.9 1149.4c-3.8-8.7-7-16.5-9.7-23.5-6-15.5 10.2-30.2 25-22.9 16.2-20.2 41.9-28.2 54.9-14.7 13.1 13.5 24.8 5.8 30.1 4.4 2.7-.7 23.4 11 29.8 28.2 9.7 18.1-17.7 39.4-28.5 44.8-8.5 4.3-21.4 36.6-26.5 71.1-6.1 41.6-60.5 52.7-61.5 51.2-43.1-68-13.6-138.6-13.6-138.6z"/><path fill="#ffe2e1" d="M651.8 1190.7c35-10.5 48.1-58.9 80.2-62.5 4.7-.5-.8 11.4-5.2 17.6-9.1 13-21 14.3-29.3 24-7.5 8.8-14.7 28.9-18.6 49.2-5.1 26.4-5.1 51.8-5.1 51.8s-82.4-62-22-80.1z"/><path fill="#2d2c2f" d="M721.2 1104.1s-17-1.6-20-10.6c0 0 12.2-6.3 14-2.4 2.5 5 6 13 6 13zm-32.5 27.5c-2.4-7.4-6.1-14.8-7.4-25.9-.8-7.2 4.4-8.4.3-11.1-5.1-3.4-15.6-16.6-32.3-13.2-16.7 3.5-31.1 21.6-31.1 21.6-9.3-15.3-25.2-16.9-36.8-27.4-.9-.9-2.5-.3-2.7.9-4 22 24.2 72.8 24.2 72.8s16.5-2.9 24.9 6c1.8 1.9 3.9 3.3 6.3 4.5 19.8 9.6 58-3.9 56.8-18.1-.3-3.6-1.1-6.8-2.2-10.1z"/><path fill="#fe9287" d="M593.6 1193.5c-5.9 3.3-10.2 16.6-8.2 18.5 11.1 10.1 32.1 16.9 51.2 21.2-3.9-6.5-6.1-14.2-6.2-22-21.3-8-36.8-17.7-36.8-17.7z"/><path fill="#ff6f68" d="M680.6 1221.9c-17.3-.1-35.2-5-50.3-10.7.1 7.8 2.3 15.5 6.2 22 21.6 4.9 40.8 6.8 40.8 6.8 4.6-6.2 3.3-18.1 3.3-18.1z"/><circle cx="671" cy="1244" r="9.8" fill="#2d2c2f"/><path fill="#2d2c2f" d="M671.7 1198.8v-2.9c0-4.5 1.7-8.9 4.8-12.2l75.9-81.6 151.8 37.3c5.1 1.2 7.3 7.2 4.4 11.5l-74 108.5c-1.9 2.7-5.3 3.9-8.5 2.9L684 1215.9c-7.4-2.5-12.3-9.4-12.3-17.1z"/><path fill="#fff" d="M835.6 1247l-6.2-1.8-3.4 6.4-142.2-44c-1.8-.5-3-2.2-3-4 0-2.6 2.3-4.6 4.9-4.2l144.2 22.6 75.4-100.3 8.7 3.2-12.5 17.8 5.1 3.2-71 101.1z"/><path fill="#2d2c2f" d="M902.6 1104.7l-133.8-13.2c-5-.5-10 1.4-13.3 5.2l-80.2 88.9c-4.2 4.5-1.8 11.9 4.3 13.1l147.9 28.5c3.1.6 6.2-.7 8-3.3l72.8-106.8c3.4-5.1.3-11.8-5.7-12.4z"/><path fill="#d1d1d1" d="M773.1 1177.7c-.8-.2-1.6-.3-2.3-.6l1.3-1.6c.7.2 1.5.4 2.2.5l-1.2 1.7zm-6.3-1.8c-1.3-.5-2.5-1.1-3.6-1.7l1.7-1.4c1.1.6 2.2 1.2 3.5 1.6l-1.6 1.5zm-6.8-3.9c-1-.8-1.9-1.6-2.7-2.5l2-1.2c.8.8 1.6 1.6 2.5 2.3l-1.8 1.4zm-4.8-5.2c-.6-1-1.2-2-1.6-3l2.2-.9c.4 1 .9 2 1.5 2.9l-2.1 1zm-2.7-6.3c-.2-1.1-.4-2.3-.4-3.5l2.2-.6c0 1.1.2 2.3.4 3.3l-2.2.8zm-.3-7.2c.1-1.2.4-2.5.7-3.8l2.2-.3c-.3 1.2-.6 2.4-.7 3.6l-2.2.5zm2.1-7.6c.5-1.3 1.2-2.6 1.9-3.9l2 .1c-.7 1.2-1.3 2.5-1.8 3.7l-2.1.1zm4.3-7.7c.5-.7 1-1.4 1.5-2l1.9.4c-.5.6-1 1.3-1.4 1.9l-2-.3z"/><path fill="#d1d1d1" d="M773.1 1177.7l1.2-1.6c19.5 4 45.3-5.1 60.1-21.2l1.7.5c-15.4 17-42.5 26.6-63 22.3zm66.4-29.1c10.1-15.5 5.3-30.5-11.3-35.6l1.4-1.5c17.5 5.4 22.4 21.1 11.9 37.3l-2-.2zm-77.5-12.2l-1.9-.4c13.6-17.3 40.1-28.5 61.7-26.1l-1 1.6c-20.6-2.3-45.9 8.4-58.8 24.9z"/><path fill="#d1d1d1" d="M809.3 1152.1c-10.9-2.3-13.8-11.7-6.5-20.9 7.3-9.3 22.1-15 33-12.7s13.8 11.7 6.5 20.9c-7.3 9.3-22.1 15-33 12.7zm25.2-32.1c-9.9-2-23.3 3.1-29.9 11.6-6.6 8.4-4 16.9 5.9 19 9.9 2 23.3-3.1 29.9-11.6 6.7-8.4 4-16.9-5.9-19z"/><path fill="#d1d1d1" d="M774.1 1177.9l-40.4-8.4 27-34.4 40.4 8.4-27 34.4zm-37.3-9.5l36.7 7.6 24.5-31.2-36.7-7.6-24.5 31.2zm98.1-12.3c-2.6-.5-3.3-2.7-1.5-4.9 1.7-2.2 5.2-3.5 7.8-3s3.3 2.7 1.5 4.9c-1.7 2.2-5.2 3.5-7.8 3zm5-6.4c-1.5-.3-3.7.5-4.7 1.8s-.6 2.7.9 3 3.7-.5 4.7-1.8c1.1-1.3.7-2.6-.9-3z"/><ellipse cx="856.4" cy="1128.8" fill="#d1d1d1" rx="3" ry="1.8" transform="rotate(-23 856 1129)"/><path fill="#d1d1d1" d="M841.5 1149.1l-1.9-.3 15.5-19.8 1.9.4z"/><ellipse cx="819.8" cy="1175.5" fill="#d1d1d1" rx="3" ry="1.8" transform="rotate(-23 820 1176)"/><path fill="#d1d1d1" d="M820.9 1175.2l-1.8-.3 15.5-19.8 1.9.4zm1.3-59.9c-2.6-.5-3.3-2.7-1.5-4.9 1.7-2.2 5.2-3.5 7.8-3s3.3 2.7 1.5 4.9c-1.7 2.2-5.2 3.6-7.8 3zm5-6.3c-1.5-.3-3.7.5-4.7 1.8s-.6 2.7.9 3 3.7-.5 4.7-1.8c1.1-1.4.7-2.7-.9-3z"/><ellipse cx="852.7" cy="1117" fill="#d1d1d1" rx="3" ry="1.8" transform="rotate(-23 853 1117)"/><path fill="#d1d1d1" d="M851.6 1117.7l-23.2-4.8 1.3-1.6 23.2 4.8z"/><ellipse cx="797.9" cy="1105.7" fill="#d1d1d1" rx="3" ry="1.8" transform="rotate(-23 798 1106)"/><path fill="#d1d1d1" d="M821 1111.4l-23.2-4.8 1.2-1.6 23.2 4.8z"/><path fill="none" stroke="#d1d1d1" stroke-linecap="round" stroke-linejoin="round" stroke-miterlimit="10" stroke-width="2" d="M806.4 1205.5l-99.5-17.9m112.8 11l-101.9-18.2"/><path fill="none" stroke="#d1d1d1" stroke-linecap="round" stroke-linejoin="round" stroke-miterlimit="10" d="M691.9 1204.4l143.7 42.6m-60.8-25.3l60.8 14.3 78.3-111.2"/><path fill="#fff" d="M709.1 1148.5c5.4-6 11.4-4.7 17-7.8 4.5-2.4 13.1-10.1 6.5-20.5 0 0-6 8.2-15.1 13-10 5.2-14 12.4-20.7 22.6-4.2 6.5 10.8-5.6 12.3-7.3z"/><path fill="#ffe2e1" d="M697.5 1160.9c5.4-6 11.6-13.5 16.6-16 5.6-2.8 21.9-7.4 17.2-18.5-1.3-3.1-9.4 4.4-15.8 6.5-15.1 5-13.2 12.6-20.2 21.2-4.9 6 .7 8.4 2.2 6.8z"/><path fill="#fe9287" d="M2026.2 1449.5c-2.1 0-3.7-1.7-3.7-3.7v-1120c0-2.1 1.7-3.7 3.7-3.7s3.7 1.7 3.7 3.7v1120c0 2.1-1.7 3.7-3.7 3.7zm237.6-47.3c-1.7 0-3.3-1.2-3.7-3l-145.5-723.1c-.4-2 .9-4 2.9-4.4s4 .9 4.4 2.9l145.5 723.1c.4 2-.9 4-2.9 4.4-.2.1-.4.1-.7.1zm-474.2 0c-.3 0-.5 0-.8-.1-2-.4-3.3-2.4-2.9-4.4L1942 674.6c.4-2 2.4-3.3 4.4-2.9 2 .4 3.3 2.4 2.9 4.4l-156.1 723.1c-.3 1.8-1.8 3-3.6 3z"/><path fill="#ff6f68" d="M2022.4 381.3h7.5v643.6h-7.5zm99.6 293.4c-.4-2-2.4-3.3-4.4-2.9-2 .4-3.3 2.4-2.9 4.4l70.2 348.8h7.6L2122 674.7zm-172.6 1.5c.4-2-.8-4-2.9-4.4-2-.4-4 .8-4.4 2.9l-75.6 350.3h7.6l75.3-348.8z"/><path fill="#fff" d="M2305.3 977.2H1747l32-567.3h494.3z"/><path fill="#ffe2e1" d="M2279.3 645.3c-6.8 62.8-23.5 73.2-15.1 103.4 11.7 41.6 19 61.7 10.4 106.5-8.5 41.6-19.2 74.6-70.4 86-71.2 15.9-145.7-37-241.3-6.9-74.3 23.4-141.3 8.9-162.6 5.9-22.9-3.2-51-5.5-52.2 17.5l548.7 19.5-17.5-331.9z"/><path fill="#ffe2e1" d="M2318.5 969.4h-584.8v-13.8c0-3.1 2.5-5.5 5.5-5.5H2313c3.1 0 5.5 2.5 5.5 5.5v13.8z"/><path fill="#fff" d="M2318.5 957.7h-584.8v17.6c0 10.2 8.3 18.5 18.5 18.5H2300c10.2 0 18.5-8.3 18.5-18.5v-17.6z"/><path fill="#ffe2e1" d="M2243.8 466h-436.4c-13.6 0-23.5-12.8-20.2-26 2.4-9.2 10.7-15.7 20.2-15.7h436.4c9.5 0 17.8 6.4 20.2 15.7 3.3 13.2-6.7 26-20.2 26z"/><path fill="#fff" d="M2252 472h-449v-28.1c0-5.7 4.6-10.4 10.4-10.4h428.3c5.7 0 10.4 4.6 10.4 10.4l-.1 28.1z"/><path fill="#ffe2e1" d="M1811.1 444.1h429.4v2.1h-429.4z"/><path fill="#fe9287" d="M2236 485.6h-417c-8.9 0-16 7.2-16 16 0 8.9 7.2 16 16 16h417c8.9 0 16-7.2 16-16s-7.2-16-16-16zm-54 30h-363c-7.7 0-13.9-6.2-13.9-13.9s6.2-13.9 13.9-13.9h363v27.8z"/><path fill="#fe9287" d="M1836.7 503.8h-18.1c-1.2 0-2.1-1-2.1-2.1 0-1.2 1-2.1 2.1-2.1h18.1c1.2 0 2.1 1 2.1 2.1 0 1.2-.9 2.1-2.1 2.1zm165.4 0H1984c-1.2 0-2.1-1-2.1-2.1 0-1.2 1-2.1 2.1-2.1h18.1c1.2 0 2.1 1 2.1 2.1 0 1.2-1 2.1-2.1 2.1zm-31.8 0h-124c-1.2 0-2.1-1-2.1-2.1 0-1.2 1-2.1 2.1-2.1h124c1.2 0 2.1 1 2.1 2.1 0 1.2-1 2.1-2.1 2.1z"/><path fill="#fff" d="M2226.8 512.2l-3.9-3.9c1.5-1.8 2.3-4.1 2.3-6.5 0-5.7-4.7-10.4-10.4-10.4s-10.4 4.7-10.4 10.4 4.7 10.4 10.4 10.4c2.5 0 4.8-.9 6.5-2.3l3.9 3.9c.2.2.5.3.8.3s.5-.1.8-.3c.5-.5.5-1.2 0-1.6zm-20.2-10.5c0-4.6 3.7-8.3 8.3-8.3s8.3 3.7 8.3 8.3c0 4.6-3.7 8.3-8.3 8.3s-8.3-3.7-8.3-8.3z"/><path fill="none" stroke="#fe9287" stroke-miterlimit="10" stroke-width="2" d="M1869.7 702.8l76.4 33.8 76.3-63.3 76.4 29.5 76.4-72.7"/><circle cx="1869.7" cy="702.8" r="16.9" fill="#fe9287"/><circle cx="1946.1" cy="736.6" r="16.9" fill="#ffe2e1"/><circle cx="2022.4" cy="673.3" r="16.9" fill="#fc2826"/><circle cx="2098.8" cy="702.8" r="16.9" fill="#fe9287"/><circle cx="2175.2" cy="630.1" r="16.9" fill="#fc2826"/><path fill="#ffe2e1" d="M1867.8 605.3c-14.4.9-26.1 12.5-27.1 26.9-.7 9.2 3 17.6 9.1 23.4.7.6 1.3 1.2 2 1.9l17.9 17.9 17.9-17.9c.6-.6 1.3-1.2 2-1.9 5.7-5.3 9.2-12.9 9.2-21.2 0-16.7-14.1-30.1-31-29.1zm1.9 38.2c-5 0-9.1-4.1-9.1-9.1s4.1-9.1 9.1-9.1 9.1 4.1 9.1 9.1-4.1 9.1-9.1 9.1z"/><path fill="#fc2826" d="M2173.2 533.6c-14.4.9-26.1 12.5-27.1 26.9-.7 9.2 3 17.6 9.1 23.4.7.6 1.3 1.2 2 1.9l17.9 17.9 17.9-17.9c.6-.6 1.3-1.2 2-1.9 5.7-5.3 9.2-12.9 9.2-21.2.1-16.8-14-30.2-31-29.1zm1.9 38.1c-5 0-9.1-4.1-9.1-9.1s4.1-9.1 9.1-9.1 9.1 4.1 9.1 9.1-4.1 9.1-9.1 9.1z"/><path fill="#fe9287" d="M1876.7 743.1l-18-.9-4.7 92.5h18.2z"/><path fill="#fc2826" d="M2186.8 682.9l-18.1.9 7.3 150.9h18.1z"/><path fill="#fe9287" d="M2109.4 748.7l-18.1.6 2.9 85.4h18.1z"/><path fill="#ffe2e1" d="M1953.7 779l-18.1-.6-1.9 56.3h18.2z"/><path fill="#fc2826" d="M2031.6 719.7h-18.1l.4 115h18.1z"/><path fill="#fe9287" stroke="#fff" stroke-miterlimit="10" stroke-width="2" d="M1837.5 907.1c-6 4.4-14.5 3.9-19.9-1.5-6-6-6-15.7 0-21.7s15.7-6 21.7 0l.6.6 9.8-9.8-.6-.6c-11.4-11.4-29.9-11.4-41.3 0s-11.4 29.9 0 41.3c10.8 10.8 28.1 11.3 39.6 1.6l-9.9-9.9z"/><path fill="#fe9287" stroke="#fff" stroke-miterlimit="10" stroke-width="2" d="M1839.3 905.6c-.6.6-1.1 1-1.8 1.5l9.9 9.9c.6-.5 1.1-1 1.7-1.6 11.2-11.2 11.4-29.3.6-40.7l-9.8 9.8c5.3 6 5.1 15.3-.6 21.1z"/><path fill="none" stroke="#fe9287" stroke-linecap="round" stroke-linejoin="round" stroke-miterlimit="10" stroke-width="3" d="M1882.5 875.7h146.3m-146.3 12.8h83.6m-83.6 11.6h83.6m-83.6 12.7h51.9"/><path fill="#fe9287" stroke="#fff" stroke-miterlimit="10" stroke-width="2" d="M2114.3 883.9c6 6 6 15.7 0 21.7l-.6.6 9.8 9.8.6-.6c11.4-11.4 11.4-29.9 0-41.3-5.9-5.9-13.8-8.7-21.5-8.5v13.9c4.2-.3 8.5 1.2 11.7 4.4zm-21.7 0c2.8-2.8 6.3-4.2 10-4.4v-13.9c-7.2.2-14.3 3-19.8 8.5-10.8 10.8-11.3 28.1-1.6 39.6l9.9-9.9c-4.4-6-3.9-14.5 1.5-19.9z"/><path fill="#fe9287" stroke="#fff" stroke-miterlimit="10" stroke-width="2" d="M2092.6 905.6c-.6-.6-1-1.1-1.5-1.8l-9.9 9.9c.5.6 1 1.1 1.6 1.7 11.2 11.2 29.3 11.4 40.7.6l-9.8-9.8c-6.1 5.3-15.3 5.2-21.1-.6z"/><path fill="none" stroke="#fe9287" stroke-linecap="round" stroke-linejoin="round" stroke-miterlimit="10" stroke-width="3" d="M2157.5 875.7h106.7m-106.7 12.8h106.7m-106.7 24.3h51.9"/><path fill="#2d2c2f" d="M2308.5 1248.6c4.4 28.3-13.1 51.4 21.4 70.9-23.3 10.2-43 8.8-57.6 1.5 10.7-14.1 6.7-35.2 10.3-52.6 2.6-13.2 13.8-19.5 25.9-19.8z"/><path fill="#242326" d="M2246.8 1269c26.2-70.2 53.1-46.5 58.8-31.4 1.4 3.8 2.3 7.4 2.9 11-12.1.4-23.3 6.6-25.9 19.7-3.7 17.5.4 38.5-10.3 52.6-21.7-10.8-31.9-34.6-25.5-51.9z"/><path fill="#424144" d="M2265.8 1232.1c.1-.4.4-.7.8-.6.4.1.7.4.6.8-3.8 24.8.4 45 12.4 60.1 15.1 18.9 38.5 24.4 47 25.8l-.6 1.4c-9-1.6-32.4-7.3-47.5-26.3-12.3-15.4-16.6-36-12.7-61.2zm-55 122.8c.4-1.1 1.6-1.8 2.8-1.4s1.8 1.6 1.4 2.7l-68.1 149.9c-.4.8-1.1 1.3-2 1.3-1.6 0-2.7-1.6-2-3.1l67.9-149.4z"/><path fill="#424144" d="M2218.9 1293.1c4.2-26 3.6-51.4 16.2-75.7 1.8-3.5 5.4-5.9 9-6.5 16.2-2.4 36-3 48.7 8.9 1 1.5 2.5 3 4.4 3.1 3 4.4 5.8 9.3 8.5 14.7-22.9-7.6-40.4.9-39.8 43.1.7 58.3-55.2 81.1-55.2 81.1s.8-19.8-3.8-47c6.7-5.5 11.1-13.4 12-21.7z"/><path fill="#4b4a4c" d="M2297.2 1222.9c-1.9 0-3.4-1.6-4.4-3.1-12.6-11.8-32.4-11.2-48.7-8.9-3.6.6-7.2 3-9 6.5-12.6 24.2-12 49.7-16.2 75.7-.9 8.2-5.3 16.2-12.1 21.7-2.2-13.1-5.7-28-11.2-43.2-24-66.2 55-117.6 101.6-48.7z"/><path fill="#2d2c2f" d="M2211.2 1362.2c14.5-25.5 14.1-56.5 13.7-83.8-.4-27-.7-50.4 13.2-61.8 9.6-7.9 25.7-9.5 49.1-5l.3-1.4c-23.9-4.6-40.3-2.9-50.3 5.3-14.5 11.9-14.1 35.5-13.8 62.9.4 27.1.8 57.9-13.6 83l1.4.8z"/><path fill="#2d2c2f" d="M2244.4 1336.7l1.2-.7-21.1-34.2-18.8 8.1.6 1.3 17.6-7.5zm17.6-31.5l1.2-.8-38.5-54.6-30.5 18.4.8 1.3 29.3-17.7zm4.7-44.6l1.3-.8-29.6-44.7-41.3 4.9.2 1.5 40.3-4.9zm17.9-24.5l1.4-.4-6.6-26.7-42.8-18.8-.6 1.3 42.1 18.5z"/><path fill="#424144" d="M2045 1446.1c29.6 48.8 67.6 38 76.1 34.9l-97.7-121.8.2 3.7c.6 12.4 4.2 54.8 21.4 83.2z"/><path fill="#4b4a4c" d="M2118.7 1433.9c-12.6-10.6-28.2-15.4-40.9-26-10.2-8.3-19.2-17.7-25.2-29.6-1.2-1.8-3.6-3.5-5.4-5.3-1.9-3-3.7-6-5.6-8.9 18 5.6 45.3 16.2 64.2 32.9 23.3 20.7 28.6 40.4 27.8 55.2-3.6-6.8-8.5-13-14.9-18.3z"/><path fill="#424144" d="M2041.6 1364.1c1.9 3 3.7 5.9 5.6 8.9 1.8 1.8 4.2 3.5 5.4 5.3 6 11.8 15 21.3 25.2 29.6 12.6 10.6 28.2 15.4 40.9 26 6.4 5.3 11.2 11.5 14.9 18.3-.8 13.8-6.8 23.5-8.5 25.9l-21.7 1.5-80.1-120.5 4.3 1c3.3.8 8.2 2.1 14 4z"/><path fill="#2d2c2f" d="M2023.3 1359.1l97.7 121.8 21.2 25.7c.9 1 2.4 1.2 3.5.4.4-.3.7-.8.8-1.3.2-.7 0-1.5-.5-2.1l-21-25.4c.1-.1-101.3-119-101.7-119.1z"/><path fill="#2d2c2f" d="M2115.3 1468.4c0-.5-.4-.9-.9-.9l-51.6-1.8c-.5 0-1 .4-1 .9s.4 1 .9 1l51.6 1.8c.5 0 1-.4 1-1zm-50-59.7c0-.5-.4-.8-.9-.9l-33.8-1.9c-.5 0-1 .4-1 .9s.4 1 .9 1l33.8 1.9c.5 0 1-.4 1-1 0 .1 0 .1 0 0zm-23.4-28.8c0-.5-.4-.8-.9-.9l-15.4-.9c-.5 0-1 .4-1 .9s.4 1 .9 1l15.4.9c.5 0 1-.4 1-1 0 .1 0 .1 0 0zm49.6 59.6c0-.5-.4-.8-.9-.9l-50.1-2.9c-.5 0-1 .4-1 .9s.4 1 .9 1l50.1 2.9c.5 0 1-.4 1-1 0 .1 0 0 0 0z"/><path fill="#2d2c2f" d="M2122.3 1414.6c0-.4-.4-.8-.8-.9-.5-.1-1 .3-1.1.8l-7 53.8c-.1.5.3 1 .8 1.1s1-.3 1.1-.8l7-53.8v-.2zm-52.9-40.4c0-.4-.4-.8-.8-.9-.5-.1-1 .3-1.1.8l-4.1 34.6c-.1.5.3 1 .8 1 .5.1 1-.3 1.1-.8l4.1-34.7c0 .1 0 0 0 0zm-26.7-9.5c0-.5-.4-.9-.9-.9s-1 .4-1 .9l-.8 15.2c0 .5.4 1 .9 1s1-.4 1-.9l.8-15.3c0 .1 0 .1 0 0zm54.3 25.4c0-.4-.4-.8-.9-.9s-1 .3-1.1.8l-5.5 49.4c0 .5.3 1 .9 1 .5.1 1-.3 1.1-.8l5.5-49.5c0 .1 0 .1 0 0z"/><path fill="#4b4a4c" d="M2161.8 1195.6c.7-1.7 1.4-3.5 1.9-5.4 10.2-11 14.4-19.7 11.2-34.5-3.5-16.7 32.3-50 29.1-31.4l-40.2 183.8c-15.2-35.4-16.1-76.4-2-112.5z"/><path fill="#424144" d="M2129.3 1224.2c14.8-15.4 26.4-25.4 34.4-33.9-.5 1.9-1.2 3.7-1.9 5.4-14.1 36.1-13.2 77.1 2 112.5l-4.2 19.1c-38.7-2.3-74.6-57-30.3-103.1z"/><path fill="#2d2c2f" d="M2161.4 1319.6c-.1 0-.2 0-.3-.1l-51.2-44.2c-.2-.2-.2-.5 0-.7s.5-.2.7 0l51.2 44.2c.2.2.2.5 0 .7-.1 0-.3.1-.4.1zm7.7-43c-.1 0-.2 0-.3-.1l-48.3-41.7c-.2-.2-.2-.5 0-.7s.5-.2.7 0l48.3 41.7c.2.2.2.5 0 .7-.2.1-.3.1-.4.1zm10.8-41.2c-.1 0-.2 0-.3-.1l-31.7-27.4c-.2-.2-.2-.5 0-.7s.5-.2.7 0l31.7 27.4c.2.2.2.5 0 .7-.1.1-.2.1-.4.1zm8.5-42.5c-.1 0-.2 0-.3-.1l-15.6-13.3c-.2-.2-.2-.5-.1-.7.2-.2.5-.2.7-.1l15.6 13.3c.2.2.2.5.1.7s-.3.2-.4.2zm8.9-39.7c-.1 0-.2 0-.3-.1l-15.6-13.3c-.2-.2-.2-.5-.1-.7.2-.2.5-.2.7-.1l15.6 13.3c.2.2.2.5.1.7s-.3.2-.4.2z"/><path fill="#424144" d="M2161 1360c0-1.1.9-1.9 1.9-1.9 1.1 0 1.9.8 2 1.9l19.1 62.3h-3.9L2161 1360z"/><path fill="#2d2c2f" d="M2092.5 1079.5l73 281.9c-50 21-83.5 1.4-95.2-35.4-6.7-20.8-6.4-47.2 1.7-74.8 19-64.7 23.2-86 4-114.5-13.5-19.9 8.8-82.5 16.5-57.2z"/><path fill="#2d2c2f" d="M2072 1251.2c19-64.7 23.2-86 4-114.5-13.5-19.9 8.8-82.5 16.6-57.3l15.3 59v.4c-3 44.9-8.4 90.4 9 133.6 12.5 29.9 16.1 65.6 7.4 97.5-27.2-1.2-45.8-18.4-53.9-43.9-6.8-20.8-6.6-47.1 1.6-74.8z"/><path fill="#242326" d="M2116.7 1272.4c-17.4-43.1-12-88.7-9-133.6v-.4l57.7 222.9c-15.4 6.5-29.2 9.1-41.3 8.5 8.8-31.8 5.1-67.5-7.4-97.4z"/><path fill="#424144" d="M2162.5 1350.7h-.1l-92.3-24c-.3-.1-.6-.4-.5-.8.1-.3.4-.5.8-.5l92.3 24c.3.1.6.4.5.8-.1.3-.4.5-.7.5zm-17.6-58.6h-.1l-75.6-19.7c-.3-.1-.6-.4-.5-.8.1-.3.4-.5.8-.5l75.6 19.7c.3.1.6.4.5.8-.1.3-.4.5-.7.5zm-12.5-58.3h-.1l-49.9-13c-.3-.1-.6-.4-.5-.8.1-.3.4-.5.8-.5l49.9 13c.3.1.6.4.5.8-.1.3-.4.5-.7.5zm-16.3-58.6h-.1l-28-7c-.3-.1-.6-.4-.5-.8.1-.3.4-.5.8-.5l28 7c.3.1.6.4.5.8s-.4.6-.7.5zm-14.1-55.3h-.1l-28-7c-.3-.1-.6-.4-.5-.8.1-.3.4-.5.8-.5l28 7c.3.1.6.4.5.8-.1.4-.4.6-.7.5zM174.2 926.3l41 185.3c34.8-2.2 66.8-52.4 26.7-94.4-30.5-32-46.3-38.2-41.4-62.3 3.1-15.3-29.3-45.5-26.3-28.6z"/><path fill="#424144" d="M218.7 1033.4c5.7-14.3 3.3-28.7-2.7-41.7 6.7 6.6 15.4 14.6 25.8 25.5 40.1 42 8.1 92.2-26.7 94.4l-4.4-19.7c.3-11-1.2-22.7-1.1-32.7 0-9.5 5.8-16.8 9.1-25.8z"/><path fill="#4b4a4c" d="M200.5 954.9c-3.2 15.9 2.5 24 15.6 36.9 6 13 8.4 27.4 2.7 41.7-3.3 8.9-9.1 16.3-9 25.8-.1 10 1.4 21.7 1.1 32.7l-36.6-165.6c-3.1-17 29.3 13.2 26.2 28.5z"/><path fill="#2d2c2f" d="M213.5 1104.6c.1 0 .2 0 .3-.1l45.8-40.7c.2-.2.2-.4 0-.6s-.4-.2-.6 0l-45.8 40.7c-.2.2-.2.4 0 .6.1.1.2.1.3.1zm-7.1-39.2c.1 0 .2 0 .3-.1l43.2-38.3c.2-.2.2-.4 0-.6s-.4-.2-.6 0l-43.2 38.3c-.2.2-.2.4 0 .6 0 0 .2.1.3.1zm-10-37.6c.1 0 .2 0 .3-.1l28.4-25.2c.2-.2.2-.4 0-.6-.2-.2-.4-.2-.6 0l-28.4 25.2c-.2.2-.2.4 0 .6.1 0 .2.1.3.1zm-7.8-38.8c.1 0 .2 0 .3-.1l14-12.2c.2-.2.2-.4 0-.6-.2-.2-.4-.2-.6 0l-14 12.2c-.2.2-.2.4 0 .6 0 0 .2.1.3.1zm-8.2-36.3c.1 0 .2 0 .3-.1l14-12.2c.2-.2.2-.4 0-.6-.2-.2-.4-.2-.6 0l-14 12.2c-.2.2-.2.4 0 .6.1.1.2.1.3.1z"/><path fill="#4b4a4c" d="M213 1201.4c-13.9 15.9-5.9 27.9-3.8 30.5l32.1-48-1.3.5c-4.3 1.7-18.9 7.7-27 17z"/><path fill="#424144" d="M241.5 1185.5l-.1-1.6-30.7 49.1c2.2.6 17.4 4.3 26.5-16 5-11.3 4.6-26.5 4.3-31.5z"/><path fill="#2d2c2f" d="M241.3 1183.9l-32.1 48-6.7 10.3c-.3.4-.2 1 .3 1.2.2.1.4.2.5.1.3 0 .5-.2.7-.4l6.6-10.2c0 .1 30.7-48.9 30.7-49z"/><path fill="#2d2c2f" d="M212.9 1228.4c-.1 0-.3-.1-.3-.2l-5.2-18.2c0-.2 0-.3.2-.4.2 0 .3 0 .4.2l5.2 18.2c0 .2-.1.4-.3.4zm15.5-24.2c-.1 0-.3-.1-.3-.2l-3.1-12c0-.2.1-.3.2-.4.2 0 .3.1.4.2l3.1 12c0 .2-.1.3-.3.4zm7.5-11.5c-.1 0-.3-.1-.3-.2l-1.4-5.5c0-.2.1-.3.2-.4.2 0 .3.1.4.2l1.4 5.5c.1.2 0 .4-.3.4.1 0 .1 0 0 0zm-15.5 24.1c-.1 0-.3-.1-.3-.2l-4.6-17.8c0-.2.1-.3.2-.4.2 0 .3.1.4.2l4.6 17.8c0 .2-.1.4-.3.4.1 0 0 0 0 0z"/><path fill="#2d2c2f" d="M212.9 1228.4c-.1 0-.3-.1-.3-.2 0-.2.1-.3.2-.4l19.8-3.7c.2 0 .3.1.4.2 0 .2-.1.3-.2.4l-19.9 3.7zm15.5-24.2c-.1 0-.3-.1-.3-.2 0-.2.1-.3.2-.4l12.7-2.5c.2 0 .3.1.4.2 0 .2-.1.3-.2.4l-12.8 2.5zm7.5-11.5c-.1 0-.3-.1-.3-.2 0-.2.1-.3.2-.4l5.5-1.5c.2 0 .3.1.4.2 0 .2-.1.3-.2.4l-5.6 1.5c.1 0 .1 0 0 0zm-15.5 24.1c-.1 0-.3-.1-.3-.2 0-.2.1-.3.2-.4l18.1-3.7c.2 0 .3.1.4.2 0 .2-.1.3-.2.4l-18.2 3.7c.1 0 0 0 0 0z"/><path fill="#2d2c2f" d="M200.6 1158.4c0-1 .8-1.8 1.8-1.7 1 0 1.7.8 1.7 1.8l62.2 349.3-3.5-.2-62.2-349.2z"/><path fill="#2d2c2f" d="M264.4 903.1l-63 252.9c-.7 3 .9 6.1 3.8 7.2 42.3 15.6 70.4-2.4 80.4-34.8 5.9-19.1 5.5-43.1-1.9-68.4-17.5-59.1-21.3-78.5-4.2-104.6 12.1-18.3-8.3-75.4-15.1-52.3z"/><path fill="#2d2c2f" d="M262.7 992.8c-.3 1.5-1.6 2.6-2 3.6-1.8 5.4-1.2 10.6-2 15.9-.6 2.9.2 5.7-.5 8.6-.8 5.8-.6 11.5-.9 17.2-1.4 30.1 7.9 58.1 4.2 88.1-1.6 11.6-13.3 17.7-22.9 21.1-11.7 4.3-24.6 8.7-37.1 8.3L264.3 903c6.8-23.1 27.2 34 15.2 52.3-1 1.5-1.9 3.1-2.8 4.6-8 8.8-13.5 19.8-14 32.9z"/><path fill="#242326" d="M201.5 1155.7c12.5.3 25.4-4.1 37.1-8.3 9.6-3.5 21.3-9.5 22.9-21.1 3.8-29.9-5.5-57.9-4.2-88.1.3-5.7.1-11.4.9-17.2.6-2.9-.2-5.7.5-8.6.8-5.3.3-10.5 2-15.9.4-1 1.7-2.1 2-3.6.5-13.2 6-24.1 14-32.9-13.8 24-9.5 44.5 7 100.1 7.5 25.2 7.8 49.3 1.9 68.4-10 32.4-38.2 50.4-80.4 34.8-2.9-1.1-4.5-4.2-3.8-7.2l.1-.4z"/><path fill="#424144" d="M202.8 1151.4h.1l82.9-22.4c.3-.1.5-.4.4-.7-.1-.3-.4-.5-.7-.4l-82.9 22.4c-.3.1-.5.4-.4.7 0 .3.3.4.6.4zm15.5-53.6h.1l67.9-18.4c.3-.1.5-.4.4-.7-.1-.3-.4-.5-.7-.4l-67.9 18.4c-.3.1-.5.4-.4.7.1.2.3.4.6.4zm11-53.4h.1l44.8-12.1c.3-.1.5-.4.4-.7-.1-.3-.4-.5-.7-.4l-44.8 12.1c-.3.1-.5.4-.4.7 0 .2.3.4.6.4zm14.3-53.6h.1l25.2-6.6c.3-.1.5-.4.4-.7s-.4-.5-.7-.4l-25.2 6.6c-.3.1-.5.4-.4.7.1.2.4.4.6.4zm12.4-50.7h.1l25.2-6.6c.3-.1.5-.4.4-.7s-.4-.5-.7-.4l-25.2 6.6c-.3.1-.5.4-.4.7.1.3.3.5.6.4z"/><path fill="#2d2c2f" d="M370.1 1287.6c5.9 22.1-5.7 42 23 54.5-17.3 10.2-32.9 10.8-44.9 6.2 7.1-12.2 2.1-28.6 3.4-42.8.8-10.6 9-16.5 18.5-17.9z"/><path fill="#242326" d="M323.6 1309.3c14.2-58.1 37.4-41.7 43.2-30.1 1.4 2.9 2.5 5.7 3.2 8.5-9.4 1.4-17.6 7.3-18.5 18-1.3 14.2 3.7 30.6-3.4 42.8-17.9-6.9-28-24.9-24.5-39.2z"/><path fill="#424144" d="M335.2 1278.3c0-.3.3-.6.6-.6s.6.3.6.6c-.8 20.1 4.3 35.8 15.1 46.7 13.5 13.7 32.3 16 39.1 16.4l-.4 1.1c-7.2-.5-26-3-39.5-16.7-11.1-11.1-16.3-27.1-15.5-47.5zm-32.1 102.5c.2-.9 1.1-1.6 2.1-1.4.9.2 1.6 1.1 1.4 2.1l-40.3 126.2-3.8.4 40.6-127.3z"/><path fill="#424144" d="M303.9 1330.9c1-21.1-1.8-41.2 6-61.6 1.1-3 3.7-5.2 6.5-6 12.5-3.3 27.9-5.5 38.9 2.8.9 1.1 2.2 2.2 3.7 2.1 2.7 3.2 5.4 6.9 7.9 10.9-18.6-4-31.5 4.2-27.3 37.8 5.7 46.3-36 69.4-36 69.4s-1.1-15.8-7.2-37c4.8-5.1 7.6-11.8 7.5-18.4z"/><path fill="#4b4a4c" d="M358.9 1268.2c-1.5.1-2.8-.9-3.7-2.1-10.9-8.3-26.4-6.1-38.9-2.8-2.8.8-5.4 3-6.5 6-7.7 20.4-5 40.5-6 61.6 0 6.6-2.7 13.3-7.6 18.3-2.9-10.3-7-21.8-12.6-33.3-24.5-50.6 32.8-98.4 75.3-47.7z"/><path fill="#2d2c2f" d="M304 1386.5c9.1-21.6 6-46.1 3.3-67.8-2.7-21.5-5-40 4.9-50.3 6.8-7.1 19.2-9.8 38-8.3l.1-1.2c-19.1-1.6-31.8 1.2-38.9 8.6-10.3 10.7-7.9 29.5-5.2 51.2 2.7 21.5 5.8 46-3.2 67.2l1 .6z"/><path fill="#2d2c2f" d="M327.7 1363.4l.9-.8-19.5-25.2-14 8 .6 1 13.1-7.5zm11-26.7l.9-.7-35-40-22.2 17.3.7.9 21.4-16.6zm-.3-35.9l.9-.7-27.1-33-31.9 7.6.3 1.1 31.2-7.4zm11.8-21l1.1-.4-7.5-20.7-35.2-11.2-.3 1.1 34.6 11z"/><path fill="#424144" d="M181.7 1466.7c27.5 36.2 56.3 24.3 62.6 21.1l-87.3-88.3.5 2.9c1.6 9.9 8.2 43.3 24.2 64.3z"/><path fill="#4b4a4c" d="M238.3 1450.6c-10.8-7.4-23.5-9.7-34.3-17.1-8.7-5.7-16.6-12.4-22.4-21.3-1.1-1.3-3.1-2.5-4.7-3.8-1.7-2.2-3.5-4.4-5.2-6.6 14.6 2.9 36.9 8.9 53.2 20.6 20.1 14.4 26 29.6 26.7 41.5-3.5-5.1-7.8-9.7-13.3-13.3z"/><path fill="#424144" d="M171.7 1401.8c1.7 2.2 3.4 4.4 5.2 6.6 1.6 1.3 3.6 2.5 4.7 3.8 5.8 8.9 13.6 15.6 22.4 21.3 10.8 7.4 23.5 9.7 34.3 17.1 5.5 3.6 9.8 8.2 13.3 13.3.6 11.1-3.2 19.3-4.3 21.3l-16.9 3.1-73.4-88.9 3.5.4c2.6.5 6.5 1.1 11.2 2z"/><path fill="#2d2c2f" d="M157 1399.5l87.3 88.3 18.9 18.6c.8.8 2 .7 2.7 0 .3-.3.5-.7.5-1.1.1-.6-.1-1.2-.6-1.7l-18.7-18.4c.2 0-89.8-85.7-90.1-85.7z"/><path fill="#2d2c2f" d="M238.7 1478.3c-.1-.4-.4-.6-.8-.6l-40.6 3.1c-.4 0-.7.4-.7.8s.4.7.8.7l40.6-3.1c.4 0 .8-.4.7-.9 0 .1 0 0 0 0zm-44.4-43c-.1-.4-.4-.6-.8-.6l-26.6 1.4c-.4 0-.7.4-.7.8s.4.7.8.7l26.6-1.4c.4-.1.7-.4.7-.9zm-20.9-20.9c-.1-.4-.4-.6-.8-.6l-12.1.6c-.4 0-.7.4-.7.8s.4.7.8.7l12.1-.6c.4 0 .8-.4.7-.9 0 .1 0 0 0 0zm44.1 43c-.1-.4-.4-.6-.8-.6l-39.5 2.1c-.4 0-.7.4-.7.8s.4.7.8.7l39.5-2.1c.4 0 .8-.4.7-.9 0 .1 0 .1 0 0z"/><path fill="#2d2c2f" d="M239.4 1434.9c-.1-.3-.4-.6-.7-.6-.4 0-.8.3-.8.7l-.7 43.4c0 .4.3.8.7.8s.8-.3.8-.7l.7-43.4v-.2zm-45-27.5c-.1-.3-.4-.6-.7-.6-.4 0-.8.3-.8.8l-.1 27.9c0 .4.3.8.8.8.4 0 .8-.3.8-.8l.1-27.9c-.1-.1-.1-.2-.1-.2zm-21.7-5.2c-.1-.4-.4-.6-.8-.6s-.7.4-.7.8l.8 12.2c0 .4.4.7.8.7s.7-.4.7-.8l-.8-12.3c0 .1 0 .1 0 0zm44.7 15.5c-.1-.4-.4-.6-.7-.6-.4 0-.8.3-.8.8l.1 39.8c0 .4.3.8.8.8.4 0 .8-.3.8-.8l-.1-39.8c-.1-.1-.1-.2-.1-.2z"/><path fill="#4b4a4c" d="M250.6 1258.3c.4-1.4.8-2.9 1-4.5 7-9.6 9.5-16.9 5.7-28.4-4.3-13 20.8-42.6 19.9-27.5l-15.1 149.7c-15-26.8-19.4-59.3-11.5-89.3z"/><path fill="#424144" d="M227.7 1283.9c10.2-13.5 18.4-22.5 23.9-30-.3 1.5-.6 3-1 4.5-7.9 29.9-3.5 62.5 11.6 89.3l-1.6 15.6c-30.5 1.6-63.5-38.8-32.9-79.4z"/><path fill="#2d2c2f" d="M261.3 1357c-.1 0-.2 0-.2-.1l-44-30.7c-.2-.1-.2-.4-.1-.5.1-.2.4-.2.5-.1l44 30.7c.2.1.2.4.1.5-.1.1-.2.2-.3.2zm2.2-34.9c-.1 0-.2 0-.2-.1l-41.5-28.9c-.2-.1-.2-.4-.1-.5.1-.2.4-.2.5-.1l41.5 28.9c.2.1.2.4.1.5-.1.2-.2.2-.3.2zm4.8-33.7c-.1 0-.2 0-.2-.1l-27.3-19c-.2-.1-.2-.4-.1-.5.1-.2.4-.2.5-.1l27.3 19c.2.1.2.4.1.5-.1.2-.2.2-.3.2zm2.8-34.5c-.1 0-.2 0-.2-.1l-13.4-9.2c-.2-.1-.2-.4-.1-.5.1-.2.4-.2.5-.1l13.4 9.2c.2.1.2.4.1.5s-.2.2-.3.2zm3.4-32.4c-.1 0-.2 0-.2-.1l-13.4-9.2c-.2-.1-.2-.4-.1-.5.1-.2.4-.2.5-.1l13.4 9.2c.2.1.2.4.1.5 0 .2-.2.2-.3.2zm-9.9 167.7c-.1-.8.5-1.6 1.3-1.7s1.6.5 1.7 1.3l20.5 47.8-3 .3-20.5-47.7z"/><path fill="#2d2c2f" d="M186 1172.1l82.2 217.8c-37.2 21.1-65.2 8.5-77.7-19.8-7.1-16-9.2-36.9-5.3-59.6 9.1-53.1 10.5-70.5-7.1-91.4-12.3-14.7-.4-66.4 7.9-47z"/><path fill="#2d2c2f" d="M185.2 1310.5c9.1-53.1 10.5-70.5-7.1-91.4-12.3-14.7-.4-66.4 7.9-47l17.2 45.6v.3c1.7 36 1.5 72.7 19 105.5 12.4 22.7 18.5 50.8 14.5 76.9-21.4 1.4-37.5-10.6-46.1-30.2-7.1-16.1-9.3-37-5.4-59.7z"/><path fill="#242326" d="M222.2 1323.4c-17.5-32.8-17.3-69.5-19-105.5v-.3l65 172.2c-11.5 6.5-22 9.8-31.6 10.4 4-26-2-54.1-14.4-76.8z"/><path fill="#424144" d="M264.9 1381.6h-.1l-74.4-11c-.3 0-.5-.3-.4-.6 0-.3.3-.5.6-.4l74.4 11c.3 0 .5.3.4.6 0 .3-.2.4-.5.4zm-19-45h-.1l-60.9-9c-.3 0-.5-.3-.4-.6 0-.3.3-.5.6-.4l60.9 9c.3 0 .5.3.4.6 0 .2-.2.4-.5.4zm-14.9-45.3h-.1l-40.2-6c-.3 0-.5-.3-.4-.6 0-.3.3-.5.6-.4l40.2 6c.3 0 .5.3.4.6-.1.2-.3.4-.5.4zm-18-45.1h-.1l-22.6-3.1c-.3 0-.5-.3-.4-.6 0-.3.3-.5.6-.4l22.6 3.1c.3 0 .5.3.4.6-.1.2-.3.3-.5.4zm-15.9-42.8h-.1l-22.6-3.1c-.3 0-.5-.3-.4-.6 0-.3.3-.5.6-.4l22.6 3.1c.3 0 .5.3.4.6-.1.2-.3.4-.5.4z"/></svg>