<svg id="Layer_1" xmlns="http://www.w3.org/2000/svg" xmlns:xlink="http://www.w3.org/1999/xlink" viewBox="0 0 170.1 172"><style>.st1{fill:#fe9287}.st2{fill:#ffe2e1}.st3{fill:#ff6f68}.st4{opacity:.45;fill:#2d2c2f;enable-background:new}.st5{fill:#fff}.st6{opacity:.2}.st7{opacity:.5;fill:#fe9287;enable-background:new}.st9{fill:#f9d7d7}.st10{fill:#2d2c2f}.st11{fill:#424144}.st12{fill:#4b4a4c}.st13{fill:#242326}.st14{fill:#4d4d4d}.st15{fill:#ff3f3d}.st16{fill:#5b5a5a}.st17{fill:#666}.st18{fill:#a0a0a0}.st19{fill:#939393}.st20{fill:#2b2828}.st22{fill:#e52929}.st23{fill:#525252}</style><defs><path id="SVGID_1_" d="M129.9 153.8c-19.6 12.1-46.3-16.6-65.3-10.1C40.7 151.8-7.1 137 34.4 95 45 84.3 52.3 89 53.5 56.9 55 20.8 85.6 27.6 110 44c39.9 26.8 33.7 101.3 19.9 109.8z"/></defs><clipPath id="SVGID_2_"><use xlink:href="#SVGID_1_" overflow="visible"/></clipPath><g clip-path="url(#SVGID_2_)"><path class="st1" d="M42.5 177.6c2.5.2 5 .2 7.5.1 8.2-.4 16.2-.9 24.5-1.6 6.9-.6 13.6-1.4 20.6-2.4 4.4-.6 8.4-1.7 12.8-2.8 2.2-.5 4.3-1.2 6.4-2.1 18.8-8.6 38.7-14.5 56.1-25.5 5.1-2.2 10-5.1 14.2-8.7l-22.9-23H-17v60c8.3 1.2 16.1 2.1 24.3 2.9 11.9 1.1 23.4 2.5 35.2 3.1z"/><path class="st2" d="M-17-18.2v129.7h178.6s0-62.3 1.5-83.4c.8-11.3-1.3-45.3-1.3-45.3l-178.8-1z"/><path class="st3" d="M-17 109.5s65.4 1.1 87.2 1.1c22.9 0 91.5-1.1 91.5-1.1v2.1s-68.4 1.1-91.2 1.1c-21.9 0-87.5-1.1-87.5-1.1v-2.1z"/><path class="st4" d="M84.1 12.4s-1.8 42.2 0 42.2c8.9-.1 31.1 7.1 37.3.9 6.4-6.4.3-33.3-1.6-41-.3-1.2-1.4-2.1-2.6-2.1H84.1z"/><path class="st5" d="M83.2 11.7h35.2v42.2H83.2V11.7z"/><g class="st6"><path class="st1" d="M90.4 45.7c-1.9-.3-3.8.2-5.4 1v5.1h31.7V39.5c-2.1 1.4-4.3 2.9-6.6 4.5-6.1 4-13.1 2.7-19.7 1.7z"/><path class="st1" d="M97.5 32.9c-4-1-8.4-2.9-12.6-3.2v4c.1.1.2.1.3.2 4 2.3 7.3 5.4 11.4 7.1 3.1 1.4 6.6 1.8 10 1.5 1.7-.2 3.1-1.2 4.4-2.2 1.9-1.3 3.7-2.7 5.5-4v-4.7c-5.6 4.4-12.6 3-19 1.3zm-1.9-15c-3.6-.6-7.3.1-10.7 1.3V23c5.7 2.7 11.8 4.1 18.2 5.3 3.8.7 7.3-.2 10.6-2 1-.6 2-1.1 2.9-1.6v-4.6c-6.8 1-13.9-1-21-2.2z"/><path class="st7" d="M84.9 13.8v5.4c3.4-1.2 7.1-2 10.7-1.3 7.1 1.2 14.2 3.2 21 2.2v-6.3H84.9zm28.8 12.5c-3.2 1.8-6.8 2.7-10.6 2-6.4-1.2-12.5-2.5-18.2-5.3v6.6c4.2.3 8.6 2.2 12.6 3.2 6.4 1.7 13.5 3.1 19.1-1.4v-6.8c-.9.6-1.9 1.1-2.9 1.7zm-7 16.1c-3.4.3-6.9-.2-10-1.5-4.1-1.8-7.4-4.8-11.4-7.1-.1-.1-.2-.1-.3-.2v13c1.7-.8 3.5-1.3 5.4-1C97 46.7 104 48 110 44c2.3-1.6 4.5-3 6.6-4.5v-3.3c-1.8 1.3-3.6 2.7-5.5 4-1.4 1-2.8 2-4.4 2.2z"/></g><path class="st4" d="M38.2 52.9s-1.8 42.2 0 42.2c8.9-.1 31.1 7.1 37.3.9 6.4-6.4.3-33.3-1.6-41-.3-1.2-1.4-2.1-2.6-2.1H38.2z"/><path class="st5" d="M37.3 52.2h35.2v42.2H37.3V52.2z"/><g class="st6"><path class="st1" d="M44.5 86.1c-1.9-.3-3.8.2-5.4 1v5.1h31.7V80c-2.1 1.4-4.3 2.9-6.6 4.5-6.1 4-13.1 2.7-19.7 1.6z"/><path class="st1" d="M51.6 73.3c-4-1-8.4-2.9-12.6-3.2v4c.1.1.2.1.3.2 4 2.3 7.3 5.4 11.4 7.1 3.1 1.4 6.6 1.8 10 1.5 1.7-.2 3.1-1.2 4.4-2.2 1.9-1.3 3.7-2.7 5.5-4V72c-5.5 4.5-12.6 3-19 1.3zm-1.8-14.9c-3.6-.6-7.3.1-10.7 1.3v3.8c5.7 2.7 11.8 4.1 18.2 5.3 3.8.7 7.3-.2 10.6-2 1-.6 2-1.1 2.9-1.6v-4.6c-6.9 1-14-1-21-2.2z"/><path class="st7" d="M39 54.3v5.4c3.4-1.2 7.1-2 10.7-1.3 7.1 1.2 14.2 3.2 21 2.2v-6.3H39zm28.8 12.4c-3.2 1.8-6.8 2.7-10.6 2-6.4-1.2-12.5-2.5-18.2-5.3V70c4.2.3 8.6 2.2 12.6 3.2 6.4 1.7 13.5 3.1 19.1-1.4V65c-.9.7-1.9 1.2-2.9 1.7zm-7 16.2c-3.4.3-6.9-.2-10-1.5-4.1-1.8-7.4-4.8-11.4-7.1-.1-.1-.2-.1-.3-.2v13c1.7-.8 3.5-1.3 5.4-1 6.7 1.1 13.6 2.4 19.7-1.7 2.3-1.5 4.5-3 6.6-4.5v-3.3c-1.8 1.3-3.6 2.7-5.5 4-1.5 1.1-2.8 2.1-4.5 2.3z"/></g><path class="st4" d="M114.2 62.5s-2.2 25.1 0 25c10.7-.1 37.6 4.2 45.1.5 7.7-3.8.4-19.8-1.9-24.3-.4-.7-1.7-1.2-3.2-1.2h-40z"/><path class="st5" d="M113 62.1h42.5v25H113v-25z"/><g class="st6"><path class="st1" d="M121.7 82.3c-2.4-.2-4.6.1-6.6.6V86h38.3v-7.3c-2.6.9-5.2 1.7-8 2.6-7.2 2.4-15.6 1.6-23.7 1z"/><path class="st1" d="M130.3 74.7c-4.8-.6-10.2-1.8-15.2-1.9v2.4l.4.1c4.8 1.4 8.8 3.2 13.8 4.2 3.8.8 8 1.1 12.1.9 2-.1 3.7-.7 5.4-1.3 2.3-.8 4.5-1.6 6.7-2.4v-2.8c-6.9 2.6-15.4 1.8-23.2.8zm-2.2-8.9c-4.4-.4-8.8.1-13 .8v2.2c6.9 1.6 14.3 2.4 22 3.1 4.3.4 8.6 0 12.8-1.2 1.2-.3 2.4-.6 3.5-.9v-2.7c-8.2.6-16.8-.6-25.3-1.3z"/><path class="st7" d="M115.2 63.4v3.2c4.1-.7 8.5-1.2 13-.8 8.5.7 17.1 1.9 25.4 1.3v-3.8h-38.4zm34.7 7.4c-4.1 1.2-8.5 1.6-12.8 1.2-7.7-.7-15.1-1.5-22-3.1v3.9c5 .2 10.4 1.3 15.2 1.9 7.8 1 16.3 1.9 23.1-.8v-4c-1.1.2-2.3.5-3.5.9zm-8.5 9.5c-4.2.2-8.3-.1-12.1-.9-5-1-9-2.9-13.8-4.2l-.4-.1v7.7c2-.5 4.2-.8 6.6-.6 8 .6 16.5 1.4 23.8-1 2.8-.9 5.4-1.8 8-2.6v-2c-2.2.8-4.4 1.6-6.7 2.4-1.7.6-3.3 1.2-5.4 1.3z"/></g><path class="st4" d="M43.6 122c3.9.7 7.5.8 4.1 3.4-3.5 2.6-22.7 8.3-28.3 6-3.9-1.6-12.5-4.4-15.8-4.6-8.3-.7-6-4.6-6-4.6 16.3 0 43.3-.7 46-.2zm9.1 18c16 .9 15.7-8.3 27.8-8.9 34.8-1.6 71.1 15.9 60.7 22.6s-33.1 2.2-45.1.8-26.7 2.9-37.4 2.9-8.4-9.7-19.1-10.3c-10.7-.5 6-7.5 13.1-7.1z"/></g><path class="st4" d="M123.6 112.8c2.9-1.2 9.3-.9 12.4-.1.2 0 3.1 5.6-1 7.1-6.8 2.6-13.7-6.1-11.4-7z"/><path d="M123.6 101.9c1 1.3 2.6 1.6 4 2.2 3.1 1.3 6.4 1.8 9.6 2 .7-3.5 1.3-7 1.3-7h-16.4s.1.7.4 1.6c.4.5.7.8 1.1 1.2z" fill="#f4d3d3"/><path class="st2" d="M127.6 104.1c-1.4-.6-3-.9-4-2.2-.3-.4-.7-.8-1.1-1.1l.3 1.2c.6 2.4 1.6 10.7 2.4 11.3 2.5 1.9 7.9 2.1 10.5.2.2-.1.9-3.8 1.6-7.4-3.4-.2-6.6-.7-9.7-2z"/><path class="st5" d="M139.1 100.5v-1.8h-1.6c-3.6-1.5-12.4-1.8-15.2 0h-.8v1.7h.1c2 3.9 16.9 3.7 17.5.1z"/><path class="st9" d="M124.2 97l2 2.9c.3 0 .6 0 .9-.1l-2-2.8c-.3-.1-.6-.1-.9 0z"/><path class="st2" d="M127.9 97.3c-.9-.2-1.9-.4-2.8-.4l2 2.8h.6c.6-.1 1.1-.6 1.4-1.2.3-.7-.7-1-1.2-1.2zm-4-.3c-1.4.3-2.4.8-2.4 1.5 0 .5.3 1 .9 1.4 1.3 0 2.5 0 3.8-.1l-2-2.9c-.1.1-.2.1-.3.1z"/><path class="st1" d="M134.4 99.1c0 .2 0 .5.1.8h.1c.2-.8.1-1.6.2-2.4 0-.2.1-.3.1-.5h-.3c0 .6-.1 1.3-.2 2.1z"/><path class="st9" d="M134.9 96.9c0 .2-.1.3-.1.5-.1.8 0 1.6-.2 2.4h-.1c0-.2-.1-.5-.1-.8.1-.7.2-1.5.2-2.2-3.4-.5-8-.5-10.8.1 1.4-.1 2.7 0 4.1.4.5.1 1.5.5 1.2 1.1-.2.6-.7 1.1-1.4 1.2-1.8.1-3.5.2-5.3.2 3.6 2.4 16.7 1.6 16.7-1.2 0-.7-1.7-1.3-4.2-1.7z"/><path class="st10" d="M135.8 100c-2.1-1.1-9.3-1.3-11.1-.1 2.3 1.4 8.3 1.1 11.1.1z"/><path class="st11" d="M127.8 47.9l1.8 16.8c3.1.2 6.4-4 3.3-8.1-2.4-3.1-3.7-3.8-3-5.9.4-1.4-2.2-4.4-2.1-2.8z"/><path class="st11" d="M130.7 57.8c.6-1.2.6-2.5.2-3.7.5.7 1.2 1.4 2 2.5 3.1 4.1-.2 8.2-3.3 8.1l-.2-1.8c.1-1 .1-2 .2-2.9.1-.9.7-1.5 1.1-2.2z"/><path class="st12" d="M129.8 50.7c-.4 1.4 0 2.2 1 3.4.4 1.2.5 2.5-.2 3.7-.4.8-1 1.3-1.1 2.2-.1.9-.1 1.9-.2 2.9l-1.6-15c0-1.6 2.6 1.4 2.1 2.8z"/><path class="st10" d="M129.5 64l4.5-3.2v-.1h-.1l-4.4 3.3zm-.2-3.5l4.2-3v-.1h-.1l-4.1 3.1c-.1-.1-.1 0 0 0-.1 0-.1 0 0 0-.1 0-.1 0 0 0zm-.6-3.4c.1 0 .1 0 0 0l2.8-2V55h-.1l-2.7 2.1c0-.1 0-.1 0 0 0-.1 0-.1 0 0zm-.3-3.5s.1-.1 0 0l1.4-.9v-.1h-.1l-1.3 1c0-.1 0-.1 0 0 0-.1 0-.1 0 0 0-.1 0 0 0 0zm-.3-3.3l1.4-.9v-.1h-.1l-1.3 1c-.1-.1-.1-.1 0 0-.1 0-.1 0 0 0z"/><path class="st12" d="M128.5 72.6c-1.4 1.3-.8 2.4-.6 2.7l3.3-3.9h-.1c-.4.1-1.8.4-2.6 1.2z"/><path class="st11" d="M131.2 71.5v-.1l-3.2 4c.2.1 1.5.6 2.5-1.2.5-.9.6-2.3.7-2.7z"/><path class="st10" d="M131.2 71.3l-3.3 3.9-.7.8v.1h.1l.7-.8c0 .1 3.2-4 3.2-4z"/><path class="st10" d="M128.2 75l-.3-1.7.3 1.7zm1.6-2l-.2-1.1.2 1.1c.1 0 0 0 0 0zm.8-1l-.1-.5.1.5zm-1.6 2l-.3-1.6.3 1.6z"/><path class="st10" d="M128.2 75c0-.1 0-.1 0 0 0-.1 0-.1 0 0l1.8-.2-1.8.2zm1.6-2c0-.1 0-.1 0 0 0-.1 0-.1 0 0l1.1-.2-1.1.2zm.8-1l.5-.1-.5.1zm-1.6 2l1.6-.2-1.6.2zm-1.2-5.3c0-.1.1-.1.2-.1s.1.1.1.2l-3.4 31.6h-.3l3.4-31.7z"/><path class="st10" d="M136 46.7l-8.1 21.7c-.1.3 0 .5.3.7 3.6 1.8 6.3.5 7.5-2.3.7-1.6.9-3.8.5-6.1-1-5.4-1.1-7.2.7-9.3 1.2-1.4-.1-6.7-.9-4.7z"/><path class="st10" d="M135 54.6c0 .1-.2.2-.2.3-.2.5-.2.9-.3 1.4-.1.3 0 .5-.1.8l-.3 1.5c-.4 2.7.1 5.2-.5 7.8-.3 1-1.3 1.4-2.2 1.6-1.1.3-2.3.5-3.4.4l8.1-21.7c.8-2 2.1 3.3.8 4.8-.1.1-.2.3-.3.4-.9.7-1.5 1.6-1.6 2.7z"/><path class="st13" d="M127.9 68.4c1.1.2 2.3-.1 3.4-.4.9-.2 2-.6 2.2-1.6.6-2.6.1-5.2.5-7.8.1-.5.1-1 .3-1.5.1-.3 0-.5.1-.8.1-.5.1-.9.3-1.4 0-.1.2-.2.2-.3.2-1.1.7-2.1 1.6-2.8-1.5 2-1.3 3.8-.4 8.9.4 2.3.2 4.4-.5 6.1-1.2 2.8-3.9 4.1-7.5 2.3-.2-.1-.3-.4-.2-.7z"/><path class="st11" d="M128.1 68.1l7.6-1.2v-.1h-.1l-7.5 1.3c0-.1-.1-.1 0 0-.1-.1 0 0 0 0zm1.9-4.6l6.2-1v-.1h-.1l-6.2 1c.1 0 0 0 .1.1-.1-.1 0 0 0 0zm1.5-4.6l4.1-.6v-.1h-.1l-4.1.6c.1 0 0 0 .1.1-.1-.1 0 0 0 0zm1.8-4.6l2.3-.3v-.1h-.1l-2.3.3c.1 0 0 0 .1.1-.1-.1 0 0 0 0zm1.6-4.4l2.3-.3v-.1h-.1l-2.3.3c.1 0 0 0 .1.1-.1 0 0 0 0 0z"/><path class="st10" d="M141.5 81.8c.3 2-.9 3.7 1.5 5-1.6.7-3 .6-4 .1.8-1 .5-2.5.7-3.8.2-.9 1-1.3 1.8-1.3z"/><path class="st13" d="M137.2 83.2c1.8-5 3.7-3.3 4.1-2.2.1.3.2.5.2.8-.8 0-1.6.5-1.8 1.4-.3 1.2 0 2.7-.7 3.8-1.5-.9-2.2-2.5-1.8-3.8z"/><path class="st11" d="M138.5 80.6s.1-.1 0 0h.1c-.3 1.8 0 3.2.9 4.3 1.1 1.3 2.7 1.7 3.3 1.8v.1c-.6-.1-2.3-.5-3.3-1.9-.9-1-1.2-2.5-1-4.3zm-3.8 8.7c0-.1.1-.1.2-.1s.1.1.1.2l-4.8 10.8h-.3l4.8-10.9z"/><path class="st11" d="M135.3 84.9c.3-1.9.3-3.7 1.1-5.4.1-.2.4-.4.6-.5 1.1-.2 2.5-.2 3.4.6.1.1.2.2.3.2.2.3.4.7.6 1-1.6-.5-2.8.1-2.8 3.1 0 4.2-3.9 5.8-3.9 5.8 0-1.1-.1-2.2-.3-3.3.6-.3.9-.9 1-1.5z"/><path class="st12" d="M140.7 79.9c-.1 0-.2-.1-.3-.2-.9-.8-2.3-.8-3.4-.6-.3 0-.5.2-.6.5-.9 1.7-.8 3.5-1.1 5.4-.1.6-.4 1.2-.9 1.5-.2-1-.4-2.1-.8-3.1-1.7-4.7 3.9-8.4 7.1-3.5z"/><path class="st10" d="M134.7 89.9c1-1.8 1-4 1-6 0-1.9 0-3.6.9-4.4.7-.6 1.8-.7 3.4-.4V79c-1.7-.3-2.8-.2-3.5.4-1 .8-1 2.5-1 4.5.1 1.9.1 4.1-.8 6z"/><path class="st10" d="M137 88l-1.4-2.5-1.3.6v.1l1.2-.5L137 88zm1.3-2.2l-2.6-3.9-2.1 1.3.1.1 2.1-1.3 2.5 3.8zm.3-3.2l-2-3.2-2.9.4v.1l2.8-.3 2.1 3zm1.3-1.7l-.4-1.9-3-1.3v.1l3 1.3.4 1.8z"/><path class="st11" d="M123.1 95.7c2.1 3.5 4.7 2.7 5.3 2.5l-6.8-8.7v.3c0 .9.3 3.9 1.5 5.9z"/><path class="st12" d="M128.3 94.9c-.9-.8-2-1.1-2.9-1.9-.7-.6-1.3-1.3-1.8-2.1-.1-.1-.2-.3-.4-.4l-.4-.6c1.3.4 3.2 1.2 4.5 2.4 1.6 1.5 2 2.9 1.9 3.9-.1-.5-.5-1-.9-1.3z"/><path class="st11" d="M122.9 89.9l.4.6c.1.1.3.2.4.4.4.8 1.1 1.5 1.8 2.1.9.8 2 1.1 2.9 1.9.4.4.8.8 1 1.3 0 .7-.2 1.3-.6 1.8l-1.5.1-5.6-8.6.3.1c.1.1.5.2.9.3z"/><path class="st10" d="M121.6 89.6l6.8 8.7 1.5 1.8c.1.1.2.1.2 0 0 0 0-.1.1-.1v-.2l-1.5-1.8-7.1-8.4z"/><path class="st10" d="M128 97.3l-3.7-.2s-.1 0-.1.1c0 0 0 .1.1.1h3.7c0 .1 0 .1 0 0zm-3.5-4.2s0-.1 0 0l-2.4-.2s-.1 0-.1.1c0 0 0 .1.1.1h2.4c0 .1 0 0 0 0zm-1.6-2.1l-1.1-.1s-.1 0-.1.1c0 0 0 .1.1.1l1.1-.1c-.1.1 0 .1 0 0zm3.5 4.3c0-.1-.1-.1 0 0l-3.6-.3s-.1 0-.1.1c0 0 0 .1.1.1l3.6.1c-.1.1 0 0 0 0z"/><path class="st10" d="M128.5 93.5s0-.1 0 0c-.1-.1-.1 0-.1 0l-.5 3.8s0 .1.1.1.1 0 .1-.1l.4-3.8zm-3.7-2.9c-.1-.1-.1 0-.1 0l-.3 2.5s0 .1.1.1c0 0 .1 0 .1-.1l.2-2.5zm-1.9-.6c0-.1 0-.1 0 0-.1-.1-.1 0-.1 0l-.1 1.1s0 .1.1.1c0 0 .1 0 .1-.1V90zm3.8 1.8c0-.1 0-.1 0 0-.1-.1-.1 0-.1 0l-.4 3.5s0 .1.1.1c0 0 .1 0 .1-.1l.3-3.5z"/><path class="st12" d="M131.3 78c.1-.1.1-.3.1-.4.7-.8 1-1.4.8-2.5-.2-1.2 2.3-3.6 2-2.2L131.4 86c-1.1-2.5-1.1-5.4-.1-8z"/><path class="st11" d="M129 80c1-1.1 1.9-1.8 2.4-2.4 0 .1-.1.3-.1.4-1 2.6-.9 5.5.1 8l-.3 1.4c-2.7-.2-5.2-4.1-2.1-7.4z"/><path class="st10" d="M131.2 86.8l-3.6-3.2 3.6 3.2c.1 0 .1 0 0 0zm.6-3s-.1 0 0 0l-3.4-3 3.4 3c0-.1 0-.1 0 0zm.7-3l-2.2-2 2.2 2c.1 0 .1 0 0 0zm.6-3l-1.1-.9 1.1.9c.1 0 .1 0 0 0zm.6-2.8l-1.1-.9 1.1.9c.1-.1.1 0 0 0 .1 0 .1 0 0 0zm-2.5 14.7c0-.1.1-.1.1-.1.1 0 .1.1.1.1l1.3 4.4h-.3l-1.2-4.4z"/><path class="st10" d="M126.4 69.7l5.1 20.1c-3.5 1.5-5.8.1-6.7-2.5-.5-1.5-.4-3.4.1-5.3 1.3-4.6 1.6-6.1.3-8.2-.9-1.4.7-5.9 1.2-4.1z"/><path class="st10" d="M125 82c1.3-4.6 1.6-6.1.3-8.2-.9-1.4.6-5.9 1.2-4.1l1.1 4.2c-.2 3.2-.6 6.4.6 9.5.9 2.1 1.1 4.7.5 6.9-1.9-.1-3.2-1.3-3.8-3.1-.5-1.4-.5-3.3.1-5.2z"/><path class="st13" d="M128.1 83.5c-1.2-3.1-.8-6.3-.6-9.5l4 15.9c-1.1.5-2 .6-2.9.6.6-2.4.4-4.9-.5-7z"/><path class="st11" d="M131.3 89l-6.5-1.7v-.1h.1l6.4 1.8s.1 0 0 0zm-1.2-4.1l-5.3-1.4v-.1c0-.1 0 0 .1 0l5.2 1.5c0-.1 0-.1 0 0zm-.9-4.2l-3.5-.9v-.1h.1l3.4 1c0-.1 0 0 0 0zm-1.2-4.2l-2-.5v-.1h.1l1.9.6c.1 0 .1 0 0 0 .1 0 .1 0 0 0zm-.9-3.9l-2-.5V72h.1l1.9.6c0-.1 0-.1 0 0z"/><path class="st10" d="M96.4 120.5l-22.5-14.6-15.1 12.7-.3-.4 15-12.6-.9-.6.3-.4 1 .6 4.8-4 .2.2 17.5 19.1zm-22.1-14.9l19.2 12.5L78.6 102l-4.3 3.6z"/><path class="st10" d="M71.6 121.4l-7.5-18.6L78.2 114l11.5-11.7.3.3-11.5 11.7.6.5-.3.4-.7-.5-6.5 6.7zm-6.4-17.1l6.6 16.3 6.1-6.2-12.7-10.1z"/><path class="st11" d="M69.6 125.9c-3.1 25.8-3.6 27.4-2 27.8 1.7.4 2.2-1.2 4.1-20.3 1.1-10.7 2.5-21.9 2.7-26.4-.8-.7-1.7-1.4-2.7-1.9-.4 5.3-1.2 13.9-2.1 20.8z"/><path class="st14" d="M71.2 129.6c1.3-14.3 1.8-17.4 1.4-19.4-.2-1.2-.7 4.2-2.4 18.5-1.4 11.2-1.9 16.5-1.4 16.7 1.4.8 1.5-5.9 2.4-15.8z"/><path class="st10" d="M73.5 96.6c-.5-.3-1.1 3.2-1.7 8.7.5 2 1.7 3.4 2.5 4.2 1.6-13.4-.1-12.5-.8-12.9z"/><path class="st11" d="M57.4 120c-7 21.6-7.6 22.9-6.3 23.6 1.4.7 2.1-.6 6.9-16.6 2.7-9 5.8-18.3 6.7-22.2-.6-.8-1.2-1.5-2-2.2-1.3 4.3-3.5 11.6-5.3 17.4z"/><path class="st14" d="M58.1 123.5c3.5-12 4.4-14.6 4.4-16.4 0-1.1-1.3 3.5-5.2 15.5-3 9.4-4.4 13.8-4 14.1 1.2.9 2.4-4.9 4.8-13.2z"/><path class="st10" d="M65.6 95.5c-.4-.4-1.4 2.6-2.9 7.1.1 1.9.9 3.3 1.5 4.2 3.6-11.3 1.9-10.9 1.4-11.3z"/><path class="st11" d="M96.1 120.4c7 21.6 7.6 22.9 6.3 23.6-1.4.7-2.1-.6-6.9-16.6-2.7-9-5.8-18.3-6.7-22.2.6-.8 1.2-1.5 2-2.2 1.2 4.4 3.4 11.6 5.3 17.4z"/><path class="st14" d="M95.3 124c-3.5-12-4.4-14.6-4.4-16.4 0-1.1 1.3 3.5 5.2 15.5 3 9.4 4.4 13.8 4 14.1-1.1.8-2.4-4.9-4.8-13.2z"/><path class="st10" d="M87.9 95.9c.4-.4 1.4 2.6 2.9 7.1-.1 1.9-.9 3.3-1.5 4.2-3.6-11.2-1.9-10.8-1.4-11.3z"/><path class="st11" d="M80.3 118.3c1.5 17 1.7 18.1.7 18.3-1.1.2-1.4-.9-2.3-13.4-.5-7.1-1.2-14.4-1.2-17.4.5-.5 1.1-.8 1.8-1.1.3 3.4.6 9 1 13.6z"/><path class="st14" d="M79.2 120.7c-.6-9.4-.8-11.4-.5-12.7.2-.8.4 2.8 1.2 12.2.6 7.4.9 10.9.5 11-.9.4-.8-4-1.2-10.5z"/><path class="st10" d="M78.5 99c.3-.2.6 2.1.9 5.7-.3 1.3-1.2 2.2-1.7 2.7-.8-8.9.3-8.2.8-8.4z"/><path class="st15" d="M55.5 54.9c-2.1 10.8-5.9 34.5-2.8 39.1 3.1 4.5 17.6 9.3 21.5 9.3 3.9-.1 29.5-2.8 29.6-6.7 0-.3.1-1.3-.1-1.4-3-1.2-14.2-3.4-16.4-7.8-2.2-4.6-9.7-28.5-11.2-33.4-1.3-4.7-19.7-3.9-20.6.9z"/><path class="st3" d="M55.8 89.3c-.2-.3.4-.1.2-.4 1.6-.8.9-3.3.8-4.8-.1-.4-.5-.9-1-1.1-.9-.2-1.7-.4-2.5-.6-.1 3.1 0 5.8.3 7.9l.3-.1c.6-.3 1.3-.7 1.9-.9zm47.9 5.8c0-2.6-14.1-3.2-16.4-7.8-2.2-4.6-9.1-27.9-11.2-33.4-1.7-4.5-18.6-4.3-19.5.4-1 5.2-2.2 13.3-2.9 20.8 3.4-.8 6.8-1.4 10.4-.8 2.3.5 4.5 1 6.4 2.3 1 .7 1.8 1.7 2.7 2.5.6.7.9 1.6 1.4 2.4.2.3.3.7.4.9 2.8 6.2 9.1 9.3 15.9 10.3 2.6.4 5 1.5 7.8 2.2.9.2 1.6 1.2 1.4 2 2.2-.5 3.6-1.2 3.6-1.8zm-35.6 3.1c-2.6-.3-5.1-.5-7.7-.6 4.9 2.4 11.3 4.1 13.8 4 1.7 0 7.7-.8 13.9-1.9-1.7-.2-3.4-.5-5.1-1-4.9-1.4-9.9.2-14.9-.5z"/><path class="st15" d="M98.7 95.2c-2.8-.7-5.2-1.9-7.8-2.2-6.8-1-13.1-4.1-15.9-10.3-.1-.3-.2-.7-.4-.9-.5-.8-.7-1.7-1.4-2.4-.9-.8-1.7-1.9-2.7-2.5-2-1.3-4.1-1.9-6.4-2.3-3.6-.6-7 0-10.4.8-.2 2.5-.4 4.9-.5 7.1.8.2 1.7.4 2.5.6.6.2.9.7 1 1.1.1 1.6.7 4-.8 4.8.2.3-.4.1-.2.4-.7.2-1.3.6-2 .8l-.3.1c.2 1.3.5 2.3.9 3 1.1 1.6 3.3 3.1 5.9 4.3 2.5.1 5.1.3 7.7.6 5 .6 10-.9 15 .6 1.7.5 3.4.8 5.1 1 4.4-.8 8.9-1.7 11.9-2.7.5-.8-.2-1.7-1.2-1.9z"/><path class="st16" d="M111.2 96.6c.6.2 1.3.2 1.9.4 3.1 1 6.3.5 9.4 1.5.9.3 1.7.9 2.3 1.7.6-1.2.9-2.2 1-2.7.6-3.8-25.6-15.1-25.6-15.1s-2.5-5.1-6.1-7.5c-5.6-3.6-23.3-2.3-26.4 3.6-5.2 9.9 6.1 16.8 7.6 17.2 2 .5 6.3.9 10.4.8 1.7 0 3.4.1 5.1.4 1.3-.7 2.5-1.6 4-1.8 5.7-1.2 11 0 16.4 1.5zm-3.4 33.5c-1.4-2.5-3-5-2.3-8 1-5.3 4.6-9.1 6.1-14 .7-2.4 1.9-5.6.4-7.7-.5-.6-2-1.5-2.9-.6-.1.1-.2.2-.3.2h.6c-1.3 1.6-.9 6.8-2.1 9.7-1.7 4.4-4.6 9.9-5.4 23.3 0 .7-.8 1.1-1 1.7 1.8-1.3 4.6-1.2 6.6-2.6.7-.5.7-1.4.3-2z"/><path class="st17" d="M114.6 108.5c.4 1.5 2.1 1.8 3.8 1.9.2-.6.5-1.1.8-1.6-1.5-.4-3-.6-4.6-.3z"/><path class="st17" d="M118.4 110.4h1.5l.6-1.2c-.4-.1-.8-.2-1.3-.3-.4.4-.6.9-.8 1.5zm-3.1 9.8c-.3 0-.6-.1-.9-.1-.1.3-.2.5-.3.8.3 0 .6.1.9.1.1-.3.2-.6.3-.8z"/><path class="st17" d="M110.7 119.9c-.1 0-.2.2-.1.4 1.2.3 2.3.5 3.5.6.1-.2.2-.5.3-.8-1.2-.3-2.5-.6-3.7-.2zm2.2 3.2c.4 0 .8.1 1.1.1.1-.3.3-.6.4-.9-.3-.1-.7-.1-1-.1-.2.3-.3.6-.5.9z"/><path class="st17" d="M108.1 121.9c0 .4.4.5.6.6 1.4.2 2.8.5 4.2.6.2-.3.3-.6.5-1-1.7-.2-3.5-.1-5.3-.2zm12.3-12.8l.6-1.2c-.4 0-.8-.1-1.1-.2-.2.3-.5.6-.7 1 .4.2.8.3 1.2.4z"/><path class="st17" d="M122.4 98.5c-3.1-1-6.3-.5-9.4-1.5-.6-.2-1.3-.2-1.9-.4-5.4-1.6-10.7-2.8-16.4-1.7-1.5.3-2.7 1.2-4 1.8 5.9.9 11.2 3 18.1 3.1.1-.1.2-.2.3-.2.8-.8 2.4 0 2.9.6 1.5 2.1.4 5.3-.4 7.7-1.6 4.9-5.1 8.7-6.1 14-.7 3 .9 5.5 2.3 8 .4.7.4 1.6-.2 2-2 1.4-4.8 1.3-6.6 2.6-.2.4-.1.9.8 1.6 0 0 3.5 3.3 7.5 1.5.7.2 1.8-.1 2-.8.8-2.2-.4-4.6 0-6 .8-2.5 1.8-5.1 2.8-7.7-.4 0-.8-.1-1.1-.1-.3.6-.6 1.3-.8 2 .2-.7.4-1.3.8-2l-4.2-.6c-.2-.1-.6-.2-.6-.6 1.7.1 3.5 0 5.3.3.2-.4.5-.9.7-1.3-1.2-.1-2.3-.3-3.5-.6-.1-.1 0-.4.1-.4 1.2-.4 2.5-.1 3.7.2.1-.2.1-.4.2-.6-.1.2-.1.4-.2.6.3.1.6.1.9.1 1.5-3.5 3.1-6.8 4.5-9.9h-1.5c-1.7 0-3.3-.4-3.8-1.9 1.6-.3 3.1-.1 4.6.3.2-.3.5-.7.7-1-1.5-.2-2.9-.6-4.3-1.3-.2-.1-.4-.8 0-.9 1.9-.4 3.6 0 5.3.7.1-.2.2-.4.2-.6-.1.2-.1.4-.2.6.3.1.6.2.8.4 1.2-2.6 2.3-4.7 3.1-6.4-.7-.7-1.5-1.3-2.4-1.6z"/><path class="st17" d="M114.4 122.3c.2-.5.4-.9.6-1.4-.3 0-.6 0-.9-.1-.2.4-.4.9-.7 1.3.4.1.7.1 1 .2zm1.1-16.8c-.4.1-.2.8 0 .9 1.4.8 2.9 1.1 4.3 1.3.4-.5.7-1 1-1.6-1.6-.5-3.4-.9-5.3-.6zm6.2 1.1c-.3-.1-.6-.2-.8-.4-.3.6-.6 1.1-1 1.6.4.1.8.1 1.1.2.2-.5.5-1 .7-1.4z"/><path class="st18" d="M122.3 147.3c-.2-.2-.1 0-.2.4-2.9.7-5.6.6-8.2 0-.3.2-.6.3-.9.4-.8.3-1.6.3-2.4.4 3.8 1.2 8 1.8 11.1.7.5-.2.9-.6.9-1.1.1-.3 0-.6-.3-.8z"/><path class="st19" d="M113.9 147.7c-4.2-1-8.3-3.2-12.2-5.3-.1-.1 0-.4-.1-.5-.5.3-.8 1.3-.7 1.5.1.7 4.6 3.4 9.8 5.1.8-.1 1.6-.1 2.4-.4.2-.1.5-.2.8-.4z"/><path class="st10" d="M106.1 137.8c.5 1.7.7 3.5 1.9 4.7 3.8 3.8 9.1 4.7 14.3 4.7-.1-1.9-6.2-2.8-8.7-5.5-3.8-4.1-1.2-8.5-4-8.8-.4 0-.7 0-1.1.1-1.7 1-2.9 2.8-2.4 4.8z"/><path class="st13" d="M107.9 142.5c-1.2-1.2-1.4-3.1-1.9-4.7-.5-2 .7-3.8 2.4-4.8-1.8.4-3.1 2.3-3.1 2.3s-2.3-.5-3.5.1c-.2 1-.9 4.7-.5 7.1 2 1.1 5.6 3 8.3 4.1.1.1.3.1.4.2l.3.1c3.8 1.4 7.6 1.8 11.6.9.1-.1.1-.3.1-.5-5-.1-10.2-1-14.1-4.8z"/><path class="st10" d="M103.1 136c-.3.8 0 4.4.3 5.2.3.9.8 1.1 1.4.6s-.3-5.1-.2-5.9c0 .1-1.4-.1-1.5.1z"/><path class="st11" d="M100.2 66.4c-1.6-3.8-.2-8.1-.7-12.2-.1-.9-1.4-1.5-2.2-2.2-.5-.6-1-1.2-1.4-1.8-1.4 1.5-2.5 4.1-2.1 5.5 1.9 8.3 7.3 22.4 8.3 23.2.3.3 1.7-1 3.4-2.1-.4-.7-.8-1.4-1.1-2.1-1.4-2.9-3-5.5-4.2-8.3z"/><path class="st12" d="M113.5 72.8c-2.9-9.4-12.7-22.1-14.2-23.4-1.1-.9-2.4-.4-3.4.8.4.7.9 1.3 1.4 1.8.8.7 2.1 1.3 2.2 2.2.5 4.1-.9 8.4.7 12.2 1.2 2.9 2.8 5.5 4.2 8.3.3.7.7 1.4 1.1 2.1 1.6-1 3.4-1.8 4.9-1.2 2 .7 3.5-1.7 3.1-2.8z"/><path class="st2" d="M94.4 46.2c-2.2-.4-9.1-2.9-9.1-2.9L76.6 41l-3.3 3.3c3.8 0 7.7 0 11.5 1.1.5.1 1 .6 1.2 1 1.6 3.4 1.5 7.1.9 10.7.3.5.5 1.1.6 1.6-.1-.6-.4-1.1-.6-1.6-.4 2-.9 3.9-1.4 5.8-.5 1.6-1.4 3-2.5 4.4-.8 1.1-1.8 2-2.8 2.9 1.6 2.9 3 4.9 3.5 4.8 1.3-.1 12.9-28.5 10.7-28.8z"/><path class="st5" d="M79.9 48.5c1.6.9 3.3 2 4.2 3.7.2.3.7.7.8 1 .2.4.7.7.7 1.2.3-.1.2.4.5.3.1.9.4 1.6.8 2.4.7-3.6.7-7.3-.9-10.7-.2-.5-.7-.9-1.2-1-3.8-1.1-7.7-1.1-11.5-1.1l-1 1s-.5.5-.9 1.5c2.4.3 4.8.7 7.4.9.2.1.6.6 1.1.8z"/><path class="st2" d="M84.6 52.2c-.9-1.8-3.1-2.8-4.7-3.7-.5-.2-.8-.7-1.2-.8-2.5-.2-4.9-.6-7.4-.9-.6 1.4-1 3.8.7 7.3 1.7 3.8 5.4 11.2 8.2 16.1 1-.9 1.9-1.9 2.8-2.9 1.1-1.4 2-2.8 2.5-4.4.6-1.9 1.6-3.5 2-5.5-.2-1.1-2.7-4.9-2.9-5.2zm-2.1 22.9c-4.8 1.7-10.9 3.9-12.3 4.7 0 0-2.5 4.1-5 5.7-3.8 2.5-5.9 3.8-6.3 5.1-1.2 3.9 14.8 1.2 14.8 1.2l17.2-8.2c-3.5-1.9-6.5-5-8.4-8.5z"/><path class="st5" d="M88.8 73.1s-2.6.9-5.9 2c1.8 3.3 4.6 6.3 8 8 0 0 8.4-3.3 6.7-4.4-3.7-2.3-4.8-6.7-8.8-5.6z"/><path class="st3" d="M76.6 45.6c2.1 4 8.8 2.4 8.9-2.3.1-.7.7-2.5 1.4-4.5-2.3-.4-4.4-1.1-6-2.7-2.2 2.7-3.5 6.1-4.3 9.5z"/><path class="st15" d="M80.1 35.2c.3.3.6.7.9.9.8-1 1.8-1.8 2.8-2.5-2-1.2-4-2.2-4.4-1.1-.9 2.8-4.5 9.3-4.5 9.3-.2.9.5 2.3 1.7 3.8.9-3.4 2.1-6.9 4.4-9.5-.4-.3-.7-.6-.9-.9z"/><path class="st15" d="M83.7 33.6c-1.1.7-2 1.5-2.8 2.5 1.7 1.6 3.7 2.3 6 2.7.5-1.3.8-2.4.8-2.4s-1.9-1.6-4-2.8z"/><path class="st3" d="M81.1 32.7c1.5 3.2 2.4 6 8.3 6.2 4.3.2 4.1-2.1 4.4-5.7v-2.9c0-.7-.5-2.4-.8-3.3-.4-.9.3-6.1-2.6-6.6-2.8-.5-11.4-2.9-12.5-1.5-1.1 1.4 2.7 9.2 2.7 9.2s-3.3-1.1-3.2 2 2.2 2.8 3.7 2.6z"/><path class="st17" d="M83 25.1c.1-.2-5.8-1.4-5.8-1.4l-.4.7c-1.5 0-3.7.3-3.4 2.4.2 1.7 2.2 3.4 3 4.7.2.4.4.8.5 1.2.5 1.4 1 3 1 3 .5-.4 1.7-2 1.9-2.9-1.9-.2-2.3-2.8-2-3.6.6-2 3.9-1.7 4.4 1.6.2.1 1.1-.8 1.1-.8-.5-1.5-1.1-3-.3-4.9z"/><path class="st20" d="M89.7 31.2c-.5 0-1-.2-1.3-.6-.9-1-1.1-2.4-.5-3.5.3-.5.8-.9 1.3-.9 1.1-.1 2.2.9 2.3 2.3.2 1.4-.6 2.6-1.7 2.8.1-.1 0-.1-.1-.1zm-.2-4.8h-.2c-.4.1-.8.3-1.1.8-.6 1-.4 2.3.4 3.1.4.4.8.5 1.2.5.9-.1 1.6-1.2 1.4-2.4-.1-1.1-.8-2-1.7-2zm4.3 4c-.8 0-1.4-.9-1.6-2.2-.1-.6 0-1.1.2-1.7.2-.5.5-.8.9-.9.8-.1 1.6.8 1.7 2.2.2 1.3-.3 2.4-1.1 2.5 0 .1 0 .1-.1.1zm-.3-4.3c-.1 0-.1 0 0 0-.3 0-.6.3-.7.6-.2.5-.2 1-.2 1.5.1 1.1.7 1.9 1.3 1.9s1-1.1.8-2.1c-.1-1.1-.7-1.9-1.2-1.9z"/><path class="st20" d="M87.7 28.4L83 28c-.8-.1-1.2.1-1.8.5l.2.2c.6-.3.9-.5 1.6-.4l4.7.4c.1 0 .1-.1.1-.1 0-.2-.1-.2-.1-.2zm3.9-.3c-.1 0-.2-.1-.2-.2s.1-.2.2-.2l.7-.1c.1 0 .2.1.2.2s-.1.2-.2.2l-.7.1zm3.1-.8l-1.7-.1c0 .1.1.2.1.3l1.6.1c.1 0 .1-.1.1-.1 0-.2 0-.2-.1-.2z"/><path class="st10" d="M83.1 24.5c-.1.1-.2.3-.2.5v.1l.1.1c.2 0 .1-.3.1-.7zm-4.2-8.1s.7.9-.2.8c-.2 0-.5-.1-.7-.1-.1.2-.3.4-.4.6 1.5-.5 2.2 0 2.3 0 0 .1.1-1.3-1-1.3z"/><path class="st10" d="M92.3 22.1c-.1-.5.1-1.1.4-1.5.7-.8.2-1.7-.9-1.8 0 0 .7.4.1 1s-1.8-1.5-1.9-2.1c-.1-.5.3-.6.7-.6 0 0 .1 0 .1-.1 0 0 0-.1-.1-.1-.5-.1-1.4-.3-2 .2-.2.2-.2-.1-.7-.4-.3-.2-.5-1-1.2-.7-1-.4-2.6-1.1-4.3 0-1.3.8-2.8.3-3.9 1.2-2 0-3.4 1.4-3.9 2.2-2.3 1.1-.8 2.9-1.2 2.8-3.3-.2-.3 4.7 0 4.6.3 0 1.6-.8 2.7-1.5 1.7-.9 5.7-1 6.7-.3v-.1c0-.2 0-.4.2-.5-.1-.4-.2-.9.3-.8.7.2 1.6 1.3.8 1.6-.8.3-1.3-.7-.5-1-.2 0-.4.1-.6.2.1.4.2.7 0 .7L83 25c.1.7 1.7 1.1 2.3.1.6-.9-.6-2.6.4-2.2.7.2.7 1 .8.5.3-.9-.8-1.4-.3-1.5.7-.2 1.4-.3 2.1-.2 1.2.2 1.6 0 1.6-.6h-.1c-.1.2-.4.4-1.1.2 0 0-.6-.4-.3-.4.4 0 .9.1 1.3.2 0-.1.1-.1.1-.1v.1c.6.1 1.5-.4 1.6-.4.4.5.7.9.9 1.4z"/><path class="st10" d="M89.7 21.2l.1-.1c0-.1 0 0-.1.1zm-4.5-5c.2.3 1 .7 1.4.3.5-.4-.2-1.4-.6-1.3-.2 0-.3.1-.3.3.1-.2.2-.2.4 0 .2.3-.5.7-.8.4l-.1.3zm4.3 1.8c.6-.1 1.4 0 1.7.4.4.5.5.9.5 1.2 0 .3-.4.7-.4.7s.2-2-1.6-1.9c-1.3.2-.2-.4-.2-.4zm2.7 3.2c.3-.1 1.1.4 1 .9-.1.5-.7 1-.7 1l-.1-.3s.3-.5.2-.9c0-.3-.5-.4-.5-.4l.1-.3zm-18.5 5.3c-.2.2-.9.5-1.3 0s0-2 .1-2.2c.1-.2.3.7.3.7s-.2 1.2.1 1.4 1-.1 1-.1l-.2.2zm5.8-2.2c.1.3-.1 1-.8 1.1s-1.6-1.2-1.8-1.4c-.1-.2.8.2.8.2s.8.8 1.2.7c.3-.1.4-.9.4-.9l.2.3z"/><path class="st10" d="M72.8 25.3c-.6-.2-1.2-.9-1.2-1.5s.6-1 .6-1l.1.3s-.1.1 0 .7c0 .3.2.6.4.9l.1.6z"/><path class="st13" d="M58.9 84.1l-1.2 2.8s1.2 1.3 4.3.6c.4-1.5 1.3-3.6 1.3-3.6l-4.4.2zm29.4-19.6c-.3-1 .2-2 .4-3 0-.4.2-.8.5-1.1.9-.8 1.9-1.7 3-2 1.5-.4 3.6 1.6 4.5-.2.4-.8.7-1.8.6-2.7-.3-2.5-.3-5-.3-7.5-2.8-1.5-7.4-3.3-7.4-3.3s2.1 10.4-1.9 15.4c-6.4 8.1-1.6 14.7-.7 15 .9.3 5.4-1.4 5.4-1.4s.6.3.7-.2c.1-1 .4-1.9.8-2.8.4-.9.7-1.8 1-2.7-2.7-.3-5.8-.5-6.6-3.5z"/><path class="st10" d="M98.7 49.1c-.4-.3-1-.7-1.9-1.2 0 2.5 0 5 .3 7.5.1.9-.2 1.9-.6 2.7-.8 1.8-3.2-1.1-5.6.3-2.6 1.3-2.9 5-2.6 6 .8 3 3.8 3.2 6.3 3.4 1-3.3 1.9-7.7 3.4-10.1 2-3.2 1.7-7.7.7-8.6z"/><path class="st12" d="M95.6 45c-1.3-1-4.5-3.1-6.4-3.4 0 0 0 3.5.2 8.9.2 3.7-.5 7-1.9 9.6 0 0 1.8-2.7 3.3-3.3 1-.4 3.6.2 5 .6.4.1.7-.1.8-.5v-.3L96.2 46c-.1-.4-.3-.8-.6-1z"/><path class="st13" d="M86.4 40.5c-.4.9-.7 1.8-.8 2.8l3.8 1.3c0-.6.2-1.3.4-1.9.4-.9-.4-1.1-.4-1.1s-2.3-.9-3-1.1z"/><path class="st10" d="M69.5 59.5c.7 3.6-2.4 7.5.1 10.5.4.4 1.5 0 2.4.1 1.4.2 2.5.9 3.9 1.2 2 .3 5-.9 6.6.1 1.9-4 4-9.3 3.9-12.1 0-.5-.1-1-.2-1.5-1.5-.8-3.1-1.7-4.9-1.4-1.8.4-2.1 2.2-3.6 3-.3.1-.6.1-.8 0-.5-.3-1.1-.2-1.5-.7-1.7-2.9-3.5-5.3-4.5-8.5-.2-.6-.7-.8-1.2-.9-2.3-.4-5.1-.8-6.8 1.1-.8.9-1.3 2-2 3 .6 1.1 1.3 2.2 1.9 3.3 2.8-.2 6-.4 6.7 2.8zM59 79.6c-1.1 3.2-1.7 5.9-1.3 7.3.7-1.9 5.1-1.6 10.4-5.1 1.2-.8 2.4-1.5 3.7-2.1-4.3.2-8.5-.1-12.8-.1z"/><path class="st13" d="M82.5 71.4c-1.6-1-4.5.2-6.6-.1-1.4-.2-2.5-.9-3.9-1.2-.8-.1-2 .2-2.4-.1-2.5-2.9.6-6.8-.1-10.5-.7-3.2-4-3.1-6.7-2.9.7 1.3 1.5 2.5 2 3.4 1.3 2.4-3.3 12.2-5.8 19.5 4.3 0 8.5.3 12.8.1 2.5-1.2 5.1-2.3 7.7-3.2.3 0 1.6-2.2 3-5zm-3.8-21.8c-5.3-4.3-4.8-8.3-4.8-8.3-3.3.3-3.1 2.9-3.1 2.9s-7.4 2-11.4 5.1c-.5.4.3 2 1.4 4.1.7-1 1.2-2.1 2-3 1.7-2 4.5-1.5 6.8-1.1.5.1 1 .4 1.2.9.9 3.3 2.8 5.7 4.5 8.5.4.6 1 .5 1.5.7.3.1.6.1.8 0 1.5-.7 1.9-2.6 3.6-3 1.9-.3 3.4.6 4.9 1.4-.5-3.6-2.7-4.3-7.4-8.2z"/><path class="st11" d="M73.4 45.2c1-.6 2.8.1 3.6-.5-2-3.7-3.5-6.6-3.5-6.6-1.5.4-3 4.5-3.5 6.1-.1.4-.1.8.1 1.2l1.2 2.1c.5-.9 1.2-1.7 2.1-2.3z"/><path class="st12" d="M78.5 47.3c-.5-.9-1.1-1.8-1.5-2.7-.8.6-2.6-.1-3.6.5-.9.6-1.6 1.4-2.1 2.3l5.1 9.1c.2.3.6.5.9.3.1 0 .1-.1.2-.2.9-1.2 2.7-3.2 3.7-3.4 1.5-.4 3.4 1.2 3.4 1.2-.9-1.1-4.2-3.8-6.1-7.1z"/><path class="st13" d="M73.5 38h3.4l-1.1 2-.7 1.3-1.6-3.3z"/><path d="M76.6 45.2c-.3.1-.5.2-.8.4 1.2 2.2 4.4 7 5.1 7.2 2.2.7-1.6-3.5-4.3-7.6zm17-.6c.6-.1.4.7.5 1.1s.6 10.1.4 10.5-1-.3-1.4-.2c-.4 0 .2-11.4.5-11.4z" fill="#5e5d5e"/><path class="st19" d="M70.9 90.6c.8-.7 2-.8 2.6-1.8.9-1.3 1.3-3 2.6-3.6 1.8-.9 3.9-.6 5.9-.3 5.3.8 10.4.9 15.6.4L83.7 73.6S65.9 85.1 66.6 87.3c.6 1.8 1.6 4.1 3.1 5.9-.2-.9.4-1.9 1.2-2.6z"/><path class="st18" d="M82.3 93c.7-.6.9-1.3 1.1-2.1.6-2.9-3.1-4.6-4.1-7-1.3-.1-2 1-3.2 1.3-6.2 1.7-6.5 7.1-6.5 8 1 1.2 2.2 2.3 3.6 2.8 1.4 0 2.8-.2 4.2-.5 1.8-.4 3.6-1.1 4.9-2.5z"/><path class="st19" d="M88.9 86.6c-.6-.3-1.2-.7-1.8-1.1-1.7-.1-3.4-.3-5.1-.6-.7-.1-1.5-.2-2.2-.3 1 2.3 4.3 3.3 3.7 6.2-.2.8-.5 1.6-1.1 2.1-1.3 1.4-3.1 2-4.8 2.5-1.4.4-2.8.5-4.2.5.5.2 1.1.3 1.7.4 5.9.6 13.1-1.4 16.8-6l1.2-.6c-1.4-1.1-2.7-2.2-4.2-3.1z"/><path class="st18" d="M97.5 85.4c-3.5.3-6.9.4-10.4.1.6.4 1.2.8 1.8 1.1 1.5.9 2.8 2 4 3.3l6.1-3.2-1.5-1.3z"/><path class="st13" d="M132.1 94.3s2-2.4 2.9-1.7c2.9 2.3-1 9.4-2.5 9.1-1-.2-.4-7.4-.4-7.4z"/><path class="st1" d="M136.7 97l-2.4-.3-5.2-1.8s1.3-3.3 2.1-3.6c0 0 5.5 2.8 6.2 3.1 0 0 .3 2.6-.7 2.6z"/><path class="st18" d="M142.1 94.7v-.3h1.3c.3-.1 1.7 1.4 1.8 1.5.9 1.1-.3 1-.3 1s-2.6-2.2-2.8-2.2zm8 1.2c-.6-.1-1.1-.2-1.7-.2l-1.2 7.1c1.8-.1 3.5-.6 4.9-1.8v-.6c-.3-2.8-1.7-4.4-2-4.5z"/><path class="st19" d="M146.9 104.6l1.2.4c.7.3 1.6.2 2.3-.3.9-.6 1.7-1.7 1.7-3.7-1.4 1.2-3.1 1.7-4.9 1.8l-.3 1.8z"/><path class="st10" d="M136.1 97.8c2.9 1.2 5.6 2.4 8.3 4.3 1.5 1 3.5 1.1 5 .5l1.2-.6c.1-.3.1-.7.1-1 .1-1.4-.2-5.4-2.2-5.1s-3.2.8-4.2.3-1.5-1.7-2.2-1.7c-.6.1-4.1-1-6.1-1.7-.3-.1-.7.5-1 .8-.1.1.2.5.2.6-.3 0-.6 0-.9.1.1 1.3.6 3 1.8 3.5z"/><path class="st13" d="M149.3 102.5c-1.5.7-3.5.6-5-.5-2.7-1.9-5.4-3.1-8.3-4.3-1.1-.4-1.6-2.1-1.7-3.7-.7.2-1.3.8-1.5 1.7-.4 1.6.6 3.4 1.2 3.5 1 .2 2-.4 3.5.4 5.5 3.1 8.1 5.2 10.2 5 1.9-.2 2.5-1.6 2.7-2.8-.3.3-.7.5-1.1.7z"/><path class="st16" d="M135.1 93.4c.7.3 4.6 1.7 5.5 1.6.9-.1-.4-.9-.4-.9l-4.5-1.4c-.1.1-.8.7-.6.7z"/><path class="st19" d="M95.7 79.8c-.2-.4-.7-.5-.9-.4-.5.6-.9 1.3-1.2 2 .5-.2 1.1-.2 1.7-.2.2-.2.3-.4.5-.6 0-.3 0-.6-.1-.8z"/><path class="st19" d="M114.6 84.2c-10.9-4.4-20.6-7.8-23.9-9.4-1.8-.9-6.5-1.6-7-1.2-1.4 1-3.2 2.1-3.4 2.6-1.5 2.9 0 5.2.2 6.1.1.3.8 1.4 2.1 2.7 1.6.1 3.2.6 4.6.1 2.2-.9 4.1-3 6.3-3.6.3-.7.7-1.4 1.2-2 .2-.1.7 0 .9.4.1.3.1.6 0 .8-.2.2-.4.4-.5.6.4 0 .7.1 1.1.3.3.1.5.2.8.3.1-.1.2-.3.3-.4-.1 0-.2.1-.3.1.1 0 .2 0 .3-.1.1-.1.2-.3.3-.4-.1.1-.2.3-.3.4.4-.1.7-.4 1.1-.5l-.6 1.2c5.4 1.7 11.2 2.7 16.8 2z"/><path class="st19" d="M97.2 81.4c-.1.1-.2.3-.3.4.3.1.5.2.8.3l.6-1.2c-.3 0-.7.3-1.1.5zm35.9 17.8c-1-1.9-1.3-4.1-2.1-6.1-.1-.2-.4-.6-.4-.5-.4.3-.7.6-1.1.9-.8.7-1.3 1.7-1.5 2.8v.2c-.1.3-.4.7-.7.9 1.4.7 2 1.7 3.5 2.3.1 1.2 1.4 2.2 1.8 2.1-.4-.9.1-1.8.5-2.6z"/><path class="st18" d="M128 96.4c.1-.5 2.6-3.3 2.6-3.8-.6.5-3.8 3.2-4.6 3.2-3.8 0-7.3-2-11.1-3.2-5.3-1.6-10.7-.8-16.1-.6 7.9 1.2 21.2 4.6 27.9 5 .2.1.5.2.7.3.2-.2.5-.6.6-.9zm-32.5-8.2c0 .1.6-.1.7-.2.9-1.3.1-2.8.6-4.2.2-.6.6-1.2.9-1.7-.3-.1-.5-.2-.8-.3-1.2 1.9-2.2 4.1-1.4 6.4zm19.2-.7c.1-.2.2-.4.4-.6-.2.1-.3.3-.4.6-.6 1.2-1 2.5-.9 3.9 1.1-.9 1.8-3.2 2.1-4.8-.5-.2-1.2.2-1.2.9z"/><path class="st18" d="M133.6 91.7c-2.1-.2-5.3-1.9-7.9-2.9-3.7-1.6-7.5-3.1-11.1-4.6-5.6.7-11.4-.4-16.8-2.2-.3.6-.7 1.1-.9 1.7-.5 1.4.4 2.9-.6 4.2-.1.1-.7.4-.7.2-.8-2.4.2-4.6 1.4-6.5-.3-.1-.5-.2-.8-.3-.3-.1-.7-.2-1.1-.3-1.2 1.7-1 4.1-1.8 6.1-.2.5-.9.7-1.3.4-.4-.3-.1-.9-.1-1.5l-.3.6.3-.6v-.3.3c.6-1.6.9-3.3 1.6-4.8-2.2.6-4.1 2.7-6.3 3.6-1.4.5-3 0-4.6-.1 2.6 2.6 7.3 6.2 13 6.6.9.1 1.9.2 3.1.4 5.4-.2 10.9-1 16.1.6 3.8 1.1 7.3 3.2 11.1 3.2 1.9 0 3-2 4.6-3.2 0-.1.3.3.4.5.8 2 1.1 4.3 2.1 6.1.3-.6.7-1.2.6-1.8-.2-2.3-.4-4.6 1.3-4.8.1.3.5-.5-1.3-.6zm-19.8-.4c-.1-1.4.3-2.7.9-3.9 0-.7.7-1.1 1.2-1-.4 1.7-1.1 4-2.1 4.9zm4.7-3.2c-.5.8-.4 3.3-1.1 2.6-.5-.4-.3-1.4.1-2.3 0-.5.3-.9.7-1.1.2.2.4.6.3.8z"/><path class="st18" d="M117.5 88.4c-.4.9-.6 1.9-.1 2.3.7.7.6-1.8 1.1-2.6.1-.2-.1-.6-.2-.8-.5.2-.8.6-.8 1.1zM92 87.7c.4.4 1.1.1 1.3-.4.8-2 .7-4.3 1.8-6.1-.6-.1-1.1 0-1.7.2-.7 1.5-1 3.2-1.6 4.8.1.5-.2 1.2.2 1.5z"/><path class="st2" d="M61.5 89c-.5 1.4.4 3.8 2.7 3.2-2.6-.8-.3-3.6 3.5-5.4 3.9-1.9 6.8-3.1 6.5-6.9-.3-3.9-.7-.9-.7-.9s-10.9 7.3-12 10z"/><path class="st5" d="M59.8 89.4c.9-.7 1.7-1.5 4.3-2.9 5.7-3.1 10.2-2 9.9-5.9-.3-3.8-1.8-5.6-1.8-5.6s-2.1 6.9-9 9.3c-2.2 2.1-1.4 3-3.4 5.1z"/><path class="st11" d="M54.8 73.5c.6-3.3 1.7-6.2 2.5-9.5.4-1.6.9-3 1.4-4.6.4-1.2.7-2.4 1-3.6.7-2.2 1.6-4.4 3.5-5.8-1.6-1.2-3.2-1.7-4-.3-3.5 6.1-7.9 24-7.8 28.4.1 3.4 2.3 4.2 5.2 3.6-1.8-2.1-2.3-5.2-1.8-8.2z"/><path class="st12" d="M69 57.1c-.5-1.4-3.2-5.1-5.8-7-1.8 1.4-2.8 3.7-3.5 5.8-.4 1.2-.6 2.4-1 3.6-.5 1.6-1 3-1.4 4.6-.8 3.3-2 6.1-2.5 9.5-.5 3 0 6 1.7 8.3 1.3-.3 2.8-.9 4.2-1.6 4.4-2.4 2.9-4.5 2.9-4.5s.1-1.5 1.2-4.7c1.2-.3 5.1-11.3 4.2-14z"/><path class="st13" d="M77.7 75.3c.3-.4 1.7-2.5 2.4-2.6s.1 7.5-.9 7.8c-1 .3-1.8-4.8-1.5-5.2z"/><path class="st3" d="M85.5 73.7c.6.1 2.6 0 2.9-.2s0 1.3-1 1.3c-.9.1-1.9-1.1-1.9-1.1z"/><path class="st1" d="M78.5 78c1.2 0 3.4 1.3 5.3 1.1 0 0 1.9 1.8 2.1 2 .2.2.5 1.5.9 1.7.5.2-.1-1.9-.1-2.2-.1-.2-.9-1.5-.9-1.6.2-.3 1 .9 1.4 1.1 0 0 .8 1.4 1.4 1.6.6.2-.4-1.9-.5-2.1-.1-.2-.8-1.5-1-1.8-.1-.2.2-.3.6 0 .3.3 2.2 2.7 2.9 2.7.7 0-.9-2.1-1.1-2.5-.3-.4-1.5-1.6-1.7-1.8s0-.4.6.1c.5.4 1.4.8 1.5.8 0 0 1.1 1.4 1.7 1.4.4 0-.7-1.7-.9-2.1-.3-.5-3.7-2.9-4.3-3.2s-6.6-.5-7.8-.2-2.6 5.1-.1 5z"/><path class="st12" d="M77.2 73.1c.1.9.2 1.8.6 2.6.2-1 .8-2.1 2.2-3.1 0 0-.2-.8-3-.1.3.1.2.5.2.6zm-4.8 5c2.3-.3 2.8-2.9 3.8-4.8.1-.2.3-.5.5-.6h-.1c-1.3-.6-11.5-1.4-17.6-.9 0 0-2 3.5-4.1 5.7 5.7 1.7 11.6 1.5 17.5.6z"/><path class="st11" d="M77.8 75.8c-.4-.8-.6-1.8-.6-2.6 0-.2.1-.6-.2-.6l-.2.1c-.2.1-.3.4-.5.6-1 2-1.5 4.6-3.8 4.8-6 .9-11.9 1.1-17.5-.6-.7.7-1.3 1.3-1.9 1.6l-.4 2.3s11.8 4.7 24.9-.6c.1.3 1.8 0 1.6-.3-.7-1.2-1.7-2.9-1.4-4.7z"/><path class="st10" d="M76.2 74.5c-.6 2.9.3 5.4 1.4 6.3l-1.3.5c-.1 0-1.6-3.5-.1-6.8zm-19.1-.6s4.5-2.4 8-2.3c0 0-.2-.4-.9-.4-1.9-.1-4 .5-7.1 2.7z"/><path class="st22" d="M80.5 71.5c-.9 0-1.7-.6-2-1.7-.4-1.3.2-2.4 1.4-2.7 1.2-.3 2.4.4 2.8 1.6s-.4 2.4-1.6 2.8h-.6zm-.1-3.4h-.3c-.7.2-.8.9-.7 1.4s.6 1.1 1.3.9c.6-.2 1-.8.8-1.5-.1-.5-.5-.8-1.1-.8z"/><path class="st22" d="M88.2 66.2c0-.6-2.2-.8-4.8-.6s-2.8 1.1-2.8 1.1l.4.4c1.9-.5 3.9-.4 5.9-.1.7-.3 1.3-.6 1.3-.8z"/><path class="st2" d="M81 67.1l1.1 1.1c.8.1 3.3-.6 4.8-1.2-2-.3-4-.4-5.9.1z"/><path class="st15" d="M88.2 66.2l.1 7.4s-1.2.7-3.3.8c-2.1.1-3.4.1-3.8-2.1-.4-2.2-.5-5.5-.5-5.5s.6.5 3.6.4c2.4-.1 3.9-1 3.9-1z"/><path class="st13" d="M94.9 74.8s-2 2.2-2.6 1.9c-.6-.3-.5-6.7.2-7 .7-.3 1.9-.7 1.9-.7l.5 5.8z"/><path class="st1" d="M82.3 68.8c0 .2 2.1 1 2.7 1.2.5.1 2.5.2 2.4.5-.9.1-1.6.4-2.1.3-.4-.1-1.9-.2-2.2-.1-.6.1-.8.3-.6.4.2.1 2.2.7 2.6.7.4.1 2.6 0 2.6.3 0 .1-1.5.4-1.7.5-.2.1-2.4-.3-2.7-.3-.6.1-.9.4-.6.5.3.1 3.2 1 3.6 1 .2 0 1.4-.2 1.6-.2.2 0-.4.5-1.5.7h-1.6c-.4 0-.8.2-.4.3.6.2 2.2.5 2.4.5.1 0 3-.1 3.5 0s4.9-.2 5.4-.5c.6-.3 1.2-4.4 1.2-4.4s-3.3-1.4-4.2-1.6c-1.4-.4-4.3-1-4.5-1.1v1.2s-2.5.3-2.8.3c-.4-.2-3.1-.7-3.1-.2z"/><path class="st12" d="M113.5 72.8c-.9-1-6.3-3.9-7.7-3.7s-1.5 1-1.5 1-6.3-1.9-9-1.5v.1c.1.2.4.5.5.7.7 2.1-.6 4.6.7 6.4 3.3 4.6 9.9 3.3 14.5 1.3.8-.4 1.6-.9 2.4-1.6.3-.2.4-.6.6-.6 0-1.1-.2-1.9-.5-2.1z"/><path class="st11" d="M113.5 75.5c-.8.7-1.6 1.2-2.4 1.6-4.6 2-11.2 3.3-14.5-1.3-1.3-1.9-.1-4.3-.7-6.4-.1-.2-.4-.5-.5-.7v-.1c-.5.1-.9.2-1.1.5-.3.5.4 6.6-2.1 7.7 0 0 8.3 4.9 15.5 4.2 5-.5 6.3-3.8 6.3-6.2-.1.1-.2.5-.5.7z"/><path class="st5" d="M24.6 92.7c0-1.1.1-2.1.1-2.9.1-1.9 2.5-2.7 3.7-1.2 2.7-1.3 5.7-.9 6.4 1.1.7 2.1 2.3 1.8 2.9 1.9.3.1 1.9 2.3 1.7 4.4.1 2.4-4.4 3.5-5.2 3.3-2.7-.6-2.6-4.5-5.4-4.4-2.7.1-5 2.4-6.1 5-.4.7-1.1 1.1-1.5 1.9-.9 2.2-1.3 4.4-1.6 6.7-.3-.1-.5-.4-.5-.7-1-9.2 5.5-15.1 5.5-15.1z"/><path class="st2" d="M29 94.9c3.3 0 5.9-.5 9.4.7.4.1.7.6.5 1.1 0 .1-.1.1-.1.2-1 1.5-3.9 2.1-5.4 2.4 0 0-.9.3-1 .5-.4.7-1.7 1.3-2.9 3.4-1.5 2.7-7.9 6.3-9.9 5.3.5-2.3 2.2-13.6 9.4-13.6z"/><path class="st1" d="M29.1 99.1c1.8.1 3.5 0 5.3.2-.9.2-1.6.3-1.9.4-.2.1-1.6.5-3.4-.6z"/><path class="st10" d="M39.2 93.7s-1.7-1-1.6-2.1c0 0 1.6-.1 1.6.4v1.7z"/><path class="st13" d="M34.4 95c0 .4-.1.8-.3 1.2-.6 1.5-5.2 1.1-6.8-.9.5-.2 1.1-.3 1.7-.3 1.8-.1 3.7-.2 5.4 0z"/><path class="st10" d="M24.6 92.7s-.5-6.7 1-8.8c.1-.1.2-.1.3 0 0 0 .1 0 .1.1.7 1.7 2.3 2.6 2.5 4.7 0 0 2.4-1.2 4.3-.7s2.4 2.4 2.7 3c.3.5-.3.4-.6 1.1-.4 1.2-.4 2.2-.5 3.1-1.8-.1-3.6-.1-5.4-.1-.6 0-1.1.1-1.7.3-.2-.2-.3-.5-.4-.8-.4-1.4-2.3-1.9-2.3-1.9z"/><path class="st13" d="M28.9 125c.4-.3.6-1 .3-1.3-1.4-1.2-2.8-2.5-3.2-4.3-.1-.8-.2-1.9.4-2.6.6.1 8.2 6.9 8.2 6.9l-.8.9s-3.1-.3-3.7-.4c-.7-.1.2 1.4-.8 1.4h-1c0-.1.1-.2.1-.2.1-.3.3-.2.5-.4z"/><path class="st10" d="M24.2 120.4c-.3-1.7 1.6-3.6 2.2-3.6-.6.7-.6 1.8-.4 2.6.4 1.8 1.8 3.1 3.2 4.3.3.3.1 1-.3 1.3-.2.2-.4.1-.5.3 0 .1-.1.2-.1.2h-3.5s.2-1.6 1.7-1.9c0 .1-2-1.5-2.3-3.2z"/><path class="st2" d="M23 101.2c3.1.2 6.1 0 9.1-.9-.1.1-.1.1-.2.1-1.6 1.6-3.2 3.2-3.7 5.5-.3 1.6-.3 3.2-.1 4.8.6 3.3 1.5 6.8 4.2 8.8 2.2.2 4-1.5 4.7-3.4.3-1 .6-2.2 1-3.2 1.1 1.3 3.3 2.2 4.2 5 .4 1.3-2 5.7-6.5 6.5-4.4.9-10-4.7-10.3-7-.3-2.3-6.5-4.5-5.6-10 .4-2.3 1.5-4.5 3.2-6.2z"/><path class="st5" d="M32.4 119.5c-2.7-2-3.6-5.6-4.2-8.8-.3-1.6-.3-3.2.1-4.8.5-2.3 2.1-3.9 3.7-5.5.1-.1.2-.1.3-.2 4.3 3.1 4.9 8.8 5.1 11.2 0 .6.3 1.2.7 1.6-.4 1-.7 2.2-1 3.2-.7 1.8-2.6 3.5-4.7 3.3z"/><path class="st10" d="M42 123.8c.1-.5.4-.7.8-.8.1.2.3.3.6.4 1.2.3.9 2.2.9 2.2h-1.1c-.1-.8-.3-1.7-1.2-1.8z"/><path class="st13" d="M37.9 115.6c2.2.9 4 2.7 5.2 4.8-.4 1.1-.6 2.1-.3 2.6-.4.1-.7.4-.8.8.9.1 1.1 1 1.1 1.8h-3.2s.1-1.5-.7-2c-.7-.4-1.6-4.6-1.3-8z"/><path class="st10" d="M41.4 114.1c1.3 1.5 2.4 4.2 1.8 5.8-.1.2-.1.3-.2.5-1.1-2.1-2.9-3.9-5.2-4.8l.3-1.5c.3-1.6 1.7-1.8 3.3 0z"/><path class="st2" d="M22.3 122c-.6-4-.5-7.8-.2-11.6.1-1.2.2-2.6.9-3.6.9 1.9 1.6 4 1.6 4.9.1 2-1.3 9.4-1.1 11.9s-1.1 2.6-1.1 2.6H22c.6-1.4.6-2.9.3-4.2z"/><path class="st5" d="M22.2 121.3c0 .6-.2 1.2-.5 1.6-.3.3-.6.1-.9-.1 0-.2-.1-.4-.2-.6-1.1-2.8-2.3-16.8-1.1-19.2.4-.7.9-.4 1.6.4 1.1 1.4 1.6 3.3 1.2 5-.1.6-.2 1.2-.2 1.9-.3 3.7-.4 7.2.1 11z"/><path class="st2" d="M21.6 123.9c-.3-.1-.7-.3-1-.4.2-.1.3-.3.2-.7.3.3.6.4.9.1.3-.5.5-1 .5-1.6 0 .2.1.5.1.7.2.9.2 1.8.2 2.7-.2-.4-.5-.6-.9-.8z"/><path class="st5" d="M18.3 126.1c0-3 1.7-2.3 2.3-2.6.3.2.7.3 1 .4.4.1.7.4.8.8-.1.5-.2.9-.4 1.4h-3.7z"/><path class="st23" d="M21 126.2c-.1 0-.1-.1-.1-.1 0-1.4.3-1.8.4-1.8h.2v.2s-.3.3-.3 1.6c-.1 0-.1.1-.2.1zm-1.6 0c-.1 0-.1-.1-.1-.1 0-1.4.3-1.8.4-1.8h.2v.2s-.3.3-.3 1.6c-.1 0-.1.1-.2.1z"/><path class="st2" d="M34.1 122c.6-4 .5-7.8.2-11.6-.1-1.2-.2-2.6-.9-3.6-.9 1.9-1.6 4-1.6 4.9-.1 2 1.3 9.4 1.1 11.9s1.1 2.6 1.1 2.6h.4c-.7-1.4-.6-2.9-.3-4.2z"/><path class="st5" d="M34.2 121.3c0 .6.2 1.2.5 1.6.3.3.6.1.9-.1 0-.2.1-.4.2-.6 1.1-2.8 1.5-16.1-.5-18.6-1-1.2-.6.4-1.9 3.1.7 1 .8 2.4.9 3.6.3 3.7.4 7.2-.1 11z"/><path class="st2" d="M34.7 123.9c.3-.1.7-.3 1-.4-.2-.1-.3-.3-.2-.7-.3.3-.6.4-.9.1-.3-.5-.5-1-.5-1.6 0 .2-.1.5-.1.7-.2.9-.2 1.8-.2 2.7.3-.4.6-.6.9-.8z"/><path class="st5" d="M38 126.1c0-3-1.7-2.3-2.3-2.6-.3.2-.7.3-1 .4-.4.1-.7.4-.8.8.1.5.2.9.4 1.4H38z"/><path class="st23" d="M35.4 126.2c-.1 0-.1-.1-.1-.1 0-1.3-.3-1.6-.3-1.6v-.2h.2s.4.4.4 1.8c-.1 0-.1.1-.2.1zm1.6 0c-.1 0-.1-.1-.1-.1 0-1.3-.3-1.6-.3-1.6v-.2h.2s.4.4.4 1.8c-.1 0-.2.1-.2.1z"/><path class="st3" d="M31.5 99.6l.4.4c-3.2 2.6-7.7 2.4-10.3 2.1l.5-1.6c6.2.4 9.4-.9 9.4-.9z"/><path class="st1" d="M19.9 100.1c.8.1 1.6.2 2.3.3l-.5 1.6c-.7-.1-1.4-.2-2-.4-.3-.8.2-1.5.2-1.5z"/><circle class="st10" cx="27.3" cy="102.5" r="1.1"/></svg>